<?xml version="1.0" encoding="UTF-8" standalone="no"?>
<svg
   xmlns:dc="http://purl.org/dc/elements/1.1/"
   xmlns:cc="http://creativecommons.org/ns#"
   xmlns:rdf="http://www.w3.org/1999/02/22-rdf-syntax-ns#"
   xmlns:svg="http://www.w3.org/2000/svg"
   xmlns="http://www.w3.org/2000/svg"
   xmlns:sodipodi="http://sodipodi.sourceforge.net/DTD/sodipodi-0.dtd"
   xmlns:inkscape="http://www.inkscape.org/namespaces/inkscape"
   width="210mm"
   height="297mm"
   viewBox="0 0 210 297"
   version="1.1"
   id="svg8"
   inkscape:version="1.0.1 (3bc2e813f5, 2020-09-07)"
   sodipodi:docname="boy2.svg">
  <defs
     id="defs2" />
  <sodipodi:namedview
     id="base"
     pagecolor="#ffffff"
     bordercolor="#666666"
     borderopacity="1.0"
     inkscape:pageopacity="0.0"
     inkscape:pageshadow="2"
     inkscape:zoom="1.979899"
     inkscape:cx="418.41677"
     inkscape:cy="366.48779"
     inkscape:document-units="mm"
     inkscape:current-layer="illustration"
     inkscape:document-rotation="0"
     showgrid="false"
     inkscape:window-width="1267"
     inkscape:window-height="1040"
     inkscape:window-x="130"
     inkscape:window-y="0"
     inkscape:window-maximized="0" />
  <metadata
     id="metadata5">
    <rdf:RDF>
      <cc:Work
         rdf:about="">
        <dc:format>image/svg+xml</dc:format>
        <dc:type
           rdf:resource="http://purl.org/dc/dcmitype/StillImage" />
        <dc:title></dc:title>
      </cc:Work>
    </rdf:RDF>
  </metadata>
  <g
     inkscape:label="Layer 1"
     inkscape:groupmode="layer"
     id="layer1">
    <g
       id="g672"
       transform="matrix(0.26458333,0,0,0.26458333,-26.297693,7.5822124)">
      <g
         id="illustration">
	<path
   style="fill:#60504b"
   d="m 523.3,868 v 46.8 c 0,48.8 55.4,50.3 55.4,4.5 v -51.8 z"
   id="path251" />

	<rect
   x="535.70001"
   y="889.29999"
   style="fill:#ffffff"
   width="30.6"
   height="4.4000001"
   id="rect253" />

	<rect
   x="535.70001"
   y="897.70001"
   style="fill:#ffffff"
   width="30.6"
   height="4.4000001"
   id="rect255" />

	<rect
   x="535.70001"
   y="906.20001"
   style="fill:#ffffff"
   width="30.6"
   height="4.4000001"
   id="rect257" />

	<path
   style="fill:#60504b"
   d="m 420,868 v 46.8 c 0,48.8 55.4,50.3 55.4,4.5 v -51.8 z"
   id="path259" />

	<path
   style="fill:#3d527f"
   d="m 394.4,493.8 c 0,66.4 0,148.9 0,228.2 0,55.8 0,110 0,155.8 56.6,0 58.8,0 99.7,0 0,-46.8 0,-101.4 0,-154.5 0,-75.9 0,-148.8 0,-191.6 5.9,0 14.5,0 19.9,0 0,41.3 0,115.8 0,191.6 0,54.9 0,110.4 0,154.5 45,0 34.6,0 91.7,0 0,-43 0,-97.5 0,-154.5 0,-79.5 0,-164 0,-229.5 z"
   id="path261" />

	<rect
   x="432.39999"
   y="889.29999"
   style="fill:#ffffff"
   width="30.6"
   height="4.4000001"
   id="rect263" />

	<rect
   x="432.39999"
   y="897.70001"
   style="fill:#ffffff"
   width="30.6"
   height="4.4000001"
   id="rect265" />

	<rect
   x="432.39999"
   y="906.20001"
   style="fill:#ffffff"
   width="30.6"
   height="4.4000001"
   id="rect267" />

	<path
   style="fill:#99afb1;fill-opacity:1"
   d="m 376.9,509 c 0,-47.3 6,-116.9 31.1,-167.4 8.4,-16.8 18.9,-31.5 32,-42.5 15.7,-13.2 35.3,-21.2 59.4,-21.2 26.1,0 46.9,9.2 63.4,24.3 10.3,9.4 19,21.2 26.2,34.4 27.5,50.4 34.5,122.5 34.5,172.4 z"
   id="path269" />

	<line
   style="fill:none"
   x1="616.79999"
   y1="509.60001"
   x2="384"
   y2="509.60001"
   id="line271" />

	<ellipse
   style="fill:#ffffff"
   cx="500.89999"
   cy="304.29999"
   rx="22"
   ry="16.299999"
   id="ellipse273" />

	<path
   style="fill:#f3af9d"
   d="m 843.8,326.2 17,-6.8 c 0,0 6.1,5.5 13,11.2 6.9,5.7 -4.7,18.4 -15.3,10.6 -10.7,-7.8 -14.7,-15 -14.7,-15 z"
   id="path275" />

	<path
   style="fill:#f3af9d;fill-opacity:1"
   d="m 285.8,267.1 3,56.8 c 58.9,0.3 93.5,-2.3 119.3,17.7 l 48.7,-50.2 c -54.3,-26.7 -115,-27.7 -171,-24.3 z"
   id="path277" />

	<path
   style="fill:#f3af9d;fill-opacity:1"
   d="m 545.7,290.4 43.3,53.2 c 27,-16.2 67.7,-16.3 126.6,-16.7 v -56.8 c -56,-3.4 -99.2,-10.4 -169.9,20.3 z"
   id="path279" />

	<path
   style="fill:#f3af9d"
   d="m 291,273.7 c -47.7,2.7 -123.1,8.9 -160.2,14.2 -37.1,5.3 -40.1,40.1 5.3,39.5 45.4,-0.6 95.2,-3.5 159.7,-12.1 z"
   id="path281" />

	<path
   style="fill:#f3af9d"
   d="m 155.6,326.2 -17,-6.8 c 0,0 -6.1,5.5 -13,11.2 -6.9,5.7 4.7,18.4 15.3,10.6 10.7,-7.8 14.7,-15 14.7,-15 z"
   id="path283" />

	<path
   style="fill:#f3af9d"
   d="m 709.7,318.3 c 64.5,8.6 113.3,11.5 158.7,12.1 45.4,0.6 42.4,-34.2 5.3,-39.5 -37.1,-5.3 -114.5,-11.5 -162.2,-14.2 z"
   id="path285" />

	<path
   style="fill:#f3af9d"
   d="m 489.5,211.9 h 20.9 c 0,0 4.3,67.3 5.7,90.8 -2.1,9.7 -9.1,11.3 -15.5,11.1 -8.2,-0.2 -15.9,-4.7 -17.1,-12.5 z"
   id="path287" />

	<path
   style="fill:#dd9b8e"
   d="m 489.5,211.9 h 20.9 c 1.9,19 -21.6,89.4 -26.8,89.4 z"
   id="path289" />

	<path
   style="fill:#72605a"
   d="m 499,113 c -27,0 -89,8 -56,64 24.8,42.1 88,44 110,3 22,-41 -4,-67 -54,-67 z"
   id="path291" />

	<circle
   style="fill:#df7977"
   cx="560.20001"
   cy="182.8"
   r="12.1"
   id="circle293" />

	<circle
   style="fill:#df7977"
   cx="437.60001"
   cy="182.8"
   r="12.1"
   id="circle295" />

	<ellipse
   style="fill:#f3af9d"
   cx="499.79999"
   cy="177.39999"
   rx="57"
   ry="57.599998"
   id="ellipse297" />

	<g
   id="g309">
		<path
   id="rightMiddleLip_2_"
   d="m 487.5,209.6 c 0.3,0 0.5,0.3 0.5,0.5 0,0.2 -0.3,0.5 -0.5,0.5 -0.3,0 -0.5,-0.3 -0.5,-0.5 0,-0.2 0.3,-0.5 0.5,-0.5 z" />

		<circle
   id="upperLipBottomMid_1_"
   cx="499.29999"
   cy="209.89999"
   r="0.5" />

		<circle
   id="rightUpperLipBottom1_1_"
   cx="496.79999"
   cy="209.60001"
   r="0.5" />

		<path
   id="leftMiddleLip_2_"
   d="m 511.1,209.6 c 0.3,0 0.5,0.3 0.5,0.5 0,0.2 -0.3,0.5 -0.5,0.5 -0.2,0 -0.5,-0.3 -0.5,-0.5 0,-0.2 0.2,-0.5 0.5,-0.5 z" />

		<circle
   id="leftUpperLipBottom1_1_"
   cx="501.79999"
   cy="209.60001"
   r="0.5" />

		<path
   style="fill:#df7977;stroke:#df7977;stroke-width:2;stroke-miterlimit:10"
   d="m 488,210.1 c 0,0 7.7,-0.1 11.3,-0.1 3.6,0 11.9,-0.1 11.9,-0.1 0,0 -6.9,2.6 -11.9,2.6 -5.1,0 -11.3,-2.4 -11.3,-2.4 z"
   id="path304" />

		<circle
   id="lowerLipTopMid_2_"
   cx="499.29999"
   cy="211.89999"
   r="0.5" />

		<circle
   id="rightLowerLipTop0_2_"
   cx="496.79999"
   cy="211.39999"
   r="0.5" />

		<circle
   id="leftLowerLipTop0_2_"
   cx="501.79999"
   cy="211.39999"
   r="0.5" />

	</g>

	<g
   id="g321">
		<ellipse
   style="fill:#df7977"
   cx="464.10001"
   cy="196.5"
   rx="7.8000002"
   ry="6.1999998"
   id="ellipse311" />

		<ellipse
   style="fill:#2c323a"
   cx="464"
   cy="180.60001"
   rx="3.5999999"
   ry="5.8000002"
   id="ellipse313" />

		<circle
   id="rightEye0_1_"
   cx="468.60001"
   cy="160.2"
   r="0.80000001" />

		<circle
   id="rightEye1_1_"
   cx="473.79999"
   cy="156.5"
   r="0.80000001" />

		<circle
   id="rightEye5_1_"
   cx="473.79999"
   cy="162.5"
   r="0.80000001" />

		<circle
   id="rightEye2_1_"
   cx="480.10001"
   cy="156.5"
   r="0.80000001" />

		<circle
   id="rightEye3_1_"
   cx="485.29999"
   cy="160.7"
   r="0.80000001" />

		<circle
   id="rightEye4_1_"
   cx="480.10001"
   cy="161.7"
   r="0.80000001" />

	</g>

	<g
   id="g333">
		<ellipse
   style="fill:#2c323a"
   cx="532.79999"
   cy="179.60001"
   rx="3.5999999"
   ry="5.8000002"
   id="ellipse323" />

		<ellipse
   style="fill:#df7977"
   cx="533.20001"
   cy="196.5"
   rx="7.8000002"
   ry="6.1999998"
   id="ellipse325" />

		<circle
   id="leftEye0_1_"
   cx="528.20001"
   cy="160.2"
   r="0.80000001" />

		<circle
   id="leftEye1_1_"
   cx="523"
   cy="156.5"
   r="0.80000001" />

		<circle
   id="leftEye5_1_"
   cx="523"
   cy="162.5"
   r="0.80000001" />

		<circle
   id="leftEye2_1_"
   cx="516.70001"
   cy="156.5"
   r="0.80000001" />

		<circle
   id="leftEye3_1_"
   cx="511.5"
   cy="160.7"
   r="0.80000001" />

		<circle
   id="leftEye4_1_"
   cx="516.70001"
   cy="161.7"
   r="0.80000001" />

	</g>

	<g
   id="g342">
		<path
   style="fill:#2c323a"
   d="m 518.8,159.9 c 10.7,-5 14.2,-5 19.2,0.7 -5,-0.7 -5.7,2.8 -19.2,-0.7 z"
   id="path335" />

		<circle
   id="leftBrow1_1_"
   cx="530.09998"
   cy="148.7"
   r="0.80000001" />

		<circle
   id="leftBrow4_1_"
   cx="506.5"
   cy="150.8"
   r="0.80000001" />

		<circle
   id="leftBrow3_1_"
   cx="516.5"
   cy="147.60001"
   r="0.80000001" />

		<circle
   id="leftBrow0_1_"
   cx="534.09998"
   cy="151.60001"
   r="0.80000001" />

		<circle
   id="leftBrow2_1_"
   cx="523.79999"
   cy="147.2"
   r="0.80000001" />

	</g>

	<g
   id="g351">
		<path
   style="fill:#2c323a"
   d="m 478,159.9 c -10.7,-5 -14.2,-5 -19.2,0.7 5,-0.7 5.7,2.8 19.2,-0.7 z"
   id="path344" />

		<circle
   id="rightBrow1_1_"
   cx="466.39999"
   cy="148.3"
   r="0.80000001" />

		<circle
   id="rightBrow4_1_"
   cx="489.70001"
   cy="151.3"
   r="0.80000001" />

		<circle
   id="rightBrow3_1_"
   cx="479.89999"
   cy="147.3"
   r="0.80000001" />

		<circle
   id="rightBrow0_1_"
   cx="462.39999"
   cy="152"
   r="0.80000001" />

		<circle
   id="rightBrow2_1_"
   cx="472.60001"
   cy="147.3"
   r="0.80000001" />

	</g>

	<path
   style="fill:#72605a"
   d="m 456,138 c 1.9,7.7 62.3,20.7 82,-3 10,-12 9,-22 4,-25 -4.4,-2.6 -9,-6 -22,6 -1,-9 1,-15 -16,-17 -27.8,-3.3 -52.4,21 -48,39 z"
   id="path353" />

	<g
   id="g366">
		<path
   style="fill:#2c323a;stroke:#2c323a;stroke-width:2;stroke-miterlimit:10"
   d="m 496.4,185.8 c -1.2,0 -4.6,1.6 -5.8,5.2 -0.2,1.2 0.6,5.8 6,4.1 -0.1,-1 -4.7,-1.1 -4.5,-3.7 0.3,-1.8 2,-1.8 4.3,-5.6 z"
   id="path355" />

		<circle
   id="nose1_1_"
   cx="497.60001"
   cy="161.2"
   r="0.80000001" />

		<circle
   id="nose0_1_"
   cx="497.60001"
   cy="155.39999"
   r="0.80000001" />

		<circle
   id="nose3_1_"
   cx="497.60001"
   cy="173.8"
   r="0.80000001" />

		<circle
   id="rightNose0_1_"
   cx="486.89999"
   cy="178.3"
   r="0.80000001" />

		<circle
   id="rightNose1_1_"
   cx="492.10001"
   cy="178.3"
   r="0.80000001" />

		<circle
   id="nose2_1_"
   cx="497.60001"
   cy="166.7"
   r="0.80000001" />

		<circle
   id="nose4_1_"
   cx="497.60001"
   cy="179.10001"
   r="0.80000001" />

		<circle
   id="leftNose0_1_"
   cx="508"
   cy="178.3"
   r="0.80000001" />

		<circle
   id="leftNose1_1_"
   cx="503.20001"
   cy="178.3"
   r="0.80000001" />

	</g>

<rect
   style="fill:#99afb1;fill-rule:evenodd;fill-opacity:1"
   id="rect674"
   width="65.714294"
   height="42.85714"
   x="465.10715"
   y="374.19995" />
</g>
      <g
         id="skeleton_1_">
	<circle
   id="rightShoulder"
   cx="392.79999"
   cy="294.29999"
   r="8.1999998" />

	<circle
   id="rightElbow"
   cx="289.29999"
   cy="294.39999"
   r="8.1999998" />

	
		<circle
   id="rightWrist"
   transform="matrix(0.9951,-0.09853767,0.09853767,0.9951,-29.0274,13.8698)"
   cx="125.9"
   cy="300.79999"
   r="8.1999998" />

	<circle
   id="rightHip"
   cx="443.10001"
   cy="510.10001"
   r="8.1999998" />

	<circle
   id="rightKnee"
   cx="449.5"
   cy="670.29999"
   r="8.1999998" />

	<circle
   id="rightAnkle"
   cx="449.5"
   cy="878.29999"
   r="8.1999998" />

	<circle
   id="leftShoulder"
   cx="605.70001"
   cy="294.29999"
   r="8.1999998" />

	<circle
   id="leftElbow"
   cx="710.09998"
   cy="294"
   r="8.1999998" />

	<circle
   id="leftWrist"
   cx="873.5"
   cy="300.29999"
   r="8.1999998" />

	<circle
   id="leftHip"
   cx="559.5"
   cy="509.29999"
   r="8.1999998" />

	<circle
   id="leftKnee"
   cx="559.5"
   cy="670.29999"
   r="8.1999998" />

	<circle
   id="leftAnkle"
   cx="559.5"
   cy="878.29999"
   r="8.1999998" />

	<polygon
   style="fill:none;stroke:#000000;stroke-miterlimit:10"
   points="605.6,294.6 392.7,294.6 443,510.4 559.4,509.6 "
   id="polygon381" />

	<polyline
   style="fill:none;stroke:#000000;stroke-miterlimit:10"
   points="391.7,294.6 289,294.6 125.7,300.9  "
   id="polyline383" />

	<polyline
   style="fill:none;stroke:#000000;stroke-miterlimit:10"
   points="607.1,294.2 710.3,294.2 873.6,300.6  "
   id="polyline385" />

	<polyline
   style="fill:none;stroke:#000000;stroke-miterlimit:10"
   points="443,510.4 449.4,670.6 449.4,878.6  "
   id="polyline387" />

	<polyline
   style="fill:none;stroke:#000000;stroke-miterlimit:10"
   points="559.4,509.6 559.4,670.6 559.4,878.6  "
   id="polyline389" />

	<circle
   id="rightEye0"
   cx="468.60001"
   cy="160.2"
   r="0.80000001" />

	<circle
   id="rightBrow1"
   cx="466.39999"
   cy="148.3"
   r="0.80000001" />

	<circle
   id="rightBrow4"
   cx="489.70001"
   cy="151.3"
   r="0.80000001" />

	<circle
   id="nose1"
   cx="497.60001"
   cy="161.2"
   r="0.80000001" />

	<circle
   id="rightBrow3"
   cx="479.89999"
   cy="147.3"
   r="0.80000001" />

	<circle
   id="rightEye1"
   cx="473.79999"
   cy="156.5"
   r="0.80000001" />

	<circle
   id="rightBrow0"
   cx="462.39999"
   cy="152"
   r="0.80000001" />

	<circle
   id="rightBrow2"
   cx="472.60001"
   cy="147.3"
   r="0.80000001" />

	<circle
   id="rightEye5"
   cx="473.79999"
   cy="162.5"
   r="0.80000001" />

	<circle
   id="rightEye2"
   cx="480.10001"
   cy="156.5"
   r="0.80000001" />

	<circle
   id="rightEye3"
   cx="485.29999"
   cy="160.7"
   r="0.80000001" />

	<circle
   id="nose0"
   cx="497.60001"
   cy="155.39999"
   r="0.80000001" />

	<circle
   id="nose3"
   cx="497.60001"
   cy="173.8"
   r="0.80000001" />

	<circle
   id="rightNose0"
   cx="486.89999"
   cy="178.3"
   r="0.80000001" />

	<circle
   id="rightMouthCorner"
   cx="480.89999"
   cy="200.39999"
   r="0.80000001" />

	<circle
   id="rightNose1"
   cx="492.10001"
   cy="178.3"
   r="0.80000001" />

	<circle
   id="rightUpperLipTop0"
   cx="487.79999"
   cy="197"
   r="0.80000001" />

	<circle
   id="nose2"
   cx="497.60001"
   cy="166.7"
   r="0.80000001" />

	<circle
   id="nose4"
   cx="497.60001"
   cy="179.10001"
   r="0.80000001" />

	<circle
   id="upperLipTopMid"
   cx="498.39999"
   cy="196.8"
   r="0.80000001" />

	<circle
   id="rightUpperLipTop1"
   cx="494.29999"
   cy="195.89999"
   r="0.80000001" />

	<path
   id="rightMiddleLip"
   d="m 484.5,199.9 c 0.4,0 0.8,0.4 0.8,0.8 0,0.4 -0.4,0.8 -0.8,0.8 -0.4,0 -0.8,-0.4 -0.8,-0.8 0,-0.4 0.4,-0.8 0.8,-0.8 z" />

	<circle
   id="lowerLipBottomMid"
   cx="498.39999"
   cy="210"
   r="0.80000001" />

	<circle
   id="upperLipBottomMid"
   cx="498.39999"
   cy="200.39999"
   r="0.80000001" />

	<circle
   id="lowerLipTopMid"
   cx="498.39999"
   cy="203.5"
   r="0.80000001" />

	<circle
   id="rightUpperLipBottom1"
   cx="494.5"
   cy="199.89999"
   r="0.80000001" />

	<circle
   id="rightLowerLipTop0"
   cx="494.5"
   cy="202.8"
   r="0.80000001" />

	<circle
   id="rightLowerLipBottom1"
   cx="494.29999"
   cy="209.5"
   r="0.80000001" />

	<circle
   id="rightLowerLipBottom0"
   cx="487.29999"
   cy="206.7"
   r="0.80000001" />

	<circle
   id="rightEye4"
   cx="480.10001"
   cy="161.7"
   r="0.80000001" />

	<circle
   id="jawMid"
   cx="498.39999"
   cy="235.8"
   r="0.80000001" />

	<circle
   id="rightJaw7"
   cx="483.39999"
   cy="232.60001"
   r="0.80000001" />

	<circle
   id="rightJaw6"
   cx="473.39999"
   cy="225.89999"
   r="0.80000001" />

	<circle
   id="rightJaw5"
   cx="461.79999"
   cy="213.39999"
   r="0.80000001" />

	<circle
   id="rightJaw4"
   cx="455"
   cy="193.39999"
   r="0.80000001" />

	<circle
   id="rightJaw3"
   cx="454.20001"
   cy="171.7"
   r="0.80000001" />

	<circle
   id="rightJaw2"
   cx="454.20001"
   cy="162.2"
   r="0.80000001" />

	<circle
   id="rightJaw1"
   cx="455"
   cy="150.5"
   r="0.80000001" />

	<circle
   id="rightJaw0"
   cx="457.5"
   cy="141.2"
   r="0.80000001" />

	<circle
   id="topMid"
   cx="498.60001"
   cy="115.1"
   r="0.80000001" />

	<circle
   id="leftTop0"
   cx="518.29999"
   cy="117.6"
   r="0.80000001" />

	<circle
   id="leftTop1"
   cx="530.90002"
   cy="127.1"
   r="0.80000001" />

	<circle
   id="leftEye0"
   cx="528.20001"
   cy="160.2"
   r="0.80000001" />

	<circle
   id="leftBrow1"
   cx="530.09998"
   cy="148.7"
   r="0.80000001" />

	<circle
   id="leftBrow4"
   cx="506.5"
   cy="150.8"
   r="0.80000001" />

	<circle
   id="leftBrow3"
   cx="516.5"
   cy="147.60001"
   r="0.80000001" />

	<circle
   id="leftEye1"
   cx="523"
   cy="156.5"
   r="0.80000001" />

	<circle
   id="leftBrow0"
   cx="534.09998"
   cy="151.60001"
   r="0.80000001" />

	<circle
   id="leftBrow2"
   cx="523.79999"
   cy="147.2"
   r="0.80000001" />

	<circle
   id="leftEye5"
   cx="523"
   cy="162.5"
   r="0.80000001" />

	<circle
   id="leftEye2"
   cx="516.70001"
   cy="156.5"
   r="0.80000001" />

	<circle
   id="leftEye3"
   cx="511.5"
   cy="160.7"
   r="0.80000001" />

	<circle
   id="leftNose0"
   cx="508"
   cy="178.3"
   r="0.80000001" />

	<circle
   id="leftMouthCorner"
   cx="515.90002"
   cy="200.39999"
   r="0.80000001" />

	<circle
   id="leftNose1"
   cx="503.20001"
   cy="178.3"
   r="0.80000001" />

	<circle
   id="leftUpperLipTop0"
   cx="509"
   cy="197"
   r="0.80000001" />

	<circle
   id="leftUpperLipTop1"
   cx="502.60001"
   cy="195.89999"
   r="0.80000001" />

	<path
   id="leftMiddleLip"
   d="m 512.3,199.9 c 0.4,0 0.8,0.4 0.8,0.8 0,0.4 -0.4,0.8 -0.8,0.8 -0.4,0 -0.8,-0.4 -0.8,-0.8 0,-0.4 0.4,-0.8 0.8,-0.8 z" />

	<circle
   id="leftUpperLipBottom1"
   cx="502.39999"
   cy="199.89999"
   r="0.80000001" />

	<circle
   id="leftLowerLipTop0"
   cx="502.39999"
   cy="202.8"
   r="0.80000001" />

	<circle
   id="leftLowerLipBottom1"
   cx="502.60001"
   cy="209.5"
   r="0.80000001" />

	<circle
   id="leftLowerLipBottom0"
   cx="509.5"
   cy="206.7"
   r="0.80000001" />

	<circle
   id="leftEye4"
   cx="516.70001"
   cy="161.7"
   r="0.80000001" />

	<circle
   id="leftJaw7"
   cx="513.20001"
   cy="233"
   r="0.80000001" />

	<circle
   id="leftJaw6"
   cx="523.20001"
   cy="226.3"
   r="0.80000001" />

	<circle
   id="leftJaw5"
   cx="534.79999"
   cy="213.7"
   r="0.80000001" />

	<circle
   id="leftJaw4"
   cx="541.59998"
   cy="193.7"
   r="0.80000001" />

	<circle
   id="leftJaw3"
   cx="542.40002"
   cy="172.10001"
   r="0.80000001" />

	<circle
   id="leftJaw2"
   cx="542.40002"
   cy="162.5"
   r="0.80000001" />

	<circle
   id="leftJaw1"
   cx="541.59998"
   cy="150.8"
   r="0.80000001" />

	<circle
   id="leftJaw0"
   cx="539.09998"
   cy="141.60001"
   r="0.80000001" />

	<polyline
   style="fill:none;stroke:#000000;stroke-miterlimit:10"
   points="498.4,115.1 478.6,117.6 466.1,127.1 457.5,141.2    455,150.5 454.2,162.2 454.2,171.7 455,193.4 461.8,213.4 473.4,225.9 483.4,232.6 498.4,235.8 513.2,233 523.2,226.3 534.8,213.7    541.6,193.7 542.4,172.1 542.4,162.5 541.6,150.8 539.1,141.6 530.9,127.1 518.3,117.6 498.4,115.1  "
   id="polyline462" />

	<polyline
   style="fill:none;stroke:#000000;stroke-miterlimit:10"
   points="462.4,152 466.4,148.3 472.6,147.3 479.9,147.3    489.7,151.3  "
   id="polyline464" />

	<polygon
   style="fill:none;stroke:#000000;stroke-miterlimit:10"
   points="485.3,160.7 480.1,161.7 473.8,162.5 468.6,160.2 473.8,156.5 480.1,156.5 "
   id="polygon466" />

	<polyline
   style="fill:none;stroke:#000000;stroke-miterlimit:10"
   points="486.9,178.3 492.1,178.3 497.6,179.1 497.6,173.8    497.6,166.7 497.6,161.2 497.6,155.4  "
   id="polyline468" />

	<polyline
   style="fill:none;stroke:#000000;stroke-miterlimit:10"
   points="533.9,151.6 529.9,148.7 523.6,147.2 516.3,147.6    506.3,150.8  "
   id="polyline470" />

	<polygon
   style="fill:none;stroke:#000000;stroke-miterlimit:10"
   points="511.3,160.7 516.4,161.7 522.7,162.5 528,160.2 522.7,156.5 516.4,156.5 "
   id="polygon472" />

	<polyline
   style="fill:none;stroke:#000000;stroke-miterlimit:10"
   points="508,178.3 503,178.3 497.6,179.1  "
   id="polyline474" />

	<polygon
   style="fill:none;stroke:#000000;stroke-miterlimit:10"
   points="498.4,196.8 502.6,195.9 509,197 515.9,200.4 509.5,206.7 502.4,209.5 498.4,210 494.3,209.5 487.3,206.7 480.9,200.4 487.8,197 494.3,195.9 "
   id="polygon476" />

	<polyline
   style="fill:none;stroke:#000000;stroke-miterlimit:10"
   points="480.9,200.4 484.5,200.7 494.5,199.9 498.4,200.4    502.4,199.9 512.3,200.7 515.9,200.4  "
   id="polyline478" />

	<polyline
   style="fill:none;stroke:#000000;stroke-miterlimit:10"
   points="480.9,200.4 484.5,200.7 494.5,202.8 498.4,203.6    502.4,202.8 512.3,200.7 515.9,200.4  "
   id="polyline480" />

	<circle
   id="rightTop0"
   cx="478.70001"
   cy="117.6"
   r="0.80000001" />

	<circle
   id="rightTop1"
   cx="466.10001"
   cy="127.1"
   r="0.80000001" />

</g>
    </g>
  </g>
</svg>
