<?xml version="1.0" encoding="UTF-8" standalone="no"?>
<svg
   xmlns:dc="http://purl.org/dc/elements/1.1/"
   xmlns:cc="http://creativecommons.org/ns#"
   xmlns:rdf="http://www.w3.org/1999/02/22-rdf-syntax-ns#"
   xmlns:svg="http://www.w3.org/2000/svg"
   xmlns="http://www.w3.org/2000/svg"
   xmlns:xlink="http://www.w3.org/1999/xlink"
   xmlns:sodipodi="http://sodipodi.sourceforge.net/DTD/sodipodi-0.dtd"
   xmlns:inkscape="http://www.inkscape.org/namespaces/inkscape"
   id="svg2"
   sodipodi:docname="dude.svg"
   viewBox="0 0 531.5 531.5"
   sodipodi:version="0.32"
   version="1.0"
   inkscape:output_extension="org.inkscape.output.svg.inkscape"
   inkscape:version="1.0.1 (3bc2e813f5, 2020-09-07)"
   width="566.93335"
   height="566.93335">
  <defs
     id="defs4">
    <linearGradient
       id="linearGradient2551"
       inkscape:collect="always">
      <stop
         id="stop2553"
         style="stop-color:#003380"
         offset="0" />
      <stop
         id="stop2555"
         style="stop-color:#2ad4ff"
         offset="1" />
    </linearGradient>
    <linearGradient
       id="linearGradient4985"
       inkscape:collect="always">
      <stop
         id="stop4987"
         style="stop-color:#2c2ca0"
         offset="0" />
      <stop
         id="stop4989"
         style="stop-color:#ececec"
         offset="1" />
    </linearGradient>
    <linearGradient
       id="linearGradient2939"
       y2="557.64001"
       xlink:href="#linearGradient2551"
       gradientUnits="userSpaceOnUse"
       x2="-106.73"
       gradientTransform="matrix(-0.35013,0.6802,-0.89,-0.50663,599.26,295.66)"
       y1="440.73999"
       x1="-180.07001"
       inkscape:collect="always" />
    <linearGradient
       id="linearGradient2942"
       y2="557.64001"
       xlink:href="#linearGradient2551"
       gradientUnits="userSpaceOnUse"
       x2="-106.73"
       gradientTransform="matrix(0.43166,0.70745,0.90133,-0.31379,-10.727,229.65)"
       y1="440.73999"
       x1="-180.07001"
       inkscape:collect="always" />
    <linearGradient
       id="linearGradient2945"
       y2="557.64001"
       xlink:href="#linearGradient2551"
       gradientUnits="userSpaceOnUse"
       x2="-106.73"
       gradientTransform="matrix(-0.066015,0.76217,-1.0156,-0.13126,627.52,158.01)"
       y1="440.73999"
       x1="-180.07001"
       inkscape:collect="always" />
    <linearGradient
       id="linearGradient2948"
       y2="557.64001"
       xlink:href="#linearGradient2551"
       gradientUnits="userSpaceOnUse"
       x2="-106.73"
       gradientTransform="matrix(-0.70271,0.48996,0.69721,0.70814,37.232,-176.57)"
       y1="440.73999"
       x1="-180.07001"
       inkscape:collect="always" />
    <linearGradient
       id="linearGradient2951"
       y2="557.64001"
       xlink:href="#linearGradient2551"
       gradientUnits="userSpaceOnUse"
       x2="-106.73"
       gradientTransform="matrix(0.75788,0.51353,-0.66013,0.8733,510.01,-234.85)"
       y1="440.73999"
       x1="-180.07001"
       inkscape:collect="always" />
    <linearGradient
       id="linearGradient2954"
       y2="557.64001"
       xlink:href="#linearGradient4985"
       gradientUnits="userSpaceOnUse"
       x2="-106.73"
       gradientTransform="matrix(-1.0333,0.7791,-0.093804,0.96797,158.12,-246.16)"
       y1="440.73999"
       x1="-180.07001"
       inkscape:collect="always" />
    <linearGradient
       id="linearGradient2957"
       y2="557.64001"
       xlink:href="#linearGradient4985"
       gradientUnits="userSpaceOnUse"
       x2="-106.73"
       gradientTransform="matrix(-0.6044,1.1443,0.32633,0.91612,158.37,-180.13)"
       y1="440.73999"
       x1="-180.07001"
       inkscape:collect="always" />
    <linearGradient
       id="linearGradient2960"
       y2="557.64001"
       xlink:href="#linearGradient4985"
       gradientUnits="userSpaceOnUse"
       x2="-106.73"
       gradientTransform="matrix(-0.67414,1.1046,0.26893,0.93458,134.63,-207.78)"
       y1="440.73999"
       x1="-180.07001"
       inkscape:collect="always" />
    <linearGradient
       id="linearGradient2963"
       y2="557.64001"
       xlink:href="#linearGradient4985"
       gradientUnits="userSpaceOnUse"
       x2="-106.73"
       gradientTransform="matrix(-0.70535,1.085,0.24219,0.94186,98.241,-216.11)"
       y1="440.73999"
       x1="-180.07001"
       inkscape:collect="always" />
    <linearGradient
       id="linearGradient2966"
       y2="557.64001"
       xlink:href="#linearGradient4985"
       gradientUnits="userSpaceOnUse"
       x2="-106.73"
       gradientTransform="matrix(-0.87594,0.95258,0.082196,0.96902,60.779,-187.9)"
       y1="440.73999"
       x1="-180.07001"
       inkscape:collect="always" />
    <linearGradient
       id="linearGradient2969"
       y2="557.64001"
       xlink:href="#linearGradient4985"
       gradientUnits="userSpaceOnUse"
       x2="-106.73"
       gradientTransform="matrix(0.83742,0.98661,-0.12061,0.96499,503.61,-178.55)"
       y1="440.73999"
       x1="-180.07001"
       inkscape:collect="always" />
  </defs>
  <sodipodi:namedview
     id="base"
     bordercolor="#666666"
     inkscape:pageshadow="2"
     guidetolerance="10"
     pagecolor="#ffffff"
     gridtolerance="10000"
     inkscape:window-height="965"
     inkscape:zoom="1.3772445"
     objecttolerance="10"
     showgrid="false"
     borderopacity="1.0"
     inkscape:current-layer="layer1"
     inkscape:cx="301.54101"
     inkscape:cy="236.7997"
     inkscape:window-y="27"
     units="cm"
     inkscape:window-x="389"
     inkscape:window-width="1269"
     inkscape:pageopacity="0.0"
     inkscape:document-units="px"
     inkscape:document-rotation="0"
     inkscape:window-maximized="0" />
  <g
     id="layer1"
     inkscape:label="Layer 1"
     inkscape:groupmode="layer">
    <path
       id="path2781"
       style="fill:none;stroke:#000000;stroke-width:1px"
       d="m -50.1,326.01 c -0.242,0.25 -0.484,0.49 0,0 z" />
    <path
       id="path2791"
       style="opacity:0;stroke-width:3"
       sodipodi:type="star"
       sodipodi:sides="5"
       sodipodi:r1="82.342934"
       sodipodi:r2="35.157818"
       sodipodi:arg1="0.65408272"
       sodipodi:arg2="1.2824013"
       inkscape:randomized="0"
       sodipodi:cy="442.18726"
       sodipodi:cx="-172.08273"
       inkscape:rounded="0.06"
       inkscape:flatsided="false"
       d="m -106.73486,492.28729 c -2.10732,2.74868 -52.02801,-17.37925 -55.3485,-16.39418 -3.32049,0.98508 -34.18839,45.08022 -37.45374,43.92543 -3.26534,-1.15479 0.45112,-54.85207 -1.51183,-57.70563 -1.96295,-2.85357 -53.43863,-18.58454 -53.34941,-22.04692 0.0892,-3.46238 52.30682,-16.52118 54.41414,-19.26986 2.10732,-2.74868 1.1615,-56.5661 4.48199,-57.55117 3.32049,-0.98508 31.87628,44.64141 35.14162,45.7962 3.26534,1.15479 54.15648,-16.37523 56.11943,-13.52166 1.96295,2.85356 -32.6062,44.11109 -32.69542,47.57347 -0.0892,3.46238 32.30904,46.44565 30.20172,49.19432 z" />
    <path
       id="path2793"
       style="opacity:0;stroke-width:3"
       sodipodi:type="star"
       sodipodi:sides="5"
       sodipodi:r1="29.910927"
       sodipodi:r2="61.832516"
       sodipodi:arg1="-1.6680496"
       sodipodi:arg2="-1.039731"
       inkscape:randomized="0"
       sodipodi:cy="428.3916"
       sodipodi:cx="-94.391373"
       inkscape:rounded="0.06"
       inkscape:flatsided="false"
       d="m -97.295725,398.62202 c 2.480515,-0.24201 32.070544,-24.80885 34.219568,-23.54662 2.149023,1.26223 -4.896829,39.07036 -3.900151,41.35469 0.996679,2.28433 33.504953,22.83455 32.968589,25.26844 -0.536364,2.43389 -38.671326,7.41624 -40.53586,9.07004 -1.864533,1.65379 -11.363343,38.92136 -13.843858,39.16337 -2.480515,0.242 -19.003363,-34.48688 -21.152393,-35.7491 -2.14902,-1.26223 -40.52788,1.22018 -41.52456,-1.06415 -0.99668,-2.28432 26.9266,-28.7303 27.46296,-31.16419 0.53637,-2.4339 -13.68426,-38.16726 -11.81973,-39.82105 1.86453,-1.65379 35.644921,16.73057 38.125435,16.48857 z" />
    <path
       id="path2797"
       style="opacity:0;stroke-width:3"
       sodipodi:type="star"
       sodipodi:sides="5"
       sodipodi:r1="129.25172"
       sodipodi:r2="62.524368"
       sodipodi:arg1="0.47872184"
       sodipodi:arg2="1.1070404"
       inkscape:randomized="0"
       sodipodi:cy="406.60898"
       sodipodi:cx="-153.20445"
       inkscape:rounded="0.06"
       inkscape:flatsided="false"
       d="m -38.482635,466.14815 c -2.399854,4.62411 -82.094505,-5.94909 -86.754015,-3.61871 -4.6595,2.33039 -44.00254,72.43855 -49.14193,71.58509 -5.13938,-0.85347 -19.71068,-79.91489 -23.36687,-83.62621 -3.65619,-3.71133 -82.49069,-19.46417 -83.26715,-24.61575 -0.77646,-5.15158 69.91264,-43.44103 72.31249,-48.06514 2.39986,-4.6241 -6.9795,-84.46806 -2.32,-86.79844 4.65951,-2.33039 62.91907,53.06685 68.05845,53.92032 5.13939,0.85347 78.177122,-32.73997 81.833315,-29.02865 3.656192,3.71133 -31.026517,76.23815 -30.250057,81.38973 0.77646,5.15158 55.295621,64.23365 52.895767,68.85776 z" />
    <g
       id="g2977">
      <ellipse
         id="path3179"
         style="opacity:0.8;fill:#d36b5f;fill-opacity:0.50196"
         transform="translate(40.661,-91.487)"
         cx="231.25887"
         cy="230.89581"
         rx="114.35878"
         ry="104.55659" />
      <g
         id="g3503"
         transform="matrix(1.4259,0,0,1.3958,-247.58,-225.5)">
        <g
           id="g3505"
           transform="matrix(0.47141,0,0,0.46059,176.19,138.56)">
          <ellipse
             id="path3507"
             style="fill:#000000;fill-rule:evenodd;stroke:#000000;stroke-width:3"
             transform="translate(-7.2609,-97.296)"
             cx="463.60684"
             cy="396.80679"
             rx="29.406544"
             ry="30.132629" />
          <ellipse
             id="path3509"
             style="fill:#ffffff;fill-rule:evenodd;stroke:#f9f9f9;stroke-width:3"
             transform="translate(-9.4391,-92.939)"
             cx="467.60034"
             cy="408.78726"
             rx="4.3565249"
             ry="13.795662" />
        </g>
        <circle
           id="path3511"
           style="fill:#ffffff;fill-rule:evenodd;stroke:#000000;stroke-width:3"
           transform="translate(-30.212,-25.54)"
           cx="421.85681"
           cy="295.51761"
           r="4.3565249" />
      </g>
      <path
         id="path3301"
         inkscape:transform-center-x="26.993247"
         inkscape:transform-center-y="8.4057768"
         style="fill:url(#linearGradient2969);fill-rule:evenodd"
         d="M 405.67,160.31 C 416.23,74.61 366.8,80.095 366.8,80.095 l 0.16,1.292 c -27.87,18.278 2.17,137.38 2.17,137.38 l -0.16,-1.29 c 19.79,-14.94 36.7,-57.17 36.7,-57.17 z" />
      <path
         id="path5009"
         inkscape:transform-center-x="-27.412726"
         style="fill:url(#linearGradient2966);fill-rule:evenodd"
         inkscape:transform-center-y="9.9484038"
         d="m 145.18,154.58 c -7.14,-86.048 42.03,-78.604 42.03,-78.604 l -0.2,1.285 c 27.12,19.37 -7.63,137.19 -7.63,137.19 l 0.21,-1.28 c -19.18,-15.72 -34.41,-58.59 -34.41,-58.59 z" />
      <path
         id="path5033"
         inkscape:transform-center-x="-25.85215"
         inkscape:transform-center-y="3.2724526"
         style="fill:url(#linearGradient2963);fill-rule:evenodd"
         d="M 238.42,107.56 C 217.06,23.899 266.79,23.062 266.79,23.062 l 0.01,1.301 c 29.97,14.591 15.3,136.55 15.3,136.55 l -0.01,-1.3 c -21.53,-12.31 -43.67,-52.05 -43.67,-52.05 z" />
      <path
         id="path5035"
         inkscape:transform-center-x="-25.803884"
         style="fill:url(#linearGradient2960);fill-rule:evenodd"
         inkscape:transform-center-y="2.1051626"
         d="M 283.97,111.77 C 260.24,28.752 309.93,26.498 309.93,26.498 l 0.04,1.3 c 30.37,13.73 19.18,136.05 19.18,136.05 l -0.04,-1.3 c -21.87,-11.69 -45.14,-50.78 -45.14,-50.78 z" />
      <path
         id="path5037"
         inkscape:transform-center-x="-26.275947"
         inkscape:transform-center-y="-0.43841236"
         style="fill:url(#linearGradient2957);fill-rule:evenodd"
         d="M 327.24,129.55 C 298.4,48.162 347.85,42.834 347.85,42.834 l 0.13,1.295 c 31.16,11.822 27.58,134.61 27.58,134.61 l -0.13,-1.3 c -22.55,-10.31 -48.19,-47.89 -48.19,-47.89 z" />
      <path
         id="path5045"
         inkscape:transform-center-x="-28.528953"
         inkscape:transform-center-y="16.43159"
         style="fill:url(#linearGradient2954);fill-rule:evenodd"
         d="m 179.42,105.92 c 8.48,-85.93 55.51,-69.744 55.51,-69.744 l -0.44,1.226 c 23.19,23.941 -32.23,133.57 -32.23,133.57 l 0.44,-1.22 c -16.04,-18.92 -23.28,-63.83 -23.28,-63.83 z" />
      <path
         id="path3233"
         style="fill:url(#linearGradient2951);fill-rule:evenodd"
         d="M 195.3,93.759 C 253.7,16.263 177.25,40.474 177.25,40.474 l -0.41,1.045 c -50.66,26.642 -65.14,116.69 -65.14,116.69 l 0.41,-1.04 c 36.95,-20.6 83.19,-63.411 83.19,-63.411 z" />
      <path
         id="path2557"
         style="fill:url(#linearGradient2948);fill-rule:evenodd"
         d="m 363.96,85.638 c -61.7,-62.851 14.09,-46.951 14.09,-46.951 l 0.47,0.871 c 50.9,19.645 70.76,96.102 70.76,96.102 l -0.46,-0.87 C 411.61,119.46 363.96,85.638 363.96,85.638 Z" />
      <path
         id="path2561"
         style="fill:url(#linearGradient2945);fill-rule:evenodd"
         d="m 214.61,60.051 c 90.05,11.516 34.94,-34.713 34.94,-34.713 l -1.04,0.119 C 203.37,-0.899 123.49,24.815 123.49,24.815 l 1.04,-0.119 c 33.86,18.755 90.08,35.355 90.08,35.355 z" />
      <path
         id="path2563"
         style="fill:url(#linearGradient2942);fill-rule:evenodd"
         d="M 334.12,59.973 C 254.15,87.678 284.13,33.72 284.13,33.72 l 1.05,-0.082 C 315.29,0.312 403.64,9.665 403.64,9.665 l -1.05,0.0822 c -23.1,24.042 -68.47,50.226 -68.47,50.226 z" />
      <path
         id="path3361"
         style="fill:url(#linearGradient2939);fill-rule:evenodd"
         d="m 254.34,48.429 c 78.95,44.804 45.49,-18.872 45.49,-18.872 l -1.01,-0.284 C 267.06,-12.23 183.38,-18.734 183.38,-18.734 l 1.01,0.284 c 24.23,30.198 69.95,66.879 69.95,66.879 z" />
      <g
         id="g3497"
         transform="matrix(1.401,0,0,1.5206,-315.91,-259.65)">
        <g
           id="g3471"
           transform="matrix(0.47141,0,0,0.46059,176.19,138.56)">
          <ellipse
             id="path3449"
             style="fill:#000000;fill-rule:evenodd;stroke:#000000;stroke-width:3"
             transform="translate(-7.2609,-97.296)"
             cx="463.60684"
             cy="396.80679"
             rx="29.406544"
             ry="30.132629" />
          <ellipse
             id="path3453"
             style="fill:#ffffff;fill-rule:evenodd;stroke:#f9f9f9;stroke-width:3"
             transform="translate(-9.4391,-92.939)"
             cx="467.60034"
             cy="408.78726"
             rx="4.3565249"
             ry="13.795662" />
        </g>
        <circle
           id="path3477"
           style="fill:#ffffff;fill-rule:evenodd;stroke:#000000;stroke-width:3"
           transform="translate(-30.212,-25.54)"
           cx="421.85681"
           cy="295.51761"
           r="4.3565249" />
      </g>
      <path
         id="path2626"
         style="fill:none;stroke:#000000;stroke-width:1px"
         d="m 256.31,219.28 c 48.65,-0.73 50.83,-15.25 50.83,-15.25" />
      <g
         id="g2852"
         transform="translate(44.291,-102.38)">
        <path
           id="path2776"
           style="fill:#800000;fill-rule:evenodd;stroke:#000000;stroke-width:1px"
           d="m 182.97,471.96 -3.63,122.71 41.39,1.45 11.62,-95.85 14.52,95.85 41.39,-1.45 -6.54,-124.89 z" />
        <path
           id="path2784"
           style="fill:#2b0000;fill-rule:evenodd"
           sodipodi:type="star"
           sodipodi:sides="5"
           sodipodi:r1="5.8539042"
           sodipodi:r2="2.4994314"
           sodipodi:arg1="1.0516502"
           sodipodi:arg2="1.6799687"
           transform="translate(7.987,-69.704)"
           inkscape:randomized="0"
           sodipodi:cy="548.19604"
           sodipodi:cx="202.57841"
           inkscape:rounded="0.06"
           inkscape:flatsided="false"
           d="m 205.48276,553.27866 c -0.21378,0.12216 -2.93191,-2.57124 -3.17667,-2.59806 -0.24476,-0.0268 -3.48179,2.01383 -3.66403,1.84826 -0.18225,-0.16557 1.53937,-3.58297 1.48925,-3.82405 -0.0501,-0.24107 -2.9912,-2.68906 -2.89005,-2.91355 0.10115,-0.22449 3.8833,0.35683 4.09709,0.23467 0.21379,-0.12216 1.63312,-3.67577 1.87788,-3.64894 0.24476,0.0268 0.86064,3.80351 1.04288,3.96908 0.18225,0.16557 4.00053,0.41731 4.05065,0.65839 0.0501,0.24107 -3.3514,1.99386 -3.45255,2.21835 -0.10115,0.22449 0.83934,3.93368 0.62555,4.05585 z" />
        <path
           id="path2786"
           style="fill:#2b0000;fill-rule:evenodd"
           sodipodi:type="star"
           sodipodi:sides="5"
           sodipodi:r1="5.6709247"
           sodipodi:r2="2.4213047"
           sodipodi:arg1="0.87605805"
           sodipodi:arg2="1.5043766"
           transform="translate(-5.8087,-65.348)"
           inkscape:randomized="0"
           sodipodi:cy="543.83954"
           sodipodi:cx="260.66541"
           inkscape:rounded="0.06"
           inkscape:flatsided="false"
           d="m 264.29584,548.19606 c -0.18324,0.15271 -3.23172,-1.95639 -3.46973,-1.94056 -0.23801,0.0158 -2.98028,2.51012 -3.18214,2.38303 -0.20186,-0.12709 0.86198,-3.67811 0.77338,-3.89958 -0.0886,-0.22146 -3.30822,-2.05875 -3.24973,-2.29 0.0585,-0.23125 3.76446,-0.31681 3.9477,-0.46951 0.18325,-0.1527 0.9357,-3.78249 1.1737,-3.79832 0.23801,-0.0158 1.46459,3.48231 1.66644,3.6094 0.20186,0.12709 3.88651,-0.27896 3.97511,-0.0575 0.0886,0.22146 -2.85929,2.469 -2.91778,2.70024 -0.0585,0.23125 1.4663,3.61009 1.28305,3.76279 z" />
        <path
           id="path2788"
           style="fill:none;stroke:#000000;stroke-width:1px"
           d="m 196.04,471.96 -13.79,31.22" />
        <path
           id="path2790"
           style="fill:none;stroke:#000000;stroke-width:1px"
           d="m 267.2,470.5 17.43,28.32" />
      </g>
      <path
         id="path2873"
         style="fill:#ffaaaa;fill-rule:evenodd;stroke:#000000;stroke-width:1px"
         d="m 202.72,327.47 c 2.9,1.45 9.44,35.57 9.44,35.57 l 29.04,11.62 -10.89,15.98 c 0,0 -35.58,3.63 -43.56,-17.43 -7.99,-21.06 -2.91,-60.27 -2.91,-60.27 z" />
      <g
         id="g2942"
         transform="translate(44.291,-91.487)">
        <g
           id="g2711"
           transform="translate(-177.89)">
          <path
             id="path3626"
             style="fill:#552200;fill-rule:evenodd;stroke:#000000;stroke-width:1px"
             d="m 349.25,333.27 -41.39,75.52 39.21,11.61 18.88,-34.85 -2.91,74.79 h 94.4 l -4.36,-74.06 31.95,39.21 29.77,-22.51 -55.91,-71.16 z" />
          <path
             id="path2683"
             style="fill:none;stroke:#000000;stroke-width:1px"
             d="m 397.17,333.27 c -0.97,-0.96 -0.97,-0.96 0,0 z" />
          <path
             id="path2693"
             style="fill:#ffffff;fill-rule:evenodd;stroke:#000000;stroke-width:2.1783"
             d="m 364.16,459.95 c 0.06,-1.23 0.16,-1.32 0.41,-0.36 0.31,1.17 1.82,1.27 18.76,1.27 10.13,0 18.56,-0.24 18.75,-0.54 0.18,-0.3 -0.6,-28.48 -1.75,-62.63 -1.15,-34.14 -2.09,-62.48 -2.11,-62.96 -0.01,-0.64 -2.55,-0.95 -8.92,-1.12 -4.89,-0.12 -0.8,-0.3 9.08,-0.38 16.54,-0.15 17.98,-0.26 18.06,-1.43 0.08,-1.21 0.1,-1.21 0.41,0 0.18,0.7 0.56,1.27 0.83,1.27 0.27,0 0.59,27.37 0.71,60.81 0.12,33.45 0.4,62.2 0.63,63.9 l 0.4,3.08 h 19.47 19.48 l 0.3,-2 c 0.28,-1.85 0.31,-1.83 0.41,0.37 l 0.11,2.36 h -47.56 -47.56 z m 51.22,-28.25 c -0.26,-14.44 -0.48,-41.73 -0.48,-60.63 V 336.7 h -6.54 c -4.74,0 -6.53,0.25 -6.52,0.91 0.01,2.53 2.91,95.67 3.33,107.1 l 0.48,13.25 h 5.11 5.1 z" />
        </g>
        <g
           id="g2908">
          <g
             id="g2875">
            <g
               id="g2716">
              <g
                 id="g2654"
                 style="fill:#552200;stroke:#000000">
                <ellipse
                   id="path2628"
                   style="fill:#552200;fill-rule:evenodd;stroke:#000000;stroke-width:3"
                   cx="215.28494"
                   cy="369.57852"
                   rx="1.8152187"
                   ry="2.1782625" />
                <ellipse
                   id="path2630"
                   style="fill:#552200;fill-rule:evenodd;stroke:#000000;stroke-width:3"
                   transform="translate(31.222)"
                   cx="215.28494"
                   cy="369.57852"
                   rx="1.8152187"
                   ry="2.1782625" />
                <path
                   id="path2652"
                   style="fill:#552200;fill-rule:evenodd;stroke:#000000;stroke-width:1px"
                   d="m 215.65,369.58 31.22,-0.73" />
              </g>
              <g
                 id="g2659"
                 style="fill:#552200;stroke:#000000"
                 transform="translate(2.1783,58.087)">
                <ellipse
                   id="path2661"
                   style="fill:#552200;fill-rule:evenodd;stroke:#000000;stroke-width:3"
                   cx="215.28494"
                   cy="369.57852"
                   rx="1.8152187"
                   ry="2.1782625" />
                <ellipse
                   id="path2663"
                   style="fill:#552200;fill-rule:evenodd;stroke:#000000;stroke-width:3"
                   transform="translate(31.222)"
                   cx="215.28494"
                   cy="369.57852"
                   rx="1.8152187"
                   ry="2.1782625" />
                <path
                   id="path2665"
                   style="fill:#552200;fill-rule:evenodd;stroke:#000000;stroke-width:1px"
                   d="m 215.65,369.58 31.22,-0.73" />
              </g>
              <g
                 id="g2667"
                 style="fill:#552200;stroke:#000000"
                 transform="translate(-0.72609,28.317)">
                <ellipse
                   id="path2669"
                   style="fill:#552200;fill-rule:evenodd;stroke:#000000;stroke-width:3"
                   cx="215.28494"
                   cy="369.57852"
                   rx="1.8152187"
                   ry="2.1782625" />
                <ellipse
                   id="path2671"
                   style="fill:#552200;fill-rule:evenodd;stroke:#000000;stroke-width:3"
                   transform="translate(31.222)"
                   cx="215.28494"
                   cy="369.57852"
                   rx="1.8152187"
                   ry="2.1782625" />
                <path
                   id="path2673"
                   style="fill:#552200;fill-rule:evenodd;stroke:#000000;stroke-width:1px"
                   d="m 215.65,369.58 31.22,-0.73" />
              </g>
            </g>
            <path
               id="path2730"
               style="fill:#ff7f2a;fill-rule:evenodd;stroke:#000000;stroke-width:2.1783"
               d="m 225.87,358.26 c -0.26,-5.69 -0.48,-12.55 -0.48,-15.25 v -4.9 h 5.08 5.09 v 15.25 15.25 h -4.61 -4.61 z" />
            <path
               id="path2732"
               style="fill:#ff7f2a;fill-rule:evenodd;stroke:#000000;stroke-width:2.1783"
               d="m 226.84,389.48 c 0,-4.09 -0.22,-10.14 -0.47,-13.43 l -0.47,-5.99 h 4.83 4.83 v 11.16 c 0,6.14 0.2,12.19 0.45,13.43 l 0.45,2.27 h -4.81 -4.81 z" />
            <path
               id="path2734"
               style="fill:#ff7f2a;fill-rule:evenodd;stroke:#000000;stroke-width:2.1783"
               d="m 227.97,425.06 c -0.2,-0.9 -0.45,-7.27 -0.56,-14.16 l -0.2,-12.53 4.53,0.01 h 4.54 v 14.15 14.16 h -3.98 c -3.54,0 -4.02,-0.18 -4.33,-1.63 z" />
            <path
               id="path2736"
               style="fill:#ff7f2a;fill-rule:evenodd;stroke:#000000;stroke-width:2.1783"
               d="m 228.77,449.82 c -0.26,-3.66 -0.48,-10.03 -0.48,-14.16 v -7.51 h 3.97 3.96 l 0.21,14.15 0.21,14.16 h -3.7 -3.7 z" />
            <path
               id="path2746"
               style="fill:#e9afaf;fill-rule:evenodd"
               d="m 227.32,358.99 c -0.26,-4.5 -0.47,-10.71 -0.47,-13.8 l -0.01,-5.63 h 3.63 3.63 v 13.8 13.79 h -3.15 -3.16 z" />
            <path
               id="path2748"
               style="fill:#e9afaf;fill-rule:evenodd"
               d="m 228.29,390.57 c 0,-2.7 -0.21,-8.09 -0.47,-11.98 l -0.47,-7.08 h 3.38 3.37 l 0.01,8.17 c 0,4.49 0.21,9.88 0.46,11.98 l 0.46,3.81 h -3.37 -3.37 z" />
            <path
               id="path2750"
               style="fill:#e9afaf;fill-rule:evenodd"
               d="m 229.39,424.33 c -0.18,-0.5 -0.41,-6.21 -0.53,-12.7 l -0.2,-11.8 h 3.08 3.09 v 12.7 12.71 h -2.56 c -1.41,0 -2.71,-0.41 -2.88,-0.91 z" />
            <path
               id="path2752"
               style="fill:#0000ff;fill-rule:evenodd"
               d="m 230.22,449.46 c -0.26,-3.06 -0.47,-8.78 -0.47,-12.71 v -7.15 h 2.54 2.54 v 11.56 c 0,6.35 0.2,12.07 0.44,12.7 0.35,0.91 -0.08,1.15 -2.07,1.15 h -2.51 z" />
            <path
               id="path2754"
               style="fill:#0000ff;fill-rule:evenodd"
               d="m 230.58,424.6 c -0.73,-0.46 -1.08,-3.7 -1.37,-12.7 l -0.4,-12.07 h 3.01 3.01 v 12.7 c 0,12.7 0,12.71 -1.63,12.7 -0.9,-0.01 -2.08,-0.29 -2.62,-0.63 z" />
            <path
               id="path2756"
               style="fill:#0000ff;fill-rule:evenodd"
               d="m 237.94,386.39 c 0.01,-1.99 0.15,-2.72 0.32,-1.62 0.16,1.1 0.16,2.74 -0.01,3.63 -0.18,0.89 -0.31,-0.01 -0.31,-2.01 z" />
            <path
               id="path2758"
               style="fill:#0000ff;fill-rule:evenodd"
               d="m 228.29,387.3 c 0,-4.49 -0.21,-9.88 -0.47,-11.98 l -0.45,-3.81 h 3.37 3.36 v 9.71 c 0,5.34 0.21,10.73 0.46,11.98 l 0.45,2.27 h -3.36 -3.36 z" />
            <path
               id="path2762"
               style="fill:#000080;fill-rule:evenodd"
               d="m 230.91,452.65 c -0.2,-1.3 -0.56,-7.02 -0.8,-12.71 l -0.43,-10.34 h 2.58 2.57 v 12.26 c 0,10.52 -0.16,12.33 -1.15,12.71 -2.01,0.77 -2.41,0.49 -2.77,-1.92 z" />
            <path
               id="path2764"
               style="fill:#000080;fill-rule:evenodd"
               d="m 230.18,421.43 c -0.21,-1.7 -0.58,-7.25 -0.82,-12.34 l -0.45,-9.26 h 2.96 2.96 v 5.26 c -0.01,2.9 -0.22,8.45 -0.48,12.35 -0.44,6.75 -0.54,7.07 -2.13,7.07 -1.41,0 -1.72,-0.46 -2.04,-3.08 z" />
            <path
               id="path2766"
               style="fill:#000080;fill-rule:evenodd"
               d="m 228.29,385.12 c -0.01,-5.69 -0.21,-11.08 -0.45,-11.98 -0.41,-1.52 -0.21,-1.63 2.91,-1.63 h 3.35 v 10.83 c 0,5.96 0.2,11.35 0.44,11.98 0.37,0.95 -0.15,1.15 -2.9,1.15 h -3.35 z" />
            <path
               id="path2768"
               style="fill:#d5d5ff;fill-rule:evenodd"
               d="m 228,364.79 c -0.2,-1.29 -0.55,-7.5 -0.79,-13.79 l -0.43,-11.44 h 3.66 3.66 v 13.8 13.79 h -2.87 c -2.68,0 -2.89,-0.15 -3.23,-2.36 z" />
            <path
               id="path2770"
               style="fill:#d5d5ff;fill-rule:evenodd"
               d="m 228.46,383.72 0.2,-11.85 2.74,-0.22 2.74,-0.23 -0.2,11.84 -0.2,11.85 -2.74,0.22 -2.74,0.23 z" />
            <path
               id="path2772"
               style="fill:#d5d5ff;fill-rule:evenodd"
               d="m 230.9,423.24 c -0.33,-1.04 -1.85,-19.32 -1.87,-22.5 -0.01,-0.58 1.06,-0.91 2.96,-0.91 h 2.96 l -0.52,10.71 c -0.52,10.63 -1.1,13.97 -2.44,13.97 -0.38,0 -0.87,-0.57 -1.09,-1.27 z" />
            <path
               id="path2774"
               style="fill:#d5d5ff;fill-rule:evenodd"
               d="m 231.6,452.89 c -0.28,-0.46 -1.83,-20.76 -1.85,-24.2 0,-0.3 1.14,-0.54 2.54,-0.54 h 2.54 l -0.01,9.62 c 0,5.29 -0.21,10.82 -0.45,12.3 -0.42,2.54 -1.97,4.12 -2.77,2.82 z" />
          </g>
        </g>
      </g>
      <path
         id="path2981"
         style="fill:#ffaaaa;fill-rule:evenodd;stroke:#000000;stroke-width:1px"
         d="m 354.86,329.3 24.71,37.61 c 0.46,0.99 0.91,1.97 1.36,2.95 0.73,1.61 -0.91,10.69 -0.72,12.48 0.39,3.62 7.68,3.68 9.06,2.63 2.99,-2.26 -2.6,-11.68 4.79,-8.26 3.54,1.64 6.75,5.38 8.14,8.42 1.83,3.99 7.09,-0.89 5.12,-5.21 -1.59,-3.47 -2.23,-7.38 -5.76,-10.22 -1.91,-1.54 5.92,2.15 9.18,3.66 4.49,2.07 5.52,6.71 7.15,-0.77 1.03,-4.76 -2.29,-6.5 -5.65,-9.21 -3.74,-3.01 -8.74,-0.64 -1.46,-3.97 1.11,-0.51 8.4,4.82 9.85,5.13 5.73,1.25 -0.29,-8.67 -3.14,-9.98 -4.47,-2.07 -10.59,-0.75 -6.33,-6.03 3.71,-4.61 -4.7,-6.73 -6.9,-6.49 -3.99,0.43 -4.86,7.19 -6.72,9.51 -2.28,2.83 -0.6,2.64 -4.32,3.04 L 370.2,318.35" />
      <path
         id="path2807"
         style="fill:#008000;fill-rule:evenodd;stroke:#000000;stroke-width:1px"
         d="m 302.78,493.74 v 25.41 l 72.61,-1.45 c 0,0 -18.15,-29.04 -32.68,-13.07 -14.52,15.97 -18.87,-11.62 -18.87,-11.62 z" />
      <path
         id="path2809"
         style="fill:#008000;fill-rule:evenodd;stroke:#000000;stroke-width:1px"
         d="m 254.13,493.01 v 25.42 l -72.61,-1.46 c 0,0 18.15,-29.04 32.68,-13.07 14.52,15.98 18.87,-11.61 18.87,-11.61 z" />
    </g>
    <g
       id="skeleton_1_"
       transform="matrix(0.51475577,0,0,0.48791071,-44.124019,55.852166)">
      <polygon
         style="fill:none;stroke:#000000;stroke-miterlimit:10"
         points="685.5,564.5 731.7,349.5 518.8,349.5 569.1,565.3 "
         id="polygon1551" />
      <polyline
         style="fill:none;stroke:#000000;stroke-miterlimit:10"
         points="517.8,349.5 415.1,349.5 251.8,355.8  "
         id="polyline1553" />
      <polyline
         style="fill:none;stroke:#000000;stroke-miterlimit:10"
         points="733.2,349.1 836.4,349.1 999.7,355.5  "
         id="polyline1555" />
      <polyline
         style="fill:none;stroke:#000000;stroke-miterlimit:10"
         points="569.1,565.3 575.5,725.5 575.5,933.5  "
         id="polyline1557" />
      <polyline
         style="fill:none;stroke:#000000;stroke-miterlimit:10"
         points="685.5,564.5 685.5,725.5 685.5,933.5  "
         id="polyline1559" />
      <polyline
         style="fill:none;stroke:#000000;stroke-miterlimit:10"
         points="624.5,170 604.7,172.5 592.2,182 583.6,196.1    581.1,205.4 580.3,217.1 580.3,226.6 581.1,248.3 587.9,268.3 599.5,280.8 609.5,287.5 624.5,290.7 639.3,287.9 649.3,281.2    660.9,268.6 667.7,248.6 668.5,227 668.5,217.4 667.7,205.7 665.2,196.5 657,182 644.4,172.5 624.5,170  "
         id="polyline1561" />
      <polyline
         style="fill:none;stroke:#000000;stroke-miterlimit:10"
         points="588.5,206.9 592.5,203.2 598.7,202.2 606,202.2    615.8,206.2  "
         id="polyline1563" />
      <polygon
         style="fill:none;stroke:#000000;stroke-miterlimit:10"
         points="606.2,216.6 599.9,217.4 594.7,215.1 599.9,211.4 606.2,211.4 611.4,215.6 "
         id="polygon1565" />
      <polyline
         style="fill:none;stroke:#000000;stroke-miterlimit:10"
         points="613,233.2 618.2,233.2 623.7,234 623.7,228.7    623.7,221.6 623.7,216.1 623.7,210.3  "
         id="polyline1567" />
      <polyline
         style="fill:none;stroke:#000000;stroke-miterlimit:10"
         points="660,206.5 656,203.6 649.7,202.1 642.4,202.5    632.4,205.7  "
         id="polyline1569" />
      <polygon
         style="fill:none;stroke:#000000;stroke-miterlimit:10"
         points="642.5,216.6 648.8,217.4 654.1,215.1 648.8,211.4 642.5,211.4 637.4,215.6 "
         id="polygon1571" />
      <polyline
         style="fill:none;stroke:#000000;stroke-miterlimit:10"
         points="634.1,233.2 629.1,233.2 623.7,234  "
         id="polyline1573" />
      <polygon
         style="fill:none;stroke:#000000;stroke-miterlimit:10"
         points="620.4,264.4 613.4,261.6 607,255.3 613.9,251.9 620.4,250.8 624.5,251.7 628.7,250.8 635.1,251.9 642,255.3 635.6,261.6 628.5,264.4 624.5,264.9 "
         id="polygon1575" />
      <polyline
         style="fill:none;stroke:#000000;stroke-miterlimit:10"
         points="607,255.3 610.6,255.6 620.6,254.8 624.5,255.3    628.5,254.8 638.4,255.6 642,255.3  "
         id="polyline1577" />
      <polyline
         style="fill:none;stroke:#000000;stroke-miterlimit:10"
         points="607,255.3 610.6,255.6 620.6,257.7 624.5,258.5    628.5,257.7 638.4,255.6 642,255.3  "
         id="polyline1579" />
      <circle
         id="rightShoulder"
         cx="518.90002"
         cy="349.20001"
         r="8.1999998" />
      <circle
         id="rightElbow"
         cx="415.39999"
         cy="349.29999"
         r="8.1999998" />
      <circle
         id="rightWrist"
         cx="252"
         cy="355.70001"
         r="8.1999998" />
      <circle
         id="rightHip"
         cx="569.20001"
         cy="565"
         r="8.1999998" />
      <circle
         id="rightKnee"
         cx="575.59998"
         cy="725.20001"
         r="8.1999998" />
      <circle
         id="rightAnkle"
         cx="575.59998"
         cy="933.20001"
         r="8.1999998" />
      <circle
         id="leftElbow"
         cx="836.20001"
         cy="348.89999"
         r="8.1999998" />
      <circle
         id="leftWrist"
         cx="999.59998"
         cy="355.20001"
         r="8.1999998" />
      <circle
         id="leftHip"
         cx="685.59998"
         cy="564.20001"
         r="8.1999998" />
      <circle
         id="leftKnee"
         cx="685.59998"
         cy="725.20001"
         r="8.1999998" />
      <circle
         id="leftAnkle"
         cx="685.59998"
         cy="933.20001"
         r="8.1999998" />
      <circle
         id="rightEye0"
         cx="594.70001"
         cy="215.10001"
         r="0.80000001" />
      <circle
         id="rightBrow1"
         cx="592.5"
         cy="203.2"
         r="0.80000001" />
      <circle
         id="rightBrow4"
         cx="615.79999"
         cy="206.2"
         r="0.80000001" />
      <circle
         id="nose1"
         cx="623.70001"
         cy="216.10001"
         r="0.80000001" />
      <circle
         id="rightBrow3"
         cx="606"
         cy="202.2"
         r="0.80000001" />
      <circle
         id="rightEye1"
         cx="599.90002"
         cy="211.39999"
         r="0.80000001" />
      <circle
         id="rightBrow0"
         cx="588.5"
         cy="206.89999"
         r="0.80000001" />
      <circle
         id="rightBrow2"
         cx="598.70001"
         cy="202.2"
         r="0.80000001" />
      <circle
         id="rightEye5"
         cx="599.90002"
         cy="217.39999"
         r="0.80000001" />
      <circle
         id="rightEye2"
         cx="606.20001"
         cy="211.39999"
         r="0.80000001" />
      <circle
         id="rightEye3"
         cx="611.40002"
         cy="215.60001"
         r="0.80000001" />
      <circle
         id="nose0"
         cx="623.70001"
         cy="210.3"
         r="0.80000001" />
      <circle
         id="nose3"
         cx="623.70001"
         cy="228.7"
         r="0.80000001" />
      <circle
         id="rightNose0"
         cx="613"
         cy="233.2"
         r="0.80000001" />
      <circle
         id="rightMouthCorner"
         cx="607"
         cy="255.3"
         r="0.80000001" />
      <circle
         id="rightNose1"
         cx="618.20001"
         cy="233.2"
         r="0.80000001" />
      <circle
         id="rightUpperLipTop0"
         cx="613.90002"
         cy="251.89999"
         r="0.80000001" />
      <circle
         id="nose2"
         cx="623.70001"
         cy="221.60001"
         r="0.80000001" />
      <circle
         id="nose4"
         cx="623.70001"
         cy="234"
         r="0.80000001" />
      <circle
         id="upperLipTopMid"
         cx="624.5"
         cy="251.7"
         r="0.80000001" />
      <circle
         id="rightUpperLipTop1"
         cx="620.40002"
         cy="250.8"
         r="0.80000001" />
      <path
         id="rightMiddleLip"
         d="m 610.6,254.8 c 0.4,0 0.8,0.4 0.8,0.8 0,0.4 -0.4,0.8 -0.8,0.8 -0.4,0 -0.8,-0.4 -0.8,-0.8 0,-0.4 0.4,-0.8 0.8,-0.8 z" />
      <circle
         id="lowerLipBottomMid"
         cx="624.5"
         cy="264.89999"
         r="0.80000001" />
      <circle
         id="upperLipBottomMid"
         cx="624.5"
         cy="255.3"
         r="0.80000001" />
      <circle
         id="lowerLipTopMid"
         cx="624.5"
         cy="258.39999"
         r="0.80000001" />
      <circle
         id="rightUpperLipBottom1"
         cx="620.59998"
         cy="254.8"
         r="0.80000001" />
      <circle
         id="rightLowerLipTop0"
         cx="620.59998"
         cy="257.70001"
         r="0.80000001" />
      <circle
         id="rightLowerLipBottom1"
         cx="620.40002"
         cy="264.39999"
         r="0.80000001" />
      <circle
         id="rightLowerLipBottom0"
         cx="613.40002"
         cy="261.60001"
         r="0.80000001" />
      <circle
         id="rightEye4"
         cx="606.20001"
         cy="216.60001"
         r="0.80000001" />
      <circle
         id="jawMid"
         cx="624.5"
         cy="290.70001"
         r="0.80000001" />
      <circle
         id="rightJaw7"
         cx="609.5"
         cy="287.5"
         r="0.80000001" />
      <circle
         id="rightJaw6"
         cx="599.5"
         cy="280.79999"
         r="0.80000001" />
      <circle
         id="rightJaw5"
         cx="587.90002"
         cy="268.29999"
         r="0.80000001" />
      <circle
         id="rightJaw4"
         cx="581.09998"
         cy="248.3"
         r="0.80000001" />
      <circle
         id="rightJaw3"
         cx="580.29999"
         cy="226.60001"
         r="0.80000001" />
      <circle
         id="rightJaw2"
         cx="580.29999"
         cy="217.10001"
         r="0.80000001" />
      <circle
         id="rightJaw1"
         cx="581.09998"
         cy="205.39999"
         r="0.80000001" />
      <circle
         id="rightJaw0"
         cx="583.59998"
         cy="196.10001"
         r="0.80000001" />
      <circle
         id="topMid"
         cx="624.70001"
         cy="170"
         r="0.80000001" />
      <circle
         id="leftTop0"
         cx="644.40002"
         cy="172.5"
         r="0.80000001" />
      <circle
         id="leftTop1"
         cx="657"
         cy="182"
         r="0.80000001" />
      <circle
         id="leftEye0"
         cx="654.29999"
         cy="215.10001"
         r="0.80000001" />
      <circle
         id="leftBrow1"
         cx="656.20001"
         cy="203.60001"
         r="0.80000001" />
      <circle
         id="leftBrow4"
         cx="632.59998"
         cy="205.7"
         r="0.80000001" />
      <circle
         id="leftBrow3"
         cx="642.59998"
         cy="202.5"
         r="0.80000001" />
      <circle
         id="leftEye1"
         cx="649.09998"
         cy="211.39999"
         r="0.80000001" />
      <circle
         id="leftBrow0"
         cx="660.20001"
         cy="206.5"
         r="0.80000001" />
      <circle
         id="leftBrow2"
         cx="649.90002"
         cy="202.10001"
         r="0.80000001" />
      <circle
         id="leftEye5"
         cx="649.09998"
         cy="217.39999"
         r="0.80000001" />
      <circle
         id="leftEye2"
         cx="642.79999"
         cy="211.39999"
         r="0.80000001" />
      <circle
         id="leftEye3"
         cx="637.59998"
         cy="215.60001"
         r="0.80000001" />
      <circle
         id="leftNose0"
         cx="634.09998"
         cy="233.2"
         r="0.80000001" />
      <circle
         id="leftMouthCorner"
         cx="642"
         cy="255.3"
         r="0.80000001" />
      <circle
         id="leftNose1"
         cx="629.29999"
         cy="233.2"
         r="0.80000001" />
      <circle
         id="leftUpperLipTop0"
         cx="635.09998"
         cy="251.89999"
         r="0.80000001" />
      <circle
         id="leftUpperLipTop1"
         cx="628.70001"
         cy="250.8"
         r="0.80000001" />
      <path
         id="leftMiddleLip"
         d="m 638.4,254.8 c 0.4,0 0.8,0.4 0.8,0.8 0,0.4 -0.4,0.8 -0.8,0.8 -0.4,0 -0.8,-0.4 -0.8,-0.8 0,-0.4 0.4,-0.8 0.8,-0.8 z" />
      <circle
         id="leftUpperLipBottom1"
         cx="628.5"
         cy="254.8"
         r="0.80000001" />
      <circle
         id="leftLowerLipTop0"
         cx="628.5"
         cy="257.70001"
         r="0.80000001" />
      <circle
         id="leftLowerLipBottom1"
         cx="628.70001"
         cy="264.39999"
         r="0.80000001" />
      <circle
         id="leftLowerLipBottom0"
         cx="635.59998"
         cy="261.60001"
         r="0.80000001" />
      <circle
         id="leftEye4"
         cx="642.79999"
         cy="216.60001"
         r="0.80000001" />
      <circle
         id="leftJaw7"
         cx="639.29999"
         cy="287.89999"
         r="0.80000001" />
      <circle
         id="leftJaw6"
         cx="649.29999"
         cy="281.20001"
         r="0.80000001" />
      <circle
         id="leftJaw5"
         cx="660.90002"
         cy="268.60001"
         r="0.80000001" />
      <circle
         id="leftJaw4"
         cx="667.70001"
         cy="248.60001"
         r="0.80000001" />
      <circle
         id="leftJaw3"
         cx="668.5"
         cy="227"
         r="0.80000001" />
      <circle
         id="leftJaw2"
         cx="668.5"
         cy="217.39999"
         r="0.80000001" />
      <circle
         id="leftJaw1"
         cx="667.70001"
         cy="205.7"
         r="0.80000001" />
      <circle
         id="leftJaw0"
         cx="665.20001"
         cy="196.5"
         r="0.80000001" />
      <circle
         id="rightTop0"
         cx="604.79999"
         cy="172.5"
         r="0.80000001" />
      <circle
         id="rightTop1"
         cx="592.20001"
         cy="182"
         r="0.80000001" />
      <circle
         id="leftShoulder"
         cx="731.79999"
         cy="349.20001"
         r="8.1999998" />
    </g>
  </g>
  <metadata
     id="metadata1425">
    <rdf:RDF>
      <cc:Work>
        <dc:format>image/svg+xml</dc:format>
        <dc:type
           rdf:resource="http://purl.org/dc/dcmitype/StillImage" />
        <cc:license
           rdf:resource="http://creativecommons.org/licenses/publicdomain/" />
        <dc:publisher>
          <cc:Agent
             rdf:about="http://openclipart.org/">
            <dc:title>Openclipart</dc:title>
          </cc:Agent>
        </dc:publisher>
        <dc:title></dc:title>
        <dc:date>2011-03-01T06:02:16</dc:date>
        <dc:description />
        <dc:source>https://openclipart.org/detail/124537/27-by-wuhon</dc:source>
        <dc:creator>
          <cc:Agent>
            <dc:title>wuhon</dc:title>
          </cc:Agent>
        </dc:creator>
        <dc:subject>
          <rdf:Bag>
            <rdf:li>5501</rdf:li>
            <rdf:li>cartoon</rdf:li>
            <rdf:li>people</rdf:li>
            <rdf:li>sjjh</rdf:li>
          </rdf:Bag>
        </dc:subject>
      </cc:Work>
      <cc:License
         rdf:about="http://creativecommons.org/licenses/publicdomain/">
        <cc:permits
           rdf:resource="http://creativecommons.org/ns#Reproduction" />
        <cc:permits
           rdf:resource="http://creativecommons.org/ns#Distribution" />
        <cc:permits
           rdf:resource="http://creativecommons.org/ns#DerivativeWorks" />
      </cc:License>
    </rdf:RDF>
  </metadata>
</svg>
