<?xml version="1.0" standalone="no"?>
<!DOCTYPE svg PUBLIC "-//W3C//DTD SVG 20010904//EN"
 "http://www.w3.org/TR/2001/REC-SVG-20010904/DTD/svg10.dtd">
<svg version="1.0" xmlns="http://www.w3.org/2000/svg"
 width="1341.000000pt" height="1753.000000pt" viewBox="0 0 1341.000000 1753.000000"
 preserveAspectRatio="xMidYMid meet">
<metadata>
Created by potrace 1.16, written by Peter Selinger 2001-2019
</metadata>
<g transform="translate(0.000000,1753.000000) scale(0.100000,-0.100000)"
fill="#000000" stroke="none">
<path d="M12762 17121 c-9 -25 -8 -30 9 -34 24 -7 24 -19 -1 -35 -16 -10 -20
-10 -21 0 -1 7 -2 18 -4 23 -1 6 -3 15 -3 22 -3 19 -59 13 -58 -6 0 -9 -5 -15
-13 -13 -9 2 -11 -3 -7 -13 3 -9 2 -13 -4 -10 -5 3 -14 -4 -21 -16 l-11 -22
-19 24 c-12 17 -26 23 -43 21 -14 -2 -36 4 -48 12 -29 21 -49 20 -23 0 14 -11
16 -18 8 -21 -7 -3 -13 -11 -13 -19 0 -21 -27 -29 -46 -13 -14 11 -13 14 6 29
18 14 21 23 15 48 -4 19 -13 32 -21 32 -11 0 -13 -6 -9 -21 5 -16 -3 -30 -34
-59 -23 -22 -41 -35 -41 -30 0 5 -7 16 -15 24 -13 13 -20 13 -35 3 -11 -6 -20
-17 -20 -24 0 -6 -9 -14 -19 -18 -11 -3 -21 -16 -23 -27 -4 -26 -28 -36 -28
-12 0 10 16 32 36 50 20 18 33 38 29 44 -3 5 1 10 9 10 9 0 16 7 16 15 0 12
-7 14 -27 9 -33 -8 -47 -25 -30 -37 7 -5 2 -6 -14 -3 -31 7 -61 -17 -34 -27
19 -8 9 -36 -12 -33 -8 1 -20 10 -25 20 -7 13 -13 15 -23 6 -8 -7 -19 -9 -24
-6 -18 12 -22 -14 -5 -39 17 -25 13 -40 -9 -40 -7 0 -12 -7 -12 -15 0 -9 7
-14 19 -12 11 2 15 -1 11 -7 -11 -19 -47 -12 -52 9 -4 15 -13 19 -37 17 -39
-3 -49 -39 -17 -59 12 -7 21 -21 21 -31 0 -17 -1 -17 -18 0 -10 10 -24 33 -31
51 -8 18 -21 32 -30 32 -13 0 -13 -2 -3 -9 10 -6 3 -10 -22 -15 -29 -6 -36
-11 -36 -31 0 -13 -5 -27 -10 -30 -6 -4 -7 -11 -4 -17 4 -6 -1 -8 -16 -3 -36
12 -79 12 -73 1 4 -5 -7 0 -24 12 l-30 21 -13 -39 c-13 -40 -23 -49 -35 -30
-11 17 -25 0 -25 -29 0 -39 -36 -50 -45 -14 -4 17 -11 23 -20 19 -8 -3 -22 -9
-30 -12 -9 -4 -15 -1 -15 9 0 23 -28 29 -40 7 -13 -25 -13 -27 9 -33 14 -3 18
-11 14 -26 -3 -13 -1 -21 8 -21 8 0 9 -3 4 -9 -6 -5 -22 -7 -36 -4 -20 4 -25
10 -22 24 4 15 0 19 -20 19 -20 0 -24 -4 -20 -19 3 -10 0 -22 -6 -25 -6 -4
-11 -18 -11 -32 0 -13 -5 -24 -11 -24 -6 0 -9 9 -6 20 3 12 0 20 -7 20 -7 0
-12 10 -12 21 1 12 -5 24 -13 27 -10 3 -13 -3 -9 -27 5 -34 -6 -39 -38 -16
-12 8 -24 11 -28 8 -3 -3 -6 -1 -6 4 0 6 6 13 13 16 15 5 -9 37 -28 37 -14 0
-25 22 -25 50 0 11 -9 24 -19 30 -27 14 -31 13 -31 -7 0 -15 2 -16 10 -3 8 13
10 13 10 -1 0 -23 -59 -32 -68 -10 -5 11 -8 4 -12 -19 -4 -29 -9 -35 -30 -35
-36 0 -36 -28 0 -43 29 -13 29 -14 15 -42 -16 -31 -51 -56 -73 -52 -9 2 -11
-5 -6 -23 6 -24 4 -26 -22 -20 -16 3 -23 2 -16 -1 30 -14 6 -41 -31 -35 -5 1
-6 -3 -3 -7 3 -5 16 -7 30 -5 13 3 27 0 30 -6 4 -6 0 -11 -8 -11 -9 0 -16 -4
-16 -10 0 -5 -7 -7 -16 -3 -12 4 -15 1 -12 -13 1 -10 14 -21 28 -25 l25 -7
-25 -2 c-14 -1 -31 -2 -38 -1 -11 2 -11 -2 -1 -20 10 -20 9 -25 -11 -41 -14
-11 -27 -15 -34 -9 -6 5 -20 5 -30 2 -18 -7 -18 -8 -2 -14 13 -5 16 -14 12
-32 -4 -15 -2 -25 5 -25 5 0 9 -10 7 -22 -2 -13 -9 -22 -17 -20 -8 2 -21 0
-29 -3 -12 -4 -12 -8 1 -29 14 -20 14 -26 2 -42 -19 -24 -19 -34 0 -34 9 0 12
-6 9 -15 -4 -11 -13 -13 -28 -9 -29 9 -28 7 -10 43 12 24 13 36 5 44 -16 16
-21 6 -28 -52 -5 -41 -2 -55 12 -71 9 -10 14 -24 10 -29 -10 -18 -25 -13 -25
8 0 16 -5 18 -25 13 -26 -7 -34 -26 -12 -28 6 0 21 -5 31 -9 18 -8 18 -9 -3
-17 l-22 -8 20 -29 c19 -26 19 -30 5 -35 -12 -5 -15 -2 -10 9 3 9 -3 23 -14
32 -11 10 -20 23 -20 31 0 7 -5 10 -11 6 -6 -3 -15 0 -20 7 -6 10 -9 8 -9 -8
0 -13 5 -23 11 -23 7 0 8 -11 4 -30 -6 -26 -4 -30 14 -30 23 0 29 -16 9 -23
-10 -4 -10 -7 0 -18 15 -16 16 -39 1 -39 -5 0 -7 5 -4 10 3 6 -1 10 -9 10 -21
0 -20 -20 3 -47 27 -32 50 -30 43 3 -3 19 -1 25 7 20 6 -4 11 -3 11 1 0 5 7
18 16 29 15 19 15 19 6 -1 -6 -11 -12 -36 -14 -55 -2 -30 0 -35 19 -38 15 -2
20 -8 16 -19 -5 -13 -2 -15 15 -11 14 4 19 2 15 -8 -3 -7 -14 -12 -25 -11 -12
1 -23 -4 -25 -10 -3 -8 4 -13 16 -13 11 0 23 -4 26 -10 4 -6 -6 -10 -21 -10
-20 0 -25 -3 -17 -11 14 -14 4 -57 -16 -63 -9 -3 -4 -4 12 -2 15 2 27 0 27 -4
0 -4 11 -19 25 -34 13 -14 19 -26 14 -26 -6 0 -9 -10 -7 -22 3 -23 17 -27 51
-13 15 6 18 4 15 -11 -3 -18 5 -19 113 -19 78 0 121 -5 132 -13 10 -9 22 -10
40 -3 17 7 41 6 75 -3 32 -9 55 -10 66 -4 11 6 22 6 32 -2 7 -7 14 -10 14 -7
0 3 13 2 29 -3 19 -5 33 -4 40 3 6 6 11 7 11 1 0 -11 -1 -11 131 -14 53 -1
102 -5 108 -10 7 -4 30 -4 52 0 24 5 39 3 39 -3 0 -5 12 -7 27 -4 14 3 39 0
55 -5 16 -6 44 -7 62 -4 28 5 33 10 29 26 -4 15 0 20 15 20 15 0 24 12 37 52
9 29 25 65 36 79 10 15 19 36 19 47 0 11 3 22 8 24 14 6 42 78 36 93 -4 10 0
15 11 15 9 0 14 4 11 9 -3 5 3 20 14 34 11 14 28 48 37 76 9 28 20 51 25 51 4
0 8 8 8 19 0 10 7 24 15 31 8 7 17 27 21 46 3 19 10 34 14 34 4 0 15 27 24 60
9 33 21 60 27 60 5 0 9 7 9 15 0 9 7 18 15 21 8 4 15 16 15 28 0 12 14 48 30
79 17 32 30 67 30 78 0 10 5 19 10 19 6 0 10 4 10 10 0 17 34 90 42 90 5 0 8
7 8 15 0 8 5 15 10 15 6 0 10 6 10 14 0 7 14 38 30 69 17 31 30 63 30 72 0 8
6 15 13 15 8 0 19 22 27 55 7 30 17 55 21 55 7 0 22 34 23 55 1 6 6 19 13 30
6 11 14 37 18 58 4 20 12 41 19 45 6 4 17 19 23 34 10 22 9 27 -6 31 -13 3
-18 12 -16 31 4 35 -11 33 -23 -3z"/>
<path d="M13387 16425 c-9 -20 -17 -46 -17 -59 0 -14 -9 -27 -24 -34 -20 -9
-42 -60 -33 -76 1 -3 -8 -15 -19 -28 -22 -24 -40 -98 -24 -98 5 0 8 -20 6 -45
-3 -38 -1 -43 11 -34 10 9 17 9 25 1 18 -18 28 -14 28 8 0 11 2 20 5 20 3 0
14 -9 25 -20 11 -11 25 -20 30 -20 6 0 10 77 10 210 0 116 -1 210 -3 210 -2 0
-11 -16 -20 -35z"/>
<path d="M7824 13795 c4 -16 2 -25 -5 -25 -6 0 -8 -7 -5 -16 5 -13 2 -15 -14
-11 -16 4 -23 -1 -31 -19 -6 -18 -14 -24 -27 -20 -11 4 -22 -2 -31 -15 -11
-18 -10 -24 4 -38 9 -9 15 -11 14 -6 -3 20 1 35 11 35 6 0 10 -18 10 -41 0
-32 -3 -40 -15 -35 -10 3 -15 -1 -15 -12 1 -23 24 -52 41 -52 9 0 10 -3 3 -8
-16 -10 -23 -47 -13 -65 6 -10 5 -18 -1 -22 -5 -3 -10 -15 -10 -26 0 -19 -1
-19 -16 -4 -13 12 -20 13 -28 5 -8 -8 -6 -15 8 -26 11 -8 17 -14 13 -14 -4 0
-3 -9 4 -21 7 -15 14 -18 21 -11 6 6 17 8 24 5 10 -4 14 3 14 22 0 26 2 27 34
22 30 -5 35 -2 40 19 4 13 12 23 19 21 7 -1 13 11 15 31 2 17 7 32 12 32 5 0
7 -7 4 -15 -9 -22 14 -18 26 5 7 14 7 20 0 20 -5 0 -10 5 -10 10 0 6 7 10 15
10 8 0 24 14 34 32 l20 31 -25 33 c-16 21 -21 35 -14 39 6 3 9 19 7 33 -3 21
-16 34 -60 57 -36 19 -57 36 -57 48 0 9 -5 17 -11 17 -7 0 -9 -10 -5 -25z"/>
<path d="M9066 13721 c-16 -11 -34 -17 -41 -15 -7 3 -15 -5 -18 -16 -3 -12
-10 -19 -16 -15 -6 3 -11 1 -11 -4 0 -6 -7 -11 -15 -11 -8 0 -24 -9 -35 -20
-11 -11 -34 -23 -50 -27 -17 -3 -30 -11 -30 -18 0 -18 -78 -28 -158 -20 -64 6
-101 17 -130 39 -33 24 -202 3 -202 -25 0 -5 -6 -9 -13 -9 -23 0 -77 -64 -77
-92 0 -14 -7 -28 -15 -32 -36 -13 -57 -156 -24 -156 5 0 9 9 9 21 0 11 5 17
10 14 6 -3 10 -16 10 -27 0 -11 7 -26 16 -33 9 -6 17 -26 18 -43 1 -31 26 -56
26 -27 0 8 3 16 8 16 4 1 18 3 32 4 14 2 30 4 35 6 19 3 74 -25 79 -41 3 -12
4 -11 5 3 0 9 6 17 12 17 6 0 9 -9 6 -20 -3 -11 3 -30 15 -45 10 -14 17 -29
14 -33 -7 -12 35 -46 43 -35 3 5 14 12 24 16 9 4 16 10 15 14 0 4 4 21 10 36
7 16 12 34 12 42 0 8 4 17 10 20 5 3 12 27 16 53 6 51 17 70 50 89 19 10 26 7
58 -27 20 -21 36 -45 36 -54 0 -8 9 -30 20 -48 15 -24 19 -27 19 -12 0 10 2
34 4 52 2 17 0 32 -5 32 -5 0 -13 11 -18 25 -5 14 -14 25 -20 25 -11 0 -14 39
-4 64 3 9 14 16 23 16 14 1 14 2 -1 14 -22 16 -23 26 -4 26 8 0 17 -11 20 -24
4 -15 14 -26 29 -28 15 -2 21 -9 19 -22 -2 -10 1 -15 7 -12 13 8 17 -1 26 -52
7 -41 6 -43 -24 -55 -39 -15 -40 -27 -1 -22 25 3 30 0 30 -16 0 -11 5 -29 10
-40 9 -16 7 -19 -10 -19 -28 0 -26 -20 3 -21 19 -1 18 -2 -9 -14 -17 -8 -36
-20 -42 -28 -12 -15 -7 -47 8 -47 16 0 8 -68 -8 -76 -16 -7 -25 -9 -64 -13
-13 -1 -17 -9 -15 -31 1 -16 5 -30 10 -30 4 0 7 -11 7 -25 0 -21 -5 -25 -32
-25 -25 0 -29 -3 -20 -12 9 -9 8 -16 -5 -30 -9 -10 -22 -18 -30 -18 -7 0 -13
-6 -13 -14 0 -20 -13 -27 -30 -16 -11 7 -12 12 -4 20 7 7 9 20 7 30 -4 15 -12
18 -37 14 -26 -5 -69 -20 -85 -31 -2 -1 1 -9 8 -16 18 -22 20 -76 4 -93 -8 -8
-12 -21 -10 -29 3 -7 2 -28 -3 -44 -7 -24 -5 -33 8 -41 15 -9 15 -10 -3 -8
-14 2 -20 -3 -20 -17 -1 -21 -2 -21 -50 -12 -16 4 -24 4 -17 1 6 -3 12 -14 12
-25 0 -10 5 -19 12 -19 9 0 9 -3 0 -12 -9 -9 -15 -8 -27 8 -8 10 -15 14 -15 7
0 -7 -7 -13 -15 -13 -9 0 -12 6 -9 15 4 8 1 15 -5 15 -6 0 -11 7 -11 16 0 8 5
12 10 9 6 -3 10 -2 10 4 0 6 -9 15 -19 21 -11 5 -22 23 -26 40 -4 16 -11 32
-16 35 -5 4 -9 15 -9 26 0 14 -6 19 -17 17 -12 -2 -18 -14 -20 -38 -2 -19 -7
-48 -13 -64 -5 -16 -10 -48 -10 -72 0 -24 -4 -46 -10 -49 -5 -3 -10 -26 -10
-50 0 -24 -4 -46 -10 -50 -10 -6 -2 -36 14 -47 20 -14 -19 -63 -53 -66 -42 -4
-49 18 -21 64 17 27 20 38 11 44 -7 4 -14 35 -16 68 -2 34 -11 75 -20 92 -10
19 -11 30 -5 30 6 0 10 10 8 23 -2 12 -10 22 -18 22 -8 0 -14 -6 -13 -12 5
-21 -14 -14 -20 7 -6 25 -24 26 -30 3 -4 -17 -5 -17 -6 0 -1 21 -24 22 -41 1
-8 -8 -25 -14 -40 -12 -15 1 -38 -5 -51 -13 -13 -9 -53 -19 -89 -22 -35 -4
-68 -11 -73 -16 -14 -14 -35 -2 -30 17 3 13 -3 17 -27 18 -16 1 -30 -3 -30 -9
0 -5 -7 -3 -17 4 -15 13 -16 11 -9 -13 5 -22 3 -28 -9 -28 -12 0 -15 6 -10 20
9 30 -4 60 -26 60 -10 0 -18 -3 -18 -7 4 -23 -4 -33 -36 -43 -22 -7 -35 -18
-35 -29 0 -24 -20 -41 -46 -41 -29 0 -35 -11 -19 -33 10 -14 15 -15 21 -6 5 9
10 5 16 -10 5 -15 13 -21 24 -17 8 3 22 -1 31 -10 9 -8 22 -13 30 -10 8 3 22
2 32 -3 10 -6 23 -6 31 -1 9 5 19 5 27 -1 7 -6 41 -13 75 -16 35 -3 68 -9 73
-14 6 -4 31 -11 55 -14 43 -7 93 -24 133 -46 10 -5 22 -7 28 -3 5 3 16 1 24
-6 7 -6 25 -14 39 -18 25 -7 25 -8 11 -30 -9 -12 -27 -22 -41 -22 -13 0 -24
-4 -24 -10 0 -5 -4 -10 -10 -10 -5 0 -10 8 -10 18 0 14 -2 14 -9 3 -8 -12 -13
-12 -35 2 -23 16 -25 16 -31 -3 -4 -11 -12 -17 -21 -13 -8 3 -25 -2 -39 -11
-17 -11 -31 -14 -43 -8 -9 5 -30 7 -47 6 -19 -2 -43 6 -67 22 -43 30 -79 28
-93 -3 -5 -13 -16 -23 -23 -23 -8 0 -10 -5 -6 -12 5 -8 2 -9 -9 -5 -11 4 -20
-1 -27 -13 -6 -11 -15 -20 -20 -20 -18 0 -60 -44 -60 -62 0 -26 40 -78 61 -78
9 0 22 -7 29 -15 7 -8 24 -15 39 -15 14 0 53 -14 85 -30 32 -17 67 -30 76 -30
39 0 80 -22 80 -43 0 -11 -3 -17 -7 -14 -3 4 -13 1 -21 -5 -27 -23 -60 -20
-78 7 -9 14 -25 25 -35 25 -10 0 -21 4 -24 10 -4 6 -14 4 -28 -5 -27 -17 -105
-36 -112 -26 -2 4 1 24 7 44 12 40 6 56 -15 39 -8 -7 -17 -9 -20 -6 -3 4 -14
-12 -24 -35 -18 -43 -43 -62 -43 -34 0 13 -3 14 -12 5 -17 -17 -31 -15 -25 3
4 8 2 17 -4 20 -5 4 -7 10 -4 15 6 9 -20 21 -29 13 -3 -4 -6 -17 -6 -30 0 -12
-5 -23 -11 -23 -7 0 -9 -11 -6 -30 5 -23 2 -33 -16 -45 -12 -8 -16 -15 -9 -15
6 0 12 -7 12 -15 0 -8 -7 -15 -15 -15 -8 0 -15 7 -15 16 0 8 -7 22 -15 31 -9
8 -13 23 -10 33 4 12 -1 19 -15 23 -18 4 -19 3 -9 -9 6 -8 10 -16 8 -17 -2 -2
-16 -11 -31 -20 -18 -11 -29 -29 -34 -52 -6 -31 -24 -60 -24 -38 0 5 -15 7
-32 5 -22 -2 -40 3 -53 15 -23 21 -90 30 -78 10 4 -7 0 -7 -10 2 -9 7 -17 22
-17 32 0 11 -7 19 -15 19 -8 0 -15 -5 -15 -11 0 -6 -7 -8 -16 -5 -9 3 -12 2
-9 -4 4 -6 14 -9 22 -8 9 2 18 -3 20 -9 3 -8 -4 -13 -16 -13 -12 0 -21 -5 -21
-12 0 -9 -3 -9 -11 -1 -19 19 -96 -7 -121 -42 -14 -19 -43 11 -48 51 -5 38 -6
39 -40 36 -19 -2 -37 -7 -40 -11 -8 -12 -57 -22 -74 -15 -10 4 -16 18 -16 36
0 17 -4 27 -10 23 -5 -3 -10 -1 -10 4 0 6 5 11 10 11 6 0 10 6 10 13 0 22 44
57 71 57 36 0 99 20 99 30 0 6 9 10 20 10 11 0 20 4 20 9 0 10 50 32 93 40 15
3 27 10 26 15 -2 17 33 30 41 15 6 -9 12 -10 22 -2 7 6 33 14 58 18 35 6 41 9
25 15 -20 8 -20 8 -1 16 12 5 21 3 24 -4 5 -15 42 24 42 45 0 9 7 25 16 35 14
14 14 20 4 33 -19 23 -47 18 -70 -15 -13 -18 -26 -27 -35 -23 -10 3 -15 -1
-15 -12 0 -14 -7 -15 -47 -9 -27 3 -57 11 -67 16 -14 8 -21 6 -28 -6 -5 -9
-18 -16 -29 -16 -13 0 -18 -4 -13 -12 10 -18 -8 0 -33 35 -12 16 -19 36 -16
47 3 11 0 20 -6 20 -6 0 -11 -11 -11 -24 0 -29 -21 -47 -57 -51 -16 -1 -35 -5
-43 -9 -36 -14 -71 -13 -104 2 -19 9 -35 23 -36 30 0 7 -9 20 -20 29 -11 10
-20 23 -20 31 0 7 -11 23 -25 36 -34 32 -32 43 18 64 66 30 79 33 132 38 27 3
54 9 59 14 5 5 22 6 37 3 25 -5 29 -2 29 17 0 17 4 21 20 17 13 -3 20 0 20 10
0 9 6 13 14 10 21 -8 26 16 7 30 -14 11 -13 13 7 19 21 6 21 7 5 19 -10 7 -20
12 -23 10 -4 -2 -7 15 -9 38 -3 54 -16 68 -32 34 -7 -15 -19 -29 -28 -32 -9
-3 -23 -18 -32 -34 -14 -24 -22 -28 -45 -23 -16 2 -33 8 -39 12 -5 4 -34 13
-62 20 -51 12 -57 18 -56 58 1 6 -5 12 -11 12 -18 0 -59 -106 -53 -136 2 -13
0 -27 -4 -30 -5 -3 -9 -15 -9 -26 0 -12 -7 -29 -14 -37 -8 -9 -17 -32 -19 -52
-2 -19 -7 -40 -11 -47 -4 -7 -4 -17 -1 -23 4 -5 -3 -18 -14 -28 -12 -10 -21
-23 -21 -28 0 -17 -39 -46 -54 -40 -22 9 -28 -7 -11 -29 13 -19 14 -19 29 1
15 20 15 20 37 -2 20 -20 21 -23 6 -29 -23 -8 -21 -30 5 -66 l21 -31 -35 -32
c-28 -26 -41 -32 -64 -28 -16 3 -34 10 -41 15 -7 5 -17 7 -22 3 -7 -3 -8 0 -5
9 4 11 0 16 -11 16 -13 0 -15 -5 -8 -22 4 -13 7 -35 7 -50 -1 -32 2 -34 21
-15 9 9 10 19 3 30 -10 19 -1 22 22 7 8 -5 11 -10 5 -10 -5 -1 0 -5 13 -10 23
-10 52 -4 63 13 4 5 23 7 43 3 26 -5 36 -12 36 -26 0 -10 -4 -22 -10 -25 -5
-3 -10 -15 -10 -26 0 -19 -17 -24 -62 -20 -22 3 -23 -6 -4 -25 9 -9 17 -10 21
-4 4 7 12 7 25 0 12 -7 27 -7 45 0 35 13 35 13 35 -14 0 -19 -6 -24 -37 -30
-61 -9 -118 18 -137 65 l-16 39 -21 -21 c-11 -11 -18 -27 -15 -35 4 -10 -2
-14 -22 -14 -16 0 -22 -3 -15 -8 7 -4 10 -26 8 -55 -2 -36 1 -50 12 -54 8 -3
18 -14 21 -23 10 -24 112 -110 140 -117 13 -3 21 -12 20 -22 -2 -10 5 -17 18
-19 17 -2 20 -8 16 -32 -2 -17 -10 -30 -17 -30 -7 0 -18 -6 -24 -14 -13 -16 4
-26 45 -26 13 0 24 -3 25 -7 0 -5 2 -17 4 -28 11 -59 11 -59 -37 -82 -67 -32
-65 -56 5 -53 69 3 71 2 58 -14 -10 -11 -8 -17 6 -25 29 -17 -4 -33 -47 -24
-68 15 -122 7 -145 -19 -11 -14 -29 -29 -40 -33 -18 -7 -18 -9 8 -19 25 -9 28
-14 24 -43 -4 -19 -1 -34 6 -37 7 -2 2 -5 -10 -5 -21 -1 -53 -47 -53 -77 0
-14 -38 -14 -73 1 -22 9 -23 8 -32 -32 -5 -27 -4 -33 10 -33 11 0 15 -5 12
-14 -4 -10 -1 -13 9 -9 17 6 19 -13 2 -24 -7 -4 -20 -6 -29 -5 -21 4 -31 -61
-18 -115 7 -33 5 -40 -12 -54 -11 -8 -20 -22 -18 -30 1 -8 -3 -27 -10 -43 -6
-16 -10 -35 -7 -42 3 -7 1 -25 -5 -41 -9 -28 -9 -28 -4 5 4 31 -9 45 -18 20
-7 -21 -18 -3 -19 31 l-1 31 -35 -22 c-22 -13 -32 -16 -27 -7 13 20 6 73 -12
82 -11 7 -12 12 -2 23 15 19 -3 64 -26 64 -9 0 -13 -5 -10 -10 4 -6 -8 -29
-27 -52 -21 -27 -28 -43 -20 -46 16 -5 15 -34 -3 -58 -17 -22 -20 -58 -4 -49
11 7 9 4 -25 -62 -9 -17 -16 -40 -16 -51 0 -11 -7 -27 -15 -36 -8 -8 -15 -22
-15 -30 0 -9 -6 -16 -14 -16 -17 0 -27 -25 -19 -47 4 -11 3 -14 -5 -9 -13 8
-17 -6 -5 -18 12 -12 14 -56 3 -56 -17 0 -37 24 -32 38 2 6 -4 12 -13 12 -9 0
-13 -4 -10 -10 11 -18 -34 -10 -52 9 -10 10 -28 22 -40 25 -33 11 -34 59 -2
89 10 10 19 22 19 28 0 16 83 101 107 110 31 11 29 27 -4 40 -37 14 -100 -4
-144 -42 -22 -19 -43 -29 -59 -27 -36 4 -29 46 16 95 46 48 56 61 78 98 10 17
33 42 50 58 17 15 40 36 51 46 24 22 82 51 103 51 9 0 12 -6 8 -16 -3 -9 -2
-12 5 -9 5 4 16 1 24 -5 8 -7 22 -10 30 -6 8 3 15 1 15 -5 0 -5 6 -4 14 3 14
13 0 32 -16 22 -4 -3 -8 2 -8 12 0 12 6 15 25 12 14 -3 28 -1 31 3 3 5 -2 9
-11 9 -16 0 -37 38 -41 78 -2 12 1 20 7 17 15 -10 23 26 10 46 -7 12 -7 19 -1
19 5 0 10 5 10 12 0 6 8 20 17 30 15 17 15 21 -1 55 -13 26 -14 38 -6 43 7 4
8 10 3 13 -4 3 -8 29 -7 59 1 29 0 57 -3 61 -3 5 -6 58 -6 117 -1 60 -4 107
-8 104 -10 -6 -22 68 -12 75 9 6 9 108 0 117 -2 3 -1 23 4 46 7 28 6 51 -3 74
-9 25 -9 44 -1 74 10 41 8 45 -26 40 -9 -1 -12 4 -8 14 3 8 2 18 -3 21 -15 9
-30 -40 -30 -95 0 -30 5 -50 13 -53 7 -3 0 -16 -22 -37 -21 -20 -35 -44 -36
-62 -2 -16 -9 -37 -17 -46 -8 -9 -20 -29 -28 -44 -7 -16 -17 -28 -22 -28 -5 0
-6 -5 -3 -10 4 -6 1 -17 -5 -25 -6 -8 -9 -23 -5 -35 5 -15 0 -22 -20 -30 -20
-8 -25 -15 -20 -29 4 -14 0 -21 -15 -26 l-22 -7 21 -15 c27 -18 27 -43 1 -50
-11 -3 -17 -9 -14 -14 3 -5 1 -9 -5 -9 -5 0 -12 6 -14 13 -3 7 -6 5 -6 -5 -1
-10 4 -18 9 -18 14 0 12 -37 -2 -43 -10 -3 -10 -9 0 -26 13 -22 2 -61 -17 -61
-5 0 -11 -13 -14 -30 -4 -19 -13 -30 -23 -30 -12 0 -15 -6 -10 -24 7 -30 -2
-37 -29 -22 -17 9 -20 21 -19 68 1 63 8 78 26 60 16 -16 25 -15 32 4 4 11 2
15 -8 11 -10 -4 -15 4 -18 29 -2 20 0 37 4 40 4 3 8 23 8 45 0 21 5 39 10 39
6 0 10 8 10 17 0 9 8 25 17 35 12 13 14 21 6 29 -6 6 -9 18 -6 25 3 8 0 20 -5
27 -13 15 -4 31 20 40 15 5 16 11 8 32 -13 33 -13 35 3 35 9 0 13 27 14 101 1
55 6 106 11 112 6 7 12 48 15 92 3 44 8 88 12 98 5 11 0 23 -16 37 -20 16 -21
19 -6 20 9 0 17 8 18 18 4 58 -13 97 -37 88 -9 -3 -12 5 -12 25 1 16 5 29 10
29 4 0 8 7 8 15 0 8 -4 15 -10 15 -5 0 -10 -7 -10 -15 0 -8 -4 -15 -10 -15 -5
0 -10 -8 -10 -17 -1 -17 -1 -17 -11 0 -8 13 -7 22 1 33 9 10 9 14 1 14 -6 0
-11 5 -11 11 0 6 8 8 19 4 11 -3 24 1 32 11 11 13 11 18 2 21 -7 3 -13 12 -13
21 -1 10 -7 4 -15 -13 -11 -25 -13 -27 -14 -9 -1 12 -8 24 -16 28 -8 3 -15 10
-15 17 0 6 6 9 14 6 10 -4 17 3 21 23 4 17 11 32 16 35 19 13 8 27 -16 21 -21
-5 -25 -3 -25 14 0 11 7 23 15 26 10 4 12 11 6 22 -12 23 -1 270 13 307 3 8
12 15 21 15 8 0 15 5 15 10 0 6 -6 10 -14 10 -10 0 -15 17 -18 60 -3 60 3 74
20 44 6 -11 12 -13 16 -6 8 14 -15 52 -31 52 -12 0 -17 -19 -14 -47 1 -7 -2
-13 -6 -13 -5 0 -10 12 -11 27 -3 37 -6 38 -35 9 -26 -26 -22 -41 7 -30 12 5
16 0 15 -17 0 -17 -2 -20 -7 -9 -4 8 -14 14 -22 14 -8 -1 -21 -2 -27 -3 -19
-2 -15 -29 5 -35 10 -3 6 -4 -8 -3 -19 2 -25 -3 -26 -18 -1 -61 -28 -99 -37
-52 -3 16 -5 12 -7 -13 -1 -19 -3 -42 -4 -50 -1 -18 -68 -33 -78 -17 -4 7 -6
0 -4 -14 1 -13 5 -30 9 -36 8 -12 -1 -23 -20 -23 -10 0 -12 11 -9 38 2 20 0
42 -6 49 -8 10 -16 92 -18 186 -1 30 -16 37 -23 10 -3 -10 -5 -3 -6 15 -1 20
-6 32 -15 32 -8 0 -21 3 -29 6 -14 5 -23 -2 -79 -66 -10 -11 -18 -27 -18 -35
0 -8 -5 -15 -11 -15 -6 0 -9 -7 -6 -14 4 -10 1 -13 -9 -9 -9 3 -14 0 -12 -8 2
-9 -8 -15 -24 -17 -16 -2 -28 2 -28 8 0 7 -8 9 -19 5 -11 -3 -22 -1 -26 5 -3
5 -15 10 -26 10 -10 0 -19 5 -19 12 0 9 -3 9 -12 0 -19 -19 -27 -14 -39 28 -7
23 -18 40 -27 40 -7 0 -16 9 -19 21 -4 16 -8 18 -14 7 -7 -9 -11 -10 -16 -1
-5 6 -21 13 -38 16 -42 7 -65 17 -65 29 0 6 -6 6 -14 -1 -10 -8 -16 -9 -21 -1
-13 20 -36 11 -30 -12 3 -13 -1 -32 -9 -43 -13 -17 -18 -18 -35 -7 -31 18 -57
15 -75 -10 -12 -16 -15 -17 -12 -6 3 10 1 20 -4 23 -17 11 -47 -14 -67 -53
-10 -21 -24 -37 -31 -34 -7 2 -12 -5 -12 -17 0 -12 -5 -21 -11 -21 -14 0 -79
-67 -79 -81 0 -19 -53 -88 -71 -94 -24 -8 -109 38 -152 82 -18 18 -35 33 -38
33 -8 0 -81 74 -124 124 -17 20 -39 35 -52 36 -16 0 -23 6 -23 20 0 11 -4 20
-9 20 -5 0 -11 10 -13 22 -2 12 -9 23 -17 26 -8 3 -11 0 -8 -6 4 -5 -5 -12
-18 -15 -18 -3 -30 2 -40 17 -8 11 -15 16 -15 10 0 -7 -12 -9 -27 -7 -24 4
-25 3 -10 -7 9 -6 17 -16 17 -21 0 -6 -5 -7 -11 -4 -5 4 -18 -3 -28 -14 -25
-28 -33 -26 -25 5 5 19 3 25 -5 23 -7 -3 -12 -8 -12 -12 1 -4 1 -18 1 -32 0
-16 6 -25 15 -25 17 0 20 -25 5 -35 -6 -4 -4 -12 5 -21 8 -9 13 -20 10 -24 -3
-5 -1 -17 4 -27 5 -10 12 -27 16 -38 4 -13 8 -16 13 -8 5 8 19 9 46 3 69 -15
64 -27 -16 -36 -48 -6 -58 -4 -77 15 -11 11 -28 21 -36 21 -8 0 -15 6 -15 13
0 7 -11 23 -25 35 -14 12 -25 28 -25 35 0 7 -13 24 -28 37 -15 14 -31 33 -35
44 -6 14 -10 16 -21 6 -11 -9 -20 -9 -37 0 -28 15 -45 -6 -24 -30 21 -23 8
-64 -26 -79 -29 -13 -54 -7 -44 10 6 8 -14 13 -41 10 -15 -2 -25 51 -13 65 6
7 4 16 -5 23 -11 9 -16 9 -22 0 -4 -8 -3 -9 4 -5 7 4 12 3 12 -2 0 -10 -46
-62 -55 -62 -15 0 -31 -26 -27 -44 3 -10 1 -17 -4 -14 -5 3 -16 -10 -25 -28
-9 -19 -13 -34 -8 -34 5 0 9 -6 9 -14 0 -17 -38 -28 -59 -17 -9 5 -22 6 -28 4
-7 -3 -13 -1 -13 4 0 6 -41 10 -91 10 -97 1 -109 7 -109 51 0 13 -6 22 -15 22
-9 0 -20 11 -25 25 -10 26 -40 35 -41 13 0 -7 -4 -3 -9 10 -5 12 -15 22 -21
22 -8 0 -8 -4 1 -15 16 -20 5 -45 -20 -45 -16 0 -20 -6 -20 -34 0 -31 -3 -34
-36 -38 -19 -2 -38 0 -40 4 -3 5 -10 5 -16 2 -6 -4 -13 -2 -17 4 -4 7 -18 4
-39 -10 -28 -18 -32 -25 -27 -49 4 -19 3 -29 -5 -29 -10 0 -10 -3 0 -15 12
-15 5 -55 -11 -55 -5 0 -9 -13 -9 -29 0 -16 -6 -32 -12 -34 -13 -5 1 -20 27
-31 6 -2 5 -9 -3 -17 -10 -11 -16 -11 -33 -1 -19 12 -20 11 -17 -28 1 -22 6
-40 10 -40 11 0 10 -52 -1 -69 -7 -11 -1 -23 20 -45 l29 -30 29 28 c32 31 66
30 54 0 -4 -12 -3 -15 5 -10 7 4 12 2 12 -3 0 -6 10 -11 23 -11 18 0 19 -2 7
-11 -12 -9 -12 -10 3 -5 10 3 20 6 23 6 2 0 0 8 -3 17 -6 15 -5 16 9 3 9 -8
14 -18 11 -22 -9 -16 20 -7 33 10 13 16 14 16 7 -3 -3 -11 -11 -23 -17 -27
-15 -11 14 -29 35 -22 9 2 24 -3 33 -12 13 -13 19 -14 31 -4 14 11 19 7 16
-12 0 -5 5 -8 13 -8 23 0 30 -21 12 -38 -15 -15 -16 -15 -16 1 0 9 -7 17 -15
17 -8 0 -15 3 -15 8 0 4 -16 8 -35 9 -20 1 -33 -3 -30 -8 4 -5 13 -9 21 -9 8
0 60 -45 116 -100 75 -73 109 -100 128 -100 14 0 32 -5 40 -10 13 -8 13 -10
-1 -10 -14 0 -16 -14 -15 -95 1 -69 4 -95 14 -95 6 0 12 -4 12 -10 0 -5 -5
-10 -11 -10 -5 0 -8 -4 -5 -9 4 -5 1 -11 -6 -13 -10 -4 -10 -18 0 -68 8 -47 9
-66 0 -71 -6 -4 -8 -20 -4 -40 13 -72 14 -84 5 -90 -6 -3 -10 -39 -11 -80 -1
-41 -5 -79 -11 -86 -5 -7 -6 -17 -2 -23 10 -16 12 -111 3 -116 -5 -3 -5 -17
-2 -31 4 -16 3 -24 -3 -20 -6 4 -7 -13 -3 -44 4 -27 3 -49 -1 -49 -5 0 -6 -19
-4 -42 2 -23 0 -45 -5 -48 -5 -3 -6 -18 -1 -35 5 -18 4 -39 -3 -53 -6 -16 -7
-26 0 -30 6 -4 10 -53 10 -112 -1 -58 3 -125 7 -150 5 -25 10 -76 13 -115 3
-47 9 -74 19 -81 13 -10 13 -13 2 -17 -19 -7 -10 -67 11 -67 10 0 6 -9 -14
-27 -20 -18 -42 -27 -73 -30 -25 -2 -51 -8 -57 -14 -8 -7 -14 -7 -19 1 -8 12
-52 13 -59 1 -4 -6 -21 -5 -43 1 -27 7 -38 7 -41 -1 -5 -15 -72 -14 -72 2 0 9
-24 12 -86 12 -47 0 -87 2 -89 5 -5 8 -75 4 -104 -5 -15 -5 -21 -2 -21 9 0 9
-7 16 -15 16 -8 0 -15 -5 -15 -11 0 -5 -4 -8 -10 -4 -5 3 -7 13 -4 23 5 13 4
14 -4 3 -10 -14 -92 -24 -92 -12 0 4 -26 6 -57 5 -36 -2 -71 3 -91 12 -26 12
-40 13 -64 5 -17 -6 -34 -8 -38 -6 -5 3 -11 1 -15 -5 -4 -6 -15 -4 -30 6 -13
9 -28 13 -34 10 -5 -3 -12 0 -15 6 -3 7 -3 2 0 -12 l5 -25 -20 23 c-11 13 -22
18 -26 12 -9 -15 -45 -12 -45 4 0 18 -40 28 -57 14 -8 -6 -29 -8 -52 -4 -22 3
-42 2 -45 -2 -8 -13 -96 -3 -128 14 -16 8 -33 12 -37 9 -5 -3 -12 1 -14 7 -4
8 -6 7 -6 -4 -1 -9 5 -18 12 -21 6 -2 9 -8 5 -12 -10 -10 -38 14 -38 32 0 9
-6 13 -15 9 -8 -3 -15 0 -15 7 0 8 -3 8 -8 2 -12 -17 -47 -12 -44 6 1 11 -7
18 -23 21 -20 4 -25 1 -25 -16 0 -17 2 -18 10 -6 5 8 12 11 16 7 4 -4 2 -13
-4 -19 -16 -16 -85 -10 -95 8 -4 7 -14 11 -22 8 -8 -4 -15 -1 -15 5 0 19 -42
12 -47 -8 -7 -28 -43 -22 -57 9 -12 28 -21 30 -55 11 -23 -13 -31 -10 -43 20
-2 4 -13 10 -25 13 -17 6 -23 3 -23 -8 0 -23 -13 -20 -34 9 -14 19 -22 22 -32
14 -7 -6 -10 -17 -7 -26 5 -14 3 -14 -18 -1 -13 8 -43 14 -66 14 -25 -1 -45 4
-48 12 -2 6 -13 12 -23 12 -26 0 -34 11 -21 27 9 10 8 13 -1 13 -6 0 -14 -9
-17 -20 -3 -11 -12 -20 -19 -20 -8 0 -14 -4 -14 -10 0 -17 -18 -11 -45 16 -20
20 -29 23 -40 14 -18 -15 -44 -1 -70 39 -11 17 -32 35 -47 40 -21 7 -28 17
-28 35 0 18 -6 26 -21 28 -12 2 -27 12 -33 22 -6 11 -21 30 -34 43 -12 13 -22
30 -22 37 0 16 -53 76 -68 76 -11 0 -16 14 -9 23 4 6 -25 37 -35 37 -5 0 -7
-4 -3 -9 3 -5 1 -12 -5 -16 -6 -4 -8 -10 -6 -14 3 -4 1 -13 -5 -21 -6 -11 -9
-8 -9 13 0 28 0 28 -24 10 -24 -18 -31 -61 -12 -74 5 -4 1 -22 -8 -40 -15 -29
-15 -34 0 -56 12 -19 13 -28 4 -38 -7 -8 -9 -18 -6 -24 3 -5 0 -12 -6 -15 -10
-5 -10 -7 0 -12 6 -3 12 -12 12 -19 0 -7 5 -15 10 -17 7 -2 5 -19 -5 -47 -12
-35 -13 -47 -3 -59 10 -12 10 -16 1 -19 -17 -6 -16 -23 1 -23 8 0 17 -7 20
-16 4 -11 2 -15 -6 -11 -16 6 -21 -43 -6 -60 6 -7 7 -13 2 -13 -5 0 -2 -4 6
-10 12 -7 12 -16 4 -49 -10 -36 -9 -40 9 -45 17 -4 18 -7 7 -20 -7 -9 -9 -16
-5 -16 5 0 1 -8 -9 -19 -14 -16 -15 -20 -2 -30 11 -10 17 -8 25 6 9 16 10 16
11 1 0 -9 -5 -20 -10 -23 -6 -4 -8 -15 -5 -26 4 -10 2 -19 -3 -19 -5 0 -12
-11 -14 -25 -3 -14 -1 -25 3 -25 5 0 9 7 9 15 0 8 4 15 8 15 5 0 8 -16 8 -35
-1 -30 -4 -35 -25 -35 -20 0 -22 -2 -11 -15 7 -9 10 -18 7 -21 -3 -4 0 -13 8
-21 20 -19 20 -83 1 -83 -17 0 -41 -64 -30 -81 4 -8 9 -7 16 2 8 11 9 10 4 -3
-3 -10 -1 -20 5 -23 5 -4 7 -11 3 -16 -3 -5 -9 -7 -13 -4 -5 2 -8 -21 -7 -53
1 -36 -5 -69 -16 -90 -13 -26 -15 -38 -6 -57 12 -27 5 -56 -14 -51 -7 1 -10 1
-5 -1 14 -9 7 -23 -12 -23 -10 0 -24 -7 -31 -15 -7 -8 -39 -22 -71 -31 l-59
-17 0 -313 0 -314 33 0 c17 -1 75 -3 127 -7 52 -3 105 -5 118 -4 59 3 85 3
195 -3 99 -5 169 -11 302 -25 11 -1 103 -4 205 -6 102 -2 215 -6 252 -9 39 -2
68 0 70 5 2 7 28 6 73 -1 39 -6 159 -15 267 -20 108 -4 201 -11 206 -14 17
-10 237 -9 264 2 27 11 42 10 152 -15 21 -4 31 -1 38 11 8 14 13 15 24 5 11
-9 14 -8 14 4 0 9 -5 19 -10 22 -7 4 -8 11 -2 18 6 7 9 23 8 37 -2 36 -46 31
-84 -9 -28 -30 -30 -30 -46 -13 -9 10 -16 27 -16 36 0 10 -9 20 -20 23 -11 3
-20 10 -20 16 0 5 -9 2 -19 -7 -14 -13 -21 -14 -27 -5 -4 8 -3 10 4 5 7 -4 12
-2 12 4 0 6 -7 13 -15 16 -10 4 -13 13 -9 26 6 21 -13 51 -27 42 -5 -3 -9 0
-9 5 0 6 5 11 11 11 7 0 10 12 7 30 -3 18 0 31 9 34 7 3 13 14 13 25 0 14 5
18 20 14 11 -3 20 -9 20 -14 0 -5 6 -9 14 -9 8 0 22 -7 30 -16 9 -8 16 -11 16
-5 0 6 6 8 14 5 8 -3 13 -11 10 -18 -2 -6 10 -17 27 -23 17 -7 28 -16 25 -21
-3 -6 1 -13 10 -16 8 -3 12 -11 9 -16 -4 -6 -1 -9 7 -8 22 5 14 -26 -10 -38
-17 -9 -20 -14 -11 -20 7 -4 14 -3 17 4 2 6 10 8 18 5 9 -3 14 2 14 16 0 16 8
23 30 28 17 3 30 10 30 15 0 5 4 6 10 3 14 -9 50 13 50 31 0 10 7 13 26 8 19
-5 29 -1 40 15 8 11 23 21 32 21 24 1 50 23 44 38 -3 9 3 11 24 6 20 -5 25 -4
20 5 -5 8 -22 10 -52 5 -38 -5 -44 -4 -44 11 0 10 -5 15 -12 12 -9 -3 -13 7
-13 31 0 31 5 39 38 56 32 17 37 24 35 52 -2 32 -2 32 -30 18 -22 -12 -28 -12
-28 -1 0 15 -46 21 -56 6 -3 -6 3 -13 15 -16 12 -3 21 -9 21 -13 0 -14 -26
-18 -61 -10 -19 4 -28 8 -21 9 19 2 14 21 -5 21 -15 0 -16 2 -3 10 8 5 10 10
4 10 -5 0 -15 -5 -22 -12 -6 -6 -15 -8 -19 -4 -4 4 -1 11 7 17 13 8 12 12 -5
25 -11 8 -28 13 -37 11 -18 -5 -42 15 -32 26 3 3 -8 5 -25 5 -17 -1 -37 5 -45
11 -8 7 -20 10 -26 6 -5 -3 -29 3 -53 14 -23 11 -63 23 -89 26 -26 3 -54 13
-62 21 -8 8 -23 14 -34 14 -15 0 -21 8 -24 35 -3 28 -1 35 13 35 12 0 16 -6
12 -19 -7 -28 32 -48 46 -24 6 10 11 12 11 6 0 -20 20 -15 20 4 0 13 3 14 12
5 7 -7 23 -12 36 -12 19 0 22 -4 17 -20 -4 -11 -2 -20 4 -20 6 0 11 5 11 10 0
13 47 13 56 -1 3 -6 17 -8 29 -5 13 3 26 2 29 -3 3 -5 15 -7 26 -4 11 3 26 1
33 -5 6 -5 35 -9 62 -7 68 4 65 3 59 23 -2 9 1 7 7 -5 15 -28 27 -28 59 -3 21
17 23 21 10 30 -13 9 -12 13 9 30 13 11 29 20 37 20 8 0 14 7 14 15 0 8 7 15
15 15 8 0 15 5 15 10 0 6 -7 10 -15 10 -8 0 -15 7 -15 15 0 8 5 15 11 15 5 0
8 4 4 9 -9 16 15 24 31 10 8 -6 17 -9 21 -5 4 3 -2 13 -13 20 -14 11 -16 18
-7 26 8 9 16 7 32 -9 12 -12 26 -19 31 -16 15 9 12 35 -6 53 -15 14 -14 16 7
25 13 6 32 9 42 8 10 -1 17 5 18 16 0 10 4 39 8 65 4 26 4 45 0 43 -3 -3 -9 4
-12 15 -5 19 -4 20 24 3 20 -12 25 -19 16 -25 -9 -6 -9 -8 2 -8 7 0 11 -6 7
-15 -3 -9 0 -15 9 -15 9 0 12 6 9 15 -4 10 0 15 11 15 12 0 15 5 11 17 -4 9
-2 19 4 23 5 3 11 18 12 34 2 25 4 25 15 10 7 -10 13 -24 13 -32 0 -7 5 -10
10 -7 6 3 10 14 10 24 0 10 7 24 15 31 9 7 13 20 10 28 -8 23 4 33 26 19 17
-10 22 -8 44 18 13 17 25 27 26 23 1 -5 3 -12 4 -18 1 -5 3 -19 4 -30 1 -13 8
-20 23 -20 20 0 20 1 5 18 -10 10 -17 35 -17 55 0 30 4 37 20 37 11 0 20 -4
20 -10 0 -5 4 -10 10 -10 5 0 7 6 4 13 -2 7 5 23 17 35 15 16 19 30 15 48 -7
25 3 31 20 14 6 -6 10 -3 11 10 1 11 -3 20 -9 20 -6 0 1 11 15 25 15 16 23 33
20 44 -3 12 2 20 16 24 12 3 21 12 21 21 0 20 14 21 30 1 14 -17 35 -21 24 -4
-4 7 2 9 17 7 13 -2 29 3 35 11 6 7 24 15 41 16 26 2 30 0 25 -17 -4 -16 -1
-19 14 -16 10 2 18 10 17 16 -4 17 14 15 21 -3 3 -8 1 -15 -4 -15 -5 0 -9 -11
-8 -25 2 -23 18 -37 18 -15 0 6 6 10 14 10 7 0 16 14 20 30 3 17 11 30 17 30
7 0 9 -9 5 -25 -7 -29 8 -33 24 -7 8 12 13 14 16 4 11 -24 35 -41 50 -35 9 3
20 0 25 -8 7 -11 9 -11 9 3 0 23 38 32 73 19 26 -10 38 -31 17 -31 -5 0 -10
-10 -9 -22 0 -15 3 -18 6 -8 10 25 27 37 45 32 13 -3 15 1 11 17 -6 25 0 27
21 6 22 -22 9 -45 -25 -45 -18 0 -32 -7 -39 -20 -7 -14 -7 -20 0 -20 5 0 10 5
10 10 0 6 14 10 30 10 20 0 30 -5 30 -15 0 -8 5 -15 11 -15 6 0 8 9 4 23 -6
21 -6 21 9 3 9 -11 16 -25 17 -30 0 -6 5 0 10 13 8 19 6 27 -6 33 -8 5 -15 16
-15 24 0 12 4 12 25 -3 15 -11 22 -24 19 -35 -4 -13 -1 -16 10 -12 12 4 16 0
16 -16 0 -21 6 -22 57 -3 7 3 17 -7 23 -21 10 -28 54 -37 63 -13 3 6 6 0 6
-15 1 -16 -4 -28 -11 -28 -9 0 -8 -4 2 -10 24 -16 33 -12 26 14 -3 12 -3 25 0
28 7 7 58 -43 69 -67 8 -18 9 -18 12 7 4 24 33 49 33 28 0 -6 -4 -10 -10 -10
-5 0 -10 -4 -10 -8 0 -5 10 -8 23 -7 12 1 27 -2 34 -7 7 -5 27 -7 45 -3 30 5
31 5 15 -8 -15 -13 -16 -16 -2 -27 11 -9 19 -10 26 -3 16 16 49 3 49 -19 0
-16 5 -19 24 -14 18 4 25 1 29 -14 3 -12 13 -19 24 -18 36 3 53 -2 53 -16 0
-11 10 -13 43 -9 31 3 38 2 27 -6 -12 -9 -11 -11 8 -11 15 0 21 4 16 11 -4 7
-1 10 6 7 24 -8 23 -28 -2 -38 -21 -9 -20 -10 10 -7 22 2 32 -1 32 -10 0 -7 5
-13 11 -13 7 0 9 10 7 25 -3 14 -1 25 3 25 5 0 9 -5 9 -10 0 -6 8 -10 18 -8
11 2 18 -4 20 -19 2 -14 8 -20 18 -16 8 3 14 -1 14 -8 0 -11 2 -11 10 1 7 12
12 12 22 2 6 -6 8 -12 2 -12 -5 -1 6 -7 25 -15 18 -8 37 -12 42 -9 5 3 9 -3 9
-13 0 -15 2 -16 10 -3 8 13 10 12 10 -3 0 -10 5 -15 10 -12 6 3 10 17 10 30 0
13 5 27 10 30 6 4 9 3 8 -2 -4 -14 13 -53 23 -53 5 0 9 -7 9 -15 0 -8 6 -12
14 -9 8 3 16 -4 20 -18 5 -19 8 -21 16 -8 9 13 12 12 25 -4 10 -13 12 -23 6
-29 -7 -7 -6 -17 0 -29 6 -12 8 -46 5 -81 -3 -34 -6 -82 -5 -106 0 -24 -7 -80
-15 -125 -15 -79 -39 -232 -51 -330 -9 -66 -8 -129 5 -341 11 -184 29 -274 60
-310 10 -11 23 -38 30 -60 7 -22 19 -49 26 -60 8 -11 14 -27 14 -37 0 -9 6
-21 13 -25 8 -4 20 -20 28 -34 14 -26 125 -178 153 -211 8 -9 24 -38 36 -65
11 -26 34 -61 49 -78 36 -38 47 -60 55 -113 5 -32 3 -44 -8 -48 -23 -9 -55
-96 -67 -179 -6 -43 -8 -79 -6 -82 3 -2 -3 -13 -14 -24 -10 -10 -19 -26 -19
-35 0 -23 -52 -84 -72 -84 -11 0 -18 -8 -18 -20 0 -11 -5 -20 -11 -20 -8 0 -8
-4 0 -14 19 -23 9 -70 -16 -81 -59 -25 -68 -145 -25 -335 6 -25 13 -65 17 -90
9 -66 43 -207 66 -271 10 -30 19 -64 19 -75 0 -20 65 -94 81 -94 5 0 13 -9 19
-21 10 -17 7 -24 -15 -45 -14 -13 -31 -24 -37 -24 -6 0 -8 -10 -4 -24 3 -14 1
-28 -5 -31 -11 -7 -7 -48 10 -104 9 -29 8 -38 -7 -55 -14 -16 -14 -18 -1 -14
20 8 39 -23 32 -51 -6 -22 -25 -30 -22 -8 1 6 -1 20 -6 30 -5 13 -11 15 -21 7
-18 -16 -52 4 -60 35 -3 14 -9 25 -13 25 -4 0 -8 24 -9 53 -4 126 -17 170 -75
251 -22 31 -25 83 -7 116 7 13 3 43 -11 97 -12 43 -23 91 -25 107 -2 16 -11
40 -19 52 -8 13 -15 30 -15 39 0 8 -4 15 -10 15 -5 0 -10 9 -10 20 0 12 -7 34
-15 50 -9 17 -14 30 -11 30 2 0 -9 28 -26 62 -22 45 -28 71 -25 95 3 18 1 35
-4 38 -5 4 -9 26 -9 50 0 24 -4 46 -9 49 -9 6 -38 110 -45 164 -2 18 -14 49
-25 68 -12 20 -23 50 -25 67 -2 17 -9 33 -15 35 -6 2 -11 8 -11 13 0 6 5 7 11
3 7 -4 10 -3 7 2 -25 55 -47 126 -52 169 -3 34 -17 65 -28 65 -6 0 -6 6 2 15
10 12 9 20 -6 42 -10 16 -18 38 -19 50 -1 32 -31 61 -46 46 -7 -7 -13 -22 -14
-35 -1 -13 -3 -26 -4 -30 0 -4 -8 -4 -18 -1 -11 5 -14 3 -8 -6 10 -17 -15 -33
-32 -20 -8 8 -9 18 -2 36 5 14 7 28 5 30 -9 10 -24 -8 -29 -34 -15 -74 -29
-130 -39 -151 -9 -17 -9 -25 0 -34 7 -7 12 -19 12 -28 0 -9 8 -25 19 -34 19
-17 36 -68 32 -95 -2 -8 3 -18 11 -22 10 -7 10 -9 1 -9 -7 0 -13 -9 -13 -20 0
-11 -7 -20 -16 -20 -8 0 -12 -5 -9 -10 4 -6 11 -7 17 -4 6 4 8 -1 4 -14 -4
-12 -3 -30 3 -40 14 -26 72 -24 86 3 7 13 18 19 33 17 20 -3 23 0 18 16 -6 17
-3 19 13 15 16 -4 21 -13 20 -42 0 -20 2 -49 5 -66 5 -30 17 -139 19 -166 1
-25 -15 -79 -24 -79 -5 0 -9 -15 -9 -33 0 -19 -7 -48 -16 -65 -24 -49 -34 -92
-22 -92 6 0 8 -12 4 -30 -5 -30 10 -70 27 -70 4 0 6 4 2 10 -6 9 62 60 87 64
7 1 24 8 37 15 23 13 23 12 17 -14 -4 -17 -3 -24 4 -20 5 3 10 3 10 -2 1 -4 3
-30 6 -58 9 -104 10 -145 3 -147 -5 -2 -9 -20 -11 -41 -2 -42 -13 -55 -48 -60
-13 -2 -26 -9 -28 -15 -5 -17 -29 -15 -36 3 -3 8 -13 15 -22 15 -13 0 -14 3
-5 13 6 8 8 17 4 21 -4 4 0 4 10 0 9 -3 17 -2 17 4 0 5 -9 12 -20 15 -13 3
-20 14 -20 30 0 14 -7 32 -15 41 -14 13 -14 16 0 23 19 11 9 79 -14 88 -18 7
-61 -40 -61 -67 0 -10 -4 -18 -9 -18 -14 0 -25 -39 -30 -107 0 -12 -17 -42
-36 -67 -39 -51 -41 -56 -21 -56 7 0 25 -11 40 -25 23 -22 25 -27 14 -52 -6
-15 -17 -34 -23 -41 -7 -7 -10 -24 -8 -37 l5 -23 34 20 c19 11 34 26 34 34 0
11 8 9 30 -8 23 -17 33 -19 42 -10 7 7 23 11 38 11 23 -2 23 -2 3 -6 -13 -2
-23 -8 -23 -13 0 -5 6 -7 14 -4 9 3 17 -3 21 -15 3 -12 11 -21 16 -21 5 0 7
-17 3 -37 -7 -50 15 -66 74 -52 43 9 90 8 109 -4 22 -13 8 -111 -22 -156 l-28
-41 24 -20 c13 -10 29 -19 35 -20 6 0 15 -15 21 -34 10 -33 9 -34 -29 -55 -65
-34 -151 -25 -202 21 -13 12 -36 18 -67 18 -62 0 -168 27 -198 51 -13 10 -66
33 -119 49 -107 35 -202 77 -202 90 0 5 -17 12 -37 15 -82 14 -103 25 -119 63
-15 36 -14 40 20 127 20 50 36 98 36 108 0 9 4 25 9 35 5 9 15 44 21 77 7 33
18 71 25 85 13 24 31 111 41 190 3 19 9 39 14 44 14 14 13 206 -1 206 -6 0 -9
7 -5 15 4 11 -1 15 -19 15 -15 0 -25 6 -25 14 0 8 -11 17 -25 20 -22 6 -24 9
-15 26 6 11 7 20 3 21 -4 1 -17 2 -28 3 -15 1 -20 9 -21 34 -2 32 0 33 25 27
14 -4 34 -14 44 -22 16 -15 17 -14 11 18 -13 75 -25 109 -39 109 -7 0 -15 -5
-17 -11 -2 -7 -12 -7 -31 0 -16 6 -57 11 -91 11 -34 0 -66 3 -69 7 -4 3 -42 8
-85 9 -42 2 -107 6 -144 9 -47 3 -69 1 -74 -7 -7 -11 -34 -196 -35 -238 0 -8
-4 -67 -9 -130 -5 -63 -14 -191 -20 -285 -6 -93 -13 -190 -15 -215 -3 -25 -7
-88 -10 -140 -3 -52 -13 -180 -20 -285 -8 -104 -19 -266 -25 -360 -5 -93 -14
-237 -20 -320 -13 -200 -12 -258 3 -277 10 -13 51 -18 222 -27 305 -17 569
-41 577 -54 5 -8 14 -7 33 1 23 11 29 10 39 -4 9 -11 30 -17 68 -19 31 -1 62
-6 69 -10 8 -5 10 -4 5 3 -5 8 2 12 18 12 21 0 26 -5 27 -27 1 -17 3 -21 6
-10 3 11 14 17 34 17 32 0 37 -11 14 -30 -18 -15 -20 -40 -4 -40 8 0 9 -13 5
-41 -4 -26 -3 -38 4 -34 5 3 10 13 10 21 0 8 7 14 15 14 11 0 15 -12 15 -46 0
-40 2 -45 18 -39 46 17 67 16 80 -5 15 -24 8 -40 -10 -22 -8 8 -14 7 -24 -3
-26 -25 -15 -34 22 -19 39 16 59 10 32 -10 -11 -8 -15 -20 -11 -34 7 -27 23
-29 23 -3 0 10 7 24 15 31 10 9 15 9 15 1 0 -6 4 -11 10 -11 5 0 6 8 3 17 -4
11 6 7 30 -13 21 -16 35 -35 32 -42 -4 -10 1 -11 18 -6 20 6 19 4 -7 -25 -23
-24 -27 -34 -18 -43 17 -17 15 -31 -3 -24 -9 3 -15 0 -15 -9 0 -19 10 -19 36
0 31 21 74 27 74 9 0 -8 -7 -14 -16 -14 -21 0 -53 -32 -37 -37 7 -3 9 -12 6
-20 -4 -11 1 -9 15 5 23 23 42 29 42 12 0 -21 2 -25 17 -42 15 -17 14 -18 -5
-18 -15 0 -22 6 -22 19 0 11 -4 23 -10 26 -6 3 -7 -1 -4 -9 4 -11 0 -16 -10
-16 -11 0 -16 -9 -16 -30 0 -19 5 -30 14 -30 8 0 16 -6 19 -12 5 -18 37 8 38
31 0 11 4 8 12 -8 10 -21 8 -26 -11 -39 -12 -8 -22 -24 -22 -36 0 -12 -5 -27
-10 -32 -8 -8 -2 -11 18 -12 24 0 29 3 25 18 -3 10 0 21 6 24 6 4 11 16 11 27
0 35 17 19 23 -22 3 -25 0 -50 -9 -67 -20 -39 -18 -41 27 -39 37 2 41 -1 55
-32 12 -29 12 -32 -1 -27 -12 4 -13 2 -3 -13 8 -13 8 -26 0 -50 -7 -20 -7 -29
-1 -26 9 6 7 -13 -7 -66 -3 -9 0 -29 6 -45 l10 -29 -25 28 c-14 15 -25 35 -25
43 0 8 -5 14 -11 14 -6 0 -8 -7 -5 -16 4 -10 -1 -22 -11 -30 -15 -11 -16 -15
-4 -23 8 -5 19 -7 26 -5 6 3 18 -2 25 -11 7 -8 19 -15 26 -15 8 0 14 -5 14
-11 0 -5 4 -8 8 -5 4 2 14 1 22 -5 12 -7 10 -9 -6 -9 -19 0 -22 -5 -20 -37 1
-34 -2 -38 -24 -39 -14 -1 -31 7 -38 17 -13 19 -39 28 -28 10 4 -5 0 -11 -6
-14 -7 -2 0 -10 17 -18 30 -14 55 -33 55 -43 0 -11 -46 -1 -57 14 -10 13 -14
13 -30 -5 -10 -11 -18 -26 -17 -32 1 -7 2 -22 3 -33 1 -20 41 -30 41 -10 0 6
-4 10 -10 10 -5 0 -10 9 -10 20 0 11 4 20 10 20 5 0 7 -7 4 -15 -9 -23 12 -18
29 7 14 22 15 20 5 -20 -6 -23 -8 -45 -6 -48 3 -2 34 -6 69 -8 35 -2 71 -6 79
-8 25 -8 54 -19 78 -31 18 -9 25 -8 31 2 6 9 14 10 27 3 11 -6 32 -8 47 -5 15
3 33 0 41 -6 8 -7 31 -11 53 -10 50 2 119 -8 144 -21 10 -6 19 -20 19 -32 0
-19 -4 -20 -52 -15 -29 3 -87 1 -128 -5 -41 -6 -82 -11 -90 -11 -8 0 -246 3
-529 7 -282 4 -517 9 -522 12 -5 3 -140 5 -301 6 -161 0 -329 4 -373 9 -44 4
-143 10 -220 14 -77 3 -162 8 -190 11 -27 4 -230 6 -450 6 -328 1 -410 -2
-455 -15 -30 -8 -61 -17 -69 -18 -21 -6 -42 44 -43 99 0 26 5 97 12 157 6 61
13 153 15 205 2 52 9 156 15 230 11 140 12 150 31 440 6 96 13 198 15 225 2
28 8 122 13 210 6 88 13 187 15 220 3 33 8 96 11 140 3 44 8 103 10 130 8 85
15 206 20 315 2 58 8 128 14 155 5 28 9 64 9 80 -1 17 2 77 6 135 4 58 9 130
11 160 2 30 6 80 8 110 13 154 27 343 31 410 3 41 9 122 15 180 9 99 31 392
36 490 2 25 8 65 15 90 7 27 8 46 2 48 -31 10 -45 31 -44 66 1 30 -2 36 -18
36 -11 0 -21 -6 -21 -12 -3 -28 -5 -34 -16 -55 -8 -12 -11 -46 -9 -81 2 -33
-2 -95 -9 -137 -6 -42 -11 -135 -9 -206 1 -75 -2 -131 -7 -135 -6 -3 -7 -19
-4 -35 4 -17 2 -36 -4 -43 -7 -8 -10 -19 -9 -26 3 -12 -67 -41 -77 -32 -3 3
-42 7 -88 8 -45 2 -118 6 -162 9 -44 3 -150 8 -235 10 -85 2 -195 7 -245 10
-49 3 -155 8 -235 11 -80 3 -183 7 -230 9 -316 13 -418 16 -605 20 -231 4
-456 14 -467 22 -5 2 -8 -52 -8 -121 l0 -126 53 0 c45 0 174 -6 572 -25 287
-14 503 -26 530 -30 17 -2 111 -7 210 -10 99 -3 236 -10 305 -15 69 -5 186
-12 260 -15 263 -13 381 -24 397 -40 21 -21 15 -47 -14 -71 l-27 -21 13 -66
c7 -36 10 -74 7 -85 -4 -11 -2 -31 3 -45 7 -17 7 -28 0 -32 -5 -4 -8 -27 -6
-51 2 -25 0 -47 -5 -50 -4 -3 -5 -16 -2 -30 3 -13 2 -24 -3 -24 -4 0 -8 -35
-7 -77 1 -43 -5 -110 -12 -149 -7 -39 -10 -80 -7 -92 3 -12 1 -28 -4 -35 -6
-6 -11 -37 -12 -67 -1 -30 -3 -95 -5 -145 -2 -49 -6 -97 -10 -106 -4 -8 -8
-43 -9 -77 -2 -41 -8 -69 -20 -82 -9 -11 -13 -20 -8 -20 18 0 19 -69 2 -116
-13 -34 -16 -57 -10 -83 5 -21 4 -40 -2 -47 -5 -6 -10 -33 -11 -59 -2 -27 -8
-49 -15 -52 -16 -6 -17 -33 -2 -33 6 0 4 -9 -5 -21 -9 -13 -12 -33 -9 -54 4
-27 2 -33 -18 -39 -22 -6 -23 -7 -6 -17 18 -10 18 -11 0 -25 -15 -11 -16 -15
-4 -23 15 -10 6 -35 -10 -26 -5 4 -9 2 -9 -3 0 -6 6 -12 13 -15 8 -3 14 -21
15 -41 1 -20 -2 -34 -7 -31 -14 8 -21 -21 -8 -35 9 -10 9 -11 -3 -5 -13 8 -13
6 -1 -8 13 -17 12 -54 -4 -91 -6 -14 -5 -17 3 -12 16 10 16 -26 0 -42 -9 -9
-9 -12 0 -12 7 0 12 -4 12 -10 0 -5 -9 -10 -20 -10 -11 0 -20 5 -20 10 0 6 -5
10 -11 10 -6 0 -8 -7 -5 -17 4 -10 -2 -24 -16 -37 -20 -19 -21 -21 -5 -24 14
-3 16 -7 6 -18 -6 -7 -9 -20 -6 -29 4 -8 1 -29 -5 -46 -8 -25 -8 -33 3 -40 11
-7 11 -9 1 -9 -7 0 -10 -4 -7 -10 4 -6 -1 -7 -12 -3 -15 6 -16 4 -5 -9 11 -13
8 -15 -15 -15 -52 0 -58 -3 -72 -35 -8 -18 -18 -36 -23 -39 -5 -3 -10 -36 -10
-73 -1 -36 -5 -66 -10 -66 -4 0 -8 7 -8 15 0 8 -5 15 -11 15 -6 0 -9 6 -6 14
3 8 -1 17 -10 20 -10 4 -17 -1 -20 -14 -9 -34 -38 -20 -37 18 1 21 -3 32 -12
32 -8 0 -14 6 -14 14 0 8 -3 23 -6 33 -6 17 -6 17 7 1 20 -23 54 -27 54 -6 0
9 4 20 8 24 11 11 9 24 -4 24 -13 0 -49 38 -49 51 0 4 5 11 12 15 7 4 8 3 4
-5 -4 -6 0 -14 9 -17 19 -8 20 -6 29 23 6 18 4 20 -14 16 -14 -4 -20 -1 -20
12 0 12 5 15 20 10 17 -5 20 -2 20 22 -1 24 -2 25 -11 11 -5 -10 -18 -18 -28
-18 -12 0 -21 -10 -25 -25 -4 -15 -13 -25 -24 -25 -15 1 -16 2 -1 13 12 9 14
18 7 36 -8 22 -6 23 22 18 27 -6 30 -3 38 26 5 18 5 33 0 35 -15 6 -8 22 10
22 15 1 16 1 1 10 -9 5 -20 21 -23 35 -4 14 -13 25 -21 25 -18 0 -19 -12 -3
-29 10 -11 11 -14 1 -18 -7 -3 -13 -12 -14 -21 -1 -10 -4 -7 -9 8 -8 24 -8 24
-9 -5 -1 -17 4 -36 10 -42 14 -14 2 -36 -16 -29 -24 9 -35 -17 -25 -55 8 -26
7 -36 -4 -44 -10 -8 -11 -16 -5 -28 8 -13 6 -17 -6 -17 -8 0 -15 -4 -15 -10 0
-5 5 -10 10 -10 6 0 10 -7 10 -15 0 -14 -5 -16 -38 -19 -7 -1 -17 -8 -22 -16
-8 -13 -10 -12 -10 3 0 11 -4 15 -11 11 -9 -5 -10 1 -5 20 4 18 2 26 -6 26
-18 -1 -48 -25 -48 -38 0 -6 -9 -13 -20 -16 -11 -3 -29 -9 -41 -12 -17 -5 -20
-2 -15 13 3 10 1 25 -4 33 -8 13 -10 13 -10 -1 0 -24 -28 -46 -35 -27 -7 18
-45 21 -45 3 0 -18 -30 -28 -45 -15 -11 9 -12 18 -6 49 1 2 7 -1 14 -7 16 -13
42 1 32 17 -3 7 -24 11 -45 9 -24 -1 -36 -6 -32 -12 15 -24 12 -46 -7 -46 -21
0 -33 22 -25 45 5 11 2 13 -10 9 -21 -8 -22 -70 0 -78 10 -4 13 -13 9 -25 -4
-14 0 -21 12 -24 14 -3 11 -6 -11 -12 -18 -5 -36 -4 -47 3 -15 10 -17 9 -13
-3 5 -11 -1 -15 -22 -16 -29 0 -29 0 -5 -10 18 -7 27 -6 32 3 4 7 11 9 15 6 3
-4 -1 -14 -10 -23 -21 -21 -20 -34 1 -52 13 -10 15 -16 6 -19 -16 -7 -17 -54
-2 -54 6 0 9 6 6 14 -4 11 3 16 25 18 39 4 51 28 14 28 -14 0 -26 5 -26 10 0
6 7 10 16 10 9 0 14 6 11 13 -2 6 -11 11 -20 11 -9 -1 -14 3 -11 8 3 5 13 7
21 4 9 -4 22 -1 30 5 7 7 17 9 21 5 4 -4 -1 -12 -11 -17 -21 -12 -22 -26 -2
-31 13 -3 13 -6 0 -32 -19 -35 -19 -34 2 -39 14 -4 12 -5 -4 -6 -13 0 -23 4
-23 9 0 6 -7 10 -16 10 -13 0 -15 -7 -11 -32 3 -18 3 -27 0 -20 -7 17 -23 15
-23 -4 0 -11 -6 -14 -20 -9 -14 4 -20 2 -20 -8 0 -19 27 -30 34 -14 2 7 5 4 5
-5 1 -24 -30 -23 -61 1 -18 15 -32 18 -58 12 l-33 -6 32 -28 c31 -26 32 -27 9
-28 -13 0 -17 -3 -10 -6 22 -9 13 -23 -15 -23 -25 -1 -26 -2 -10 -14 28 -22
21 -36 -15 -29 -36 7 -50 21 -43 41 7 19 -20 43 -39 36 -9 -3 -13 -10 -10 -15
3 -5 0 -9 -5 -9 -6 0 -11 17 -11 38 0 28 -3 33 -10 22 -6 -8 -7 -32 -4 -53 7
-45 -8 -67 -46 -67 -15 0 -33 -7 -40 -15 -14 -17 -40 -20 -40 -5 0 6 -10 10
-22 10 -17 0 -19 -3 -9 -9 9 -6 10 -11 2 -15 -21 -13 -11 -26 14 -20 14 4 32
1 40 -6 21 -18 8 -32 -16 -17 -15 9 -21 9 -27 0 -10 -17 -59 -27 -66 -14 -8
13 -72 15 -80 3 -2 -4 -1 -14 4 -22 7 -12 10 -12 16 3 3 9 10 17 15 17 4 0 6
-7 3 -15 -4 -8 -1 -15 6 -15 9 0 7 -6 -5 -19 -16 -19 -16 -21 4 -49 17 -24 18
-31 7 -35 -8 -3 -17 1 -20 9 -3 8 -10 14 -16 14 -6 0 -8 -5 -5 -11 4 -5 4 -22
0 -37 l-7 -27 -9 24 c-7 18 -12 21 -23 12 -18 -15 -104 -11 -110 5 -3 7 -1 16
5 19 14 9 0 26 -19 24 -39 -3 -49 1 -47 23 1 19 8 24 39 26 37 3 37 4 22 27
-11 17 -12 25 -4 27 7 3 -9 5 -35 5 -39 1 -47 -2 -47 -17 0 -10 6 -20 13 -23
6 -2 -5 -4 -26 -4 -26 1 -33 4 -22 9 8 5 15 22 15 38 0 17 5 30 10 30 6 0 10
14 10 31 0 23 4 30 15 26 18 -7 31 11 17 25 -7 7 -16 6 -29 0 -19 -11 -46 -2
-43 14 2 18 -28 14 -64 -7 -23 -13 -35 -27 -32 -35 3 -8 0 -13 -7 -11 -7 1
-11 -5 -9 -12 7 -33 -58 -120 -90 -121 -10 0 -18 -4 -18 -10 0 -5 5 -10 10
-10 6 0 5 -6 -2 -14 -7 -8 -16 -12 -20 -9 -15 9 -8 43 12 55 11 7 20 23 20 36
0 17 4 23 15 18 8 -3 15 0 15 5 0 7 -11 9 -25 7 -19 -4 -25 -1 -25 12 0 10 -8
24 -17 31 -11 10 -14 10 -9 1 5 -8 0 -12 -18 -12 -36 0 -41 -17 -7 -25 30 -6
48 -35 36 -55 -10 -17 -37 -11 -42 9 -5 19 -5 19 -24 0 -10 -10 -19 -23 -19
-29 0 -5 -9 -10 -20 -10 -11 0 -20 -7 -20 -15 0 -8 -3 -14 -7 -14 -34 5 -45
-30 -23 -72 7 -13 7 -19 0 -19 -7 0 -10 -148 -10 -455 l0 -455 23 -2 c12 0 29
-1 37 0 16 2 268 -16 340 -24 25 -3 88 -7 140 -9 52 -2 129 -6 170 -10 41 -3
131 -7 200 -10 69 -2 160 -7 204 -10 43 -3 120 -8 170 -10 244 -10 296 -23
323 -80 20 -42 6 -65 -38 -65 -16 0 -29 -3 -29 -7 0 -5 -30 -7 -68 -6 -37 2
-131 5 -209 7 -79 3 -146 7 -150 9 -5 3 -72 3 -151 1 -78 -2 -153 1 -167 6
-15 6 -43 6 -72 0 -27 -4 -49 -5 -51 -2 -1 4 -35 6 -75 5 -39 -2 -79 0 -87 3
-8 3 -67 8 -130 10 -142 6 -137 6 -183 -2 -24 -4 -37 -2 -37 5 0 6 -9 11 -20
11 -11 0 -20 -4 -20 -8 0 -5 -27 -6 -60 -4 l-60 4 0 -1096 0 -1096 6705 0
6705 0 0 534 0 534 -32 7 c-18 3 -80 9 -137 11 -57 2 -111 8 -120 13 -9 5 -59
12 -111 15 -120 9 -217 23 -252 37 -21 9 -28 18 -28 39 0 16 -7 30 -16 34 -11
4 -13 10 -6 19 5 6 8 35 6 62 -3 28 -7 106 -10 175 -3 69 -8 132 -11 140 -3 8
-7 103 -9 210 -5 447 -17 791 -28 809 -4 7 -3 18 3 25 6 7 9 20 7 27 -3 8 -7
115 -10 239 -2 124 -9 236 -14 250 -6 15 -6 37 0 58 5 19 6 69 3 111 -4 42 -7
87 -7 101 4 188 3 245 -3 282 -4 24 -8 87 -8 140 0 54 -3 98 -7 98 -11 0 -22
79 -13 93 8 12 14 106 11 167 -1 19 -1 54 -2 78 0 29 -4 41 -13 38 -12 -5 -43
29 -43 47 0 10 33 5 41 -6 3 -5 9 24 13 63 5 48 4 76 -3 83 -8 8 -11 5 -11
-11 0 -11 -8 -25 -17 -31 -15 -8 -16 -12 -5 -22 18 -19 15 -41 -5 -37 -18 3
-30 58 -14 58 5 0 4 20 -2 45 -9 40 -13 44 -34 39 -20 -6 -23 -3 -23 25 0 33
-8 39 -28 19 -9 -9 -15 -9 -23 -1 -15 15 -1 35 19 29 12 -4 23 4 34 24 9 17
13 30 8 30 -6 0 -10 7 -10 15 0 8 5 15 11 15 6 0 3 7 -5 16 -9 8 -16 26 -16
40 0 14 -6 24 -14 24 -23 0 -31 -22 -13 -35 19 -14 12 -26 -9 -18 -8 3 -14 18
-14 34 0 17 -6 32 -15 35 -20 8 -19 24 1 24 11 0 14 5 10 16 -9 23 3 37 20 23
11 -9 14 -8 14 5 0 9 -8 16 -20 16 -22 0 -28 25 -7 33 6 3 0 6 -15 6 -40 1
-34 18 8 25 26 5 34 11 30 22 -3 9 -6 18 -6 20 0 2 -9 4 -20 4 -22 0 -27 16
-7 23 9 3 9 9 -1 28 -7 13 -11 35 -10 48 2 13 -3 26 -10 28 -7 3 -12 1 -11 -4
3 -18 -1 -33 -10 -33 -5 0 -11 11 -14 25 -3 18 1 29 14 36 25 13 24 30 -1 36
-11 3 -20 11 -20 18 0 7 -6 16 -12 19 -7 3 0 3 15 -1 26 -5 28 -3 26 18 -2 13
0 30 4 37 5 6 5 17 1 24 -4 6 -9 41 -10 77 -2 42 0 60 6 51 14 -23 19 -8 11
37 -5 23 -15 49 -25 58 -15 15 -16 15 -16 -4 0 -25 -29 -28 -31 -3 -5 69 -3
82 9 77 9 -3 10 0 3 13 -5 10 -11 33 -13 51 -3 23 -10 35 -21 37 -28 4 -31
-16 -7 -41 28 -30 21 -54 -14 -48 -31 6 -32 11 -8 29 16 13 16 13 0 14 -11 0
-18 8 -18 19 0 11 -6 22 -12 24 -9 4 -8 6 2 6 19 1 42 48 28 57 -5 4 -8 20 -6
36 3 19 0 31 -9 34 -46 14 -46 14 -32 30 15 18 21 64 8 64 -5 0 -9 -8 -9 -18
0 -21 -29 -52 -48 -52 -7 0 -12 5 -12 10 0 6 6 10 14 10 8 0 16 8 18 18 6 27
-3 62 -16 62 -6 0 -17 9 -24 21 -8 12 -9 18 -3 14 6 -3 21 1 33 9 19 13 20 16
5 16 -14 0 -16 5 -11 27 4 15 7 32 6 38 -15 88 -15 84 7 78 18 -4 21 -1 21 23
-1 28 -1 28 -16 9 -15 -19 -15 -19 -12 10 2 19 -2 30 -9 30 -19 0 -18 18 1 30
12 7 19 7 24 -2 4 -7 17 -10 30 -6 12 3 20 9 17 13 -3 5 -13 6 -24 3 -14 -3
-20 3 -26 24 -5 15 -7 32 -6 36 1 5 -3 5 -9 2 -14 -9 -40 25 -33 42 3 7 0 26
-5 42 -14 39 -5 45 33 21 18 -11 35 -17 38 -13 9 8 -4 86 -15 94 -5 3 -4 18 2
34 6 16 9 40 5 52 -4 16 1 31 14 45 15 15 18 25 11 39 -14 26 -12 39 6 39 8 0
13 4 10 8 -2 4 -1 14 5 22 7 12 9 12 9 1 0 -7 6 -11 15 -7 9 3 15 0 15 -8 0
-20 19 -24 55 -14 44 12 52 10 58 -12 5 -20 27 -28 27 -10 0 6 5 10 10 10 6 0
10 -6 10 -13 0 -18 40 -49 55 -43 11 4 13 31 12 122 -2 98 -5 118 -21 129 -14
11 -23 11 -51 -1 -22 -9 -36 -10 -40 -4 -3 6 -16 10 -29 10 -14 0 -27 9 -34
23 -32 61 -53 92 -65 92 -6 0 -12 5 -12 12 0 11 -44 62 -82 93 -23 20 -125 17
-155 -5 -32 -22 -38 -19 -38 21 0 21 -4 33 -10 29 -5 -3 -10 1 -10 9 0 9 -4
16 -10 16 -5 0 -7 -15 -5 -32 3 -18 3 -26 -1 -18 -3 8 -10 25 -16 37 -6 12 -8
35 -5 51 3 16 2 33 -2 38 -15 16 -22 63 -10 69 6 4 8 14 5 22 -4 9 -1 13 6 11
7 -3 26 14 43 36 16 23 68 77 115 120 47 44 90 85 95 91 6 6 44 40 85 75 41
35 79 70 83 77 4 7 13 13 20 13 7 0 37 24 67 53 30 29 67 58 82 65 l28 12 -6
167 c-4 93 -10 172 -14 176 -3 4 -20 -13 -36 -38 -16 -25 -30 -41 -32 -36 -2
6 -13 2 -24 -9 -12 -11 -24 -17 -28 -15 -4 2 -20 -9 -35 -25 -16 -17 -32 -30
-37 -30 -4 0 -17 -9 -28 -20 -11 -11 -27 -20 -35 -20 -8 0 -15 -6 -15 -14 0
-8 -9 -18 -20 -21 -11 -3 -20 -12 -20 -20 0 -7 -20 -22 -44 -34 -25 -11 -53
-29 -63 -39 -27 -27 -161 -122 -173 -122 -5 0 -10 -4 -10 -10 0 -5 -5 -10 -11
-10 -6 0 -25 -11 -42 -24 -30 -22 -63 -34 -112 -40 -11 -1 -30 -8 -43 -15 -18
-10 -23 -9 -28 4 -3 8 -10 12 -15 10 -5 -3 -11 5 -14 18 -5 18 -13 23 -34 22
-20 -1 -28 3 -27 14 1 12 -6 15 -26 13 -24 -3 -28 0 -28 23 0 20 -4 26 -15 22
-8 -4 -17 -2 -19 2 -3 5 -19 11 -36 15 -17 3 -29 9 -27 13 3 5 -7 9 -21 10
-15 0 -28 6 -30 12 -2 6 -11 11 -20 12 -13 0 -13 2 3 8 15 6 5 10 -37 15 -32
4 -63 4 -68 1 -6 -4 -17 1 -25 11 -10 15 -16 16 -26 7 -13 -13 -39 -7 -56 14
-7 9 -35 17 -70 19 -32 3 -69 6 -83 8 -14 3 -44 1 -68 -4 -24 -4 -60 -4 -80 1
-29 6 -45 4 -73 -10 -29 -16 -39 -17 -59 -6 -48 26 -64 93 -33 143 19 31 101
111 155 152 21 15 53 46 72 68 18 23 40 48 47 56 8 8 39 41 69 73 30 32 65 72
78 88 20 27 110 122 307 325 35 36 81 76 104 90 22 14 41 29 41 33 0 12 109
117 120 117 5 0 12 10 16 23 6 19 17 32 69 76 6 5 33 36 60 69 28 34 56 61 63
61 7 1 16 11 21 24 13 31 146 177 162 177 5 0 9 6 9 14 0 7 10 25 23 39 12 15
36 43 52 63 43 54 64 74 75 74 6 0 10 5 10 11 0 6 25 38 55 71 59 66 68 92 81
238 7 81 25 125 73 180 17 19 41 47 53 63 13 15 30 35 39 45 25 26 49 78 49
105 0 13 7 32 15 43 8 10 15 27 15 37 0 9 5 17 11 17 7 0 9 10 5 26 -6 22 -2
27 34 42 25 11 40 24 40 35 0 9 5 17 10 17 6 0 10 7 10 15 0 8 5 15 11 15 6 0
8 9 4 20 -8 24 3 26 19 4 10 -13 12 -11 11 10 -1 14 -5 29 -8 33 -10 10 -8 23
3 23 6 0 10 -7 10 -15 0 -8 9 -15 21 -15 16 0 19 4 14 20 -7 22 14 50 38 50 8
0 17 8 20 19 2 10 17 25 33 32 16 8 30 23 32 35 2 16 9 20 32 16 25 -4 30 -1
30 16 0 12 4 23 9 26 5 3 12 17 15 31 3 13 37 55 75 92 42 42 73 82 80 106 7
20 16 35 20 33 13 -8 74 53 68 68 -8 20 18 40 44 33 15 -4 23 1 31 19 6 13 15
24 20 24 4 0 7 64 7 143 -1 78 -4 133 -6 122 -3 -11 -9 -25 -14 -31 -5 -6 -7
-19 -3 -27 4 -11 -5 -23 -28 -37 -18 -11 -28 -20 -23 -20 6 0 2 -5 -9 -11 -15
-9 -16 -13 -5 -20 11 -7 8 -14 -13 -33 -14 -14 -29 -35 -33 -46 -3 -11 -11
-20 -16 -20 -5 0 -9 -7 -9 -15 0 -8 -9 -24 -20 -35 -11 -11 -20 -24 -20 -30 0
-5 -11 -10 -25 -10 -14 0 -25 -3 -26 -7 -4 -46 -19 -67 -58 -86 -17 -9 -25
-19 -23 -32 2 -11 1 -17 -4 -13 -9 10 -33 -22 -34 -45 0 -10 -10 -22 -22 -27
-44 -17 -108 -85 -108 -113 0 -18 -5 -27 -16 -27 -11 0 -15 -6 -11 -20 4 -16
0 -20 -20 -20 -13 0 -22 -4 -18 -9 3 -6 -4 -15 -15 -21 -11 -6 -20 -18 -20
-27 0 -9 -7 -25 -17 -35 -15 -17 -15 -18 1 -18 14 0 12 -5 -8 -23 -14 -13 -23
-27 -19 -31 4 -3 -12 -14 -35 -23 -23 -9 -42 -22 -42 -30 0 -7 -11 -18 -25
-23 -28 -11 -33 -35 -10 -44 31 -11 14 -24 -30 -23 -25 1 -45 5 -45 8 0 3 -12
4 -26 1 -17 -3 -29 -14 -36 -33 -7 -21 -16 -28 -31 -26 -18 2 -23 -4 -25 -28
-2 -16 -12 -35 -23 -43 -10 -7 -19 -24 -19 -38 0 -21 -9 -29 -32 -25 -5 0 -8
-6 -8 -15 0 -9 -5 -14 -12 -12 -15 5 -60 -46 -56 -63 2 -7 -7 -18 -19 -23 -18
-9 -39 -55 -34 -79 4 -22 -83 -65 -94 -46 -11 17 -31 9 -45 -16 -7 -13 -17
-22 -22 -19 -5 3 -12 -3 -15 -15 -3 -12 -10 -21 -17 -21 -13 0 -66 -64 -66
-79 0 -6 -5 -11 -10 -11 -6 0 -15 -11 -20 -25 -5 -14 -14 -25 -18 -25 -17 0
-79 -65 -97 -100 -9 -19 -30 -45 -45 -57 -19 -15 -26 -29 -23 -42 3 -10 0 -22
-6 -25 -7 -5 -7 -13 1 -26 10 -15 10 -22 0 -32 -11 -11 -15 -10 -23 5 -19 34
-26 19 -30 -65 0 -20 -14 -24 -24 -8 -10 17 -44 11 -55 -9 -7 -14 -6 -21 3
-25 6 -3 2 -3 -10 0 -17 4 -22 1 -20 -15 0 -11 5 -17 9 -15 4 3 8 -2 8 -10 0
-19 -14 -28 -34 -20 -9 4 -16 18 -16 34 0 30 25 64 41 55 5 -4 9 3 9 14 0 11
5 23 10 26 6 3 10 1 10 -4 0 -6 5 -11 11 -11 6 0 8 7 5 16 -3 9 1 30 9 48 12
24 13 43 6 79 -9 49 -4 87 24 177 17 56 61 106 191 217 59 51 51 64 -41 62
-33 0 -121 2 -195 5 -74 4 -148 6 -165 5 -16 -1 -37 -1 -45 0 -142 10 -184 10
-192 -1 -6 -10 -8 -10 -8 0 0 8 -20 12 -67 12 -38 1 -88 5 -113 10 -28 5 -47
5 -51 -1 -3 -6 -17 -8 -30 -5 -52 12 -293 15 -306 5 -9 -8 -17 -7 -28 4 -10
10 -26 14 -48 11 -17 -3 -68 -1 -112 4 -87 10 -105 7 -105 -14 0 -12 4 -12 20
-4 15 8 26 7 43 -2 20 -11 20 -13 4 -16 -11 -2 -16 -9 -13 -18 3 -8 1 -14 -4
-14 -6 0 -10 -7 -10 -15 0 -18 -50 -21 -50 -2 0 7 -5 4 -11 -5 -8 -15 -13 -16
-29 -5 -23 14 -27 32 -5 23 8 -3 15 -1 15 4 0 6 11 10 25 10 14 0 25 2 25 4 0
13 -60 65 -65 57 -3 -6 -15 -7 -28 -2 -12 4 -62 8 -110 9 -49 1 -94 4 -100 7
-7 3 -1 -2 13 -12 13 -10 35 -18 50 -18 38 0 41 -40 3 -50 -15 -3 -31 -12 -35
-18 -6 -8 -10 -9 -15 -2 -10 13 -31 13 -41 0 -4 -5 -15 -16 -25 -24 -15 -12
-17 -12 -11 2 7 19 -27 40 -50 31 -11 -4 -16 -1 -16 10 0 25 -24 14 -32 -14
-5 -16 -6 -9 -3 17 4 36 2 43 -16 48 -22 7 -43 -5 -21 -12 18 -7 15 -23 -5
-21 -44 3 -84 -3 -78 -12 3 -5 -1 -10 -9 -10 -9 0 -16 5 -16 11 0 6 -9 8 -20
4 -22 -7 -28 13 -9 32 17 17 -11 11 -41 -9 -26 -17 -87 -21 -96 -6 -3 4 -21 8
-40 8 -25 0 -34 4 -34 17 0 13 3 14 12 5 15 -15 45 -16 50 -2 2 5 35 11 73 11
109 2 115 1 115 -21 0 -11 5 -20 11 -20 5 0 7 5 3 11 -9 15 14 29 49 29 22 0
28 4 25 18 -2 10 -11 16 -23 15 -43 -6 -72 -5 -109 2 -28 6 -40 4 -47 -6 -5
-8 -9 -9 -9 -3 0 6 -6 11 -12 12 -57 7 -111 13 -154 18 -72 7 -87 27 -81 101
31 331 50 878 37 1088 l-4 80 34 -2 c116 -6 172 -12 177 -17 3 -3 12 -1 19 4
21 18 151 28 254 19 16 -1 32 -9 35 -16 3 -10 14 -13 35 -8 22 5 32 3 36 -9 4
-10 18 -16 38 -16 17 0 42 -7 54 -16 13 -9 44 -18 69 -20 26 -3 51 -11 57 -18
10 -12 65 -24 186 -42 24 -4 52 -10 62 -15 10 -5 27 -13 38 -19 27 -14 47 -13
53 3 4 9 8 9 15 -2 6 -9 19 -11 40 -6 17 3 61 7 98 9 63 2 69 4 93 35 14 19
31 47 37 64 l10 31 96 1 c57 0 101 5 109 12 8 6 32 14 53 19 22 4 51 13 65 20
14 7 35 11 47 8 11 -3 47 2 80 10 32 8 75 18 94 20 19 3 51 10 70 15 19 5 88
23 154 39 65 17 126 38 136 47 10 9 36 18 57 19 21 1 48 7 59 14 15 8 38 9 75
3 33 -6 59 -5 66 1 7 6 31 6 65 0 29 -6 55 -7 58 -4 3 4 75 8 161 9 86 1 160
3 165 4 38 10 204 -32 204 -50 0 -4 14 -15 30 -24 17 -10 30 -25 30 -33 0 -8
10 -14 24 -14 23 0 24 2 14 30 -13 39 -5 60 26 60 15 0 25 7 29 19 3 12 17 21
41 25 20 4 36 12 36 17 0 6 6 9 13 6 6 -2 20 0 29 5 13 6 23 3 38 -12 20 -20
20 -20 20 0 0 11 -4 20 -10 20 -5 0 -10 14 -10 31 0 23 -5 32 -20 36 -12 3
-20 13 -19 22 3 36 -1 39 -34 31 -23 -5 -37 -3 -46 7 -8 9 -23 12 -42 8 -24
-6 -30 -3 -38 18 -5 13 -27 41 -48 63 -21 21 -45 53 -52 69 -12 27 -14 28 -21
10 -4 -11 -4 -25 1 -31 17 -21 -2 -46 -30 -41 -14 3 -46 0 -70 -6 -42 -11 -44
-11 -69 18 -15 18 -36 30 -51 31 -156 7 -260 14 -274 20 -10 4 -17 1 -17 -6 0
-9 -7 -6 -21 6 -12 11 -32 17 -49 16 -15 -2 -34 4 -44 13 -9 9 -16 12 -16 7 0
-17 -51 -10 -62 8 -7 10 -18 16 -25 13 -7 -3 -13 -1 -13 5 0 5 -11 7 -25 5
-14 -3 -31 1 -40 11 -11 10 -34 16 -65 16 -27 0 -51 4 -54 9 -4 5 -8 37 -11
71 -4 54 -1 68 25 117 17 31 30 61 30 68 0 25 39 52 85 59 27 3 54 11 62 18
11 9 20 5 41 -15 24 -24 52 -35 52 -23 0 19 -42 96 -52 96 -8 0 -22 14 -32 31
-21 36 -69 59 -124 59 -21 0 -55 9 -76 20 -46 23 -63 26 -97 17 -28 -7 -56
-48 -45 -66 4 -6 20 -11 36 -11 42 0 46 -17 11 -49 -17 -16 -31 -37 -31 -48 0
-10 -18 -38 -40 -63 -50 -56 -72 -49 -80 26 -3 28 -11 56 -18 64 -40 48 -63
97 -72 158 -5 37 -10 70 -10 73 0 3 -11 11 -25 17 -20 9 -27 8 -37 -4 -61 -78
-115 -96 -136 -49 -17 38 -38 41 -67 9 -29 -31 -31 -42 -10 -50 26 -10 17 -35
-30 -80 -25 -24 -47 -44 -50 -44 -2 0 -4 36 -3 80 1 44 -2 84 -8 90 -6 6 -8
24 -6 41 4 30 6 31 44 26 34 -5 37 -3 27 10 -16 18 -123 73 -144 73 -22 0 -19
-18 5 -25 29 -9 24 -27 -15 -54 -19 -13 -35 -27 -35 -32 0 -5 -7 -9 -15 -9 -8
0 -15 -4 -15 -9 0 -5 -13 -14 -30 -21 -16 -7 -32 -21 -35 -31 -4 -10 -10 -19
-14 -19 -4 0 -25 -18 -47 -41 -21 -22 -62 -51 -90 -63 -28 -13 -55 -29 -58
-35 -13 -20 -23 -11 -21 18 1 16 15 45 31 65 34 41 74 104 74 116 0 14 65 113
84 129 9 7 13 17 10 22 -3 5 4 9 15 9 54 0 -12 66 -67 67 -20 0 -27 -1 -14 -4
34 -7 29 -36 -7 -31 -22 3 -32 -2 -46 -21 -37 -54 -260 -221 -295 -221 -5 0
-35 -15 -67 -34 -62 -36 -163 -56 -163 -33 0 13 117 77 139 77 32 0 136 69
202 133 41 40 87 82 103 93 50 36 27 48 -76 40 -49 -3 -98 -11 -109 -16 -23
-13 -281 -6 -384 10 -84 13 -153 21 -180 21 -11 0 -23 5 -27 12 -4 6 -22 12
-40 12 -18 1 -43 5 -55 9 -17 5 -23 3 -23 -8 0 -20 -76 -60 -85 -45 -5 7 -11
6 -21 -2 -7 -6 -11 -15 -8 -20 3 -5 -7 -14 -21 -19 -33 -13 -48 -13 -40 0 8
13 -1 13 -26 0 -15 -9 -29 -5 -63 15 -24 14 -47 32 -50 40 -3 8 -12 15 -20 15
-8 0 -17 13 -21 30 -10 45 -24 36 -18 -11 4 -27 2 -44 -7 -49 -7 -5 -13 -34
-14 -79 0 -39 -2 -71 -4 -71 -2 0 -11 8 -22 18 -13 12 -22 38 -26 77 -4 33
-13 77 -21 99 -7 21 -13 53 -13 72 0 18 -5 36 -10 39 -15 9 -42 -15 -36 -32 3
-8 2 -12 -3 -9 -5 3 -11 -12 -13 -35 -2 -22 0 -43 4 -45 12 -8 -1 -24 -18 -24
-10 0 -13 6 -9 19 5 15 1 18 -20 13 -14 -2 -25 0 -25 6 0 5 -11 13 -25 16 -16
4 -30 19 -39 40 -8 18 -19 37 -25 40 -6 4 -11 15 -11 25 0 10 -7 24 -15 31 -8
7 -15 24 -15 37 0 14 -11 38 -25 55 -14 16 -27 42 -31 56 -3 15 -11 41 -19 57
-7 17 -16 38 -19 49 -9 26 22 47 59 40 17 -3 42 -1 56 5 22 8 28 19 35 58 4
26 8 53 9 58 0 6 6 14 13 18 13 9 17 27 5 27 -5 0 -21 -9 -37 -19z m-1802
-2167 c14 -13 14 -18 2 -37 -8 -12 -17 -37 -21 -54 -4 -18 -10 -33 -15 -33 -5
0 -10 -15 -12 -32 -2 -28 -7 -33 -28 -33 -14 0 -28 -4 -31 -8 -3 -5 -20 3 -36
17 -22 19 -43 26 -71 26 -24 0 -47 7 -56 16 -16 16 -23 69 -8 60 5 -3 26 3 48
13 48 23 63 29 144 57 36 12 66 22 67 23 1 1 9 -6 17 -15z m1172 -831 c-4 -16
-14 -33 -22 -39 -17 -13 -18 -36 -3 -51 8 -8 5 -17 -10 -32 -12 -12 -21 -34
-21 -49 0 -16 -8 -34 -20 -42 -11 -8 -20 -21 -20 -28 0 -8 -6 -12 -12 -9 -9 2
-12 25 -11 73 3 111 29 190 65 197 56 11 61 9 54 -20z m-2201 -54 c9 16 25 13
25 -4 0 -17 71 -40 118 -38 20 2 32 -3 32 -11 0 -12 -52 -56 -67 -56 -4 0 -25
-5 -45 -10 -29 -9 -41 -20 -59 -56 -20 -39 -25 -43 -37 -30 -8 8 -14 26 -14
40 0 15 -4 28 -7 31 -7 3 5 110 16 145 4 13 7 12 18 -3 8 -12 15 -14 20 -8z
m5098 -1052 c18 -19 40 -36 50 -40 27 -10 20 -38 -13 -50 -18 -7 -30 -19 -30
-29 0 -10 -9 -20 -22 -22 -79 -16 -80 -17 -69 -30 6 -7 33 -16 59 -20 34 -4
55 -14 70 -31 27 -31 28 -45 2 -45 -11 0 -24 -8 -27 -17 -9 -23 -29 -43 -43
-43 -6 0 -30 -19 -53 -43 -47 -48 -110 -97 -126 -97 -5 0 -17 -10 -25 -22 -9
-12 -17 -20 -17 -18 -6 21 -4 67 2 76 5 6 4 27 -2 48 -10 36 -9 41 20 70 23
24 30 41 33 80 3 50 5 53 62 78 19 8 33 24 38 43 4 17 19 43 33 59 18 21 23
36 20 57 -7 37 -1 36 38 -4z m-10556 -92 c8 2 36 0 63 -6 34 -7 55 -7 68 0 11
6 22 8 25 4 7 -6 18 -8 111 -16 27 -3 51 -9 55 -14 3 -5 28 -19 54 -32 36 -16
63 -21 105 -19 52 3 57 5 62 29 5 28 14 28 58 -1 12 -8 22 -23 22 -33 0 -26
52 -45 146 -53 43 -4 89 -13 101 -21 12 -8 39 -16 60 -19 21 -3 41 -11 46 -19
4 -8 14 -12 21 -9 8 3 21 -4 29 -16 10 -14 16 -17 19 -9 6 17 38 4 38 -16 0
-19 -14 -19 -115 -1 -44 8 -109 17 -145 21 -36 3 -92 12 -125 20 -33 7 -121
20 -195 29 -74 10 -175 23 -225 30 -89 13 -147 8 -161 -15 -3 -6 -1 -16 5 -22
16 -16 13 -44 -5 -51 -23 -9 -189 -6 -204 4 -7 4 -9 13 -6 19 12 19 -24 24
-82 11 -32 -7 -61 -15 -67 -19 -45 -28 -125 -34 -125 -9 0 29 24 47 76 59 50
11 55 15 50 35 -6 22 16 40 35 28 5 -3 9 -1 9 4 0 6 9 8 20 5 17 -5 20 -1 20
23 0 68 10 94 23 62 4 -8 8 -4 12 9 9 28 31 33 74 16 19 -7 41 -11 48 -8z
m8803 -504 c47 -5 180 -15 295 -21 121 -7 248 -21 300 -32 169 -36 200 -40
301 -43 182 -5 203 -24 200 -182 -1 -51 1 -98 5 -104 10 -16 43 -6 47 15 5 23
35 53 59 58 15 3 19 16 24 83 3 44 9 88 13 98 12 25 80 23 106 -3 16 -16 24
-18 50 -9 17 6 27 16 23 22 -4 6 2 8 16 4 28 -7 53 1 45 15 -6 10 50 68 66 68
5 0 12 -5 16 -12 5 -8 2 -9 -9 -5 -12 5 -17 1 -17 -13 0 -11 -4 -20 -10 -20
-5 0 -10 -4 -10 -9 0 -6 -11 -22 -25 -37 -18 -19 -31 -25 -50 -22 -25 5 -34
-5 -15 -17 16 -10 12 -45 -5 -45 -9 0 -20 -11 -26 -24 -6 -13 -22 -30 -35 -37
-13 -6 -27 -21 -30 -32 -3 -11 -22 -35 -40 -54 -19 -18 -34 -36 -34 -40 0 -6
-63 -83 -134 -164 -23 -25 -63 -75 -91 -110 -27 -35 -57 -72 -65 -83 -18 -23
-55 -60 -141 -141 -64 -60 -84 -75 -126 -97 -13 -6 -23 -19 -23 -28 0 -25 -56
-32 -98 -12 -25 11 -36 12 -41 4 -14 -24 -197 -15 -249 12 -36 18 -62 21 -62
5 0 -11 -108 -10 -115 2 -3 4 -22 3 -42 -3 -71 -18 -112 -18 -175 2 -35 11
-71 20 -81 20 -26 0 -51 60 -43 104 4 20 8 89 10 154 4 151 18 221 49 248 14
11 27 36 30 55 3 19 11 62 19 96 l14 62 -32 35 c-30 33 -31 36 -21 81 l11 47
50 -5 c34 -4 43 -3 26 3 -14 4 -39 8 -55 9 -43 1 -75 27 -75 60 0 53 30 60
200 42z m-4578 -101 c-1 -58 1 -71 17 -79 24 -13 32 -56 14 -74 -11 -11 -12
-20 -5 -34 16 -29 3 -133 -14 -126 -9 3 -14 -2 -14 -17 0 -16 4 -20 19 -15 13
4 20 0 24 -16 3 -13 3 -27 -1 -33 -14 -24 -11 -36 8 -26 18 9 18 5 15 -66 -3
-42 -9 -82 -13 -88 -9 -10 -24 -69 -27 -106 -4 -31 -5 -32 -21 -20 -32 27 -41
77 -49 260 -11 247 -10 288 15 425 22 119 34 125 32 15z m5658 -1284 c0 -35
-10 -56 -26 -56 -8 0 -14 -9 -14 -20 0 -22 10 -26 26 -10 8 8 11 -15 12 -74 0
-47 3 -90 6 -95 4 -5 1 -13 -5 -16 -7 -5 -8 -24 -3 -59 9 -61 10 -351 3 -456
-4 -41 -3 -84 1 -95 4 -11 3 -29 -3 -40 -5 -10 -11 -76 -13 -145 -1 -69 -6
-163 -9 -210 -3 -47 -8 -137 -9 -200 -2 -63 -6 -122 -9 -130 -17 -48 -28 -298
-14 -317 5 -8 2 -18 -10 -28 -15 -12 -18 -26 -16 -58 4 -48 -4 -107 -15 -107
-4 0 -7 18 -7 41 0 24 -6 44 -15 49 -22 14 -26 -17 -6 -39 22 -24 20 -34 -6
-25 -19 6 -17 2 10 -25 31 -31 42 -61 23 -61 -6 0 -7 -16 -4 -36 4 -24 2 -39
-7 -44 -18 -11 -49 0 -44 15 10 25 -33 4 -45 -21 -15 -33 -14 -34 9 -34 11 0
20 7 20 15 0 8 7 15 16 15 9 0 14 -6 11 -12 -2 -7 0 -21 5 -30 5 -11 5 -18 -1
-18 -5 0 -12 6 -15 13 -5 10 -7 10 -12 0 -3 -7 -15 -13 -26 -13 -19 0 -20 -5
-15 -46 5 -48 -10 -117 -25 -108 -4 3 1 -11 13 -30 22 -39 19 -72 -6 -62 -13
5 -14 2 -4 -16 7 -13 9 -41 5 -71 -7 -60 -25 -86 -25 -36 1 118 -4 195 -11
209 -6 11 -5 21 2 28 15 15 1 65 -17 58 -17 -6 -21 9 -5 19 6 3 10 15 10 25 0
14 -5 18 -17 14 -14 -4 -15 -3 -5 4 11 7 11 18 3 47 -6 21 -8 42 -5 46 2 4 -1
11 -8 16 -7 4 -14 26 -14 48 -1 22 -5 49 -9 61 -4 13 -1 26 7 35 8 8 15 29 16
48 2 26 -1 32 -13 27 -11 -4 -15 2 -15 25 0 18 4 28 10 24 6 -3 10 3 10 14 0
10 -4 21 -10 23 -13 4 -23 438 -21 938 1 668 7 751 51 765 11 4 20 13 20 21 0
8 5 13 12 12 7 -2 17 7 23 20 5 12 14 22 18 22 5 0 22 14 37 30 15 17 37 30
48 30 11 0 22 7 26 15 3 8 16 15 28 15 22 1 23 1 4 15 -22 17 -17 25 29 49 40
21 45 20 45 -8z m-483 -262 c4 -12 8 -13 14 -3 6 10 11 10 22 0 10 -8 17 -9
22 -1 15 24 25 7 21 -34 -3 -26 0 -46 6 -48 6 -2 10 -100 9 -283 -1 -154 -1
-325 0 -380 1 -55 1 -113 0 -130 -1 -16 -4 -100 -6 -185 -7 -236 -10 -271 -24
-279 -9 -6 -10 -11 -2 -15 11 -7 14 -114 5 -148 -7 -24 -31 -23 -46 2 -13 20
-38 28 -38 11 0 -5 -3 -16 -6 -24 -4 -11 2 -14 20 -12 14 2 26 -1 26 -7 0 -6
10 -20 23 -32 24 -23 31 -65 10 -67 -27 -3 -31 -4 -39 -11 -12 -13 -24 -9 -24
7 0 8 3 14 8 14 22 -4 32 3 32 22 0 15 -5 19 -16 15 -8 -3 -12 -2 -9 3 3 5 -4
12 -15 16 -11 3 -20 11 -20 16 0 5 -7 9 -15 9 -8 0 -15 -7 -15 -16 0 -8 -4
-12 -10 -9 -5 3 -10 -1 -10 -9 0 -21 -16 -20 -24 0 -4 10 0 21 9 28 24 18 -6
55 -40 49 -14 -3 -25 -8 -26 -12 0 -3 -2 -18 -4 -33 -2 -15 1 -30 6 -33 5 -4
3 -13 -6 -21 -18 -18 -20 -51 -4 -56 9 -3 9 -9 0 -25 -8 -16 -8 -28 0 -46 13
-30 -7 -120 -22 -96 -5 8 -9 11 -10 7 -5 -25 -5 -34 -1 -42 8 -15 8 -136 0
-136 -4 0 -7 -16 -6 -36 1 -21 -5 -40 -13 -46 -11 -7 -11 -11 -1 -15 18 -7 15
-23 -5 -24 -11 0 -13 -3 -5 -6 14 -6 16 -39 2 -48 -5 -3 -10 -2 -10 3 0 6 -8
9 -17 7 -10 -1 -12 0 -5 2 20 7 14 23 -10 23 -20 1 -21 2 -7 13 9 7 21 22 28
35 10 18 9 23 -4 28 -10 4 -13 13 -10 24 3 10 1 21 -5 25 -8 5 -11 -5 -8 -31
2 -22 -1 -40 -7 -41 -5 -2 -11 5 -11 15 -1 9 -3 22 -4 27 -3 10 -4 33 -13 198
-3 61 -9 93 -20 104 -13 13 -13 19 -1 42 18 35 18 66 -2 82 -9 7 -14 22 -11
35 2 14 -2 25 -9 28 -8 3 -14 13 -13 23 0 11 3 13 6 6 9 -23 23 -13 23 16 0
16 -6 31 -15 35 -11 4 -13 14 -8 38 l6 33 -20 -25 c-18 -21 -23 -23 -44 -12
-13 7 -16 10 -6 8 14 -5 17 1 17 36 0 41 0 41 -21 22 l-21 -19 7 38 c5 25 4
37 -4 37 -7 0 -10 4 -7 9 3 5 -1 22 -10 37 -11 22 -15 24 -13 9 3 -39 -4 -49
-10 -15 -4 26 -11 35 -26 35 -19 0 -23 15 -16 58 2 11 31 8 31 -3 0 -5 -4 -10
-10 -10 -5 0 -10 -4 -10 -10 0 -24 36 -8 47 20 6 17 8 28 4 25 -5 -2 -17 2
-27 11 -18 14 -18 15 4 9 28 -8 29 10 1 25 -15 8 -24 8 -34 0 -15 -13 -55 -5
-55 11 0 5 -5 9 -11 9 -6 0 -9 -6 -6 -13 4 -11 -16 -15 -41 -8 -1 1 11 15 29
32 34 33 34 34 -1 48 -19 7 -20 10 -7 10 11 1 15 6 11 13 -4 6 1 17 10 23 15
11 14 13 -9 19 -14 4 -23 11 -20 16 3 6 0 10 -9 10 -8 0 -22 3 -31 6 -11 5
-18 0 -22 -15 -3 -11 -9 -18 -14 -15 -5 3 -7 10 -4 15 4 5 -1 12 -9 15 -11 4
-15 19 -14 52 1 51 26 102 39 81 5 -9 11 -8 24 4 14 15 42 21 80 20 6 -1 18
-4 28 -8 13 -6 16 -4 11 9 -4 10 -13 15 -20 12 -8 -3 -14 -2 -14 3 0 5 13 11
29 13 23 3 31 0 34 -14 4 -15 10 -17 31 -8 23 9 26 7 26 -14 0 -13 -7 -26 -15
-30 -15 -6 -21 -36 -7 -36 21 0 61 27 60 40 -3 43 2 52 24 47 12 -4 28 -1 35
5 7 6 24 8 38 6 14 -3 25 -1 25 3 0 5 25 20 55 34 35 17 55 33 55 44 0 9 5 22
12 29 9 9 9 12 0 12 -7 0 -12 7 -12 15 0 8 -3 15 -7 15 -13 0 -74 58 -71 67 2
5 -6 19 -18 31 -12 13 -20 34 -20 50 2 36 -11 62 -32 62 -20 1 -53 42 -55 71
-1 15 -7 19 -27 17 -23 -3 -25 0 -22 30 1 23 -2 32 -13 32 -10 0 -15 10 -15
30 0 17 5 30 10 30 6 0 10 6 10 14 0 15 45 30 60 21 6 -4 7 1 3 11 -4 12 -3
15 5 10 25 -16 33 6 11 30 -19 20 -20 24 -6 24 9 0 25 -8 35 -17 10 -10 25
-19 33 -21 8 -2 16 -8 17 -13 6 -16 50 -10 58 9 4 9 6 21 5 25 -1 4 6 15 15
24 12 12 21 14 33 6 9 -5 45 -9 80 -8 l65 1 2 39 c2 47 1 45 14 45 6 0 13 -7
17 -16z m-4855 -1917 c28 -58 119 -96 148 -62 14 17 80 21 80 5 0 -18 18 -10
23 11 7 26 50 23 55 -5 5 -26 -13 -34 -64 -28 -27 3 -50 0 -59 -8 -8 -7 -25
-10 -40 -6 -21 5 -27 2 -36 -21 -13 -35 -25 -43 -71 -43 -25 0 -46 8 -67 26
-28 23 -31 31 -29 76 2 37 7 52 21 60 15 8 16 12 5 25 -11 14 -11 15 2 11 8
-2 23 -21 32 -41z m1723 -2176 c11 -4 34 -5 52 -1 18 4 34 5 37 2 3 -3 32 -7
63 -9 97 -6 135 -32 100 -67 -18 -18 -73 -26 -230 -33 -123 -5 -140 -3 -157
12 -25 23 -25 31 1 63 14 19 34 29 62 33 23 3 44 6 47 7 3 0 14 -3 25 -7z
m-4370 -141 c257 -10 570 -21 1138 -40 160 -6 310 -12 332 -15 22 -3 265 -14
540 -25 967 -38 1122 -47 1131 -62 10 -17 -33 -52 -68 -55 -123 -12 -181 -15
-323 -15 -88 1 -169 1 -180 2 -48 2 -193 -8 -204 -14 -6 -4 -9 -12 -6 -17 4
-5 -1 -9 -9 -9 -9 0 -13 6 -10 14 8 20 -14 25 -71 16 -27 -4 -55 -5 -62 -3 -7
3 -13 0 -13 -6 0 -6 -5 -11 -11 -11 -6 0 -8 7 -5 16 5 13 3 14 -6 7 -7 -6 -20
-13 -28 -15 -10 -4 -6 -9 15 -17 23 -9 26 -14 15 -21 -8 -5 -18 -6 -23 -3 -5
3 -7 -15 -4 -40 4 -45 3 -46 -25 -45 -16 1 -31 4 -33 9 -8 12 -55 -15 -50 -28
2 -7 -2 -13 -10 -13 -7 0 -17 14 -20 32 -7 28 -8 29 -18 12 -15 -28 -15 -28
-32 -14 -12 10 -15 10 -15 -4 0 -20 -29 -21 -36 -1 -8 21 -24 19 -24 -2 0 -15
-10 -18 -63 -18 -34 0 -67 3 -74 8 -6 4 -22 3 -36 -2 -14 -5 -33 -8 -43 -5
-11 3 -77 6 -149 8 -71 3 -134 5 -140 6 -5 1 -28 -3 -50 -9 -21 -5 -44 -7 -50
-3 -5 4 -81 7 -168 6 -87 0 -160 3 -163 7 -2 4 -18 3 -36 -1 -17 -5 -35 -7
-40 -4 -14 9 -210 13 -232 4 -11 -4 -36 -2 -55 4 -25 8 -36 7 -38 -1 -3 -8
-14 -9 -33 -3 -16 5 -47 4 -72 -2 -24 -5 -49 -11 -55 -12 -21 -4 -81 -59 -87
-79 -6 -24 10 -57 28 -57 7 0 23 -11 36 -25 13 -14 29 -25 37 -25 7 0 13 -4
13 -10 0 -17 51 -37 152 -60 83 -18 124 -21 270 -20 221 3 223 2 348 -14 58
-8 112 -14 120 -14 8 0 44 -3 80 -6 140 -12 247 -20 300 -21 225 -9 568 -26
740 -39 113 -8 266 -18 340 -20 253 -11 475 -27 505 -38 17 -6 38 -18 48 -26
19 -17 23 -62 5 -62 -6 0 -20 -8 -30 -17 -15 -13 -45 -17 -156 -20 -208 -6
-319 -6 -402 0 -42 3 -80 1 -87 -4 -7 -7 -13 -6 -17 0 -4 5 -22 7 -42 4 -25
-4 -39 -2 -44 8 -7 11 -12 10 -28 -4 -10 -9 -21 -15 -24 -12 -3 3 -41 7 -84 8
-44 2 -86 7 -93 12 -9 5 -18 3 -25 -8 -9 -11 -16 -13 -30 -5 -10 5 -26 8 -35
5 -10 -2 -26 0 -35 5 -9 5 -22 6 -28 2 -7 -5 -57 -7 -111 -7 -75 1 -100 -2
-104 -13 -3 -10 -10 -11 -23 -4 -9 5 -37 14 -60 19 -37 8 -43 7 -47 -9 -6 -21
-38 -16 -47 7 -4 8 -11 11 -18 6 -20 -12 -78 -13 -78 -1 0 6 -9 3 -20 -7 -18
-16 -20 -16 -20 -2 0 18 -15 23 -25 7 -3 -5 -12 -7 -20 -3 -11 3 -13 1 -9 -10
3 -8 1 -18 -5 -22 -6 -3 -9 0 -5 8 10 27 -16 29 -28 3 -11 -25 -38 -36 -38
-16 0 6 5 10 12 10 6 0 9 2 7 5 -3 2 -15 2 -27 -2 -14 -3 -22 -13 -22 -28 0
-28 -26 -51 -53 -47 -13 3 -17 0 -12 -8 5 -9 -3 -11 -29 -7 -27 4 -36 1 -36
-10 0 -8 5 -11 10 -8 6 3 10 1 10 -4 0 -20 66 2 91 31 21 23 33 23 24 1 -4
-10 -8 -29 -10 -43 -1 -14 -3 -31 -3 -37 -1 -7 -9 -13 -18 -13 -10 0 -14 6
-11 14 4 10 1 13 -9 9 -10 -4 -12 -9 -5 -16 5 -5 7 -25 4 -45 -5 -27 -3 -33 7
-27 8 5 11 4 7 -2 -10 -16 -67 -3 -67 16 0 13 -2 13 -9 2 -6 -9 -11 -10 -15
-2 -13 20 -24 11 -33 -26 -8 -32 -13 -37 -32 -35 -19 3 -22 0 -16 -17 5 -16 3
-20 -9 -15 -11 4 -16 1 -16 -10 0 -15 3 -15 28 -2 26 13 29 13 40 -5 17 -26
15 -32 -8 -26 -30 8 -25 -21 5 -35 26 -12 31 -23 15 -33 -5 -3 -10 1 -10 9 0
9 -4 16 -10 16 -5 0 -10 -4 -10 -10 0 -16 -37 -12 -44 5 -3 8 -11 15 -17 15
-8 0 -8 -4 1 -15 10 -12 9 -20 -5 -41 -15 -23 -15 -27 -1 -49 20 -31 20 -41 1
-25 -13 10 -19 10 -35 -5 -22 -20 -18 -62 9 -82 9 -6 12 -15 8 -20 -5 -4 -17
2 -27 15 -22 27 -70 31 -70 5 0 -13 -3 -14 -12 -5 -16 16 6 40 42 44 24 2 27
6 19 18 -8 11 -12 12 -16 3 -2 -7 -14 -12 -26 -12 -17 1 -18 2 -4 6 20 5 23
23 4 23 -15 0 -21 46 -7 55 6 3 10 -3 10 -15 0 -12 4 -19 8 -16 13 8 7 47 -9
57 -11 7 -10 10 8 15 25 7 22 24 -4 24 -9 0 -21 8 -28 17 -11 15 -15 15 -29 4
-9 -7 -16 -22 -16 -33 0 -15 -4 -18 -17 -13 -15 5 -16 4 -5 -6 14 -15 16 -58
2 -79 -8 -12 -10 -10 -8 10 2 20 -2 26 -21 28 -15 2 -21 0 -17 -7 4 -6 2 -11
-3 -11 -6 0 -11 -4 -11 -10 0 -5 7 -10 15 -10 8 0 15 -4 15 -10 0 -5 -4 -10
-9 -10 -5 0 -11 -10 -13 -22 -2 -12 -9 -24 -17 -26 -10 -3 -12 0 -8 12 10 26
-12 18 -25 -9 -6 -14 -17 -25 -23 -25 -7 0 -12 -11 -12 -25 0 -15 5 -25 14
-25 9 0 13 6 9 15 -8 22 22 45 60 45 28 0 34 4 34 20 0 11 7 23 15 26 8 4 15
12 15 20 0 8 10 14 25 14 14 0 25 -5 25 -11 0 -6 -9 -8 -21 -4 -18 6 -20 4
-14 -14 4 -13 1 -28 -5 -36 -10 -12 -9 -15 5 -15 10 0 15 -3 12 -6 -3 -4 -2
-15 4 -25 7 -13 6 -19 -2 -19 -6 0 -9 -7 -5 -15 4 -11 -2 -15 -20 -15 -13 0
-27 -7 -30 -15 -8 -19 -54 -20 -54 -1 0 8 5 18 10 21 6 4 9 3 8 -2 -2 -4 2
-10 7 -13 6 -3 11 4 13 15 2 15 -3 21 -18 21 -11 0 -20 -5 -20 -11 0 -5 -5 -3
-10 5 -8 12 -10 10 -10 -9 0 -20 -2 -22 -16 -10 -14 11 -18 11 -29 -4 -6 -9
-15 -14 -18 -10 -4 3 -7 -1 -7 -9 0 -9 6 -19 13 -21 6 -3 2 -6 -11 -6 -13 -1
-20 3 -17 9 3 5 1 19 -5 30 -8 16 -8 24 4 35 13 13 15 13 19 0 3 -10 4 -10 3
2 -1 10 -8 17 -14 16 -7 -2 -18 -4 -25 -5 -6 -2 -15 -10 -18 -18 -3 -8 -14
-15 -25 -15 -25 0 -31 -35 -9 -51 9 -7 14 -17 10 -23 -4 -7 -14 -4 -27 9 -27
25 -32 25 -47 -2 -11 -23 -12 -23 -7 -1 2 12 -2 24 -10 27 -8 3 -11 0 -7 -10
7 -20 -5 -47 -17 -39 -8 5 -8 11 0 20 9 10 7 16 -8 24 -16 9 -21 7 -25 -9 -3
-11 -12 -20 -21 -20 -9 0 -16 -4 -16 -10 0 -5 5 -10 10 -10 6 0 10 -4 10 -10
0 -5 -15 -10 -34 -10 -29 0 -33 -3 -29 -20 4 -14 0 -20 -12 -20 -14 0 -16 6
-12 30 7 34 0 41 -30 29 -14 -5 -23 -17 -24 -31 -1 -22 -1 -22 -8 2 -8 28 -44
41 -80 28 -16 -6 -31 -4 -45 5 -11 8 -31 16 -44 20 -22 5 -23 3 -17 -26 4 -18
18 -42 33 -54 14 -12 23 -26 19 -30 -5 -4 -12 -1 -18 7 -8 13 -10 13 -19 0 -8
-12 -10 -10 -11 10 0 14 -3 19 -6 13 -6 -16 -33 -17 -33 -1 0 6 -7 3 -15 -8
-14 -19 -14 -18 -15 4 0 23 -15 26 -74 13 -26 -5 -28 -7 -13 -20 23 -19 21
-41 -4 -41 -11 0 -17 5 -14 10 9 14 -24 25 -37 12 -6 -6 -10 -22 -10 -37 0
-20 -4 -24 -18 -20 -11 4 -24 -1 -32 -12 -7 -10 -19 -18 -25 -17 -7 1 -19 2
-25 3 -9 1 -10 3 -2 9 6 4 15 18 19 32 7 23 7 23 -9 7 -22 -21 -33 -21 -44 -1
-6 11 -11 13 -16 5 -4 -6 -23 -11 -43 -11 -20 0 -41 -6 -47 -14 -18 -22 -56
-30 -56 -12 0 20 -19 21 -26 1 -7 -18 -50 -20 -57 -2 -4 8 -8 8 -14 2 -11 -14
-67 -20 -59 -6 4 6 14 11 22 11 8 0 14 3 15 8 0 4 2 16 4 26 5 24 -22 45 -47
38 -12 -3 -18 1 -18 11 0 18 -18 32 -28 22 -3 -3 0 -10 8 -15 11 -7 5 -10 -20
-10 -20 0 -45 -7 -57 -15 -28 -20 -32 -11 -23 50 4 28 5 54 3 59 -9 13 -10
116 -1 116 4 0 5 7 2 15 -4 8 -1 15 6 15 8 0 9 6 5 18 -9 20 -14 182 -6 182 4
0 7 42 9 93 1 50 4 166 7 257 2 91 7 190 10 220 3 30 7 123 10 205 3 83 8 166
11 185 3 19 7 116 9 214 4 216 1 211 115 202 41 -3 192 -11 335 -16z m4634
-180 c46 -5 87 -12 90 -16 14 -14 -43 -43 -101 -50 -35 -4 -66 -7 -70 -6 -4 1
-81 4 -171 6 -116 3 -175 9 -201 20 -38 16 -47 39 -20 54 19 10 357 5 473 -8z
m241 -619 c14 -27 5 -43 -40 -73 -59 -38 -263 -61 -517 -60 -51 1 -95 -3 -98
-9 -4 -5 -10 -7 -16 -4 -5 3 -47 7 -94 8 -77 3 -88 5 -111 29 -29 28 -27 61 6
78 10 6 159 12 347 14 286 4 424 14 441 31 3 3 20 5 38 5 23 0 37 -6 44 -19z
m5061 -548 c38 -23 53 -110 26 -147 -13 -18 -91 -39 -102 -28 -3 4 -24 5 -46
3 -28 -2 -47 3 -60 15 -15 13 -30 16 -74 11 -38 -4 -59 -2 -68 7 -7 7 -18 11
-25 8 -7 -2 -20 -1 -30 3 -9 4 -25 9 -34 10 -24 2 -30 9 -22 28 4 13 10 14 24
7 25 -13 30 -13 30 5 0 11 8 13 30 9 23 -5 30 -3 30 10 0 9 7 16 15 16 15 0
25 6 59 37 27 24 209 28 247 6z"/>
<path d="M10472 7227 c-23 -24 -52 -140 -56 -224 -1 -24 -5 -45 -8 -49 -4 -3
-4 -21 -1 -40 3 -21 2 -34 -5 -34 -6 0 -10 -8 -10 -17 0 -10 -3 -37 -7 -60 -7
-41 -7 -42 41 -77 27 -19 52 -36 57 -36 4 0 12 12 17 28 6 15 14 36 19 47 26
60 31 77 25 86 -3 6 -1 15 4 22 5 7 9 34 9 60 0 26 5 53 11 59 15 15 15 116 1
174 -8 29 -21 51 -39 64 -35 25 -32 25 -58 -3z"/>
<path d="M8046 12914 c-5 -12 -14 -15 -36 -10 -17 3 -30 1 -30 -4 0 -17 -63
-38 -83 -28 -17 9 -19 7 -30 -32 -5 -21 17 -40 41 -34 11 3 23 1 26 -5 4 -5
13 -8 21 -4 8 3 15 0 15 -7 0 -7 7 -10 15 -7 8 4 17 2 20 -3 4 -6 26 -10 50
-10 25 0 59 -8 77 -18 37 -19 93 -18 85 2 -3 7 -8 38 -12 70 -4 31 -12 59 -18
63 -6 4 -8 0 -4 -10 3 -10 2 -17 -3 -17 -6 0 -10 7 -10 15 0 13 -27 19 -66 14
-3 0 -14 9 -23 20 -22 25 -27 26 -35 5z"/>
<path d="M7347 12825 c-9 -7 -17 -25 -17 -41 l0 -29 -19 24 c-14 19 -24 22
-45 17 -32 -8 -33 -24 -5 -60 16 -21 27 -26 45 -22 21 6 23 3 20 -31 -1 -25
-7 -38 -16 -38 -11 0 -15 -11 -14 -40 1 -25 -4 -44 -14 -51 -11 -8 -12 -13 -3
-18 8 -6 5 -15 -14 -33 -30 -31 -33 -63 -5 -70 22 -6 26 -18 10 -28 -14 -9 -5
-21 21 -28 21 -6 21 -6 2 40 -2 6 4 10 14 10 10 -1 17 4 15 12 -1 7 3 20 10
28 10 12 9 17 -5 28 -21 15 -23 50 -3 42 18 -7 26 12 14 36 -6 12 -5 17 7 17
8 0 15 5 15 10 0 6 -7 10 -16 10 -12 0 -9 8 12 29 27 29 57 33 34 6 -6 -8 -10
-22 -8 -32 1 -10 -1 -24 -5 -30 -11 -18 4 -16 31 3 12 8 22 22 22 30 0 8 7 28
15 44 15 29 15 30 -10 30 -14 0 -25 5 -25 10 0 6 9 10 19 10 24 0 36 46 22 83
-11 29 -34 37 -29 11 2 -10 -3 -19 -11 -22 -9 -3 -11 1 -7 15 8 27 -32 47 -57
28z"/>
<path d="M115 8481 c-4 -15 -15 -19 -49 -19 -23 1 -48 -2 -54 -6 -9 -5 -12
-70 -12 -221 0 -187 2 -214 15 -209 8 4 22 1 30 -6 11 -9 23 -9 44 -2 22 8 40
7 71 -4 23 -8 57 -13 76 -11 20 3 34 0 34 -7 0 -6 14 -11 30 -12 17 -1 30 3
30 7 0 5 4 9 10 9 5 0 7 -7 3 -16 -4 -11 -1 -15 13 -12 11 2 22 8 27 13 5 6
12 4 20 -6 10 -14 18 -14 52 -5 46 13 69 13 108 -3 19 -7 42 -8 69 -2 35 8 44
7 54 -7 11 -14 16 -15 33 -4 29 17 31 16 25 -18 -5 -23 -3 -30 10 -30 9 0 16
8 16 20 0 18 6 20 39 18 21 -2 37 -6 35 -9 -7 -12 59 -16 100 -7 26 6 49 5 67
-2 19 -8 33 -9 47 -1 14 7 24 6 40 -5 21 -15 47 -11 37 6 -2 4 7 10 20 13 14
2 28 1 31 -4 2 -4 12 -5 20 -2 10 4 17 -2 21 -16 7 -27 37 -27 63 -1 24 24 40
26 40 6 0 -21 21 -31 31 -15 7 11 11 11 17 2 11 -17 58 -22 55 -5 -2 6 1 12 6
12 19 0 66 -21 73 -33 5 -9 10 -9 20 1 6 6 18 12 26 12 8 0 30 8 49 17 31 14
37 15 47 2 12 -15 76 -22 76 -8 0 5 7 9 15 9 8 0 15 -8 15 -17 0 -15 2 -16 10
-3 6 9 27 16 57 17 26 1 76 5 111 8 40 4 68 3 76 -4 7 -6 16 -7 20 -3 4 4 17
8 29 9 22 1 179 12 274 17 29 2 50 0 47 -5 -3 -5 0 -9 5 -9 6 0 11 9 11 20 0
11 5 20 10 20 6 0 10 -9 10 -21 0 -11 4 -18 8 -15 5 3 12 40 15 83 4 48 14 93
27 118 13 26 17 42 10 49 -6 6 -10 21 -10 36 0 34 -10 47 -43 55 -15 4 -27 13
-27 21 0 8 -9 14 -21 14 -11 0 -32 8 -45 19 -14 11 -40 19 -65 19 -23 1 -55 6
-71 13 -22 9 -32 9 -41 0 -16 -16 -74 -14 -81 4 -8 21 -49 19 -69 -5 -18 -22
-52 -27 -62 -9 -4 5 -19 8 -33 5 -15 -4 -39 0 -53 8 -30 16 -57 14 -116 -7
-23 -8 -45 -12 -48 -8 -7 6 -102 13 -205 16 -99 2 -224 16 -237 27 -7 6 -61 9
-120 8 -60 -1 -115 -1 -123 0 -8 1 -50 3 -92 5 -42 2 -81 6 -86 8 -17 11 -112
19 -129 12 -32 -14 -46 -14 -60 1 -18 18 -83 18 -108 0 -17 -12 -24 -12 -47 0
-21 11 -33 12 -48 4 -16 -8 -22 -8 -26 4 -4 10 -15 13 -39 9 -19 -3 -35 -1
-39 6 -11 17 -113 14 -120 -4 -10 -26 -35 -16 -50 20 -16 38 -41 46 -51 16z"/>
<path d="M2923 7511 c-8 -13 -14 -14 -37 -3 -50 23 -134 -6 -120 -42 5 -12 11
-10 30 12 l24 27 -6 -27 c-6 -28 9 -40 19 -15 3 6 6 -4 6 -23 1 -23 8 -39 21
-47 25 -16 41 4 17 22 -15 11 -14 13 7 25 16 8 23 19 19 29 -4 14 -3 14 6 1 6
-8 11 -25 11 -37 0 -27 2 -27 47 -11 35 13 43 37 18 58 -8 7 -15 18 -15 25 0
20 -36 24 -47 6z"/>
<path d="M4418 6661 c16 -10 23 -58 11 -86 -4 -11 -8 -14 -8 -7 -1 19 -21 4
-21 -16 0 -22 43 -41 95 -43 54 -2 76 4 87 24 5 9 16 17 23 17 20 0 19 6 -6
40 -13 17 -34 31 -56 35 -19 3 -50 15 -69 26 -34 19 -84 28 -56 10z"/>
<path d="M528 6279 c-43 -4 -94 -12 -114 -18 -19 -5 -42 -7 -50 -4 -8 3 -14 0
-14 -6 0 -6 -13 -11 -29 -11 -16 0 -59 -13 -94 -30 -36 -16 -70 -30 -77 -30
-6 0 -42 -17 -81 -37 l-69 -38 0 -122 c0 -100 3 -123 14 -123 8 0 18 5 21 10
4 6 11 8 16 4 5 -3 15 -1 22 4 7 6 31 16 55 23 23 6 42 18 42 25 0 8 12 16 28
20 15 4 32 13 39 21 7 9 19 13 27 10 9 -4 15 -3 15 1 -3 19 2 23 15 13 9 -8
21 -8 40 -1 14 5 26 7 26 5 0 -2 11 0 25 5 16 6 26 6 31 -1 3 -6 11 -3 18 7 8
11 18 14 26 9 9 -5 11 -4 6 3 -5 8 0 12 13 12 12 0 21 -5 21 -12 0 -6 3 -8 7
-5 3 4 12 2 20 -4 9 -9 22 -7 49 6 27 12 38 14 49 5 10 -8 19 -8 33 -1 12 6
31 7 50 2 17 -5 32 -5 34 -1 5 13 63 17 61 4 -1 -7 3 -11 10 -11 7 0 34 -1 61
-1 44 -2 48 -4 43 -23 -4 -17 -3 -19 6 -10 19 19 44 13 51 -12 3 -13 13 -24
22 -24 10 0 14 7 11 18 -4 15 0 17 27 13 17 -4 40 -16 52 -29 19 -20 22 -21
32 -6 9 14 11 12 12 -9 0 -20 2 -22 10 -10 8 13 11 11 16 -7 4 -13 14 -23 23
-23 10 0 26 -7 37 -15 10 -8 27 -15 37 -15 9 0 17 -4 17 -10 0 -5 8 -10 18
-10 11 0 24 -11 30 -25 12 -25 45 -34 57 -15 11 18 27 11 22 -10 -3 -11 -1
-20 4 -20 5 0 9 -7 9 -15 0 -8 6 -15 14 -15 8 0 16 -7 20 -15 3 -8 15 -15 26
-15 12 0 19 -4 16 -9 -8 -12 43 -73 55 -65 5 3 9 1 9 -4 0 -6 8 -8 18 -5 10 2
24 -3 31 -11 8 -9 31 -19 52 -22 22 -4 39 -10 39 -14 0 -3 23 -6 50 -6 44 1
53 -3 74 -29 21 -26 25 -28 31 -13 4 9 4 21 1 26 -8 13 13 82 24 82 6 0 10 6
10 14 0 7 7 19 15 26 20 17 51 85 59 131 7 38 -1 47 -49 55 -11 1 -40 8 -65
14 -25 6 -61 14 -80 17 -19 3 -44 12 -55 19 -11 8 -29 14 -41 14 -11 0 -37 16
-57 35 -20 19 -39 35 -42 35 -4 0 -26 16 -49 35 -24 19 -46 35 -50 35 -9 0
-70 43 -74 53 -2 4 -9 7 -15 7 -6 0 -39 13 -72 29 -61 31 -174 71 -197 71 -7
0 -25 6 -40 14 -28 15 -112 25 -268 31 -52 2 -117 6 -145 9 -27 2 -85 0 -127
-5z"/>
</g>
</svg>
