<?xml version='1.0' encoding='ascii'?>
<svg xmlns="http://www.w3.org/2000/svg" height="1080" version="1.1" width="1920">
    <g id="View Layer_LineSet" inkscape:groupmode="lineset" inkscape:label="View Layer_LineSet" xmlns:inkscape="http://www.inkscape.org/namespaces/inkscape">
        <g id="strokes" inkscape:groupmode="layer" inkscape:label="strokes" xmlns:inkscape="http://www.inkscape.org/namespaces/inkscape">
            <path d=" M 906.553, 353.156 905.736, 353.101 904.918, 353.156 904.134, 353.316 903.391, 353.575 902.695, 353.924 902.054, 354.357 901.475, 354.866 900.966, 355.445 900.533, 356.086 900.183, 356.782 899.925, 357.525 899.765, 358.309 899.710, 359.126 899.765, 359.943 899.925, 360.727 900.183, 361.471 900.533, 362.166 900.966, 362.807 901.475, 363.386 902.054, 363.895 902.695, 364.328 903.391, 364.678 904.134, 364.936 904.918, 365.096 905.736, 365.151 906.553, 365.096 907.337, 364.936 908.081, 364.677 908.777, 364.328 909.418, 363.895 909.997, 363.386 910.506, 362.807 910.939, 362.166 911.288, 361.471 911.547, 360.727 911.707, 359.943 911.762, 359.126 911.707, 358.309 911.547, 357.525 911.288, 356.782 910.939, 356.086 910.506, 355.445 909.997, 354.866 909.418, 354.357 908.777, 353.924 908.081, 353.575 907.337, 353.316 906.553, 353.156 " fill="none" stroke="rgb(0, 0, 0)" stroke-linecap="butt" stroke-linejoin="round" stroke-opacity="1.0" stroke-width="3.0" />
            <path d=" M 830.489, 353.230 829.672, 353.175 828.854, 353.230 828.070, 353.390 827.326, 353.648 826.631, 353.998 825.990, 354.431 825.411, 354.940 824.901, 355.519 824.468, 356.159 824.119, 356.855 823.861, 357.599 823.700, 358.382 823.645, 359.200 823.700, 360.017 823.861, 360.801 824.119, 361.544 824.468, 362.240 824.901, 362.881 825.411, 363.459 825.990, 363.969 826.631, 364.402 827.326, 364.751 828.070, 365.009 828.854, 365.170 829.672, 365.225 830.489, 365.170 831.273, 365.009 832.017, 364.751 832.712, 364.402 833.353, 363.969 833.932, 363.459 834.442, 362.881 834.875, 362.240 835.224, 361.544 835.482, 360.801 835.643, 360.017 835.698, 359.200 835.643, 358.382 835.482, 357.599 835.224, 356.855 834.875, 356.159 834.442, 355.519 833.932, 354.940 833.353, 354.430 832.712, 353.998 832.017, 353.648 831.273, 353.390 830.489, 353.230 " fill="none" stroke="rgb(0, 0, 0)" stroke-linecap="butt" stroke-linejoin="round" stroke-opacity="1.0" stroke-width="3.0" />
            <path d=" M 710.403, 357.932 709.585, 357.877 708.768, 357.932 707.984, 358.092 707.240, 358.351 706.544, 358.700 705.904, 359.133 705.325, 359.642 704.815, 360.221 704.382, 360.862 704.033, 361.558 703.774, 362.301 703.614, 363.085 703.559, 363.902 703.614, 364.719 703.774, 365.503 704.033, 366.247 704.382, 366.942 704.815, 367.583 705.325, 368.162 705.904, 368.671 706.544, 369.104 707.240, 369.454 707.984, 369.712 708.768, 369.872 709.585, 369.927 710.403, 369.872 711.187, 369.712 711.930, 369.453 712.626, 369.104 713.267, 368.671 713.846, 368.162 714.356, 367.583 714.789, 366.942 715.138, 366.247 715.396, 365.503 715.557, 364.719 715.612, 363.902 715.557, 363.085 715.396, 362.301 715.138, 361.558 714.789, 360.862 714.356, 360.221 713.846, 359.642 713.267, 359.133 712.626, 358.700 711.930, 358.351 711.187, 358.092 710.403, 357.932 " fill="none" stroke="rgb(0, 0, 0)" stroke-linecap="butt" stroke-linejoin="round" stroke-opacity="1.0" stroke-width="3.0" />
            <path d=" M 943.520, 511.719 942.702, 511.664 941.885, 511.719 941.101, 511.879 940.357, 512.137 939.661, 512.487 939.021, 512.920 938.442, 513.429 937.932, 514.008 937.499, 514.648 937.150, 515.344 936.891, 516.088 936.731, 516.872 936.676, 517.689 936.731, 518.506 936.891, 519.290 937.150, 520.033 937.499, 520.729 937.932, 521.370 938.442, 521.948 939.021, 522.458 939.661, 522.891 940.357, 523.240 941.101, 523.498 941.885, 523.659 942.702, 523.714 943.520, 523.659 944.304, 523.498 945.047, 523.240 945.743, 522.891 946.384, 522.458 946.963, 521.948 947.473, 521.370 947.906, 520.729 948.255, 520.033 948.513, 519.290 948.674, 518.506 948.729, 517.689 948.674, 516.871 948.513, 516.088 948.255, 515.344 947.906, 514.648 947.473, 514.008 946.963, 513.429 946.384, 512.920 945.743, 512.487 945.047, 512.137 944.304, 511.879 943.520, 511.719 " fill="none" stroke="rgb(0, 0, 0)" stroke-linecap="butt" stroke-linejoin="round" stroke-opacity="1.0" stroke-width="3.0" />
            <path d=" M 948.223, 629.428 947.406, 629.373 946.589, 629.428 945.804, 629.589 945.061, 629.847 944.365, 630.196 943.724, 630.629 943.145, 631.139 942.636, 631.717 942.203, 632.358 941.853, 633.054 941.595, 633.797 941.435, 634.581 941.380, 635.398 941.435, 636.215 941.595, 636.999 941.853, 637.743 942.203, 638.438 942.636, 639.079 943.145, 639.658 943.724, 640.167 944.365, 640.600 945.061, 640.950 945.804, 641.208 946.589, 641.368 947.406, 641.423 948.223, 641.368 949.007, 641.208 949.751, 640.950 950.447, 640.600 951.088, 640.167 951.667, 639.658 952.176, 639.079 952.609, 638.438 952.958, 637.743 953.217, 636.999 953.377, 636.215 953.432, 635.398 953.377, 634.581 953.217, 633.797 952.958, 633.054 952.609, 632.358 952.176, 631.717 951.667, 631.139 951.088, 630.629 950.447, 630.196 949.751, 629.847 949.007, 629.589 948.223, 629.428 " fill="none" stroke="rgb(0, 0, 0)" stroke-linecap="butt" stroke-linejoin="round" stroke-opacity="1.0" stroke-width="3.0" />
            <path d=" M 948.223, 782.260 947.406, 782.205 946.589, 782.260 945.804, 782.420 945.061, 782.678 944.365, 783.028 943.724, 783.460 943.145, 783.970 942.636, 784.549 942.203, 785.189 941.853, 785.885 941.595, 786.629 941.435, 787.412 941.380, 788.230 941.435, 789.047 941.595, 789.831 941.853, 790.574 942.203, 791.270 942.636, 791.911 943.145, 792.489 943.724, 792.999 944.365, 793.432 945.061, 793.781 945.804, 794.039 946.589, 794.200 947.406, 794.255 948.223, 794.200 949.007, 794.039 949.751, 793.781 950.447, 793.432 951.088, 792.999 951.667, 792.489 952.176, 791.911 952.609, 791.270 952.958, 790.574 953.217, 789.831 953.377, 789.047 953.432, 788.230 953.377, 787.412 953.217, 786.629 952.958, 785.885 952.609, 785.189 952.176, 784.549 951.667, 783.970 951.088, 783.460 950.447, 783.028 949.751, 782.678 949.007, 782.420 948.223, 782.260 " fill="none" stroke="rgb(0, 0, 0)" stroke-linecap="butt" stroke-linejoin="round" stroke-opacity="1.0" stroke-width="3.0" />
            <path d=" M 1139.744, 352.936 1138.926, 352.881 1138.109, 352.936 1137.325, 353.096 1136.581, 353.354 1135.885, 353.704 1135.245, 354.137 1134.666, 354.646 1134.156, 355.225 1133.723, 355.866 1133.374, 356.561 1133.115, 357.305 1132.955, 358.089 1132.900, 358.906 1132.955, 359.723 1133.115, 360.507 1133.374, 361.250 1133.723, 361.946 1134.156, 362.587 1134.666, 363.166 1135.245, 363.675 1135.885, 364.108 1136.581, 364.457 1137.325, 364.716 1138.109, 364.876 1138.926, 364.931 1139.744, 364.876 1140.528, 364.716 1141.271, 364.457 1141.967, 364.108 1142.608, 363.675 1143.187, 363.166 1143.697, 362.587 1144.130, 361.946 1144.479, 361.250 1144.737, 360.507 1144.898, 359.723 1144.953, 358.906 1144.898, 358.089 1144.737, 357.305 1144.479, 356.561 1144.130, 355.866 1143.697, 355.225 1143.187, 354.646 1142.608, 354.137 1141.967, 353.704 1141.271, 353.354 1140.528, 353.096 1139.744, 352.936 " fill="none" stroke="rgb(0, 0, 0)" stroke-linecap="butt" stroke-linejoin="round" stroke-opacity="1.0" stroke-width="3.0" />
            <path d=" M 1259.830, 357.565 1259.013, 357.510 1258.195, 357.565 1257.411, 357.725 1256.668, 357.983 1255.972, 358.333 1255.331, 358.766 1254.752, 359.275 1254.242, 359.854 1253.809, 360.495 1253.460, 361.190 1253.202, 361.934 1253.041, 362.718 1252.986, 363.535 1253.041, 364.352 1253.202, 365.136 1253.460, 365.879 1253.809, 366.575 1254.242, 367.216 1254.752, 367.795 1255.331, 368.304 1255.972, 368.737 1256.668, 369.086 1257.411, 369.345 1258.195, 369.505 1259.013, 369.560 1259.830, 369.505 1260.614, 369.344 1261.358, 369.086 1262.053, 368.737 1262.694, 368.304 1263.273, 367.794 1263.783, 367.216 1264.216, 366.575 1264.565, 365.879 1264.823, 365.136 1264.984, 364.352 1265.039, 363.535 1264.984, 362.718 1264.823, 361.934 1264.565, 361.190 1264.216, 360.495 1263.783, 359.854 1263.273, 359.275 1262.694, 358.766 1262.053, 358.333 1261.358, 357.983 1260.614, 357.725 1259.830, 357.565 " fill="none" stroke="rgb(0, 0, 0)" stroke-linecap="butt" stroke-linejoin="round" stroke-opacity="1.0" stroke-width="3.0" />
            <path d=" M 1029.065, 511.131 1028.247, 511.076 1027.430, 511.131 1026.646, 511.291 1025.902, 511.550 1025.206, 511.899 1024.565, 512.332 1023.987, 512.841 1023.477, 513.420 1023.044, 514.061 1022.695, 514.756 1022.436, 515.500 1022.276, 516.284 1022.221, 517.101 1022.276, 517.918 1022.436, 518.702 1022.695, 519.445 1023.044, 520.141 1023.477, 520.782 1023.987, 521.361 1024.565, 521.870 1025.206, 522.303 1025.902, 522.652 1026.646, 522.911 1027.430, 523.071 1028.247, 523.126 1029.065, 523.071 1029.849, 522.911 1030.592, 522.652 1031.288, 522.303 1031.929, 521.870 1032.508, 521.361 1033.017, 520.782 1033.450, 520.141 1033.800, 519.445 1034.058, 518.702 1034.219, 517.918 1034.274, 517.101 1034.219, 516.284 1034.058, 515.500 1033.800, 514.756 1033.450, 514.061 1033.017, 513.420 1032.508, 512.841 1031.929, 512.332 1031.288, 511.899 1030.592, 511.549 1029.849, 511.291 1029.065, 511.131 " fill="none" stroke="rgb(0, 0, 0)" stroke-linecap="butt" stroke-linejoin="round" stroke-opacity="1.0" stroke-width="3.0" />
            <path d=" M 1029.065, 629.428 1028.247, 629.373 1027.430, 629.428 1026.646, 629.589 1025.902, 629.847 1025.206, 630.196 1024.565, 630.629 1023.987, 631.139 1023.477, 631.717 1023.044, 632.358 1022.695, 633.054 1022.436, 633.797 1022.276, 634.581 1022.221, 635.398 1022.276, 636.215 1022.436, 636.999 1022.695, 637.743 1023.044, 638.438 1023.477, 639.079 1023.987, 639.658 1024.565, 640.167 1025.206, 640.600 1025.902, 640.950 1026.646, 641.208 1027.430, 641.368 1028.247, 641.423 1029.065, 641.368 1029.849, 641.208 1030.592, 640.950 1031.288, 640.600 1031.929, 640.167 1032.508, 639.658 1033.017, 639.079 1033.450, 638.438 1033.800, 637.743 1034.058, 636.999 1034.219, 636.215 1034.274, 635.398 1034.219, 634.581 1034.058, 633.797 1033.800, 633.054 1033.450, 632.358 1033.017, 631.717 1032.508, 631.139 1031.929, 630.629 1031.288, 630.196 1030.592, 629.847 1029.849, 629.589 1029.065, 629.428 " fill="none" stroke="rgb(0, 0, 0)" stroke-linecap="butt" stroke-linejoin="round" stroke-opacity="1.0" stroke-width="3.0" />
            <path d=" M 1029.065, 782.260 1028.247, 782.205 1027.430, 782.260 1026.646, 782.420 1025.902, 782.678 1025.206, 783.028 1024.565, 783.460 1023.987, 783.970 1023.477, 784.549 1023.044, 785.189 1022.695, 785.885 1022.436, 786.629 1022.276, 787.412 1022.221, 788.230 1022.276, 789.047 1022.436, 789.831 1022.695, 790.574 1023.044, 791.270 1023.477, 791.911 1023.987, 792.489 1024.565, 792.999 1025.206, 793.432 1025.902, 793.781 1026.646, 794.039 1027.430, 794.200 1028.247, 794.255 1029.065, 794.200 1029.849, 794.039 1030.592, 793.781 1031.288, 793.432 1031.929, 792.999 1032.508, 792.489 1033.017, 791.911 1033.450, 791.270 1033.800, 790.574 1034.058, 789.831 1034.219, 789.047 1034.274, 788.230 1034.219, 787.412 1034.058, 786.629 1033.800, 785.885 1033.450, 785.189 1033.017, 784.549 1032.508, 783.970 1031.929, 783.460 1031.288, 783.028 1030.592, 782.678 1029.849, 782.420 1029.065, 782.260 " fill="none" stroke="rgb(0, 0, 0)" stroke-linecap="butt" stroke-linejoin="round" stroke-opacity="1.0" stroke-width="3.0" />
            <path d=" M 961.523, 260.012 961.443, 260.006 961.363, 260.011 961.287, 260.027 961.214, 260.052 961.146, 260.086 961.084, 260.129 961.027, 260.178 960.977, 260.235 960.935, 260.297 960.901, 260.365 960.876, 260.438 960.860, 260.514 960.855, 260.594 960.860, 260.674 960.876, 260.750 960.901, 260.823 960.935, 260.891 960.978, 260.953 961.027, 261.010 961.084, 261.059 961.146, 261.102 961.214, 261.136 961.287, 261.161 961.363, 261.176 961.443, 261.182 961.523, 261.176 961.599, 261.161 961.672, 261.136 961.740, 261.102 961.802, 261.059 961.859, 261.010 961.908, 260.953 961.951, 260.891 961.985, 260.823 962.010, 260.750 962.025, 260.674 962.031, 260.594 962.025, 260.515 962.010, 260.438 961.985, 260.365 961.951, 260.298 961.908, 260.235 961.859, 260.178 961.802, 260.129 961.740, 260.087 961.672, 260.052 961.599, 260.027 961.523, 260.012 " fill="none" stroke="rgb(0, 0, 0)" stroke-linecap="butt" stroke-linejoin="round" stroke-opacity="1.0" stroke-width="3.0" />
            <path d=" M 959.906, 251.268 959.826, 251.263 959.746, 251.268 959.670, 251.283 959.597, 251.309 959.529, 251.343 959.467, 251.385 959.410, 251.435 959.361, 251.491 959.318, 251.554 959.284, 251.622 959.259, 251.694 959.243, 251.771 959.238, 251.850 959.243, 251.930 959.259, 252.007 959.284, 252.079 959.318, 252.147 959.361, 252.210 959.410, 252.266 959.467, 252.316 959.529, 252.358 959.597, 252.392 959.670, 252.417 959.746, 252.433 959.826, 252.438 959.906, 252.433 959.982, 252.417 960.055, 252.392 960.123, 252.358 960.185, 252.316 960.242, 252.266 960.291, 252.210 960.334, 252.147 960.368, 252.079 960.393, 252.007 960.409, 251.930 960.414, 251.850 960.409, 251.771 960.393, 251.694 960.368, 251.622 960.334, 251.554 960.291, 251.491 960.242, 251.435 960.185, 251.385 960.123, 251.343 960.055, 251.309 959.982, 251.284 959.906, 251.268 " fill="none" stroke="rgb(0, 0, 0)" stroke-linecap="butt" stroke-linejoin="round" stroke-opacity="1.0" stroke-width="3.0" />
            <path d=" M 977.029, 253.472 976.950, 253.467 976.870, 253.472 976.794, 253.488 976.721, 253.513 976.653, 253.547 976.591, 253.589 976.534, 253.639 976.484, 253.695 976.442, 253.758 976.408, 253.826 976.383, 253.898 976.367, 253.975 976.362, 254.055 976.367, 254.134 976.383, 254.211 976.408, 254.283 976.442, 254.351 976.484, 254.414 976.534, 254.470 976.591, 254.520 976.653, 254.562 976.721, 254.596 976.794, 254.621 976.870, 254.637 976.950, 254.643 977.029, 254.637 977.106, 254.621 977.179, 254.596 977.246, 254.562 977.309, 254.520 977.365, 254.470 977.415, 254.414 977.457, 254.351 977.491, 254.283 977.517, 254.211 977.532, 254.134 977.538, 254.055 977.532, 253.975 977.517, 253.899 977.491, 253.826 977.457, 253.758 977.415, 253.696 977.365, 253.639 977.309, 253.589 977.246, 253.547 977.178, 253.513 977.106, 253.488 977.029, 253.472 " fill="none" stroke="rgb(0, 0, 0)" stroke-linecap="butt" stroke-linejoin="round" stroke-opacity="1.0" stroke-width="3.0" />
            <path d=" M 982.835, 260.746 982.756, 260.741 982.676, 260.746 982.599, 260.762 982.527, 260.787 982.459, 260.821 982.396, 260.863 982.340, 260.913 982.290, 260.970 982.248, 261.032 982.214, 261.100 982.189, 261.173 982.173, 261.249 982.168, 261.329 982.173, 261.409 982.189, 261.485 982.214, 261.558 982.248, 261.625 982.290, 261.688 982.340, 261.744 982.396, 261.794 982.459, 261.836 982.527, 261.870 982.599, 261.896 982.676, 261.911 982.756, 261.917 982.835, 261.911 982.912, 261.896 982.984, 261.870 983.052, 261.836 983.115, 261.794 983.171, 261.744 983.221, 261.688 983.263, 261.625 983.297, 261.558 983.323, 261.485 983.338, 261.409 983.344, 261.329 983.338, 261.249 983.323, 261.173 983.297, 261.100 983.263, 261.032 983.221, 260.970 983.171, 260.913 983.115, 260.864 983.052, 260.821 982.984, 260.787 982.912, 260.762 982.835, 260.746 " fill="none" stroke="rgb(0, 0, 0)" stroke-linecap="butt" stroke-linejoin="round" stroke-opacity="1.0" stroke-width="3.0" />
            <path d=" M 969.827, 250.533 969.747, 250.528 969.668, 250.533 969.591, 250.549 969.519, 250.574 969.451, 250.608 969.388, 250.650 969.332, 250.700 969.282, 250.756 969.240, 250.819 969.206, 250.887 969.181, 250.959 969.165, 251.036 969.160, 251.116 969.165, 251.195 969.181, 251.272 969.206, 251.344 969.240, 251.412 969.282, 251.475 969.332, 251.531 969.388, 251.581 969.451, 251.623 969.519, 251.657 969.591, 251.682 969.668, 251.698 969.747, 251.703 969.827, 251.698 969.904, 251.682 969.976, 251.657 970.044, 251.623 970.107, 251.581 970.163, 251.531 970.213, 251.475 970.255, 251.412 970.289, 251.344 970.314, 251.272 970.330, 251.195 970.335, 251.116 970.330, 251.036 970.314, 250.960 970.289, 250.887 970.255, 250.819 970.213, 250.757 970.163, 250.700 970.107, 250.650 970.044, 250.608 969.976, 250.574 969.904, 250.549 969.827, 250.533 " fill="none" stroke="rgb(0, 0, 0)" stroke-linecap="butt" stroke-linejoin="round" stroke-opacity="1.0" stroke-width="3.0" />
            <path d=" M 965.344, 257.293 965.264, 257.288 965.185, 257.293 965.108, 257.309 965.036, 257.334 964.968, 257.368 964.905, 257.410 964.849, 257.460 964.799, 257.516 964.757, 257.579 964.723, 257.647 964.698, 257.719 964.682, 257.796 964.677, 257.875 964.682, 257.955 964.698, 258.031 964.723, 258.104 964.757, 258.172 964.799, 258.234 964.849, 258.291 964.905, 258.341 964.968, 258.383 965.036, 258.417 965.108, 258.442 965.185, 258.458 965.264, 258.463 965.344, 258.458 965.421, 258.442 965.493, 258.417 965.561, 258.383 965.624, 258.341 965.680, 258.291 965.730, 258.235 965.772, 258.172 965.806, 258.104 965.831, 258.032 965.847, 257.955 965.852, 257.875 965.847, 257.796 965.831, 257.719 965.806, 257.647 965.772, 257.579 965.730, 257.516 965.680, 257.460 965.624, 257.410 965.561, 257.368 965.493, 257.334 965.421, 257.309 965.344, 257.293 " fill="none" stroke="rgb(0, 0, 0)" stroke-linecap="butt" stroke-linejoin="round" stroke-opacity="1.0" stroke-width="3.0" />
            <path d=" M 956.966, 253.987 956.886, 253.981 956.807, 253.987 956.730, 254.002 956.658, 254.027 956.590, 254.062 956.527, 254.104 956.471, 254.153 956.421, 254.210 956.379, 254.272 956.345, 254.340 956.319, 254.413 956.304, 254.489 956.298, 254.569 956.304, 254.648 956.319, 254.725 956.345, 254.798 956.379, 254.866 956.421, 254.928 956.471, 254.985 956.527, 255.034 956.590, 255.077 956.658, 255.111 956.730, 255.136 956.807, 255.151 956.886, 255.157 956.966, 255.152 957.043, 255.136 957.115, 255.111 957.183, 255.077 957.246, 255.034 957.302, 254.985 957.352, 254.928 957.394, 254.866 957.428, 254.798 957.453, 254.725 957.469, 254.649 957.474, 254.569 957.469, 254.489 957.453, 254.413 957.428, 254.340 957.394, 254.272 957.352, 254.210 957.302, 254.153 957.246, 254.104 957.183, 254.062 957.115, 254.027 957.043, 254.002 956.966, 253.987 " fill="none" stroke="rgb(0, 0, 0)" stroke-linecap="butt" stroke-linejoin="round" stroke-opacity="1.0" stroke-width="3.0" />
            <path d=" M 964.462, 250.533 964.383, 250.528 964.303, 250.533 964.226, 250.549 964.154, 250.574 964.086, 250.608 964.023, 250.650 963.967, 250.700 963.917, 250.756 963.875, 250.819 963.841, 250.887 963.816, 250.959 963.800, 251.036 963.795, 251.116 963.800, 251.195 963.816, 251.272 963.841, 251.344 963.875, 251.412 963.917, 251.475 963.967, 251.531 964.023, 251.581 964.086, 251.623 964.154, 251.657 964.226, 251.682 964.303, 251.698 964.383, 251.703 964.462, 251.698 964.539, 251.682 964.611, 251.657 964.679, 251.623 964.742, 251.581 964.798, 251.531 964.848, 251.475 964.890, 251.412 964.924, 251.344 964.950, 251.272 964.965, 251.195 964.971, 251.116 964.965, 251.036 964.950, 250.960 964.924, 250.887 964.890, 250.819 964.848, 250.757 964.798, 250.700 964.742, 250.650 964.679, 250.608 964.611, 250.574 964.539, 250.549 964.462, 250.533 " fill="none" stroke="rgb(0, 0, 0)" stroke-linecap="butt" stroke-linejoin="round" stroke-opacity="1.0" stroke-width="3.0" />
            <path d=" M 965.344, 261.702 965.264, 261.696 965.185, 261.702 965.108, 261.717 965.036, 261.742 964.968, 261.777 964.905, 261.819 964.849, 261.868 964.799, 261.925 964.757, 261.987 964.723, 262.055 964.698, 262.128 964.682, 262.204 964.677, 262.284 964.682, 262.364 964.698, 262.440 964.723, 262.513 964.757, 262.581 964.799, 262.643 964.849, 262.700 964.905, 262.749 964.968, 262.792 965.036, 262.826 965.108, 262.851 965.185, 262.867 965.264, 262.872 965.344, 262.867 965.421, 262.851 965.493, 262.826 965.561, 262.792 965.624, 262.750 965.680, 262.700 965.730, 262.643 965.772, 262.581 965.806, 262.513 965.831, 262.440 965.847, 262.364 965.852, 262.284 965.847, 262.204 965.831, 262.128 965.806, 262.055 965.772, 261.987 965.730, 261.925 965.680, 261.868 965.624, 261.819 965.561, 261.777 965.493, 261.742 965.421, 261.717 965.344, 261.702 " fill="none" stroke="rgb(0, 0, 0)" stroke-linecap="butt" stroke-linejoin="round" stroke-opacity="1.0" stroke-width="3.0" />
            <path d=" M 969.974, 257.293 969.894, 257.288 969.815, 257.293 969.738, 257.309 969.666, 257.334 969.598, 257.368 969.535, 257.410 969.479, 257.460 969.429, 257.516 969.387, 257.579 969.353, 257.647 969.328, 257.719 969.312, 257.796 969.307, 257.875 969.312, 257.955 969.328, 258.031 969.353, 258.104 969.387, 258.172 969.429, 258.234 969.479, 258.291 969.535, 258.341 969.598, 258.383 969.666, 258.417 969.738, 258.442 969.815, 258.458 969.894, 258.463 969.974, 258.458 970.051, 258.442 970.123, 258.417 970.191, 258.383 970.254, 258.341 970.310, 258.291 970.360, 258.235 970.402, 258.172 970.436, 258.104 970.461, 258.032 970.477, 257.955 970.482, 257.875 970.477, 257.796 970.461, 257.719 970.436, 257.647 970.402, 257.579 970.360, 257.516 970.310, 257.460 970.254, 257.410 970.191, 257.368 970.123, 257.334 970.051, 257.309 969.974, 257.293 " fill="none" stroke="rgb(0, 0, 0)" stroke-linecap="butt" stroke-linejoin="round" stroke-opacity="1.0" stroke-width="3.0" />
            <path d=" M 973.796, 260.379 973.716, 260.374 973.636, 260.379 973.560, 260.395 973.487, 260.420 973.419, 260.454 973.357, 260.496 973.300, 260.546 973.251, 260.602 973.208, 260.665 973.174, 260.733 973.149, 260.805 973.133, 260.882 973.128, 260.961 973.133, 261.041 973.149, 261.118 973.174, 261.190 973.208, 261.258 973.251, 261.321 973.300, 261.377 973.357, 261.427 973.419, 261.469 973.487, 261.503 973.560, 261.528 973.636, 261.544 973.716, 261.549 973.796, 261.544 973.872, 261.528 973.945, 261.503 974.013, 261.469 974.075, 261.427 974.132, 261.377 974.181, 261.321 974.224, 261.258 974.258, 261.190 974.283, 261.118 974.299, 261.041 974.304, 260.961 974.299, 260.882 974.283, 260.805 974.258, 260.733 974.224, 260.665 974.181, 260.602 974.132, 260.546 974.075, 260.496 974.013, 260.454 973.945, 260.420 973.872, 260.395 973.796, 260.379 " fill="none" stroke="rgb(0, 0, 0)" stroke-linecap="butt" stroke-linejoin="round" stroke-opacity="1.0" stroke-width="3.0" />
            <path d=" M 982.835, 256.485 982.756, 256.479 982.676, 256.485 982.599, 256.500 982.527, 256.526 982.459, 256.560 982.396, 256.602 982.340, 256.652 982.290, 256.708 982.248, 256.771 982.214, 256.839 982.189, 256.911 982.173, 256.987 982.168, 257.067 982.173, 257.147 982.189, 257.223 982.214, 257.296 982.248, 257.364 982.290, 257.426 982.340, 257.483 982.396, 257.532 982.459, 257.575 982.527, 257.609 982.599, 257.634 982.676, 257.650 982.756, 257.655 982.835, 257.650 982.912, 257.634 982.984, 257.609 983.052, 257.575 983.115, 257.533 983.171, 257.483 983.221, 257.426 983.263, 257.364 983.297, 257.296 983.323, 257.223 983.338, 257.147 983.344, 257.067 983.338, 256.987 983.323, 256.911 983.297, 256.839 983.263, 256.771 983.221, 256.708 983.171, 256.652 983.115, 256.602 983.052, 256.560 982.984, 256.526 982.912, 256.500 982.835, 256.485 " fill="none" stroke="rgb(0, 0, 0)" stroke-linecap="butt" stroke-linejoin="round" stroke-opacity="1.0" stroke-width="3.0" />
            <path d=" M 982.835, 270.004 982.756, 269.999 982.676, 270.004 982.599, 270.020 982.527, 270.045 982.459, 270.079 982.396, 270.121 982.340, 270.171 982.290, 270.228 982.248, 270.290 982.214, 270.358 982.189, 270.431 982.173, 270.507 982.168, 270.587 982.173, 270.667 982.189, 270.743 982.214, 270.816 982.248, 270.884 982.290, 270.946 982.340, 271.003 982.396, 271.052 982.459, 271.094 982.527, 271.128 982.599, 271.154 982.676, 271.169 982.756, 271.175 982.835, 271.169 982.912, 271.154 982.984, 271.128 983.052, 271.094 983.115, 271.052 983.171, 271.003 983.221, 270.946 983.263, 270.884 983.297, 270.816 983.323, 270.743 983.338, 270.667 983.344, 270.587 983.338, 270.507 983.323, 270.431 983.297, 270.358 983.263, 270.290 983.221, 270.228 983.171, 270.171 983.115, 270.122 983.052, 270.079 982.984, 270.045 982.912, 270.020 982.835, 270.004 " fill="none" stroke="rgb(0, 0, 0)" stroke-linecap="butt" stroke-linejoin="round" stroke-opacity="1.0" stroke-width="3.0" />
            <path d=" M 974.972, 273.311 974.892, 273.306 974.812, 273.311 974.736, 273.326 974.663, 273.352 974.595, 273.386 974.533, 273.428 974.476, 273.478 974.427, 273.534 974.384, 273.597 974.350, 273.665 974.325, 273.737 974.309, 273.814 974.304, 273.893 974.309, 273.973 974.325, 274.049 974.350, 274.122 974.384, 274.190 974.427, 274.253 974.476, 274.309 974.533, 274.359 974.595, 274.401 974.663, 274.435 974.736, 274.460 974.812, 274.476 974.892, 274.481 974.972, 274.476 975.048, 274.460 975.121, 274.435 975.189, 274.401 975.251, 274.359 975.308, 274.309 975.357, 274.253 975.400, 274.190 975.434, 274.122 975.459, 274.049 975.475, 273.973 975.480, 273.893 975.475, 273.814 975.459, 273.737 975.434, 273.665 975.400, 273.597 975.357, 273.534 975.308, 273.478 975.251, 273.428 975.189, 273.386 975.121, 273.352 975.048, 273.327 974.972, 273.311 " fill="none" stroke="rgb(0, 0, 0)" stroke-linecap="butt" stroke-linejoin="round" stroke-opacity="1.0" stroke-width="3.0" />
            <path d=" M 970.562, 289.549 970.482, 289.544 970.403, 289.549 970.326, 289.565 970.254, 289.590 970.186, 289.624 970.123, 289.666 970.067, 289.716 970.017, 289.773 969.975, 289.835 969.941, 289.903 969.915, 289.975 969.900, 290.052 969.894, 290.132 969.900, 290.211 969.915, 290.288 969.941, 290.360 969.975, 290.428 970.017, 290.491 970.067, 290.547 970.123, 290.597 970.186, 290.639 970.254, 290.673 970.326, 290.698 970.403, 290.714 970.482, 290.719 970.562, 290.714 970.639, 290.699 970.711, 290.673 970.779, 290.639 970.842, 290.597 970.898, 290.547 970.948, 290.491 970.990, 290.428 971.024, 290.360 971.049, 290.288 971.065, 290.211 971.070, 290.132 971.065, 290.052 971.049, 289.975 971.024, 289.903 970.990, 289.835 970.948, 289.773 970.898, 289.716 970.842, 289.666 970.779, 289.624 970.711, 289.590 970.639, 289.565 970.562, 289.549 " fill="none" stroke="rgb(0, 0, 0)" stroke-linecap="butt" stroke-linejoin="round" stroke-opacity="1.0" stroke-width="3.0" />
            <path d=" M 978.793, 273.311 978.714, 273.306 978.634, 273.311 978.557, 273.326 978.485, 273.352 978.417, 273.386 978.354, 273.428 978.298, 273.478 978.248, 273.534 978.206, 273.597 978.172, 273.665 978.147, 273.737 978.131, 273.814 978.126, 273.893 978.131, 273.973 978.147, 274.049 978.172, 274.122 978.206, 274.190 978.248, 274.253 978.298, 274.309 978.354, 274.359 978.417, 274.401 978.485, 274.435 978.557, 274.460 978.634, 274.476 978.714, 274.481 978.793, 274.476 978.870, 274.460 978.942, 274.435 979.010, 274.401 979.073, 274.359 979.129, 274.309 979.179, 274.253 979.221, 274.190 979.255, 274.122 979.281, 274.049 979.296, 273.973 979.302, 273.893 979.296, 273.814 979.281, 273.737 979.255, 273.665 979.221, 273.597 979.179, 273.534 979.129, 273.478 979.073, 273.428 979.010, 273.386 978.942, 273.352 978.870, 273.327 978.793, 273.311 " fill="none" stroke="rgb(0, 0, 0)" stroke-linecap="butt" stroke-linejoin="round" stroke-opacity="1.0" stroke-width="3.0" />
            <path d=" M 975.633, 287.051 975.553, 287.046 975.474, 287.051 975.397, 287.067 975.325, 287.092 975.257, 287.126 975.194, 287.168 975.138, 287.218 975.088, 287.274 975.046, 287.337 975.012, 287.405 974.986, 287.477 974.971, 287.554 974.965, 287.633 974.971, 287.713 974.986, 287.789 975.012, 287.862 975.046, 287.930 975.088, 287.993 975.138, 288.049 975.194, 288.099 975.257, 288.141 975.325, 288.175 975.397, 288.200 975.474, 288.216 975.553, 288.221 975.633, 288.216 975.710, 288.200 975.782, 288.175 975.850, 288.141 975.913, 288.099 975.969, 288.049 976.019, 287.993 976.061, 287.930 976.095, 287.862 976.120, 287.790 976.136, 287.713 976.141, 287.633 976.136, 287.554 976.120, 287.477 976.095, 287.405 976.061, 287.337 976.019, 287.274 975.969, 287.218 975.913, 287.168 975.850, 287.126 975.782, 287.092 975.710, 287.067 975.633, 287.051 " fill="none" stroke="rgb(0, 0, 0)" stroke-linecap="butt" stroke-linejoin="round" stroke-opacity="1.0" stroke-width="3.0" />
            <path d=" M 982.835, 264.788 982.756, 264.782 982.676, 264.787 982.599, 264.803 982.527, 264.828 982.459, 264.862 982.396, 264.905 982.340, 264.954 982.290, 265.011 982.248, 265.073 982.214, 265.141 982.189, 265.214 982.173, 265.290 982.168, 265.370 982.173, 265.450 982.189, 265.526 982.214, 265.599 982.248, 265.667 982.290, 265.729 982.340, 265.786 982.396, 265.835 982.459, 265.878 982.527, 265.912 982.599, 265.937 982.676, 265.953 982.756, 265.958 982.835, 265.953 982.912, 265.937 982.984, 265.912 983.052, 265.878 983.115, 265.835 983.171, 265.786 983.221, 265.729 983.263, 265.667 983.297, 265.599 983.323, 265.526 983.338, 265.450 983.344, 265.370 983.338, 265.291 983.323, 265.214 983.297, 265.141 983.263, 265.074 983.221, 265.011 983.171, 264.955 983.115, 264.905 983.052, 264.863 982.984, 264.828 982.912, 264.803 982.835, 264.788 " fill="none" stroke="rgb(0, 0, 0)" stroke-linecap="butt" stroke-linejoin="round" stroke-opacity="1.0" stroke-width="3.0" />
            <path d=" M 982.835, 273.899 982.756, 273.893 982.676, 273.899 982.599, 273.914 982.527, 273.940 982.459, 273.974 982.396, 274.016 982.340, 274.066 982.290, 274.122 982.248, 274.185 982.214, 274.252 982.189, 274.325 982.173, 274.401 982.168, 274.481 982.173, 274.561 982.189, 274.637 982.214, 274.710 982.248, 274.778 982.290, 274.840 982.340, 274.897 982.396, 274.946 982.459, 274.989 982.527, 275.023 982.599, 275.048 982.676, 275.064 982.756, 275.069 982.835, 275.064 982.912, 275.048 982.984, 275.023 983.052, 274.989 983.115, 274.946 983.171, 274.897 983.221, 274.840 983.263, 274.778 983.297, 274.710 983.323, 274.637 983.338, 274.561 983.344, 274.481 983.338, 274.401 983.323, 274.325 983.297, 274.252 983.263, 274.185 983.221, 274.122 983.171, 274.066 983.115, 274.016 983.052, 273.974 982.984, 273.940 982.912, 273.914 982.835, 273.899 " fill="none" stroke="rgb(0, 0, 0)" stroke-linecap="butt" stroke-linejoin="round" stroke-opacity="1.0" stroke-width="3.0" />
            <path d=" M 983.423, 286.904 983.344, 286.899 983.264, 286.904 983.187, 286.920 983.115, 286.945 983.047, 286.979 982.984, 287.021 982.928, 287.071 982.878, 287.127 982.836, 287.190 982.802, 287.258 982.777, 287.330 982.761, 287.407 982.756, 287.487 982.761, 287.566 982.777, 287.643 982.802, 287.715 982.836, 287.783 982.878, 287.846 982.928, 287.902 982.984, 287.952 983.047, 287.994 983.115, 288.028 983.187, 288.053 983.264, 288.069 983.344, 288.074 983.423, 288.069 983.500, 288.053 983.572, 288.028 983.640, 287.994 983.703, 287.952 983.759, 287.902 983.809, 287.846 983.851, 287.783 983.885, 287.715 983.911, 287.643 983.926, 287.566 983.931, 287.487 983.926, 287.407 983.911, 287.330 983.885, 287.258 983.851, 287.190 983.809, 287.127 983.759, 287.071 983.703, 287.021 983.640, 286.979 983.572, 286.945 983.500, 286.920 983.423, 286.904 " fill="none" stroke="rgb(0, 0, 0)" stroke-linecap="butt" stroke-linejoin="round" stroke-opacity="1.0" stroke-width="3.0" />
            <path d=" M 980.410, 286.243 980.330, 286.237 980.251, 286.243 980.174, 286.258 980.102, 286.284 980.034, 286.318 979.971, 286.360 979.915, 286.410 979.865, 286.466 979.823, 286.529 979.789, 286.596 979.763, 286.669 979.748, 286.745 979.742, 286.825 979.748, 286.905 979.763, 286.981 979.789, 287.054 979.823, 287.122 979.865, 287.184 979.915, 287.241 979.971, 287.291 980.034, 287.333 980.102, 287.367 980.174, 287.392 980.251, 287.408 980.330, 287.413 980.410, 287.408 980.487, 287.392 980.559, 287.367 980.627, 287.333 980.690, 287.291 980.746, 287.241 980.796, 287.185 980.838, 287.122 980.872, 287.054 980.897, 286.981 980.913, 286.905 980.918, 286.825 980.913, 286.745 980.897, 286.669 980.872, 286.596 980.838, 286.529 980.796, 286.466 980.746, 286.410 980.690, 286.360 980.627, 286.318 980.559, 286.284 980.487, 286.258 980.410, 286.243 " fill="none" stroke="rgb(0, 0, 0)" stroke-linecap="butt" stroke-linejoin="round" stroke-opacity="1.0" stroke-width="3.0" />
            <path d=" M 973.201, 289.770 973.128, 289.764 973.055, 289.770 972.983, 289.787 972.912, 289.815 972.845, 289.851 972.782, 289.896 972.724, 289.948 972.672, 290.006 972.627, 290.069 972.591, 290.136 972.563, 290.207 972.546, 290.279 972.540, 290.352 972.546, 290.426 972.563, 290.498 972.591, 290.568 972.627, 290.635 972.672, 290.698 972.724, 290.756 972.782, 290.808 972.845, 290.853 972.912, 290.889 972.983, 290.917 973.055, 290.934 973.128, 290.940 973.201, 290.934 973.274, 290.917 973.344, 290.889 973.411, 290.853 973.474, 290.808 973.532, 290.756 973.584, 290.698 973.629, 290.635 973.666, 290.568 973.693, 290.498 973.710, 290.425 973.716, 290.352 973.710, 290.279 973.693, 290.206 973.666, 290.136 973.629, 290.069 973.584, 290.006 973.532, 289.948 973.474, 289.896 973.411, 289.851 973.344, 289.815 973.274, 289.787 973.201, 289.770 " fill="none" stroke="rgb(0, 0, 0)" stroke-linecap="butt" stroke-linejoin="round" stroke-opacity="1.0" stroke-width="3.0" />
            <path d=" M 983.423, 296.603 983.344, 296.598 983.264, 296.603 983.187, 296.619 983.115, 296.644 983.047, 296.678 982.984, 296.720 982.928, 296.770 982.878, 296.826 982.836, 296.889 982.802, 296.957 982.777, 297.029 982.761, 297.106 982.756, 297.185 982.761, 297.265 982.777, 297.341 982.802, 297.414 982.836, 297.482 982.878, 297.544 982.928, 297.601 982.984, 297.651 983.047, 297.693 983.115, 297.727 983.187, 297.752 983.264, 297.768 983.344, 297.773 983.423, 297.768 983.500, 297.752 983.572, 297.727 983.640, 297.693 983.703, 297.651 983.759, 297.601 983.809, 297.545 983.851, 297.482 983.885, 297.414 983.911, 297.342 983.926, 297.265 983.931, 297.185 983.926, 297.106 983.911, 297.029 983.885, 296.957 983.851, 296.889 983.809, 296.826 983.759, 296.770 983.703, 296.720 983.640, 296.678 983.572, 296.644 983.500, 296.619 983.423, 296.603 " fill="none" stroke="rgb(0, 0, 0)" stroke-linecap="butt" stroke-linejoin="round" stroke-opacity="1.0" stroke-width="3.0" />
            <path d=" M 983.423, 289.549 983.344, 289.544 983.264, 289.549 983.187, 289.565 983.115, 289.590 983.047, 289.624 982.984, 289.666 982.928, 289.716 982.878, 289.773 982.836, 289.835 982.802, 289.903 982.777, 289.975 982.761, 290.052 982.756, 290.132 982.761, 290.211 982.777, 290.288 982.802, 290.360 982.836, 290.428 982.878, 290.491 982.928, 290.547 982.984, 290.597 983.047, 290.639 983.115, 290.673 983.187, 290.698 983.264, 290.714 983.344, 290.719 983.423, 290.714 983.500, 290.699 983.572, 290.673 983.640, 290.639 983.703, 290.597 983.759, 290.547 983.809, 290.491 983.851, 290.428 983.885, 290.360 983.911, 290.288 983.926, 290.211 983.931, 290.132 983.926, 290.052 983.911, 289.975 983.885, 289.903 983.851, 289.835 983.809, 289.773 983.759, 289.716 983.703, 289.666 983.640, 289.624 983.572, 289.590 983.500, 289.565 983.423, 289.549 " fill="none" stroke="rgb(0, 0, 0)" stroke-linecap="butt" stroke-linejoin="round" stroke-opacity="1.0" stroke-width="3.0" />
            <path d=" M 983.423, 291.827 983.344, 291.822 983.264, 291.827 983.187, 291.843 983.115, 291.868 983.047, 291.902 982.984, 291.944 982.928, 291.994 982.878, 292.050 982.836, 292.113 982.802, 292.181 982.777, 292.253 982.761, 292.330 982.756, 292.409 982.761, 292.489 982.777, 292.565 982.802, 292.638 982.836, 292.706 982.878, 292.768 982.928, 292.825 982.984, 292.875 983.047, 292.917 983.115, 292.951 983.187, 292.976 983.264, 292.992 983.344, 292.997 983.423, 292.992 983.500, 292.976 983.572, 292.951 983.640, 292.917 983.703, 292.875 983.759, 292.825 983.809, 292.769 983.851, 292.706 983.885, 292.638 983.911, 292.566 983.926, 292.489 983.931, 292.409 983.926, 292.330 983.911, 292.253 983.885, 292.181 983.851, 292.113 983.809, 292.050 983.759, 291.994 983.703, 291.944 983.640, 291.902 983.572, 291.868 983.500, 291.843 983.423, 291.827 " fill="none" stroke="rgb(0, 0, 0)" stroke-linecap="butt" stroke-linejoin="round" stroke-opacity="1.0" stroke-width="3.0" />
            <path d=" M 980.557, 289.182 980.477, 289.176 980.398, 289.182 980.321, 289.198 980.249, 289.223 980.181, 289.257 980.118, 289.299 980.062, 289.349 980.012, 289.405 979.970, 289.468 979.936, 289.536 979.910, 289.608 979.895, 289.685 979.889, 289.764 979.895, 289.844 979.910, 289.920 979.936, 289.993 979.970, 290.061 980.012, 290.123 980.062, 290.180 980.118, 290.230 980.181, 290.272 980.249, 290.306 980.321, 290.331 980.398, 290.347 980.477, 290.352 980.557, 290.347 980.634, 290.331 980.706, 290.306 980.774, 290.272 980.837, 290.230 980.893, 290.180 980.943, 290.124 980.985, 290.061 981.019, 289.993 981.044, 289.921 981.060, 289.844 981.065, 289.764 981.060, 289.685 981.044, 289.608 981.019, 289.536 980.985, 289.468 980.943, 289.405 980.893, 289.349 980.837, 289.299 980.774, 289.257 980.706, 289.223 980.634, 289.198 980.557, 289.182 " fill="none" stroke="rgb(0, 0, 0)" stroke-linecap="butt" stroke-linejoin="round" stroke-opacity="1.0" stroke-width="3.0" />
            <path d=" M 980.557, 291.313 980.477, 291.307 980.398, 291.312 980.321, 291.328 980.249, 291.353 980.181, 291.387 980.118, 291.430 980.062, 291.479 980.012, 291.536 979.970, 291.598 979.936, 291.666 979.910, 291.739 979.895, 291.815 979.889, 291.895 979.895, 291.975 979.910, 292.051 979.936, 292.124 979.970, 292.192 980.012, 292.254 980.062, 292.311 980.118, 292.360 980.181, 292.403 980.249, 292.437 980.321, 292.462 980.398, 292.478 980.477, 292.483 980.557, 292.478 980.634, 292.462 980.706, 292.437 980.774, 292.403 980.837, 292.360 980.893, 292.311 980.943, 292.254 980.985, 292.192 981.019, 292.124 981.044, 292.051 981.060, 291.975 981.065, 291.895 981.060, 291.815 981.044, 291.739 981.019, 291.666 980.985, 291.599 980.943, 291.536 980.893, 291.479 980.837, 291.430 980.774, 291.388 980.706, 291.354 980.634, 291.328 980.557, 291.313 " fill="none" stroke="rgb(0, 0, 0)" stroke-linecap="butt" stroke-linejoin="round" stroke-opacity="1.0" stroke-width="3.0" />
            <path d=" M 980.410, 296.236 980.330, 296.230 980.251, 296.236 980.174, 296.251 980.102, 296.276 980.034, 296.311 979.971, 296.353 979.915, 296.402 979.865, 296.459 979.823, 296.521 979.789, 296.589 979.763, 296.662 979.748, 296.738 979.742, 296.818 979.748, 296.898 979.763, 296.974 979.789, 297.047 979.823, 297.115 979.865, 297.177 979.915, 297.234 979.971, 297.283 980.034, 297.326 980.102, 297.360 980.174, 297.385 980.251, 297.401 980.330, 297.406 980.410, 297.401 980.487, 297.385 980.559, 297.360 980.627, 297.326 980.690, 297.284 980.746, 297.234 980.796, 297.177 980.838, 297.115 980.872, 297.047 980.897, 296.974 980.913, 296.898 980.918, 296.818 980.913, 296.738 980.897, 296.662 980.872, 296.589 980.838, 296.521 980.796, 296.459 980.746, 296.402 980.690, 296.353 980.627, 296.311 980.559, 296.276 980.487, 296.251 980.410, 296.236 " fill="none" stroke="rgb(0, 0, 0)" stroke-linecap="butt" stroke-linejoin="round" stroke-opacity="1.0" stroke-width="3.0" />
            <path d=" M 975.266, 294.178 975.186, 294.173 975.106, 294.178 975.030, 294.194 974.957, 294.219 974.889, 294.253 974.827, 294.295 974.770, 294.345 974.721, 294.401 974.678, 294.464 974.644, 294.532 974.619, 294.604 974.603, 294.681 974.598, 294.761 974.603, 294.840 974.619, 294.917 974.644, 294.989 974.678, 295.057 974.721, 295.120 974.770, 295.176 974.827, 295.226 974.889, 295.268 974.957, 295.302 975.030, 295.327 975.106, 295.343 975.186, 295.348 975.266, 295.343 975.342, 295.327 975.415, 295.302 975.483, 295.268 975.545, 295.226 975.602, 295.176 975.651, 295.120 975.694, 295.057 975.728, 294.989 975.753, 294.917 975.768, 294.840 975.774, 294.761 975.768, 294.681 975.753, 294.605 975.728, 294.532 975.694, 294.464 975.651, 294.402 975.602, 294.345 975.545, 294.295 975.483, 294.253 975.415, 294.219 975.342, 294.194 975.266, 294.178 " fill="none" stroke="rgb(0, 0, 0)" stroke-linecap="butt" stroke-linejoin="round" stroke-opacity="1.0" stroke-width="3.0" />
            <path d=" M 969.974, 261.114 969.894, 261.108 969.815, 261.114 969.738, 261.129 969.666, 261.154 969.598, 261.189 969.535, 261.231 969.479, 261.281 969.429, 261.337 969.387, 261.400 969.353, 261.467 969.328, 261.540 969.312, 261.617 969.307, 261.696 969.312, 261.776 969.328, 261.852 969.353, 261.925 969.387, 261.993 969.429, 262.055 969.479, 262.112 969.535, 262.161 969.598, 262.204 969.666, 262.238 969.738, 262.263 969.815, 262.279 969.894, 262.284 969.974, 262.279 970.051, 262.263 970.123, 262.238 970.191, 262.204 970.254, 262.161 970.310, 262.112 970.360, 262.055 970.402, 261.993 970.436, 261.925 970.461, 261.852 970.477, 261.776 970.482, 261.696 970.477, 261.617 970.461, 261.540 970.436, 261.468 970.402, 261.400 970.360, 261.337 970.310, 261.281 970.254, 261.231 970.191, 261.189 970.123, 261.155 970.051, 261.129 969.974, 261.114 " fill="none" stroke="rgb(0, 0, 0)" stroke-linecap="butt" stroke-linejoin="round" stroke-opacity="1.0" stroke-width="3.0" />
            <path d=" M 983.423, 315.560 983.344, 315.555 983.264, 315.560 983.187, 315.575 983.115, 315.601 983.047, 315.635 982.984, 315.677 982.928, 315.727 982.878, 315.783 982.836, 315.846 982.802, 315.914 982.777, 315.986 982.761, 316.063 982.756, 316.142 982.761, 316.222 982.777, 316.299 982.802, 316.371 982.836, 316.439 982.878, 316.502 982.928, 316.558 982.984, 316.608 983.047, 316.650 983.115, 316.684 983.187, 316.709 983.264, 316.725 983.344, 316.730 983.423, 316.725 983.500, 316.709 983.572, 316.684 983.640, 316.650 983.703, 316.608 983.759, 316.558 983.809, 316.502 983.851, 316.439 983.885, 316.371 983.911, 316.299 983.926, 316.222 983.931, 316.142 983.926, 316.063 983.911, 315.986 983.885, 315.914 983.851, 315.846 983.809, 315.783 983.759, 315.727 983.703, 315.677 983.640, 315.635 983.572, 315.601 983.500, 315.576 983.423, 315.560 " fill="none" stroke="rgb(0, 0, 0)" stroke-linecap="butt" stroke-linejoin="round" stroke-opacity="1.0" stroke-width="3.0" />
            <path d=" M 972.399, 313.209 972.320, 313.203 972.240, 313.209 972.164, 313.224 972.091, 313.250 972.023, 313.284 971.961, 313.326 971.904, 313.376 971.854, 313.432 971.812, 313.495 971.778, 313.562 971.753, 313.635 971.737, 313.711 971.732, 313.791 971.737, 313.871 971.753, 313.947 971.778, 314.020 971.812, 314.088 971.854, 314.150 971.904, 314.207 971.961, 314.256 972.023, 314.299 972.091, 314.333 972.164, 314.358 972.240, 314.374 972.320, 314.379 972.399, 314.374 972.476, 314.358 972.549, 314.333 972.616, 314.299 972.679, 314.256 972.735, 314.207 972.785, 314.150 972.827, 314.088 972.861, 314.020 972.887, 313.947 972.902, 313.871 972.908, 313.791 972.902, 313.711 972.887, 313.635 972.861, 313.562 972.827, 313.495 972.785, 313.432 972.735, 313.376 972.679, 313.326 972.616, 313.284 972.549, 313.250 972.476, 313.224 972.399, 313.209 " fill="none" stroke="rgb(0, 0, 0)" stroke-linecap="butt" stroke-linejoin="round" stroke-opacity="1.0" stroke-width="3.0" />
            <path d=" M 965.050, 308.286 964.971, 308.280 964.891, 308.286 964.814, 308.301 964.742, 308.327 964.674, 308.361 964.611, 308.403 964.555, 308.453 964.505, 308.509 964.463, 308.572 964.429, 308.639 964.404, 308.712 964.388, 308.788 964.383, 308.868 964.388, 308.948 964.404, 309.024 964.429, 309.097 964.463, 309.165 964.505, 309.227 964.555, 309.284 964.611, 309.333 964.674, 309.376 964.742, 309.410 964.814, 309.435 964.891, 309.451 964.971, 309.456 965.050, 309.451 965.127, 309.435 965.199, 309.410 965.267, 309.376 965.330, 309.334 965.386, 309.284 965.436, 309.228 965.478, 309.165 965.512, 309.097 965.537, 309.024 965.553, 308.948 965.558, 308.868 965.553, 308.788 965.537, 308.712 965.512, 308.639 965.478, 308.572 965.436, 308.509 965.386, 308.453 965.330, 308.403 965.267, 308.361 965.199, 308.327 965.127, 308.301 965.050, 308.286 " fill="none" stroke="rgb(0, 0, 0)" stroke-linecap="butt" stroke-linejoin="round" stroke-opacity="1.0" stroke-width="3.0" />
            <path d=" M 956.525, 299.101 956.445, 299.096 956.366, 299.101 956.289, 299.117 956.217, 299.142 956.149, 299.176 956.086, 299.218 956.030, 299.268 955.980, 299.324 955.938, 299.387 955.904, 299.455 955.878, 299.527 955.863, 299.604 955.857, 299.684 955.863, 299.763 955.878, 299.840 955.904, 299.912 955.938, 299.980 955.980, 300.043 956.030, 300.099 956.086, 300.149 956.149, 300.191 956.217, 300.225 956.289, 300.250 956.366, 300.266 956.445, 300.271 956.525, 300.266 956.602, 300.251 956.674, 300.225 956.742, 300.191 956.805, 300.149 956.861, 300.099 956.911, 300.043 956.953, 299.980 956.987, 299.912 957.012, 299.840 957.028, 299.763 957.033, 299.684 957.028, 299.604 957.012, 299.527 956.987, 299.455 956.953, 299.387 956.911, 299.324 956.861, 299.268 956.805, 299.218 956.742, 299.176 956.674, 299.142 956.602, 299.117 956.525, 299.101 " fill="none" stroke="rgb(0, 0, 0)" stroke-linecap="butt" stroke-linejoin="round" stroke-opacity="1.0" stroke-width="3.0" />
            <path d=" M 951.528, 284.406 951.448, 284.401 951.368, 284.406 951.292, 284.422 951.219, 284.447 951.151, 284.481 951.089, 284.523 951.032, 284.573 950.983, 284.629 950.940, 284.692 950.906, 284.760 950.881, 284.832 950.865, 284.909 950.860, 284.988 950.865, 285.068 950.881, 285.144 950.906, 285.217 950.940, 285.285 950.983, 285.347 951.032, 285.404 951.089, 285.454 951.151, 285.496 951.219, 285.530 951.292, 285.555 951.368, 285.571 951.448, 285.576 951.528, 285.571 951.604, 285.555 951.677, 285.530 951.745, 285.496 951.807, 285.454 951.864, 285.404 951.913, 285.348 951.956, 285.285 951.990, 285.217 952.015, 285.145 952.031, 285.068 952.036, 284.988 952.031, 284.909 952.015, 284.832 951.990, 284.760 951.956, 284.692 951.913, 284.629 951.864, 284.573 951.807, 284.523 951.745, 284.481 951.677, 284.447 951.604, 284.422 951.528, 284.406 " fill="none" stroke="rgb(0, 0, 0)" stroke-linecap="butt" stroke-linejoin="round" stroke-opacity="1.0" stroke-width="3.0" />
            <path d=" M 950.940, 268.461 950.860, 268.456 950.780, 268.461 950.704, 268.477 950.631, 268.502 950.563, 268.536 950.501, 268.578 950.444, 268.628 950.395, 268.685 950.352, 268.747 950.318, 268.815 950.293, 268.888 950.277, 268.964 950.272, 269.044 950.277, 269.124 950.293, 269.200 950.318, 269.273 950.352, 269.341 950.395, 269.403 950.444, 269.459 950.501, 269.509 950.563, 269.551 950.631, 269.585 950.704, 269.611 950.780, 269.626 950.860, 269.632 950.940, 269.626 951.016, 269.611 951.089, 269.585 951.157, 269.551 951.219, 269.509 951.276, 269.459 951.325, 269.403 951.368, 269.341 951.402, 269.273 951.427, 269.200 951.443, 269.124 951.448, 269.044 951.443, 268.964 951.427, 268.888 951.402, 268.815 951.368, 268.747 951.325, 268.685 951.276, 268.628 951.219, 268.579 951.157, 268.536 951.089, 268.502 951.016, 268.477 950.940, 268.461 " fill="none" stroke="rgb(0, 0, 0)" stroke-linecap="butt" stroke-linejoin="round" stroke-opacity="1.0" stroke-width="3.0" />
            <path d=" M 950.940, 261.481 950.860, 261.476 950.780, 261.481 950.704, 261.497 950.631, 261.522 950.563, 261.556 950.501, 261.598 950.444, 261.648 950.395, 261.704 950.352, 261.767 950.318, 261.835 950.293, 261.907 950.277, 261.984 950.272, 262.064 950.277, 262.143 950.293, 262.220 950.318, 262.292 950.352, 262.360 950.395, 262.423 950.444, 262.479 950.501, 262.529 950.563, 262.571 950.631, 262.605 950.704, 262.630 950.780, 262.646 950.860, 262.651 950.940, 262.646 951.016, 262.630 951.089, 262.605 951.157, 262.571 951.219, 262.529 951.276, 262.479 951.325, 262.423 951.368, 262.360 951.402, 262.292 951.427, 262.220 951.443, 262.143 951.448, 262.064 951.443, 261.984 951.427, 261.908 951.402, 261.835 951.368, 261.767 951.325, 261.705 951.276, 261.648 951.219, 261.598 951.157, 261.556 951.089, 261.522 951.016, 261.497 950.940, 261.481 " fill="none" stroke="rgb(0, 0, 0)" stroke-linecap="butt" stroke-linejoin="round" stroke-opacity="1.0" stroke-width="3.0" />
            <path d=" M 951.528, 252.884 951.448, 252.879 951.368, 252.884 951.292, 252.900 951.219, 252.925 951.151, 252.959 951.089, 253.002 951.032, 253.051 950.983, 253.108 950.940, 253.170 950.906, 253.238 950.881, 253.311 950.865, 253.387 950.860, 253.467 950.865, 253.546 950.881, 253.623 950.906, 253.695 950.940, 253.763 950.983, 253.826 951.032, 253.882 951.089, 253.932 951.151, 253.974 951.219, 254.008 951.292, 254.034 951.368, 254.049 951.448, 254.055 951.528, 254.049 951.604, 254.034 951.677, 254.009 951.745, 253.975 951.807, 253.932 951.864, 253.883 951.913, 253.826 951.956, 253.764 951.990, 253.696 952.015, 253.623 952.031, 253.547 952.036, 253.467 952.031, 253.387 952.015, 253.311 951.990, 253.238 951.956, 253.170 951.913, 253.108 951.864, 253.051 951.807, 253.002 951.745, 252.959 951.677, 252.925 951.604, 252.900 951.528, 252.884 " fill="none" stroke="rgb(0, 0, 0)" stroke-linecap="butt" stroke-linejoin="round" stroke-opacity="1.0" stroke-width="3.0" />
            <path d=" M 953.365, 246.051 953.285, 246.046 953.206, 246.051 953.129, 246.067 953.057, 246.092 952.989, 246.126 952.926, 246.168 952.870, 246.218 952.820, 246.274 952.778, 246.337 952.744, 246.405 952.718, 246.477 952.703, 246.554 952.697, 246.634 952.703, 246.713 952.718, 246.790 952.744, 246.862 952.778, 246.930 952.820, 246.993 952.870, 247.049 952.926, 247.099 952.989, 247.141 953.057, 247.175 953.129, 247.200 953.206, 247.216 953.285, 247.221 953.365, 247.216 953.442, 247.200 953.514, 247.175 953.582, 247.141 953.644, 247.099 953.701, 247.049 953.751, 246.993 953.793, 246.930 953.827, 246.862 953.852, 246.790 953.868, 246.713 953.873, 246.634 953.868, 246.554 953.852, 246.477 953.827, 246.405 953.793, 246.337 953.751, 246.274 953.701, 246.218 953.644, 246.168 953.582, 246.126 953.514, 246.092 953.442, 246.067 953.365, 246.051 " fill="none" stroke="rgb(0, 0, 0)" stroke-linecap="butt" stroke-linejoin="round" stroke-opacity="1.0" stroke-width="3.0" />
            <path d=" M 983.570, 226.874 983.491, 226.868 983.411, 226.874 983.334, 226.889 983.262, 226.915 983.194, 226.949 983.131, 226.991 983.075, 227.041 983.025, 227.097 982.983, 227.159 982.949, 227.227 982.924, 227.300 982.908, 227.376 982.903, 227.456 982.908, 227.536 982.924, 227.612 982.949, 227.685 982.983, 227.753 983.025, 227.815 983.075, 227.872 983.131, 227.921 983.194, 227.964 983.262, 227.998 983.334, 228.023 983.411, 228.039 983.491, 228.044 983.570, 228.039 983.647, 228.023 983.719, 227.998 983.787, 227.964 983.850, 227.921 983.906, 227.872 983.956, 227.815 983.998, 227.753 984.032, 227.685 984.057, 227.612 984.073, 227.536 984.078, 227.456 984.073, 227.376 984.057, 227.300 984.032, 227.227 983.998, 227.159 983.956, 227.097 983.906, 227.041 983.850, 226.991 983.787, 226.949 983.719, 226.915 983.647, 226.889 983.570, 226.874 " fill="none" stroke="rgb(0, 0, 0)" stroke-linecap="butt" stroke-linejoin="round" stroke-opacity="1.0" stroke-width="3.0" />
            <path d=" M 998.048, 228.711 997.969, 228.705 997.889, 228.711 997.812, 228.726 997.740, 228.752 997.672, 228.786 997.609, 228.828 997.553, 228.877 997.503, 228.934 997.461, 228.996 997.427, 229.064 997.402, 229.137 997.386, 229.213 997.381, 229.293 997.386, 229.373 997.402, 229.449 997.427, 229.522 997.461, 229.590 997.503, 229.652 997.553, 229.709 997.609, 229.758 997.672, 229.800 997.740, 229.835 997.812, 229.860 997.889, 229.875 997.969, 229.881 998.048, 229.875 998.125, 229.860 998.197, 229.835 998.265, 229.800 998.328, 229.758 998.384, 229.709 998.434, 229.652 998.476, 229.590 998.510, 229.522 998.535, 229.449 998.551, 229.373 998.556, 229.293 998.551, 229.213 998.535, 229.137 998.510, 229.064 998.476, 228.996 998.434, 228.934 998.384, 228.877 998.328, 228.828 998.265, 228.786 998.197, 228.752 998.125, 228.726 998.048, 228.711 " fill="none" stroke="rgb(0, 0, 0)" stroke-linecap="butt" stroke-linejoin="round" stroke-opacity="1.0" stroke-width="3.0" />
            <path d=" M 1007.308, 235.691 1007.229, 235.686 1007.149, 235.691 1007.072, 235.707 1007.000, 235.732 1006.932, 235.766 1006.869, 235.808 1006.813, 235.858 1006.763, 235.914 1006.721, 235.977 1006.687, 236.045 1006.662, 236.117 1006.646, 236.194 1006.641, 236.273 1006.646, 236.353 1006.662, 236.429 1006.687, 236.502 1006.721, 236.570 1006.763, 236.632 1006.813, 236.689 1006.869, 236.739 1006.932, 236.781 1007.000, 236.815 1007.072, 236.840 1007.149, 236.856 1007.229, 236.861 1007.308, 236.856 1007.385, 236.840 1007.457, 236.815 1007.525, 236.781 1007.588, 236.739 1007.644, 236.689 1007.694, 236.632 1007.736, 236.570 1007.770, 236.502 1007.795, 236.429 1007.811, 236.353 1007.816, 236.273 1007.811, 236.194 1007.795, 236.117 1007.770, 236.045 1007.736, 235.977 1007.694, 235.914 1007.644, 235.858 1007.588, 235.808 1007.525, 235.766 1007.457, 235.732 1007.385, 235.707 1007.308, 235.691 " fill="none" stroke="rgb(0, 0, 0)" stroke-linecap="butt" stroke-linejoin="round" stroke-opacity="1.0" stroke-width="3.0" />
            <path d=" M 1005.324, 260.012 1005.244, 260.006 1005.164, 260.011 1005.088, 260.027 1005.015, 260.052 1004.948, 260.086 1004.885, 260.129 1004.829, 260.178 1004.779, 260.235 1004.737, 260.297 1004.703, 260.365 1004.677, 260.438 1004.662, 260.514 1004.656, 260.594 1004.662, 260.674 1004.677, 260.750 1004.703, 260.823 1004.737, 260.891 1004.779, 260.953 1004.829, 261.010 1004.885, 261.059 1004.948, 261.102 1005.015, 261.136 1005.088, 261.161 1005.164, 261.176 1005.244, 261.182 1005.324, 261.176 1005.401, 261.161 1005.473, 261.136 1005.541, 261.102 1005.603, 261.059 1005.660, 261.010 1005.710, 260.953 1005.752, 260.891 1005.786, 260.823 1005.811, 260.750 1005.827, 260.674 1005.832, 260.594 1005.827, 260.515 1005.811, 260.438 1005.786, 260.365 1005.752, 260.298 1005.710, 260.235 1005.660, 260.178 1005.603, 260.129 1005.541, 260.087 1005.473, 260.052 1005.400, 260.027 1005.324, 260.012 " fill="none" stroke="rgb(0, 0, 0)" stroke-linecap="butt" stroke-linejoin="round" stroke-opacity="1.0" stroke-width="3.0" />
            <path d=" M 1006.720, 251.562 1006.641, 251.556 1006.561, 251.562 1006.484, 251.577 1006.412, 251.602 1006.344, 251.637 1006.281, 251.679 1006.225, 251.729 1006.175, 251.785 1006.133, 251.848 1006.099, 251.915 1006.074, 251.988 1006.058, 252.065 1006.053, 252.144 1006.058, 252.224 1006.074, 252.300 1006.099, 252.373 1006.133, 252.441 1006.175, 252.503 1006.225, 252.560 1006.281, 252.609 1006.344, 252.652 1006.412, 252.686 1006.484, 252.711 1006.561, 252.727 1006.641, 252.732 1006.720, 252.727 1006.797, 252.711 1006.869, 252.686 1006.937, 252.652 1007.000, 252.609 1007.056, 252.560 1007.106, 252.503 1007.148, 252.441 1007.182, 252.373 1007.208, 252.300 1007.223, 252.224 1007.229, 252.144 1007.223, 252.065 1007.208, 251.988 1007.182, 251.916 1007.148, 251.848 1007.106, 251.785 1007.056, 251.729 1007.000, 251.679 1006.937, 251.637 1006.869, 251.603 1006.797, 251.577 1006.720, 251.562 " fill="none" stroke="rgb(0, 0, 0)" stroke-linecap="butt" stroke-linejoin="round" stroke-opacity="1.0" stroke-width="3.0" />
            <path d=" M 989.376, 253.105 989.296, 253.099 989.217, 253.105 989.140, 253.120 989.068, 253.146 989.000, 253.180 988.937, 253.222 988.881, 253.272 988.831, 253.328 988.789, 253.391 988.755, 253.458 988.729, 253.531 988.714, 253.608 988.708, 253.687 988.714, 253.767 988.729, 253.843 988.755, 253.916 988.789, 253.984 988.831, 254.046 988.881, 254.103 988.937, 254.153 989.000, 254.195 989.068, 254.229 989.140, 254.254 989.217, 254.270 989.296, 254.275 989.376, 254.270 989.453, 254.254 989.525, 254.229 989.593, 254.195 989.656, 254.153 989.712, 254.103 989.762, 254.046 989.804, 253.984 989.838, 253.916 989.863, 253.843 989.879, 253.767 989.884, 253.687 989.879, 253.608 989.863, 253.531 989.838, 253.459 989.804, 253.391 989.762, 253.328 989.712, 253.272 989.656, 253.222 989.593, 253.180 989.525, 253.146 989.453, 253.120 989.376, 253.105 " fill="none" stroke="rgb(0, 0, 0)" stroke-linecap="butt" stroke-linejoin="round" stroke-opacity="1.0" stroke-width="3.0" />
            <path d=" M 996.725, 250.754 996.646, 250.748 996.566, 250.754 996.489, 250.769 996.417, 250.794 996.349, 250.829 996.286, 250.871 996.230, 250.920 996.180, 250.977 996.138, 251.039 996.104, 251.107 996.079, 251.180 996.063, 251.256 996.058, 251.336 996.063, 251.416 996.079, 251.492 996.104, 251.565 996.138, 251.633 996.180, 251.695 996.230, 251.752 996.286, 251.801 996.349, 251.844 996.417, 251.878 996.489, 251.903 996.566, 251.918 996.646, 251.924 996.725, 251.918 996.802, 251.903 996.874, 251.878 996.942, 251.844 997.005, 251.801 997.061, 251.752 997.111, 251.695 997.153, 251.633 997.187, 251.565 997.213, 251.492 997.228, 251.416 997.234, 251.336 997.228, 251.256 997.213, 251.180 997.187, 251.107 997.153, 251.039 997.111, 250.977 997.061, 250.920 997.005, 250.871 996.942, 250.829 996.874, 250.794 996.802, 250.769 996.725, 250.754 " fill="none" stroke="rgb(0, 0, 0)" stroke-linecap="butt" stroke-linejoin="round" stroke-opacity="1.0" stroke-width="3.0" />
            <path d=" M 1001.502, 257.293 1001.423, 257.288 1001.343, 257.293 1001.266, 257.309 1001.194, 257.334 1001.126, 257.368 1001.063, 257.410 1001.007, 257.460 1000.957, 257.516 1000.915, 257.579 1000.881, 257.647 1000.856, 257.719 1000.840, 257.796 1000.835, 257.875 1000.840, 257.955 1000.856, 258.031 1000.881, 258.104 1000.915, 258.172 1000.957, 258.234 1001.007, 258.291 1001.063, 258.341 1001.126, 258.383 1001.194, 258.417 1001.266, 258.442 1001.343, 258.458 1001.423, 258.463 1001.502, 258.458 1001.579, 258.442 1001.651, 258.417 1001.719, 258.383 1001.782, 258.341 1001.838, 258.291 1001.888, 258.235 1001.930, 258.172 1001.964, 258.104 1001.990, 258.032 1002.005, 257.955 1002.011, 257.875 1002.005, 257.796 1001.990, 257.719 1001.964, 257.647 1001.930, 257.579 1001.888, 257.516 1001.838, 257.460 1001.782, 257.410 1001.719, 257.368 1001.651, 257.334 1001.579, 257.309 1001.502, 257.293 " fill="none" stroke="rgb(0, 0, 0)" stroke-linecap="butt" stroke-linejoin="round" stroke-opacity="1.0" stroke-width="3.0" />
            <path d=" M 1009.660, 253.693 1009.580, 253.687 1009.500, 253.693 1009.424, 253.708 1009.352, 253.734 1009.284, 253.768 1009.221, 253.810 1009.165, 253.859 1009.115, 253.916 1009.073, 253.978 1009.039, 254.046 1009.013, 254.119 1008.998, 254.195 1008.992, 254.275 1008.998, 254.355 1009.013, 254.431 1009.039, 254.504 1009.073, 254.572 1009.115, 254.634 1009.165, 254.691 1009.221, 254.740 1009.284, 254.783 1009.352, 254.817 1009.424, 254.842 1009.500, 254.857 1009.580, 254.863 1009.660, 254.857 1009.736, 254.842 1009.809, 254.817 1009.877, 254.783 1009.939, 254.740 1009.996, 254.691 1010.046, 254.634 1010.088, 254.572 1010.122, 254.504 1010.147, 254.431 1010.163, 254.355 1010.168, 254.275 1010.163, 254.195 1010.147, 254.119 1010.122, 254.046 1010.088, 253.978 1010.046, 253.916 1009.996, 253.859 1009.939, 253.810 1009.877, 253.768 1009.809, 253.734 1009.736, 253.708 1009.660, 253.693 " fill="none" stroke="rgb(0, 0, 0)" stroke-linecap="butt" stroke-linejoin="round" stroke-opacity="1.0" stroke-width="3.0" />
            <path d=" M 1002.090, 250.460 1002.011, 250.454 1001.931, 250.459 1001.854, 250.475 1001.782, 250.500 1001.714, 250.534 1001.651, 250.577 1001.595, 250.626 1001.545, 250.683 1001.503, 250.745 1001.469, 250.813 1001.444, 250.886 1001.428, 250.962 1001.423, 251.042 1001.428, 251.122 1001.444, 251.198 1001.469, 251.271 1001.503, 251.339 1001.545, 251.401 1001.595, 251.458 1001.651, 251.507 1001.714, 251.550 1001.782, 251.584 1001.854, 251.609 1001.931, 251.625 1002.011, 251.630 1002.090, 251.625 1002.167, 251.609 1002.239, 251.584 1002.307, 251.550 1002.370, 251.507 1002.426, 251.458 1002.476, 251.401 1002.518, 251.339 1002.552, 251.271 1002.578, 251.198 1002.593, 251.122 1002.599, 251.042 1002.593, 250.963 1002.578, 250.886 1002.552, 250.813 1002.518, 250.746 1002.476, 250.683 1002.426, 250.627 1002.370, 250.577 1002.307, 250.535 1002.239, 250.500 1002.167, 250.475 1002.090, 250.460 " fill="none" stroke="rgb(0, 0, 0)" stroke-linecap="butt" stroke-linejoin="round" stroke-opacity="1.0" stroke-width="3.0" />
            <path d=" M 1001.502, 261.702 1001.423, 261.696 1001.343, 261.702 1001.266, 261.717 1001.194, 261.742 1001.126, 261.777 1001.063, 261.819 1001.007, 261.868 1000.957, 261.925 1000.915, 261.987 1000.881, 262.055 1000.856, 262.128 1000.840, 262.204 1000.835, 262.284 1000.840, 262.364 1000.856, 262.440 1000.881, 262.513 1000.915, 262.581 1000.957, 262.643 1001.007, 262.700 1001.063, 262.749 1001.126, 262.792 1001.194, 262.826 1001.266, 262.851 1001.343, 262.867 1001.423, 262.872 1001.502, 262.867 1001.579, 262.851 1001.651, 262.826 1001.719, 262.792 1001.782, 262.750 1001.838, 262.700 1001.888, 262.643 1001.930, 262.581 1001.964, 262.513 1001.990, 262.440 1002.005, 262.364 1002.011, 262.284 1002.005, 262.204 1001.990, 262.128 1001.964, 262.055 1001.930, 261.987 1001.888, 261.925 1001.838, 261.868 1001.782, 261.819 1001.719, 261.777 1001.651, 261.742 1001.579, 261.717 1001.502, 261.702 " fill="none" stroke="rgb(0, 0, 0)" stroke-linecap="butt" stroke-linejoin="round" stroke-opacity="1.0" stroke-width="3.0" />
            <path d=" M 996.872, 257.293 996.793, 257.288 996.713, 257.293 996.636, 257.309 996.564, 257.334 996.496, 257.368 996.433, 257.410 996.377, 257.460 996.327, 257.516 996.285, 257.579 996.251, 257.647 996.226, 257.719 996.210, 257.796 996.205, 257.875 996.210, 257.955 996.226, 258.031 996.251, 258.104 996.285, 258.172 996.327, 258.234 996.377, 258.291 996.433, 258.341 996.496, 258.383 996.564, 258.417 996.636, 258.442 996.713, 258.458 996.793, 258.463 996.872, 258.458 996.949, 258.442 997.021, 258.417 997.089, 258.383 997.152, 258.341 997.208, 258.291 997.258, 258.235 997.300, 258.172 997.334, 258.104 997.360, 258.032 997.375, 257.955 997.381, 257.875 997.375, 257.796 997.359, 257.719 997.334, 257.647 997.300, 257.579 997.258, 257.516 997.208, 257.460 997.152, 257.410 997.089, 257.368 997.021, 257.334 996.949, 257.309 996.872, 257.293 " fill="none" stroke="rgb(0, 0, 0)" stroke-linecap="butt" stroke-linejoin="round" stroke-opacity="1.0" stroke-width="3.0" />
            <path d=" M 993.051, 260.379 992.971, 260.374 992.891, 260.379 992.815, 260.395 992.742, 260.420 992.674, 260.454 992.612, 260.496 992.555, 260.546 992.506, 260.602 992.463, 260.665 992.429, 260.733 992.404, 260.805 992.388, 260.882 992.383, 260.961 992.388, 261.041 992.404, 261.118 992.429, 261.190 992.463, 261.258 992.506, 261.321 992.555, 261.377 992.612, 261.427 992.674, 261.469 992.742, 261.503 992.815, 261.528 992.891, 261.544 992.971, 261.549 993.051, 261.544 993.127, 261.528 993.200, 261.503 993.268, 261.469 993.330, 261.427 993.387, 261.377 993.436, 261.321 993.479, 261.258 993.513, 261.190 993.538, 261.118 993.554, 261.041 993.559, 260.961 993.554, 260.882 993.538, 260.805 993.513, 260.733 993.479, 260.665 993.436, 260.602 993.387, 260.546 993.330, 260.496 993.268, 260.454 993.200, 260.420 993.127, 260.395 993.051, 260.379 " fill="none" stroke="rgb(0, 0, 0)" stroke-linecap="butt" stroke-linejoin="round" stroke-opacity="1.0" stroke-width="3.0" />
            <path d=" M 990.479, 273.311 990.399, 273.306 990.319, 273.311 990.243, 273.326 990.170, 273.352 990.102, 273.386 990.040, 273.428 989.983, 273.478 989.933, 273.534 989.891, 273.597 989.857, 273.665 989.832, 273.737 989.816, 273.814 989.811, 273.893 989.816, 273.973 989.832, 274.049 989.857, 274.122 989.891, 274.190 989.933, 274.253 989.983, 274.309 990.040, 274.359 990.102, 274.401 990.170, 274.435 990.243, 274.460 990.319, 274.476 990.399, 274.481 990.479, 274.476 990.555, 274.460 990.628, 274.435 990.695, 274.401 990.758, 274.359 990.815, 274.309 990.864, 274.253 990.906, 274.190 990.940, 274.122 990.966, 274.049 990.981, 273.973 990.987, 273.893 990.981, 273.814 990.966, 273.737 990.940, 273.665 990.906, 273.597 990.864, 273.534 990.815, 273.478 990.758, 273.428 990.695, 273.386 990.628, 273.352 990.555, 273.327 990.479, 273.311 " fill="none" stroke="rgb(0, 0, 0)" stroke-linecap="butt" stroke-linejoin="round" stroke-opacity="1.0" stroke-width="3.0" />
            <path d=" M 996.284, 289.549 996.205, 289.544 996.125, 289.549 996.048, 289.565 995.976, 289.590 995.908, 289.624 995.845, 289.666 995.789, 289.716 995.739, 289.773 995.697, 289.835 995.663, 289.903 995.638, 289.975 995.622, 290.052 995.617, 290.132 995.622, 290.211 995.638, 290.288 995.663, 290.360 995.697, 290.428 995.739, 290.491 995.789, 290.547 995.845, 290.597 995.908, 290.639 995.976, 290.673 996.048, 290.698 996.125, 290.714 996.205, 290.719 996.284, 290.714 996.361, 290.699 996.433, 290.673 996.501, 290.639 996.564, 290.597 996.620, 290.547 996.670, 290.491 996.712, 290.428 996.746, 290.360 996.772, 290.288 996.787, 290.211 996.793, 290.132 996.787, 290.052 996.772, 289.975 996.746, 289.903 996.712, 289.835 996.670, 289.773 996.620, 289.716 996.564, 289.666 996.501, 289.624 996.433, 289.590 996.361, 289.565 996.284, 289.549 " fill="none" stroke="rgb(0, 0, 0)" stroke-linecap="butt" stroke-linejoin="round" stroke-opacity="1.0" stroke-width="3.0" />
            <path d=" M 986.951, 273.311 986.871, 273.306 986.791, 273.311 986.715, 273.326 986.642, 273.352 986.575, 273.386 986.512, 273.428 986.456, 273.478 986.406, 273.534 986.364, 273.597 986.329, 273.665 986.304, 273.737 986.289, 273.814 986.283, 273.893 986.289, 273.973 986.304, 274.049 986.329, 274.122 986.364, 274.190 986.406, 274.253 986.456, 274.309 986.512, 274.359 986.575, 274.401 986.642, 274.435 986.715, 274.460 986.791, 274.476 986.871, 274.481 986.951, 274.476 987.027, 274.460 987.100, 274.435 987.168, 274.401 987.230, 274.359 987.287, 274.309 987.337, 274.253 987.379, 274.190 987.413, 274.122 987.438, 274.049 987.454, 273.973 987.459, 273.893 987.454, 273.814 987.438, 273.737 987.413, 273.665 987.379, 273.597 987.337, 273.534 987.287, 273.478 987.230, 273.428 987.168, 273.386 987.100, 273.352 987.027, 273.327 986.951, 273.311 " fill="none" stroke="rgb(0, 0, 0)" stroke-linecap="butt" stroke-linejoin="round" stroke-opacity="1.0" stroke-width="3.0" />
            <path d=" M 991.213, 287.051 991.134, 287.046 991.054, 287.051 990.977, 287.067 990.905, 287.092 990.837, 287.126 990.774, 287.168 990.718, 287.218 990.668, 287.274 990.626, 287.337 990.592, 287.405 990.567, 287.477 990.551, 287.554 990.546, 287.633 990.551, 287.713 990.567, 287.789 990.592, 287.862 990.626, 287.930 990.668, 287.993 990.718, 288.049 990.774, 288.099 990.837, 288.141 990.905, 288.175 990.977, 288.200 991.054, 288.216 991.134, 288.221 991.213, 288.216 991.290, 288.200 991.362, 288.175 991.430, 288.141 991.493, 288.099 991.549, 288.049 991.599, 287.993 991.641, 287.930 991.675, 287.862 991.701, 287.790 991.716, 287.713 991.722, 287.633 991.716, 287.554 991.701, 287.477 991.675, 287.405 991.641, 287.337 991.599, 287.274 991.549, 287.218 991.493, 287.168 991.430, 287.126 991.362, 287.092 991.290, 287.067 991.213, 287.051 " fill="none" stroke="rgb(0, 0, 0)" stroke-linecap="butt" stroke-linejoin="round" stroke-opacity="1.0" stroke-width="3.0" />
            <path d=" M 986.510, 286.243 986.430, 286.237 986.350, 286.243 986.274, 286.258 986.201, 286.284 986.134, 286.318 986.071, 286.360 986.015, 286.410 985.965, 286.466 985.923, 286.529 985.888, 286.596 985.863, 286.669 985.848, 286.745 985.842, 286.825 985.848, 286.905 985.863, 286.981 985.889, 287.054 985.923, 287.122 985.965, 287.184 986.015, 287.241 986.071, 287.291 986.134, 287.333 986.201, 287.367 986.274, 287.392 986.351, 287.408 986.430, 287.413 986.510, 287.408 986.586, 287.392 986.659, 287.367 986.727, 287.333 986.789, 287.291 986.846, 287.241 986.896, 287.185 986.938, 287.122 986.972, 287.054 986.997, 286.981 987.013, 286.905 987.018, 286.825 987.013, 286.745 986.997, 286.669 986.972, 286.596 986.938, 286.529 986.896, 286.466 986.846, 286.410 986.789, 286.360 986.727, 286.318 986.659, 286.284 986.586, 286.258 986.510, 286.243 " fill="none" stroke="rgb(0, 0, 0)" stroke-linecap="butt" stroke-linejoin="round" stroke-opacity="1.0" stroke-width="3.0" />
            <path d=" M 993.632, 289.770 993.559, 289.764 993.486, 289.770 993.413, 289.787 993.343, 289.815 993.276, 289.851 993.213, 289.896 993.155, 289.948 993.103, 290.006 993.058, 290.069 993.022, 290.136 992.994, 290.207 992.977, 290.279 992.971, 290.352 992.977, 290.426 992.994, 290.498 993.021, 290.568 993.058, 290.635 993.103, 290.698 993.155, 290.756 993.213, 290.808 993.276, 290.853 993.343, 290.889 993.413, 290.917 993.486, 290.934 993.559, 290.940 993.632, 290.934 993.705, 290.917 993.775, 290.889 993.842, 290.853 993.905, 290.808 993.963, 290.756 994.015, 290.698 994.060, 290.635 994.096, 290.568 994.124, 290.498 994.141, 290.425 994.147, 290.352 994.141, 290.279 994.124, 290.206 994.096, 290.136 994.060, 290.069 994.015, 290.006 993.963, 289.948 993.905, 289.896 993.842, 289.851 993.775, 289.815 993.705, 289.787 993.632, 289.770 " fill="none" stroke="rgb(0, 0, 0)" stroke-linecap="butt" stroke-linejoin="round" stroke-opacity="1.0" stroke-width="3.0" />
            <path d=" M 986.363, 289.182 986.283, 289.176 986.203, 289.182 986.127, 289.198 986.054, 289.223 985.987, 289.257 985.924, 289.299 985.868, 289.349 985.818, 289.405 985.776, 289.468 985.742, 289.536 985.716, 289.608 985.701, 289.685 985.695, 289.764 985.701, 289.844 985.716, 289.920 985.742, 289.993 985.776, 290.061 985.818, 290.123 985.868, 290.180 985.924, 290.230 985.987, 290.272 986.054, 290.306 986.127, 290.331 986.203, 290.347 986.283, 290.352 986.363, 290.347 986.439, 290.331 986.512, 290.306 986.580, 290.272 986.642, 290.230 986.699, 290.180 986.749, 290.124 986.791, 290.061 986.825, 289.993 986.850, 289.921 986.866, 289.844 986.871, 289.764 986.866, 289.685 986.850, 289.608 986.825, 289.536 986.791, 289.468 986.749, 289.405 986.699, 289.349 986.642, 289.299 986.580, 289.257 986.512, 289.223 986.439, 289.198 986.363, 289.182 " fill="none" stroke="rgb(0, 0, 0)" stroke-linecap="butt" stroke-linejoin="round" stroke-opacity="1.0" stroke-width="3.0" />
            <path d=" M 986.363, 291.313 986.283, 291.307 986.203, 291.312 986.127, 291.328 986.054, 291.353 985.987, 291.387 985.924, 291.430 985.868, 291.479 985.818, 291.536 985.776, 291.598 985.742, 291.666 985.716, 291.739 985.701, 291.815 985.695, 291.895 985.701, 291.975 985.716, 292.051 985.742, 292.124 985.776, 292.192 985.818, 292.254 985.868, 292.311 985.924, 292.360 985.987, 292.403 986.054, 292.437 986.127, 292.462 986.203, 292.478 986.283, 292.483 986.363, 292.478 986.439, 292.462 986.512, 292.437 986.580, 292.403 986.642, 292.360 986.699, 292.311 986.749, 292.254 986.791, 292.192 986.825, 292.124 986.850, 292.051 986.866, 291.975 986.871, 291.895 986.866, 291.815 986.850, 291.739 986.825, 291.666 986.791, 291.599 986.749, 291.536 986.699, 291.479 986.642, 291.430 986.580, 291.388 986.512, 291.354 986.439, 291.328 986.363, 291.313 " fill="none" stroke="rgb(0, 0, 0)" stroke-linecap="butt" stroke-linejoin="round" stroke-opacity="1.0" stroke-width="3.0" />
            <path d=" M 986.510, 296.236 986.430, 296.230 986.350, 296.236 986.274, 296.251 986.201, 296.276 986.134, 296.311 986.071, 296.353 986.015, 296.402 985.965, 296.459 985.923, 296.521 985.888, 296.589 985.863, 296.662 985.848, 296.738 985.842, 296.818 985.848, 296.898 985.863, 296.974 985.889, 297.047 985.923, 297.115 985.965, 297.177 986.015, 297.234 986.071, 297.283 986.134, 297.326 986.201, 297.360 986.274, 297.385 986.351, 297.401 986.430, 297.406 986.510, 297.401 986.586, 297.385 986.659, 297.360 986.727, 297.326 986.789, 297.284 986.846, 297.234 986.896, 297.177 986.938, 297.115 986.972, 297.047 986.997, 296.974 987.013, 296.898 987.018, 296.818 987.013, 296.738 986.997, 296.662 986.972, 296.589 986.938, 296.521 986.896, 296.459 986.846, 296.402 986.789, 296.353 986.727, 296.311 986.659, 296.276 986.586, 296.251 986.510, 296.236 " fill="none" stroke="rgb(0, 0, 0)" stroke-linecap="butt" stroke-linejoin="round" stroke-opacity="1.0" stroke-width="3.0" />
            <path d=" M 991.581, 294.178 991.501, 294.173 991.421, 294.178 991.345, 294.194 991.272, 294.219 991.205, 294.253 991.142, 294.295 991.086, 294.345 991.036, 294.401 990.994, 294.464 990.959, 294.532 990.934, 294.604 990.919, 294.681 990.913, 294.761 990.919, 294.840 990.934, 294.917 990.959, 294.989 990.994, 295.057 991.036, 295.120 991.086, 295.176 991.142, 295.226 991.205, 295.268 991.272, 295.302 991.345, 295.327 991.421, 295.343 991.501, 295.348 991.581, 295.343 991.657, 295.327 991.730, 295.302 991.798, 295.268 991.860, 295.226 991.917, 295.176 991.967, 295.120 992.009, 295.057 992.043, 294.989 992.068, 294.917 992.084, 294.840 992.089, 294.761 992.084, 294.681 992.068, 294.605 992.043, 294.532 992.009, 294.464 991.967, 294.402 991.917, 294.345 991.860, 294.295 991.798, 294.253 991.730, 294.219 991.657, 294.194 991.581, 294.178 " fill="none" stroke="rgb(0, 0, 0)" stroke-linecap="butt" stroke-linejoin="round" stroke-opacity="1.0" stroke-width="3.0" />
            <path d=" M 996.872, 261.114 996.793, 261.108 996.713, 261.114 996.636, 261.129 996.564, 261.154 996.496, 261.189 996.433, 261.231 996.377, 261.281 996.327, 261.337 996.285, 261.400 996.251, 261.467 996.226, 261.540 996.210, 261.617 996.205, 261.696 996.210, 261.776 996.226, 261.852 996.251, 261.925 996.285, 261.993 996.327, 262.055 996.377, 262.112 996.433, 262.161 996.496, 262.204 996.564, 262.238 996.636, 262.263 996.713, 262.279 996.793, 262.284 996.872, 262.279 996.949, 262.263 997.021, 262.238 997.089, 262.204 997.152, 262.161 997.208, 262.112 997.258, 262.055 997.300, 261.993 997.334, 261.925 997.360, 261.852 997.375, 261.776 997.381, 261.696 997.375, 261.617 997.359, 261.540 997.334, 261.468 997.300, 261.400 997.258, 261.337 997.208, 261.281 997.152, 261.231 997.089, 261.189 997.021, 261.155 996.949, 261.129 996.872, 261.114 " fill="none" stroke="rgb(0, 0, 0)" stroke-linecap="butt" stroke-linejoin="round" stroke-opacity="1.0" stroke-width="3.0" />
            <path d=" M 994.300, 313.503 994.220, 313.497 994.141, 313.503 994.064, 313.518 993.992, 313.544 993.924, 313.578 993.861, 313.620 993.805, 313.669 993.755, 313.726 993.713, 313.788 993.679, 313.856 993.653, 313.929 993.638, 314.005 993.632, 314.085 993.638, 314.165 993.653, 314.241 993.679, 314.314 993.713, 314.382 993.755, 314.444 993.805, 314.501 993.861, 314.550 993.924, 314.593 993.992, 314.627 994.064, 314.652 994.141, 314.668 994.220, 314.673 994.300, 314.668 994.377, 314.652 994.449, 314.627 994.517, 314.593 994.580, 314.550 994.636, 314.501 994.686, 314.444 994.728, 314.382 994.762, 314.314 994.787, 314.241 994.803, 314.165 994.808, 314.085 994.803, 314.005 994.787, 313.929 994.762, 313.856 994.728, 313.788 994.686, 313.726 994.636, 313.669 994.580, 313.620 994.517, 313.578 994.449, 313.544 994.377, 313.518 994.300, 313.503 " fill="none" stroke="rgb(0, 0, 0)" stroke-linecap="butt" stroke-linejoin="round" stroke-opacity="1.0" stroke-width="3.0" />
            <path d=" M 1001.649, 308.580 1001.570, 308.574 1001.490, 308.579 1001.413, 308.595 1001.341, 308.620 1001.273, 308.654 1001.210, 308.697 1001.154, 308.746 1001.104, 308.803 1001.062, 308.865 1001.028, 308.933 1001.003, 309.006 1000.987, 309.082 1000.982, 309.162 1000.987, 309.242 1001.003, 309.318 1001.028, 309.391 1001.062, 309.459 1001.104, 309.521 1001.154, 309.578 1001.210, 309.627 1001.273, 309.670 1001.341, 309.704 1001.413, 309.729 1001.490, 309.745 1001.570, 309.750 1001.649, 309.745 1001.726, 309.729 1001.798, 309.704 1001.866, 309.670 1001.929, 309.627 1001.985, 309.578 1002.035, 309.521 1002.077, 309.459 1002.111, 309.391 1002.137, 309.318 1002.152, 309.242 1002.158, 309.162 1002.152, 309.083 1002.137, 309.006 1002.111, 308.933 1002.077, 308.866 1002.035, 308.803 1001.985, 308.747 1001.929, 308.697 1001.866, 308.655 1001.798, 308.620 1001.726, 308.595 1001.649, 308.580 " fill="none" stroke="rgb(0, 0, 0)" stroke-linecap="butt" stroke-linejoin="round" stroke-opacity="1.0" stroke-width="3.0" />
            <path d=" M 1010.174, 299.322 1010.095, 299.316 1010.015, 299.321 1009.938, 299.337 1009.866, 299.362 1009.798, 299.396 1009.735, 299.439 1009.679, 299.488 1009.629, 299.545 1009.587, 299.607 1009.553, 299.675 1009.528, 299.748 1009.512, 299.824 1009.507, 299.904 1009.512, 299.984 1009.528, 300.060 1009.553, 300.133 1009.587, 300.201 1009.629, 300.263 1009.679, 300.320 1009.735, 300.369 1009.798, 300.412 1009.866, 300.446 1009.938, 300.471 1010.015, 300.487 1010.095, 300.492 1010.174, 300.487 1010.251, 300.471 1010.323, 300.446 1010.391, 300.412 1010.454, 300.369 1010.510, 300.320 1010.560, 300.263 1010.602, 300.201 1010.636, 300.133 1010.662, 300.060 1010.677, 299.984 1010.683, 299.904 1010.677, 299.825 1010.662, 299.748 1010.636, 299.675 1010.602, 299.608 1010.560, 299.545 1010.510, 299.488 1010.454, 299.439 1010.391, 299.397 1010.323, 299.362 1010.251, 299.337 1010.174, 299.322 " fill="none" stroke="rgb(0, 0, 0)" stroke-linecap="butt" stroke-linejoin="round" stroke-opacity="1.0" stroke-width="3.0" />
            <path d=" M 1015.172, 284.626 1015.092, 284.621 1015.012, 284.626 1014.936, 284.642 1014.863, 284.667 1014.795, 284.701 1014.733, 284.743 1014.676, 284.793 1014.627, 284.849 1014.585, 284.912 1014.550, 284.980 1014.525, 285.053 1014.510, 285.129 1014.504, 285.209 1014.510, 285.288 1014.525, 285.365 1014.550, 285.438 1014.585, 285.505 1014.627, 285.568 1014.677, 285.624 1014.733, 285.674 1014.795, 285.716 1014.863, 285.750 1014.936, 285.776 1015.012, 285.791 1015.092, 285.797 1015.172, 285.791 1015.248, 285.776 1015.321, 285.750 1015.389, 285.716 1015.451, 285.674 1015.508, 285.624 1015.558, 285.568 1015.600, 285.505 1015.634, 285.438 1015.659, 285.365 1015.675, 285.288 1015.680, 285.209 1015.675, 285.129 1015.659, 285.053 1015.634, 284.980 1015.600, 284.912 1015.558, 284.850 1015.508, 284.793 1015.451, 284.743 1015.389, 284.701 1015.321, 284.667 1015.248, 284.642 1015.172, 284.626 " fill="none" stroke="rgb(0, 0, 0)" stroke-linecap="butt" stroke-linejoin="round" stroke-opacity="1.0" stroke-width="3.0" />
            <path d=" M 1015.760, 268.755 1015.680, 268.750 1015.600, 268.755 1015.524, 268.771 1015.451, 268.796 1015.383, 268.830 1015.321, 268.873 1015.264, 268.922 1015.215, 268.979 1015.172, 269.041 1015.138, 269.109 1015.113, 269.182 1015.098, 269.258 1015.092, 269.338 1015.098, 269.417 1015.113, 269.494 1015.138, 269.566 1015.172, 269.634 1015.215, 269.697 1015.264, 269.753 1015.321, 269.803 1015.383, 269.845 1015.451, 269.879 1015.524, 269.904 1015.600, 269.920 1015.680, 269.926 1015.760, 269.920 1015.836, 269.904 1015.909, 269.879 1015.977, 269.845 1016.039, 269.803 1016.096, 269.753 1016.146, 269.697 1016.188, 269.634 1016.222, 269.566 1016.247, 269.494 1016.263, 269.417 1016.268, 269.338 1016.263, 269.258 1016.247, 269.182 1016.222, 269.109 1016.188, 269.041 1016.146, 268.979 1016.096, 268.922 1016.039, 268.873 1015.977, 268.830 1015.909, 268.796 1015.836, 268.771 1015.760, 268.755 " fill="none" stroke="rgb(0, 0, 0)" stroke-linecap="butt" stroke-linejoin="round" stroke-opacity="1.0" stroke-width="3.0" />
            <path d=" M 1015.760, 261.702 1015.680, 261.696 1015.600, 261.702 1015.524, 261.717 1015.451, 261.742 1015.383, 261.777 1015.321, 261.819 1015.264, 261.868 1015.215, 261.925 1015.172, 261.987 1015.138, 262.055 1015.113, 262.128 1015.098, 262.204 1015.092, 262.284 1015.098, 262.364 1015.113, 262.440 1015.138, 262.513 1015.172, 262.581 1015.215, 262.643 1015.264, 262.700 1015.321, 262.749 1015.383, 262.792 1015.451, 262.826 1015.524, 262.851 1015.600, 262.867 1015.680, 262.872 1015.760, 262.867 1015.836, 262.851 1015.909, 262.826 1015.977, 262.792 1016.039, 262.750 1016.096, 262.700 1016.146, 262.643 1016.188, 262.581 1016.222, 262.513 1016.247, 262.440 1016.263, 262.364 1016.268, 262.284 1016.263, 262.204 1016.247, 262.128 1016.222, 262.055 1016.188, 261.987 1016.146, 261.925 1016.096, 261.868 1016.039, 261.819 1015.977, 261.777 1015.909, 261.742 1015.836, 261.717 1015.760, 261.702 " fill="none" stroke="rgb(0, 0, 0)" stroke-linecap="butt" stroke-linejoin="round" stroke-opacity="1.0" stroke-width="3.0" />
            <path d=" M 1015.172, 253.105 1015.092, 253.099 1015.012, 253.105 1014.936, 253.120 1014.863, 253.146 1014.795, 253.180 1014.733, 253.222 1014.676, 253.272 1014.627, 253.328 1014.585, 253.391 1014.550, 253.458 1014.525, 253.531 1014.510, 253.608 1014.504, 253.687 1014.510, 253.767 1014.525, 253.843 1014.550, 253.916 1014.585, 253.984 1014.627, 254.046 1014.677, 254.103 1014.733, 254.153 1014.795, 254.195 1014.863, 254.229 1014.936, 254.254 1015.012, 254.270 1015.092, 254.275 1015.172, 254.270 1015.248, 254.254 1015.321, 254.229 1015.389, 254.195 1015.451, 254.153 1015.508, 254.103 1015.558, 254.046 1015.600, 253.984 1015.634, 253.916 1015.659, 253.843 1015.675, 253.767 1015.680, 253.687 1015.675, 253.608 1015.659, 253.531 1015.634, 253.459 1015.600, 253.391 1015.558, 253.328 1015.508, 253.272 1015.451, 253.222 1015.389, 253.180 1015.321, 253.146 1015.248, 253.120 1015.172, 253.105 " fill="none" stroke="rgb(0, 0, 0)" stroke-linecap="butt" stroke-linejoin="round" stroke-opacity="1.0" stroke-width="3.0" />
            <path d=" M 1013.335, 246.345 1013.255, 246.340 1013.175, 246.345 1013.099, 246.361 1013.026, 246.386 1012.958, 246.420 1012.896, 246.462 1012.839, 246.512 1012.789, 246.568 1012.747, 246.631 1012.713, 246.699 1012.688, 246.771 1012.672, 246.848 1012.667, 246.927 1012.672, 247.007 1012.688, 247.084 1012.713, 247.156 1012.747, 247.224 1012.789, 247.287 1012.839, 247.343 1012.896, 247.393 1012.958, 247.435 1013.026, 247.469 1013.099, 247.494 1013.175, 247.510 1013.255, 247.515 1013.335, 247.510 1013.411, 247.494 1013.484, 247.469 1013.552, 247.435 1013.614, 247.393 1013.671, 247.343 1013.720, 247.287 1013.763, 247.224 1013.797, 247.156 1013.822, 247.084 1013.837, 247.007 1013.843, 246.927 1013.837, 246.848 1013.822, 246.771 1013.797, 246.699 1013.763, 246.631 1013.720, 246.568 1013.671, 246.512 1013.614, 246.462 1013.552, 246.420 1013.484, 246.386 1013.411, 246.361 1013.335, 246.345 " fill="none" stroke="rgb(0, 0, 0)" stroke-linecap="butt" stroke-linejoin="round" stroke-opacity="1.0" stroke-width="3.0" />
            <path d=" M 968.945, 228.711 968.866, 228.705 968.786, 228.711 968.709, 228.726 968.637, 228.752 968.569, 228.786 968.506, 228.828 968.450, 228.877 968.400, 228.934 968.358, 228.996 968.324, 229.064 968.299, 229.137 968.283, 229.213 968.278, 229.293 968.283, 229.373 968.299, 229.449 968.324, 229.522 968.358, 229.590 968.400, 229.652 968.450, 229.709 968.506, 229.758 968.569, 229.800 968.637, 229.835 968.709, 229.860 968.786, 229.875 968.866, 229.881 968.945, 229.875 969.022, 229.860 969.094, 229.835 969.162, 229.800 969.225, 229.758 969.281, 229.709 969.331, 229.652 969.373, 229.590 969.407, 229.522 969.433, 229.449 969.448, 229.373 969.454, 229.293 969.448, 229.213 969.432, 229.137 969.407, 229.064 969.373, 228.996 969.331, 228.934 969.281, 228.877 969.225, 228.828 969.162, 228.786 969.094, 228.752 969.022, 228.726 968.945, 228.711 " fill="none" stroke="rgb(0, 0, 0)" stroke-linecap="butt" stroke-linejoin="round" stroke-opacity="1.0" stroke-width="3.0" />
            <path d=" M 959.685, 235.691 959.606, 235.686 959.526, 235.691 959.449, 235.707 959.377, 235.732 959.309, 235.766 959.246, 235.808 959.190, 235.858 959.140, 235.914 959.098, 235.977 959.064, 236.045 959.039, 236.117 959.023, 236.194 959.018, 236.273 959.023, 236.353 959.039, 236.429 959.064, 236.502 959.098, 236.570 959.140, 236.632 959.190, 236.689 959.246, 236.739 959.309, 236.781 959.377, 236.815 959.449, 236.840 959.526, 236.856 959.606, 236.861 959.685, 236.856 959.762, 236.840 959.834, 236.815 959.902, 236.781 959.965, 236.739 960.021, 236.689 960.071, 236.632 960.113, 236.570 960.147, 236.502 960.173, 236.429 960.188, 236.353 960.194, 236.273 960.188, 236.194 960.173, 236.117 960.147, 236.045 960.113, 235.977 960.071, 235.914 960.021, 235.858 959.965, 235.808 959.902, 235.766 959.834, 235.732 959.762, 235.707 959.685, 235.691 " fill="none" stroke="rgb(0, 0, 0)" stroke-linecap="butt" stroke-linejoin="round" stroke-opacity="1.0" stroke-width="3.0" />
            <path d=" M 1063.018, 353.156 1062.201, 353.101 1061.383, 353.156 1060.599, 353.316 1059.856, 353.575 1059.160, 353.924 1058.519, 354.357 1057.940, 354.866 1057.430, 355.445 1056.997, 356.086 1056.648, 356.782 1056.390, 357.525 1056.229, 358.309 1056.174, 359.126 1056.229, 359.943 1056.390, 360.727 1056.648, 361.471 1056.997, 362.166 1057.430, 362.807 1057.940, 363.386 1058.519, 363.895 1059.160, 364.328 1059.856, 364.678 1060.599, 364.936 1061.383, 365.096 1062.201, 365.151 1063.018, 365.096 1063.802, 364.936 1064.546, 364.677 1065.241, 364.328 1065.882, 363.895 1066.461, 363.386 1066.971, 362.807 1067.404, 362.166 1067.753, 361.471 1068.012, 360.727 1068.172, 359.943 1068.227, 359.126 1068.172, 358.309 1068.012, 357.525 1067.753, 356.782 1067.404, 356.086 1066.971, 355.445 1066.461, 354.866 1065.882, 354.357 1065.241, 353.924 1064.546, 353.575 1063.802, 353.316 1063.018, 353.156 " fill="none" stroke="rgb(0, 0, 0)" stroke-linecap="butt" stroke-linejoin="round" stroke-opacity="1.0" stroke-width="3.0" />
        </g>
    </g>
</svg>
