<?xml version="1.0" encoding="UTF-8" standalone="no"?>
<svg
   xmlns:dc="http://purl.org/dc/elements/1.1/"
   xmlns:cc="http://creativecommons.org/ns#"
   xmlns:rdf="http://www.w3.org/1999/02/22-rdf-syntax-ns#"
   xmlns:svg="http://www.w3.org/2000/svg"
   xmlns="http://www.w3.org/2000/svg"
   xmlns:sodipodi="http://sodipodi.sourceforge.net/DTD/sodipodi-0.dtd"
   xmlns:inkscape="http://www.inkscape.org/namespaces/inkscape"
   id="svg12354"
   sodipodi:docname="sport_man.svg"
   viewBox="0 0 126.18 253.11"
   version="1.1"
   inkscape:version="1.0.1 (3bc2e813f5, 2020-09-07)"
   width="134.592"
   height="269.98401">
  <defs
     id="defs12356">
    <clipPath
       id="clipPath7707"
       clipPathUnits="userSpaceOnUse">
      <path
         id="path7709"
         inkscape:connector-curvature="0"
         d="m 392.32,328.48 h 2.612 v -7.327 h -2.612 z" />
    </clipPath>
    <clipPath
       id="clipPath7691"
       clipPathUnits="userSpaceOnUse">
      <path
         id="path7693"
         inkscape:connector-curvature="0"
         d="m 390.85,320.32 h 2.021 v -5.445 h -2.021 z" />
    </clipPath>
    <clipPath
       id="clipPath7675"
       clipPathUnits="userSpaceOnUse">
      <path
         id="path7677"
         inkscape:connector-curvature="0"
         d="m 375.75,314.3 h 19.667 V 299.427 H 375.75 Z" />
    </clipPath>
    <clipPath
       id="clipPath7659"
       clipPathUnits="userSpaceOnUse">
      <path
         id="path7661"
         inkscape:connector-curvature="0"
         d="m 383.28,390.73 h 19.211 V 349.293 H 383.28 Z" />
    </clipPath>
    <clipPath
       id="clipPath7571"
       clipPathUnits="userSpaceOnUse">
      <path
         id="path7573"
         inkscape:connector-curvature="0"
         d="m 383.68,347.45 h 8.42 v -17.995 h -8.42 z" />
    </clipPath>
    <clipPath
       id="clipPath7551"
       clipPathUnits="userSpaceOnUse">
      <path
         id="path7553"
         inkscape:connector-curvature="0"
         d="m 362.4,496.47 h 34.849 V 458.053 H 362.4 Z" />
    </clipPath>
    <clipPath
       id="clipPath7519"
       clipPathUnits="userSpaceOnUse">
      <path
         id="path7521"
         inkscape:connector-curvature="0"
         d="m 417.79,446.29 h 21.886 v -3.67 H 417.79 Z" />
    </clipPath>
    <clipPath
       id="clipPath7503"
       clipPathUnits="userSpaceOnUse">
      <path
         id="path7505"
         inkscape:connector-curvature="0"
         d="m 375.06,446.29 h 21.887 v -3.67 H 375.06 Z" />
    </clipPath>
    <clipPath
       id="clipPath7475"
       clipPathUnits="userSpaceOnUse">
      <path
         id="path7477"
         inkscape:connector-curvature="0"
         d="m 366.95,460.58 h 30.517 V 398.387 H 366.95 Z" />
    </clipPath>
    <clipPath
       id="clipPath7451"
       clipPathUnits="userSpaceOnUse">
      <path
         id="path7453"
         inkscape:connector-curvature="0"
         d="m 420.9,448.64 h 6.882 v -3.411 H 420.9 Z" />
    </clipPath>
    <clipPath
       id="clipPath7435"
       clipPathUnits="userSpaceOnUse">
      <path
         id="path7437"
         inkscape:connector-curvature="0"
         d="m 378.29,450.27 h 6.884 v -3.411 h -6.884 z" />
    </clipPath>
    <clipPath
       id="clipPath7411"
       clipPathUnits="userSpaceOnUse">
      <path
         id="path7413"
         inkscape:connector-curvature="0"
         d="m 382.63,435.58 h 6.545 v -6.354 h -6.545 z" />
    </clipPath>
    <clipPath
       id="clipPath7387"
       clipPathUnits="userSpaceOnUse">
      <path
         id="path7389"
         inkscape:connector-curvature="0"
         d="m 420.22,435.58 h 6.547 v -6.354 h -6.547 z" />
    </clipPath>
    <clipPath
       id="clipPath7351"
       clipPathUnits="userSpaceOnUse">
      <path
         id="path7353"
         inkscape:connector-curvature="0"
         d="m 400.15,395.43 h 14.177 v -2.878 H 400.15 Z" />
    </clipPath>
  </defs>
  <sodipodi:namedview
     id="base"
     bordercolor="#666666"
     inkscape:pageshadow="2"
     inkscape:window-y="0"
     fit-margin-left="0"
     pagecolor="#ffffff"
     fit-margin-top="0"
     inkscape:window-maximized="0"
     inkscape:zoom="0.98994949"
     inkscape:window-x="234"
     inkscape:window-height="1040"
     showgrid="false"
     borderopacity="1.0"
     inkscape:current-layer="layer1"
     inkscape:cx="45.789438"
     inkscape:cy="80.697971"
     fit-margin-right="0"
     fit-margin-bottom="0"
     inkscape:window-width="1267"
     inkscape:pageopacity="0.0"
     inkscape:document-units="px"
     inkscape:document-rotation="0" />
  <g
     id="layer1"
     inkscape:label="Layer 1"
     inkscape:groupmode="layer"
     transform="translate(-470.95,-228.67)">
    <g
       id="g7297"
       transform="matrix(1.25,0,0,-1.25,504.74,338.8)">
      <path
         id="path7299"
         style="fill:#333333"
         inkscape:connector-curvature="0"
         d="m 0,0 c 0,-7.126 5.778,-12.902 12.904,-12.902 7.126,0 12.904,5.776 12.904,12.902 0,7.127 -5.778,12.904 -12.904,12.904 C 5.778,12.904 0,7.127 0,0" />
    </g>
    <g
       id="g7329"
       transform="matrix(1.25,0,0,-1.25,513.83,442.21)">
      <path
         id="path7331"
         style="fill:#f9dec5"
         inkscape:connector-curvature="0"
         d="m 0,0 c 0,0 -1.497,-10.049 -1.497,-17.755 l 4.633,0.49 c 0,0 1.532,13.224 2.629,17.502 C 5.765,0.237 1.883,1.882 0,0" />
    </g>
    <g
       id="g7333"
       transform="matrix(1.25,0,0,-1.25,510.82,451.73)">
      <path
         id="path7335"
         style="fill:#e6e6e6"
         inkscape:connector-curvature="0"
         d="m 0,0 c 0,0 7.993,1.409 9.644,-0.24 0,0 -3.721,-3.908 -3.721,-6.294 H 1.006 C 1.006,-6.534 0,-2.651 0,0" />
    </g>
    <g
       id="g7337"
       transform="matrix(1.25,0,0,-1.25,547.59,442.21)">
      <path
         id="path7339"
         style="fill:#f9dec5"
         inkscape:connector-curvature="0"
         d="m 0,0 c 0,0 1.497,-10.049 1.497,-17.755 l -4.633,0.49 c 0,0 -1.532,13.224 -2.63,17.502 0,0 3.883,1.645 5.766,-0.237" />
    </g>
    <g
       id="g7341"
       transform="matrix(1.25,0,0,-1.25,550.6,451.73)">
      <path
         id="path7343"
         style="fill:#e6e6e6"
         inkscape:connector-curvature="0"
         d="m 0,0 c 0,0 -7.992,1.409 -9.643,-0.24 0,0 3.721,-3.908 3.721,-6.294 h 4.917 C -1.005,-6.534 0,-2.651 0,0" />
    </g>
    <path
       id="path7345"
       style="fill:#f9dec5"
       inkscape:connector-curvature="0"
       d="M 541.19,371.09 H 523.469 V 355.34 H 541.19 Z" />
    <g
       id="g7347"
       transform="matrix(1.25,0,0,-1.25,23.279,852.77)">
      <g
         id="g7355">
        <g
           id="g7357"
           style="opacity:0.5"
           clip-path="url(#clipPath7351)">
          <g
             id="g7359"
             transform="translate(400.15,395.43)">
            <path
               id="path7361"
               style="fill:#f7931e"
               inkscape:connector-curvature="0"
               d="m 0,0 14.177,-0.003 v -0.418 c 0,0 -5.039,-3.616 -14.177,-2.074 z" />
          </g>
        </g>
      </g>
    </g>
    <g
       id="g7363"
       transform="matrix(1.25,0,0,-1.25,505.3,416.15)">
      <path
         id="path7365"
         style="fill:#000000"
         inkscape:connector-curvature="0"
         d="m 0,0 c 0,0 -3.736,-15.707 -3.193,-20.185 0,0 16.977,-2.232 22.602,1.479 0,0 0.098,15.158 3.499,20.872 0,0 -8.865,3.686 -22.908,-2.166" />
    </g>
    <g
       id="g7367"
       transform="matrix(1.25,0,0,-1.25,557.6,416.15)">
      <path
         id="path7369"
         style="fill:#000000"
         inkscape:connector-curvature="0"
         d="m 0,0 c 0,0 3.735,-15.707 3.193,-20.185 0,0 -16.977,-2.232 -22.602,1.479 0,0 -0.098,15.158 -3.499,20.872 0,0 8.864,3.686 22.908,-2.166" />
    </g>
    <g
       id="g7371"
       transform="matrix(1.25,0,0,-1.25,586,299.28)">
      <path
         id="path7373"
         style="fill:#f9dec5"
         inkscape:connector-curvature="0"
         d="m 0,0 c 0,-26.519 -19.218,-48.014 -42.926,-48.014 -23.708,0 -42.927,21.495 -42.927,48.014 0,26.517 19.219,48.013 42.927,48.013 C -19.218,48.013 0,26.517 0,0" />
    </g>
    <g
       id="g7375"
       transform="matrix(1.25,0,0,-1.25,562.69,311.44)">
      <path
         id="path7377"
         style="fill:#000000"
         inkscape:connector-curvature="0"
         d="m 0,0 c 0,-3.386 -2.747,-6.133 -6.132,-6.133 -3.387,0 -6.132,2.747 -6.132,6.133 0,3.385 2.745,6.13 6.132,6.13 C -2.747,6.13 0,3.385 0,0" />
    </g>
    <g
       id="g7379"
       transform="matrix(1.25,0,0,-1.25,555.79,309.11)">
      <path
         id="path7381"
         style="fill:#ffffff"
         inkscape:connector-curvature="0"
         d="m 0,0 c 0,-1.363 -1.105,-2.469 -2.469,-2.469 -1.368,0 -2.472,1.106 -2.472,2.469 0,1.367 1.104,2.473 2.472,2.473 C -1.105,2.473 0,1.367 0,0" />
    </g>
    <g
       id="g7383"
       transform="matrix(1.25,0,0,-1.25,23.279,852.77)">
      <g
         id="g7391">
        <g
           id="g7393"
           style="opacity:0.2"
           clip-path="url(#clipPath7387)">
          <g
             id="g7395"
             transform="translate(426.77,432.4)">
            <path
               id="path7397"
               style="fill:#ffffff"
               inkscape:connector-curvature="0"
               d="m 0,0 c 0,-1.753 -1.466,-3.177 -3.273,-3.177 -1.809,0 -3.274,1.424 -3.274,3.177 0,1.756 1.465,3.177 3.274,3.177 C -1.466,3.177 0,1.756 0,0" />
          </g>
        </g>
      </g>
    </g>
    <g
       id="g7399"
       transform="matrix(1.25,0,0,-1.25,513.72,311.44)">
      <path
         id="path7401"
         style="fill:#000000"
         inkscape:connector-curvature="0"
         d="m 0,0 c 0,-3.386 -2.744,-6.133 -6.132,-6.133 -3.385,0 -6.133,2.747 -6.133,6.133 0,3.385 2.748,6.13 6.133,6.13 C -2.744,6.13 0,3.385 0,0" />
    </g>
    <g
       id="g7403"
       transform="matrix(1.25,0,0,-1.25,508.8,309.11)">
      <path
         id="path7405"
         style="fill:#ffffff"
         inkscape:connector-curvature="0"
         d="m 0,0 c 0,-1.363 -1.107,-2.469 -2.475,-2.469 -1.366,0 -2.471,1.106 -2.471,2.469 0,1.367 1.105,2.473 2.471,2.473 C -1.107,2.473 0,1.367 0,0" />
    </g>
    <g
       id="g7407"
       transform="matrix(1.25,0,0,-1.25,23.279,852.77)">
      <g
         id="g7415">
        <g
           id="g7417"
           style="opacity:0.2"
           clip-path="url(#clipPath7411)">
          <g
             id="g7419"
             transform="translate(389.17,432.4)">
            <path
               id="path7421"
               style="fill:#ffffff"
               inkscape:connector-curvature="0"
               d="m 0,0 c 0,-1.753 -1.466,-3.177 -3.271,-3.177 -1.808,0 -3.274,1.424 -3.274,3.177 0,1.756 1.466,3.177 3.274,3.177 C -1.466,3.177 0,1.756 0,0" />
          </g>
        </g>
      </g>
    </g>
    <g
       id="g7423"
       transform="matrix(1.25,0,0,-1.25,545.52,298.06)">
      <path
         id="path7425"
         style="fill:#000000"
         inkscape:connector-curvature="0"
         d="M 0,0 C 0,0 10.827,4.816 21.886,2.174 21.886,2.174 12.901,10.875 0,0" />
    </g>
    <g
       id="g7427"
       transform="matrix(1.25,0,0,-1.25,519.47,298.06)">
      <path
         id="path7429"
         style="fill:#000000"
         inkscape:connector-curvature="0"
         d="m 0,0 c 0,0 -10.827,4.816 -21.887,2.174 0,0 8.986,8.701 21.887,-2.174" />
    </g>
    <g
       id="g7431"
       transform="matrix(1.25,0,0,-1.25,23.279,852.77)">
      <g
         id="g7439">
        <g
           id="g7441"
           style="opacity:0.2"
           clip-path="url(#clipPath7435)">
          <g
             id="g7443"
             transform="translate(378.29,446.86)">
            <path
               id="path7445"
               style="fill:#ffffff"
               inkscape:connector-curvature="0"
               d="m 0,0 c 0,0 2.812,3.587 6.884,3.404 0,0 -3.038,-0.852 -5.265,-3.079 C 1.619,0.325 0.282,0.286 0,0" />
          </g>
        </g>
      </g>
    </g>
    <g
       id="g7447"
       transform="matrix(1.25,0,0,-1.25,23.279,852.77)">
      <g
         id="g7455">
        <g
           id="g7457"
           style="opacity:0.2"
           clip-path="url(#clipPath7451)">
          <g
             id="g7459"
             transform="translate(420.9,445.23)">
            <path
               id="path7461"
               style="fill:#ffffff"
               inkscape:connector-curvature="0"
               d="m 0,0 c 0,0 2.813,3.586 6.883,3.404 0,0 -3.036,-0.852 -5.265,-3.079 C 1.618,0.325 0.282,0.285 0,0" />
          </g>
        </g>
      </g>
    </g>
    <g
       id="g7463"
       transform="matrix(1.25,0,0,-1.25,592.85,298.56)">
      <path
         id="path7465"
         style="fill:#f9dec5"
         inkscape:connector-curvature="0"
         d="m 0,0 c 0,-5.455 -3.137,-9.875 -7.005,-9.875 -3.868,0 -7.006,4.42 -7.006,9.875 0,5.453 3.138,9.875 7.006,9.875 C -3.137,9.875 0,5.453 0,0" />
    </g>
    <g
       id="g7467"
       transform="matrix(1.25,0,0,-1.25,502.5,325.77)">
      <path
         id="path7469"
         style="fill:#f5c384"
         inkscape:connector-curvature="0"
         d="m 0,0 c 0,-2.589 -2.686,-4.69 -5.996,-4.69 -3.312,0 -5.996,2.101 -5.996,4.69 0,2.59 2.684,4.689 5.996,4.689 C -2.686,4.689 0,2.59 0,0" />
    </g>
    <g
       id="g7471"
       transform="matrix(1.25,0,0,-1.25,23.279,852.77)">
      <g
         id="g7479">
        <g
           id="g7481"
           style="opacity:0.2"
           clip-path="url(#clipPath7475)">
          <g
             id="g7483"
             transform="translate(367.72,452.95)">
            <path
               id="path7485"
               style="fill:#ffffff"
               inkscape:connector-curvature="0"
               d="m 0,0 c 0,0 -8.324,-42.685 29.746,-54.558 0,0 -23.747,10.931 -16.711,62.193 C 13.035,7.635 3.025,3.859 0,0" />
          </g>
        </g>
      </g>
    </g>
    <g
       id="g7487"
       transform="matrix(1.25,0,0,-1.25,577.18,326.05)">
      <path
         id="path7489"
         style="fill:#f5c384"
         inkscape:connector-curvature="0"
         d="m 0,0 c 0,-2.714 -2.813,-4.913 -6.279,-4.913 -3.469,0 -6.282,2.199 -6.282,4.913 0,2.712 2.813,4.911 6.282,4.911 C -2.813,4.911 0,2.712 0,0" />
    </g>
    <g
       id="g7491"
       transform="matrix(1.25,0,0,-1.25,588.3,291.05)">
      <path
         id="path7493"
         style="fill:none;stroke:#f5c384;stroke-width:0.377"
         inkscape:connector-curvature="0"
         d="M 0,0 C 0,0 -8.863,0.473 -5.064,-7.915" />
    </g>
    <g
       id="g7495"
       transform="matrix(1.25,0,0,-1.25,587.71,299.28)">
      <path
         id="path7497"
         style="fill:#f5c384"
         inkscape:connector-curvature="0"
         d="m 0,0 c 0,-1.491 -1.205,-2.696 -2.693,-2.696 -1.488,0 -2.694,1.205 -2.694,2.696 0,1.486 1.206,2.691 2.694,2.691 C -1.205,2.691 0,1.486 0,0" />
    </g>
    <g
       id="g7499"
       transform="matrix(1.25,0,0,-1.25,23.279,852.77)">
      <g
         id="g7507">
        <g
           id="g7509"
           style="opacity:0.5"
           clip-path="url(#clipPath7503)">
          <g
             id="g7511"
             transform="translate(375.06,445.41)">
            <path
               id="path7513"
               style="fill:#f7931e"
               inkscape:connector-curvature="0"
               d="M 0,0 C 0,0 12.636,3.264 21.887,-2.791 21.887,-2.791 10.932,1.425 0,0" />
          </g>
        </g>
      </g>
    </g>
    <g
       id="g7515"
       transform="matrix(1.25,0,0,-1.25,23.279,852.77)">
      <g
         id="g7523">
        <g
           id="g7525"
           style="opacity:0.5"
           clip-path="url(#clipPath7519)">
          <g
             id="g7527"
             transform="translate(439.68,445.41)">
            <path
               id="path7529"
               style="fill:#f7931e"
               inkscape:connector-curvature="0"
               d="m 0,0 c 0,0 -12.636,3.264 -21.886,-2.791 0,0 10.955,4.216 21.886,2.791" />
          </g>
        </g>
      </g>
    </g>
    <g
       id="g7531"
       transform="matrix(1.25,0,0,-1.25,479.74,285.73)">
      <path
         id="path7533"
         style="fill:#000000"
         inkscape:connector-curvature="0"
         d="m 0,0 c 0,0 12.572,13.485 25.637,14.49 0,0 -5.526,-7.036 6.284,-9.548 0,0 -8.295,8.04 9.296,13.066 0,0 19.6,-4.523 11.057,-13.066 0,0 12.816,4.271 5.278,11.81 0,0 23.867,-10.549 25.931,-17.143 0,0 7.845,4.977 10.432,10.432 0,0 -18.522,31.588 -38.876,35.608 0,0 -9.328,-2.389 -12.956,-8.482 0,0 -4.634,8.482 -9.911,8.482 0,0 -27.641,-10.804 -39.201,-33.672 0,0 1.832,-6.78 7.029,-11.977" />
    </g>
    <g
       id="g7535"
       transform="matrix(1.25,0,0,-1.25,529.06,313.48)">
      <path
         id="path7537"
         style="fill:none;stroke:#808080;stroke-width:0.754"
         inkscape:connector-curvature="0"
         d="m 0,0 c 0,-4.164 -3.376,-7.539 -7.538,-7.539 h -17.843 c -4.163,0 -7.538,3.375 -7.538,7.539 v 14.604 c 0,4.165 3.375,7.54 7.538,7.54 H -7.538 C -3.376,22.144 0,18.769 0,14.604 Z" />
    </g>
    <g
       id="g7539"
       transform="matrix(1.25,0,0,-1.25,577.12,313.48)">
      <path
         id="path7541"
         style="fill:none;stroke:#808080;stroke-width:0.754"
         inkscape:connector-curvature="0"
         d="m 0,0 c 0,-4.164 -3.376,-7.539 -7.539,-7.539 h -17.842 c -4.163,0 -7.538,3.375 -7.538,7.539 v 14.604 c 0,4.165 3.375,7.54 7.538,7.54 H -7.539 C -3.376,22.144 0,18.769 0,14.604 Z" />
    </g>
    <g
       id="g7543"
       transform="matrix(1.25,0,0,-1.25,529.06,305.87)">
      <path
         id="path7545"
         style="fill:none;stroke:#808080;stroke-width:2.262;stroke-linecap:round"
         inkscape:connector-curvature="0"
         d="M 0,0 C 0,0 2.536,3.284 5.528,0.292" />
    </g>
    <g
       id="g7547"
       transform="matrix(1.25,0,0,-1.25,23.279,852.77)">
      <g
         id="g7555">
        <g
           id="g7557"
           style="opacity:0.2"
           clip-path="url(#clipPath7551)">
          <g
             id="g7559"
             transform="translate(366.54,458.05)">
            <path
               id="path7561"
               style="fill:#ffffff"
               inkscape:connector-curvature="0"
               d="m 0,0 c 0,0 -4.146,5.548 -4.146,7.527 0,0 9.108,19.802 34.85,30.89 0,0 -24.366,-17.748 -27.535,-30.388 L 4.678,4.097 Z" />
          </g>
        </g>
      </g>
    </g>
    <g
       id="g7563"
       transform="matrix(1.25,0,0,-1.25,541.83,362.85)">
      <path
         id="path7565"
         style="fill:#ed1c24"
         inkscape:connector-curvature="0"
         d="m 0,0 c -1.875,-1.35 -4.449,-2.184 -7.293,-2.184 -2.808,0 -5.35,0.816 -7.219,2.136 -11.04,-6.259 -13.843,-26.018 -19.442,-41.873 -0.288,-0.817 0.032,-1.684 0.077,-2.499 8.278,-1.953 17.359,-3.034 26.886,-3.034 8.894,0 17.401,0.943 25.229,2.657 0.055,0.933 0.575,1.987 0.088,2.876 C 9.806,-26.278 10.773,-6.205 0,0" />
    </g>
    <g
       id="g7567"
       transform="matrix(1.25,0,0,-1.25,23.279,852.77)">
      <g
         id="g7575">
        <g
           id="g7577"
           style="opacity:0.2"
           clip-path="url(#clipPath7571)">
          <g
             id="g7579"
             transform="translate(383.68,329.63)">
            <path
               id="path7581"
               style="fill:#ffffff"
               inkscape:connector-curvature="0"
               d="m 0,0 c 0,0 2.407,16.27 3.245,17.696 0,0 3.803,-0.043 5.175,0.123 0,0 -5.401,-15.99 -4.052,-17.719 C 4.368,0.1 0.055,-0.446 0,0" />
          </g>
        </g>
      </g>
    </g>
    <g
       id="g7583"
       transform="matrix(1.25,0,0,-1.25,522.77,350.41)">
      <path
         id="path7585"
         style="fill:#e83e2e"
         inkscape:connector-curvature="0"
         d="M 0,0 C 0,0 11.268,0.655 20.703,5.372 L 23.062,4.324 C 23.062,4.324 13.494,-1.707 0,0" />
    </g>
    <g
       id="g7587"
       transform="matrix(1.25,0,0,-1.25,542.65,363.66)">
      <path
         id="path7589"
         style="fill:#ed1c24"
         inkscape:connector-curvature="0"
         d="m 0,0 c 0,0 7.284,-0.979 11.061,-2.864 0,0 -3.417,-5.432 -3.417,-8.379 l -9.564,3.66 z" />
    </g>
    <g
       id="g7591"
       transform="matrix(1.25,0,0,-1.25,522.71,363.64)">
      <path
         id="path7593"
         style="fill:#ed1c24"
         inkscape:connector-curvature="0"
         d="m 0,0 c 0,0 -7.282,-1.006 -11.051,-2.906 0,0 3.437,-5.419 3.448,-8.367 l 9.549,3.696 z" />
    </g>
    <g
       id="g7595"
       transform="matrix(1.25,0,0,-1.25,492.07,478.63)">
      <path
         id="path7597"
         style="fill:#333333"
         inkscape:connector-curvature="0"
         d="m 0,0 c 1.868,-3.479 8.918,-3.328 15.745,0.338 6.826,3.667 10.847,9.459 8.978,12.939 -1.87,3.479 -8.919,3.328 -15.744,-0.338 C 2.15,9.272 -1.868,3.479 0,0" />
    </g>
    <g
       id="g7599"
       transform="matrix(1.25,0,0,-1.25,492.75,472.02)">
      <path
         id="path7601"
         style="fill:#000000"
         inkscape:connector-curvature="0"
         d="M 0,0 C 0.299,0.887 8.821,2.058 12.963,-6.024 12.963,-6.024 -4.303,-12.675 0,0" />
    </g>
    <g
       id="g7603"
       transform="matrix(1.25,0,0,-1.25,508.95,479.55)">
      <path
         id="path7605"
         style="fill:#000000"
         inkscape:connector-curvature="0"
         d="m 0,0 c 0,0 7.018,2.834 8.878,6.204 l 3.402,6.75 c 0,0 -9.646,-10.818 -13.103,-11.549" />
    </g>
    <g
       id="g7607"
       transform="matrix(1.25,0,0,-1.25,497.35,469.32)">
      <path
         id="path7609"
         style="fill:none;stroke:#ffffff;stroke-width:1.929;stroke-linecap:round"
         inkscape:connector-curvature="0"
         d="M 0,0 12.163,-1.838" />
    </g>
    <g
       id="g7611"
       transform="matrix(1.25,0,0,-1.25,504.76,463.19)">
      <path
         id="path7613"
         style="fill:none;stroke:#ffffff;stroke-width:1.929;stroke-linecap:round"
         inkscape:connector-curvature="0"
         d="M 0,0 12.163,-1.838" />
    </g>
    <g
       id="g7615"
       transform="matrix(1.25,0,0,-1.25,505.13,464.19)">
      <path
         id="path7617"
         style="fill:none;stroke:#ffffff;stroke-width:1.929;stroke-linecap:round"
         inkscape:connector-curvature="0"
         d="M 0,0 1.913,-8.202" />
    </g>
    <g
       id="g7619"
       transform="matrix(1.25,0,0,-1.25,510.7,461.07)">
      <path
         id="path7621"
         style="fill:none;stroke:#ffffff;stroke-width:1.929;stroke-linecap:round"
         inkscape:connector-curvature="0"
         d="M 0,0 1.915,-8.203" />
    </g>
    <g
       id="g7623"
       transform="matrix(1.25,0,0,-1.25,571.94,478.63)">
      <path
         id="path7625"
         style="fill:#333333"
         inkscape:connector-curvature="0"
         d="m 0,0 c -1.868,-3.479 -8.917,-3.328 -15.743,0.338 -6.827,3.667 -10.847,9.459 -8.979,12.939 1.868,3.479 8.919,3.328 15.745,-0.338 C -2.149,9.272 1.87,3.479 0,0" />
    </g>
    <g
       id="g7627"
       transform="matrix(1.25,0,0,-1.25,571.27,472.02)">
      <path
         id="path7629"
         style="fill:#000000"
         inkscape:connector-curvature="0"
         d="m 0,0 c -0.301,0.887 -8.821,2.058 -12.964,-6.024 0,0 17.266,-6.651 12.964,6.024" />
    </g>
    <g
       id="g7631"
       transform="matrix(1.25,0,0,-1.25,555.07,479.55)">
      <path
         id="path7633"
         style="fill:#000000"
         inkscape:connector-curvature="0"
         d="m 0,0 c 0,0 -7.018,2.834 -8.878,6.204 l -3.402,6.75 c 0,0 9.646,-10.818 13.103,-11.549" />
    </g>
    <g
       id="g7635"
       transform="matrix(1.25,0,0,-1.25,566.67,469.32)">
      <path
         id="path7637"
         style="fill:none;stroke:#ffffff;stroke-width:1.929;stroke-linecap:round"
         inkscape:connector-curvature="0"
         d="M 0,0 -12.163,-1.838" />
    </g>
    <g
       id="g7639"
       transform="matrix(1.25,0,0,-1.25,559.26,463.19)">
      <path
         id="path7641"
         style="fill:none;stroke:#ffffff;stroke-width:1.929;stroke-linecap:round"
         inkscape:connector-curvature="0"
         d="M 0,0 -12.162,-1.838" />
    </g>
    <g
       id="g7643"
       transform="matrix(1.25,0,0,-1.25,558.89,464.19)">
      <path
         id="path7645"
         style="fill:none;stroke:#ffffff;stroke-width:1.929;stroke-linecap:round"
         inkscape:connector-curvature="0"
         d="M 0,0 -1.916,-8.202" />
    </g>
    <g
       id="g7647"
       transform="matrix(1.25,0,0,-1.25,553.32,461.07)">
      <path
         id="path7649"
         style="fill:none;stroke:#ffffff;stroke-width:1.929;stroke-linecap:round"
         inkscape:connector-curvature="0"
         d="M 0,0 -1.915,-8.203" />
    </g>
    <g
       id="g7651"
       transform="matrix(1.25,0,0,-1.25,520.66,374.85)">
      <path
         id="path7653"
         style="fill:#000000"
         inkscape:connector-curvature="0"
         d="m 0,0 c 0,0 6.46,-2.014 17.356,-5.259 0,0 3.885,-18.969 -4.587,-25.614 l -8.012,1.091 c 0,0 12.599,12.631 10.671,20.344 0,0 -12.824,0.129 -19.606,-2.571 0,0 2.249,10.081 4.178,12.009" />
    </g>
    <g
       id="g7655"
       transform="matrix(1.25,0,0,-1.25,23.279,852.77)">
      <g
         id="g7663">
        <g
           id="g7665"
           style="opacity:0.2"
           clip-path="url(#clipPath7659)">
          <g
             id="g7667"
             transform="translate(391.96,387.6)">
            <path
               id="path7669"
               style="fill:#ffffff"
               inkscape:connector-curvature="0"
               d="m 0,0 2.74,-6.509 -11.419,-31.799 5.807,0.198 c 0,0 13.404,35.145 13.404,38.185 0,3.04 -2.803,3.055 -2.803,3.055 z" />
          </g>
        </g>
      </g>
    </g>
    <g
       id="g7671"
       transform="matrix(1.25,0,0,-1.25,23.279,852.77)">
      <g
         id="g7679">
        <g
           id="g7681"
           style="opacity:0.2"
           clip-path="url(#clipPath7675)">
          <g
             id="g7683"
             transform="translate(376.02,300.94)">
            <path
               id="path7685"
               style="fill:#ffffff"
               inkscape:connector-curvature="0"
               d="m 0,0 c 0,0 4.127,12.056 17.937,13.354 0,0 2.779,0.12 0.673,-1.06 0,0 -11.368,-2.946 -18.526,-13.81 0,0 -0.733,0.028 -0.084,1.516" />
          </g>
        </g>
      </g>
    </g>
    <g
       id="g7687"
       transform="matrix(1.25,0,0,-1.25,23.279,852.77)">
      <g
         id="g7695">
        <g
           id="g7697"
           style="opacity:0.2"
           clip-path="url(#clipPath7691)">
          <g
             id="g7699"
             transform="translate(391.5,314.88)">
            <path
               id="path7701"
               style="fill:#ffffff"
               inkscape:connector-curvature="0"
               d="M 0,0 C 0,0 -0.873,3.632 -0.592,4.878 L 1.233,5.445 1.374,0.169 Z" />
          </g>
        </g>
      </g>
    </g>
    <g
       id="g7703"
       transform="matrix(1.25,0,0,-1.25,23.279,852.77)">
      <g
         id="g7711">
        <g
           id="g7713"
           style="opacity:0.2"
           clip-path="url(#clipPath7707)">
          <g
             id="g7715"
             transform="translate(393.11,328.19)">
            <path
               id="path7717"
               style="fill:#ffffff"
               inkscape:connector-curvature="0"
               d="M 0,0 -0.79,-7.045 0.45,-6.92 1.821,0.281 Z" />
          </g>
        </g>
      </g>
    </g>
    <g
       id="g7719"
       transform="matrix(1.25,0,0,-1.25,503.02,404.72)">
      <path
         id="path7721"
         style="fill:#f9dec5"
         inkscape:connector-curvature="0"
         d="m 0,0 c -2.432,-2.535 -6.458,-2.619 -8.994,-0.187 -2.534,2.433 -2.618,6.459 -0.186,8.996 2.432,2.535 6.459,2.618 8.994,0.185 C 2.351,6.563 2.434,2.535 0,0" />
    </g>
    <g
       id="g7723"
       transform="matrix(1.25,0,0,-1.25,510.09,369.3)">
      <path
         id="path7725"
         style="fill:#f9dec5"
         inkscape:connector-curvature="0"
         d="m 0,0 c -2.008,-0.834 -26.23,-1.798 -22.78,-10.097 3.449,-8.298 8.295,-12.841 8.295,-12.841 l 6.152,2.558 c 0,0 -9.292,8.684 -5.461,10.276 0,0 13.034,5.206 15.992,5.141" />
    </g>
    <g
       id="g7727"
       transform="matrix(1.25,0,0,-1.25,555.61,404.1)">
      <path
         id="path7729"
         style="fill:#f9dec5"
         inkscape:connector-curvature="0"
         d="m 0,0 c 1.851,-2.987 5.771,-3.907 8.758,-2.057 2.986,1.852 3.906,5.772 2.055,8.76 C 8.964,9.688 5.042,10.609 2.055,8.758 -0.931,6.907 -1.852,2.985 0,0" />
    </g>
    <g
       id="g7731"
       transform="matrix(1.25,0,0,-1.25,555.17,369.51)">
      <path
         id="path7733"
         style="fill:#f9dec5"
         inkscape:connector-curvature="0"
         d="m 0,0 c 1.79,-1.234 26.009,-6.008 20.906,-13.405 -5.102,-7.398 -10.789,-10.83 -10.789,-10.83 l -5.483,3.781 c 0,0 10.896,6.558 7.481,8.913 0,0 -10.969,5.99 -13.876,6.543" />
    </g>
    <g
       id="skeleton_1_"
       transform="matrix(0.30160961,0,0,0.27402326,343.79147,234.9559)">
      <polygon
         style="fill:none;stroke:#000000;stroke-miterlimit:10"
         points="569.1,565.3 685.5,564.5 731.7,349.5 518.8,349.5 "
         id="polygon1551" />
      <polyline
         style="fill:none;stroke:#000000;stroke-miterlimit:10"
         points="517.8,349.5 415.1,349.5 251.8,355.8  "
         id="polyline1553" />
      <polyline
         style="fill:none;stroke:#000000;stroke-miterlimit:10"
         points="733.2,349.1 836.4,349.1 999.7,355.5  "
         id="polyline1555" />
      <polyline
         style="fill:none;stroke:#000000;stroke-miterlimit:10"
         points="569.1,565.3 575.5,725.5 575.5,933.5  "
         id="polyline1557" />
      <polyline
         style="fill:none;stroke:#000000;stroke-miterlimit:10"
         points="685.5,564.5 685.5,725.5 685.5,933.5  "
         id="polyline1559" />
      <polyline
         style="fill:none;stroke:#000000;stroke-miterlimit:10"
         points="624.5,170 604.7,172.5 592.2,182 583.6,196.1    581.1,205.4 580.3,217.1 580.3,226.6 581.1,248.3 587.9,268.3 599.5,280.8 609.5,287.5 624.5,290.7 639.3,287.9 649.3,281.2    660.9,268.6 667.7,248.6 668.5,227 668.5,217.4 667.7,205.7 665.2,196.5 657,182 644.4,172.5 624.5,170  "
         id="polyline1561" />
      <polyline
         style="fill:none;stroke:#000000;stroke-miterlimit:10"
         points="588.5,206.9 592.5,203.2 598.7,202.2 606,202.2    615.8,206.2  "
         id="polyline1563" />
      <polygon
         style="fill:none;stroke:#000000;stroke-miterlimit:10"
         points="611.4,215.6 606.2,216.6 599.9,217.4 594.7,215.1 599.9,211.4 606.2,211.4 "
         id="polygon1565" />
      <polyline
         style="fill:none;stroke:#000000;stroke-miterlimit:10"
         points="613,233.2 618.2,233.2 623.7,234 623.7,228.7    623.7,221.6 623.7,216.1 623.7,210.3  "
         id="polyline1567" />
      <polyline
         style="fill:none;stroke:#000000;stroke-miterlimit:10"
         points="660,206.5 656,203.6 649.7,202.1 642.4,202.5    632.4,205.7  "
         id="polyline1569" />
      <polygon
         style="fill:none;stroke:#000000;stroke-miterlimit:10"
         points="637.4,215.6 642.5,216.6 648.8,217.4 654.1,215.1 648.8,211.4 642.5,211.4 "
         id="polygon1571" />
      <polyline
         style="fill:none;stroke:#000000;stroke-miterlimit:10"
         points="634.1,233.2 629.1,233.2 623.7,234  "
         id="polyline1573" />
      <polygon
         style="fill:none;stroke:#000000;stroke-miterlimit:10"
         points="624.5,264.9 620.4,264.4 613.4,261.6 607,255.3 613.9,251.9 620.4,250.8 624.5,251.7 628.7,250.8 635.1,251.9 642,255.3 635.6,261.6 628.5,264.4 "
         id="polygon1575" />
      <polyline
         style="fill:none;stroke:#000000;stroke-miterlimit:10"
         points="607,255.3 610.6,255.6 620.6,254.8 624.5,255.3    628.5,254.8 638.4,255.6 642,255.3  "
         id="polyline1577" />
      <polyline
         style="fill:none;stroke:#000000;stroke-miterlimit:10"
         points="607,255.3 610.6,255.6 620.6,257.7 624.5,258.5    628.5,257.7 638.4,255.6 642,255.3  "
         id="polyline1579" />
      <circle
         id="rightShoulder"
         cx="518.90002"
         cy="349.20001"
         r="8.1999998" />
      <circle
         id="rightElbow"
         cx="415.39999"
         cy="349.29999"
         r="8.1999998" />
      <circle
         id="rightWrist"
         cx="252"
         cy="355.70001"
         r="8.1999998" />
      <circle
         id="rightHip"
         cx="569.20001"
         cy="565"
         r="8.1999998" />
      <circle
         id="rightKnee"
         cx="575.59998"
         cy="725.20001"
         r="8.1999998" />
      <circle
         id="rightAnkle"
         cx="575.59998"
         cy="933.20001"
         r="8.1999998" />
      <circle
         id="leftElbow"
         cx="836.20001"
         cy="348.89999"
         r="8.1999998" />
      <circle
         id="leftWrist"
         cx="999.59998"
         cy="355.20001"
         r="8.1999998" />
      <circle
         id="leftHip"
         cx="685.59998"
         cy="564.20001"
         r="8.1999998" />
      <circle
         id="leftKnee"
         cx="685.59998"
         cy="725.20001"
         r="8.1999998" />
      <circle
         id="leftAnkle"
         cx="685.59998"
         cy="933.20001"
         r="8.1999998" />
      <circle
         id="rightEye0"
         cx="594.70001"
         cy="215.10001"
         r="0.80000001" />
      <circle
         id="rightBrow1"
         cx="592.5"
         cy="203.2"
         r="0.80000001" />
      <circle
         id="rightBrow4"
         cx="615.79999"
         cy="206.2"
         r="0.80000001" />
      <circle
         id="nose1"
         cx="623.70001"
         cy="216.10001"
         r="0.80000001" />
      <circle
         id="rightBrow3"
         cx="606"
         cy="202.2"
         r="0.80000001" />
      <circle
         id="rightEye1"
         cx="599.90002"
         cy="211.39999"
         r="0.80000001" />
      <circle
         id="rightBrow0"
         cx="588.5"
         cy="206.89999"
         r="0.80000001" />
      <circle
         id="rightBrow2"
         cx="598.70001"
         cy="202.2"
         r="0.80000001" />
      <circle
         id="rightEye5"
         cx="599.90002"
         cy="217.39999"
         r="0.80000001" />
      <circle
         id="rightEye2"
         cx="606.20001"
         cy="211.39999"
         r="0.80000001" />
      <circle
         id="rightEye3"
         cx="611.40002"
         cy="215.60001"
         r="0.80000001" />
      <circle
         id="nose0"
         cx="623.70001"
         cy="210.3"
         r="0.80000001" />
      <circle
         id="nose3"
         cx="623.70001"
         cy="228.7"
         r="0.80000001" />
      <circle
         id="rightNose0"
         cx="613"
         cy="233.2"
         r="0.80000001" />
      <circle
         id="rightMouthCorner"
         cx="607"
         cy="255.3"
         r="0.80000001" />
      <circle
         id="rightNose1"
         cx="618.20001"
         cy="233.2"
         r="0.80000001" />
      <circle
         id="rightUpperLipTop0"
         cx="613.90002"
         cy="251.89999"
         r="0.80000001" />
      <circle
         id="nose2"
         cx="623.70001"
         cy="221.60001"
         r="0.80000001" />
      <circle
         id="nose4"
         cx="623.70001"
         cy="234"
         r="0.80000001" />
      <circle
         id="upperLipTopMid"
         cx="624.5"
         cy="251.7"
         r="0.80000001" />
      <circle
         id="rightUpperLipTop1"
         cx="620.40002"
         cy="250.8"
         r="0.80000001" />
      <path
         id="rightMiddleLip"
         d="m 610.6,254.8 c 0.4,0 0.8,0.4 0.8,0.8 0,0.4 -0.4,0.8 -0.8,0.8 -0.4,0 -0.8,-0.4 -0.8,-0.8 0,-0.4 0.4,-0.8 0.8,-0.8 z" />
      <circle
         id="lowerLipBottomMid"
         cx="624.5"
         cy="264.89999"
         r="0.80000001" />
      <circle
         id="upperLipBottomMid"
         cx="624.5"
         cy="255.3"
         r="0.80000001" />
      <circle
         id="lowerLipTopMid"
         cx="624.5"
         cy="258.39999"
         r="0.80000001" />
      <circle
         id="rightUpperLipBottom1"
         cx="620.59998"
         cy="254.8"
         r="0.80000001" />
      <circle
         id="rightLowerLipTop0"
         cx="620.59998"
         cy="257.70001"
         r="0.80000001" />
      <circle
         id="rightLowerLipBottom1"
         cx="620.40002"
         cy="264.39999"
         r="0.80000001" />
      <circle
         id="rightLowerLipBottom0"
         cx="613.40002"
         cy="261.60001"
         r="0.80000001" />
      <circle
         id="rightEye4"
         cx="606.20001"
         cy="216.60001"
         r="0.80000001" />
      <circle
         id="jawMid"
         cx="624.5"
         cy="290.70001"
         r="0.80000001" />
      <circle
         id="rightJaw7"
         cx="609.5"
         cy="287.5"
         r="0.80000001" />
      <circle
         id="rightJaw6"
         cx="599.5"
         cy="280.79999"
         r="0.80000001" />
      <circle
         id="rightJaw5"
         cx="587.90002"
         cy="268.29999"
         r="0.80000001" />
      <circle
         id="rightJaw4"
         cx="581.09998"
         cy="248.3"
         r="0.80000001" />
      <circle
         id="rightJaw3"
         cx="580.29999"
         cy="226.60001"
         r="0.80000001" />
      <circle
         id="rightJaw2"
         cx="580.29999"
         cy="217.10001"
         r="0.80000001" />
      <circle
         id="rightJaw1"
         cx="581.09998"
         cy="205.39999"
         r="0.80000001" />
      <circle
         id="rightJaw0"
         cx="583.59998"
         cy="196.10001"
         r="0.80000001" />
      <circle
         id="topMid"
         cx="624.70001"
         cy="170"
         r="0.80000001" />
      <circle
         id="leftTop0"
         cx="644.40002"
         cy="172.5"
         r="0.80000001" />
      <circle
         id="leftTop1"
         cx="657"
         cy="182"
         r="0.80000001" />
      <circle
         id="leftEye0"
         cx="654.29999"
         cy="215.10001"
         r="0.80000001" />
      <circle
         id="leftBrow1"
         cx="656.20001"
         cy="203.60001"
         r="0.80000001" />
      <circle
         id="leftBrow4"
         cx="632.59998"
         cy="205.7"
         r="0.80000001" />
      <circle
         id="leftBrow3"
         cx="642.59998"
         cy="202.5"
         r="0.80000001" />
      <circle
         id="leftEye1"
         cx="649.09998"
         cy="211.39999"
         r="0.80000001" />
      <circle
         id="leftBrow0"
         cx="660.20001"
         cy="206.5"
         r="0.80000001" />
      <circle
         id="leftBrow2"
         cx="649.90002"
         cy="202.10001"
         r="0.80000001" />
      <circle
         id="leftEye5"
         cx="649.09998"
         cy="217.39999"
         r="0.80000001" />
      <circle
         id="leftEye2"
         cx="642.79999"
         cy="211.39999"
         r="0.80000001" />
      <circle
         id="leftEye3"
         cx="637.59998"
         cy="215.60001"
         r="0.80000001" />
      <circle
         id="leftNose0"
         cx="634.09998"
         cy="233.2"
         r="0.80000001" />
      <circle
         id="leftMouthCorner"
         cx="642"
         cy="255.3"
         r="0.80000001" />
      <circle
         id="leftNose1"
         cx="629.29999"
         cy="233.2"
         r="0.80000001" />
      <circle
         id="leftUpperLipTop0"
         cx="635.09998"
         cy="251.89999"
         r="0.80000001" />
      <circle
         id="leftUpperLipTop1"
         cx="628.70001"
         cy="250.8"
         r="0.80000001" />
      <path
         id="leftMiddleLip"
         d="m 638.4,254.8 c 0.4,0 0.8,0.4 0.8,0.8 0,0.4 -0.4,0.8 -0.8,0.8 -0.4,0 -0.8,-0.4 -0.8,-0.8 0,-0.4 0.4,-0.8 0.8,-0.8 z" />
      <circle
         id="leftUpperLipBottom1"
         cx="628.5"
         cy="254.8"
         r="0.80000001" />
      <circle
         id="leftLowerLipTop0"
         cx="628.5"
         cy="257.70001"
         r="0.80000001" />
      <circle
         id="leftLowerLipBottom1"
         cx="628.70001"
         cy="264.39999"
         r="0.80000001" />
      <circle
         id="leftLowerLipBottom0"
         cx="635.59998"
         cy="261.60001"
         r="0.80000001" />
      <circle
         id="leftEye4"
         cx="642.79999"
         cy="216.60001"
         r="0.80000001" />
      <circle
         id="leftJaw7"
         cx="639.29999"
         cy="287.89999"
         r="0.80000001" />
      <circle
         id="leftJaw6"
         cx="649.29999"
         cy="281.20001"
         r="0.80000001" />
      <circle
         id="leftJaw5"
         cx="660.90002"
         cy="268.60001"
         r="0.80000001" />
      <circle
         id="leftJaw4"
         cx="667.70001"
         cy="248.60001"
         r="0.80000001" />
      <circle
         id="leftJaw3"
         cx="668.5"
         cy="227"
         r="0.80000001" />
      <circle
         id="leftJaw2"
         cx="668.5"
         cy="217.39999"
         r="0.80000001" />
      <circle
         id="leftJaw1"
         cx="667.70001"
         cy="205.7"
         r="0.80000001" />
      <circle
         id="leftJaw0"
         cx="665.20001"
         cy="196.5"
         r="0.80000001" />
      <circle
         id="rightTop0"
         cx="604.79999"
         cy="172.5"
         r="0.80000001" />
      <circle
         id="rightTop1"
         cx="592.20001"
         cy="182"
         r="0.80000001" />
      <circle
         id="leftShoulder"
         cx="731.79999"
         cy="349.20001"
         r="8.1999998" />
    </g>
  </g>
  <metadata
     id="metadata7651">
    <rdf:RDF>
      <cc:Work>
        <dc:format>image/svg+xml</dc:format>
        <dc:type
           rdf:resource="http://purl.org/dc/dcmitype/StillImage" />
        <cc:license
           rdf:resource="http://creativecommons.org/licenses/publicdomain/" />
        <dc:publisher>
          <cc:Agent
             rdf:about="http://openclipart.org/">
            <dc:title>Openclipart</dc:title>
          </cc:Agent>
        </dc:publisher>
        <dc:title></dc:title>
        <dc:date>2010-12-15T01:34:40</dc:date>
        <dc:description>Sport man</dc:description>
        <dc:source>https://openclipart.org/detail/100783/sport-man-by-dcatcherex</dc:source>
        <dc:creator>
          <cc:Agent>
            <dc:title>dcatcherex</dc:title>
          </cc:Agent>
        </dc:creator>
        <dc:subject>
          <rdf:Bag>
            <rdf:li>anime</rdf:li>
            <rdf:li>boy</rdf:li>
            <rdf:li>character</rdf:li>
            <rdf:li>comic</rdf:li>
            <rdf:li>football</rdf:li>
            <rdf:li>man</rdf:li>
            <rdf:li>manga</rdf:li>
            <rdf:li>people</rdf:li>
            <rdf:li>player</rdf:li>
          </rdf:Bag>
        </dc:subject>
      </cc:Work>
      <cc:License
         rdf:about="http://creativecommons.org/licenses/publicdomain/">
        <cc:permits
           rdf:resource="http://creativecommons.org/ns#Reproduction" />
        <cc:permits
           rdf:resource="http://creativecommons.org/ns#Distribution" />
        <cc:permits
           rdf:resource="http://creativecommons.org/ns#DerivativeWorks" />
      </cc:License>
    </rdf:RDF>
  </metadata>
</svg>
