<?xml version="1.0" encoding="UTF-8" standalone="no"?>
<svg xmlns:dc="http://purl.org/dc/elements/1.1/" xmlns:cc="http://creativecommons.org/ns#" xmlns:rdf="http://www.w3.org/1999/02/22-rdf-syntax-ns#" xmlns:svg="http://www.w3.org/2000/svg" xmlns="http://www.w3.org/2000/svg" xmlns:xlink="http://www.w3.org/1999/xlink" version="1.1" id="svg2" height="550" width="400">
  <title id="title4284">Man</title>
  <defs id="defs4">
    <linearGradient id="linearGradient4485">
      <stop id="stop4487" offset="0" style="stop-color:#e7e7e7;stop-opacity:1;" />
      <stop id="stop4489" offset="1" style="stop-color:#ffffff;stop-opacity:1;" />
    </linearGradient>
    <linearGradient id="linearGradient4337">
      <stop id="stop4339" offset="0" style="stop-color:#c5c5c5;stop-opacity:1;" />
      <stop style="stop-color:#ffffff;stop-opacity:0.17177914;" offset="0.5" id="stop4345" />
      <stop id="stop4341" offset="1" style="stop-color:#ffffff;stop-opacity:0;" />
    </linearGradient>
    <linearGradient id="linearGradient4066">
      <stop id="stop4068" offset="0" style="stop-color:#a38465;stop-opacity:1;" />
      <stop id="stop4070" offset="1" style="stop-color:#000000;stop-opacity:1;" />
    </linearGradient>
    <linearGradient gradientTransform="translate(-102.34309,279.29968)" spreadMethod="reflect" gradientUnits="userSpaceOnUse" y2="567.7193" x2="300.72568" y1="567.7193" x1="242.14287" id="linearGradient4343" xlink:href="#linearGradient4337" />
    <linearGradient gradientTransform="translate(3.3378601e-6,502.14118)" gradientUnits="userSpaceOnUse" y2="313.18237" x2="193.25481" y1="315.70773" x1="199.75766" id="linearGradient4491" xlink:href="#linearGradient4485" />
    <linearGradient gradientTransform="matrix(1.2036183,0,0,1.0618128,-40.063689,483.1947)" y2="313.18237" x2="193.25481" y1="315.70773" x1="199.75766" gradientUnits="userSpaceOnUse" id="linearGradient4495" xlink:href="#linearGradient4485" />
    <linearGradient y2="313.18237" x2="193.25481" y1="315.70773" x1="199.75766" gradientTransform="matrix(1.2036183,0,0,1.0618128,-433.58126,498.53639)" gradientUnits="userSpaceOnUse" id="linearGradient4517" xlink:href="#linearGradient4485" />
    <linearGradient y2="313.18237" x2="193.25481" y1="315.70773" x1="199.75766" gradientTransform="translate(-393.51757,517.48287)" gradientUnits="userSpaceOnUse" id="linearGradient4519" xlink:href="#linearGradient4485" />
  </defs>
  <metadata id="metadata7">
    <rdf:RDF>
      <cc:Work rdf:about="">
        <dc:format>image/svg+xml</dc:format>
        <dc:type rdf:resource="http://purl.org/dc/dcmitype/StillImage" />
        <dc:title>Man</dc:title>
        <dc:creator>
          <cc:Agent>
            <dc:title>Jakub Jankiewicz</dc:title>
          </cc:Agent>
        </dc:creator>
        <cc:license rdf:resource="http://creativecommons.org/publicdomain/zero/1.0/" />
      </cc:Work>
      <cc:License rdf:about="http://creativecommons.org/publicdomain/zero/1.0/">
        <cc:permits rdf:resource="http://creativecommons.org/ns#Reproduction" />
        <cc:permits rdf:resource="http://creativecommons.org/ns#Distribution" />
        <cc:permits rdf:resource="http://creativecommons.org/ns#DerivativeWorks" />
      </cc:License>
    </rdf:RDF>
  </metadata>
  <g transform="translate(0,-502.36218)" id="layer1">
    <path id="use4353" d="m 138.03125,874.36218 c -0.78504,5.31664 0.50756,8.09961 -1.0625,10.125 -1.57007,2.02538 -2.10543,4.07154 -1.84375,5.84375 0.26167,1.77221 0.48418,8.1012 0.28125,9.09375 -8.5078,41.61276 -7.4079,57.96337 -7.21875,77.40625 0.29261,30.07807 1.97136,47.52487 1.46875,56.93747 -0.47011,8.804 -2.6875,18.5938 -2.6875,18.5938 l 57.625,0 c -1.2174,-56.99434 8.00919,-79.18104 14.4375,-103.81252 6.42831,24.63148 15.62365,46.81818 14.40625,103.81252 l 57.625,0 c 0,0 -2.21739,-9.7898 -2.6875,-18.5938 -0.50261,-9.4126 1.17614,-26.8594 1.46875,-56.93747 0.18915,-19.44288 1.28905,-35.79349 -7.21875,-77.40625 -0.20293,-0.99255 0.0196,-7.32154 0.28125,-9.09375 0.26168,-1.77221 -0.27368,-3.81837 -1.84375,-5.84375 -1.57006,-2.02539 -0.24621,-4.80836 -1.03125,-10.125 l -61,6.875 -61,-6.875 z" style="color:#000000;fill:#353c49;fill-opacity:1;fill-rule:nonzero;stroke:none;stroke-width:0.2;marker:none;visibility:visible;display:inline;overflow:visible;enable-background:accumulate" />
    <path id="path3872" d="m 177.15625,734.17468 c 0,8.21428 -6.56657,13.73513 -10.1875,14.625 -17.80948,4.37679 -40.58002,7.76393 -50.375,24.65625 -7.36857,12.70775 -7.80633,24.70983 -7.5625,31.96875 0.1933,5.75487 -1.90431,9.73079 -5.46875,20.15625 -2.23635,6.541 -5.40051,13.26689 -6.65625,17.65625 -1.07589,3.76071 -2.60152,12.99925 -5.46875,32 -2.86975,19.01743 -6.31221,22.20258 -8.9375,27.125 -2.85715,5.35715 -3.56696,8.57589 3.21875,10.71875 6.78572,2.14286 12.14732,3.9241 15.71875,4.28125 3.57143,0.35714 12.48215,-1.40625 14.625,-3.90625 1.78188,-2.07886 1.59782,-1.01055 -2.96875,-8.25 -2.55068,-4.04364 -0.29794,-7.52085 -1,-9.65625 -2.94009,-8.9428 -1.3884,-19.96875 1.46875,-27.46875 2.85714,-7.5 13.57589,-28.19643 18.21875,-34.625 4.64286,-6.42857 11.4375,-30.375 11.4375,-30.375 4.54049,31.36572 2.11492,48.56658 -1.0625,63.21875 l 57.84375,0 57.84375,0 c -3.6281,-14.65217 -7.63114,-31.85303 -1.0625,-63.21875 0,0 6.79464,23.94643 11.4375,30.375 4.64286,6.42857 15.36161,27.125 18.21875,34.625 2.85715,7.5 4.40884,18.52595 1.46875,27.46875 -0.70206,2.1354 1.55068,5.61261 -1,9.65625 -4.56657,7.23945 -4.75063,6.17114 -2.96875,8.25 2.14285,2.5 11.05357,4.26339 14.625,3.90625 3.57143,-0.35715 8.93303,-2.13839 15.71875,-4.28125 6.78571,-2.14286 6.0759,-5.3616 3.21875,-10.71875 -2.62529,-4.92242 -6.06775,-8.10757 -8.9375,-27.125 -2.86723,-19.00075 -4.39286,-28.23929 -5.46875,-32 -1.25574,-4.38936 -4.4199,-11.11525 -6.65625,-17.65625 -3.56444,-10.42546 -5.66205,-14.40138 -5.46875,-20.15625 0.24383,-7.25892 -0.19393,-19.261 -7.5625,-31.96875 -9.79498,-16.89232 -32.56552,-20.27946 -50.375,-24.65625 -3.62093,-0.88987 -10.1875,-6.41072 -10.1875,-14.625 0,0 -15.11864,3.90625 -22.84375,3.90625 -7.72511,0 -22.84375,-3.90625 -22.84375,-3.90625 z" style="color:#000000;fill:#e1be92;fill-opacity:1;fill-rule:nonzero;stroke:none;stroke-width:3.54330707;marker:none;visibility:visible;display:inline;overflow:visible;enable-background:accumulate" />
    <path id="path4000" d="m 142.5,755.11218 c -10.63311,3.53665 -20.34985,8.76125 -25.90625,18.34375 -7.36857,12.70775 -7.80633,24.70983 -7.5625,31.96875 0.1933,5.75487 -1.90431,9.73079 -5.46875,20.15625 -2.23635,6.541 -5.40051,13.26689 -6.65625,17.65625 -1.07589,3.76071 -2.60152,12.99925 -5.46875,32 -2.86975,19.01743 -6.31221,22.20258 -8.9375,27.125 -2.85715,5.35715 -3.56696,8.57589 3.21875,10.71875 6.78572,2.14286 12.14732,3.9241 15.71875,4.28125 1.88856,0.18885 5.2547,-0.20169 8.34375,-1 l 0.5625,-0.40625 c -9.5866,1.97016 -19.34562,-2.02944 -25.53125,-4.25 -4.72514,-1.69625 -2.58482,-7.00893 -1.15625,-9.0625 2.30745,-3.31697 7.11173,-6.25163 8.625,-11.25 1.88377,-6.22213 3.87093,-10.88957 6.03125,-27.71875 1.56151,-12.1643 2.72668,-21.9725 4.90625,-29.15625 4.08279,-13.45665 10.34821,-24.64286 16.0625,-20 -3.21429,-12.14286 -2.11763,-25.89344 -1.4375,-30.34375 2.63115,-17.21643 15.20305,-23.36153 24.65625,-29.0625 z m 2.5,28.78125 c 0,0 -4.2998,10.36564 -5.5625,14.40625 -1.26269,4.04061 -2.28125,5.56076 -2.28125,8.84375 0,3.09308 1.35742,3.72658 3.625,4 1.46248,-4.61641 2.4375,-8.0625 2.4375,-8.0625 0.29242,2.02006 0.54485,3.96928 0.78125,5.875 l 3.5,-2.8125 -2.5,-22.25 z m -15.59375,53.21875 c -1.8672,2.40475 -4.75716,5.27914 -8.6875,6.4375 -3.98859,1.17552 -8.21875,-2.59375 -8.21875,-2.59375 0,0 3.60331,7.70676 9.8125,8.84375 2.47878,-4.72198 5.00736,-9.277 7.09375,-12.6875 z m -14.78125,28.4375 c -3.18427,6.21639 -4.82599,10.85299 -6.09375,14.65625 -1.64149,4.9245 -3.67227,8.73985 -5.1875,9.75 -1.51523,1.01015 1.13975,2.75508 2.78125,2.25 1.12079,-0.34486 3.42247,-0.26062 5.25,0.5 -1.84392,-8.35725 -0.34639,-17.92278 2.21875,-24.65625 0.26416,-0.69342 0.6437,-1.60268 1.03125,-2.5 z" style="color:#000000;fill:#b7764c;fill-opacity:1;fill-rule:nonzero;stroke:none;stroke-width:0.40000001;marker:none;visibility:visible;display:inline;overflow:visible;enable-background:accumulate" />
    <path id="path4279" d="m 111.71843,784.35429 c -3.15845,7.9041 -3.44206,15.96347 -3.26979,21.09197 0.12053,3.58841 -0.43844,6.51059 -1.54239,10.66592 1.10884,-0.9197 2.13539,-1.83677 2.75,-2.65625 2.14285,-2.85715 2.12053,-4.65625 1.40625,-7.15625 -0.65456,-2.29096 -0.71369,-9.73216 0.65593,-21.94539 z m 19.46907,49.94539 c -3.13633,3.84981 -7.58055,7.31676 -11.8125,7.8125 -3.10434,0.36365 -4.82143,0.004 -6.875,-1.15625 0,0 4.23016,3.76927 8.21875,2.59375 3.93034,-1.15836 6.8203,-4.03275 8.6875,-6.4375 0.63952,-1.04892 1.24505,-2.02359 1.78125,-2.8125 z m -33.84375,7.0625 c -0.21107,0.61676 -0.347219,1.22148 -0.5625,1.75 -1.454697,3.57131 -2.854058,12.74671 -5.721288,31.74746 -1.26972,8.41423 -2.373902,13.98396 -3.747462,17.72129 0.24045,-0.0712 0.46621,-0.23199 0.71875,-0.46875 4.04061,-3.78807 4.29727,-16.64435 5.8125,-20.9375 1.45536,-4.12352 1.07308,-10.73604 3.5,-29.8125 z" style="color:#000000;fill:#59341d;fill-opacity:1;fill-rule:nonzero;stroke:none;stroke-width:0.80000001;marker:none;visibility:visible;display:inline;overflow:visible;enable-background:accumulate" />
    <path style="color:#000000;fill:#b7764c;fill-opacity:1;fill-rule:nonzero;stroke:none;stroke-width:0.40000001;marker:none;visibility:visible;display:inline;overflow:visible;enable-background:accumulate" d="m 257.5,755.11218 c 10.63311,3.53665 20.34985,8.76125 25.90625,18.34375 7.36857,12.70775 7.80633,24.70983 7.5625,31.96875 -0.1933,5.75487 1.90431,9.73079 5.46875,20.15625 2.23635,6.541 5.40051,13.26689 6.65625,17.65625 1.07589,3.76071 2.60152,12.99925 5.46875,32 2.86975,19.01743 6.31221,22.20258 8.9375,27.125 2.85715,5.35715 3.56696,8.57589 -3.21875,10.71875 -6.78572,2.14286 -12.14732,3.9241 -15.71875,4.28125 -1.88856,0.18885 -5.2547,-0.20169 -8.34375,-1 l -0.5625,-0.40625 c 9.5866,1.97016 19.34562,-2.02944 25.53125,-4.25 4.72514,-1.69625 2.58482,-7.00893 1.15625,-9.0625 -2.30745,-3.31697 -7.11173,-6.25163 -8.625,-11.25 -1.88377,-6.22213 -3.87093,-10.88957 -6.03125,-27.71875 -1.56151,-12.1643 -2.72668,-21.9725 -4.90625,-29.15625 -4.08279,-13.45665 -10.34821,-24.64286 -16.0625,-20 3.21429,-12.14286 2.11763,-25.89344 1.4375,-30.34375 C 279.5251,766.95825 266.9532,760.81315 257.5,755.11218 z m -2.5,28.78125 c 0,0 4.2998,10.36564 5.5625,14.40625 1.26269,4.04061 2.28125,5.56076 2.28125,8.84375 0,3.09308 -1.35742,3.72658 -3.625,4 -1.46248,-4.61641 -2.4375,-8.0625 -2.4375,-8.0625 -0.29242,2.02006 -0.54485,3.96928 -0.78125,5.875 l -3.5,-2.8125 2.5,-22.25 z m 15.59375,53.21875 c 1.8672,2.40475 4.75716,5.27914 8.6875,6.4375 3.98859,1.17552 8.21875,-2.59375 8.21875,-2.59375 0,0 -3.60331,7.70676 -9.8125,8.84375 -2.47878,-4.72198 -5.00736,-9.277 -7.09375,-12.6875 z m 14.78125,28.4375 c 3.18427,6.21639 4.82599,10.85299 6.09375,14.65625 1.64149,4.9245 3.67227,8.73985 5.1875,9.75 1.51523,1.01015 -1.13975,2.75508 -2.78125,2.25 -1.12079,-0.34486 -3.42247,-0.26062 -5.25,0.5 1.84392,-8.35725 0.34639,-17.92278 -2.21875,-24.65625 -0.26416,-0.69342 -0.6437,-1.60268 -1.03125,-2.5 z" id="path4298" />
    <path style="color:#000000;fill:#59341d;fill-opacity:1;fill-rule:nonzero;stroke:none;stroke-width:0.80000001;marker:none;visibility:visible;display:inline;overflow:visible;enable-background:accumulate" d="m 288.3447,784.36218 c 2.90142,8.56608 3.13273,15.57686 2.96046,20.70536 -0.12053,3.58841 0.63773,6.84467 1.78859,11.04464 -1.10884,-0.9197 -2.13539,-1.83677 -2.75,-2.65625 -2.14285,-2.85715 -2.12053,-4.65625 -1.40625,-7.15625 0.65456,-2.29096 0.77682,-9.72427 -0.5928,-21.9375 z m -19.5322,49.9375 c 3.13633,3.84981 7.58055,7.31676 11.8125,7.8125 3.10434,0.36365 4.82143,0.004 6.875,-1.15625 0,0 -4.23016,3.76927 -8.21875,2.59375 -3.93034,-1.15836 -6.8203,-4.03275 -8.6875,-6.4375 -0.63952,-1.04892 -1.24505,-2.02359 -1.78125,-2.8125 z m 33.84375,7.0625 c 0.21107,0.61676 0.62401,1.57507 0.83036,2.10714 1.70089,4.38571 2.51223,12.64211 5.37946,31.64286 1.26972,8.41423 2.44787,13.73142 3.82143,17.46875 -0.24045,-0.0712 -0.46621,-0.23199 -0.71875,-0.46875 -4.04061,-3.78807 -4.29727,-16.64435 -5.8125,-20.9375 -1.45536,-4.12352 -1.07308,-10.73604 -3.5,-29.8125 z" id="path4300" />
    <path id="path4536" d="m 293.43118,899.83093 c 1.38896,0.25254 3.15498,2.01856 3.28125,3.28125 0.12627,1.2627 -0.88135,2.64356 -0.25,3.90625 0.097,0.69217 1.76018,0.4743 2.96875,0.8125 l -1.78125,0.90625 1.96875,0.4375 -2.25,0.6875 c 3.65421,0.78641 3.20582,1.4044 1.84375,1.3125 -1.94203,-0.13109 -4.17639,-0.23082 -5.28125,0.96875 -1.18841,1.29028 -1.5211,1.68497 -2.53125,1.9375 -1.01016,0.25254 -1.2538,0.39863 -0.875,1.15625 0.37881,0.75761 0.48696,0.95919 0.48696,0.95919 -0.35155,-0.0422 -0.68935,-0.0661 -1.10088,-0.18826 -0.96577,-0.23265 -1.19983,-0.0299 -2.07358,-0.33343 l -3.3516,-1.8936 c -0.79339,-0.88797 -1.96076,-1.37755 -1.54048,-2.36525 0.19874,-0.46707 0.5362,-1.01059 1.11686,-1.8901 -0.39524,1.48624 0.57762,2.20226 1.55425,2.65054 1.14829,0.52707 2.49715,0.62468 3.00222,0.49841 0.50508,-0.12627 2.96083,-0.75808 3.75,-3.0625 0.37881,-1.01015 2.24747,-4.48604 2.5,-5.875 0.25254,-1.38896 -0.0501,-2.27966 -1.28125,-2.4375 -0.51639,-0.0662 -1.1664,-1.46875 -0.15625,-1.46875 z" style="color:#000000;fill:#59341d;fill-opacity:1;fill-rule:nonzero;stroke:none;stroke-width:0.80000001;marker:none;visibility:visible;display:inline;overflow:visible;enable-background:accumulate" />
    <path style="color:#000000;fill:#000000;fill-opacity:1;fill-rule:nonzero;stroke:none;stroke-width:0.2;marker:none;visibility:visible;display:inline;overflow:visible;enable-background:accumulate" d="m 295.8428,902.20593 c 0,0 0.25,1.89483 0.25,3.03125 0,1.13642 -0.50761,2.65625 0.25,2.65625 l 2.53125,0 -1.78125,0.90625 2.15625,0.375 -2.53125,0.625 6.3125,1.625 c 0,0 -2.16085,-0.1212 -4.8125,-0.5 -2.65165,-0.37881 -4.64864,0.64483 -5.40625,1.78125 -0.75762,1.13643 -3.67989,1.49746 -4.4375,1.75 -0.75762,0.25254 0.77363,0.77491 1.53125,1.40625 0.21271,0.17726 0.32155,0.34805 0.375,0.53125 -2.80883,-0.70753 -5.40875,-1.73729 -6.4375,-2.9375 -0.81966,-0.95628 -1.35609,-1.36086 -0.71463,-2.43591 0.69413,0.1999 1.1838,1.16498 2.02903,1.53315 1.25218,0.54543 2.85406,0.91038 4.7481,0.15276 1.89403,-0.75761 3.03332,-1.78743 5.9375,-10.5 z" id="path4302" />
    <path id="path3992" d="m 153.40625,752.01843 c -0.26111,0.0647 -0.51996,0.12186 -0.78125,0.1875 -7.42751,30.88916 -11.77934,39.21605 -12.70806,50.63766 l 0.52405,0.71319 c 0.98993,-11.42257 5.42091,-19.90073 12.96526,-51.53835 z" style="color:#000000;fill:#000000;fill-opacity:1;fill-rule:nonzero;stroke:none;stroke-width:3.54330707;marker:none;visibility:visible;display:inline;overflow:visible;enable-background:accumulate" />
    <path id="path4140" d="m 176.78125,737.51843 c -0.8008,3.51261 -2.77875,6.3764 -4.90625,8.34375 -0.19246,0.82457 -0.25059,1.06506 -0.4375,1.875 -0.53571,2.32143 -4.11607,4.11607 -5.1875,5.1875 -0.80357,0.80357 -2.90053,1.01479 -3.90625,1.0625 l 1.59375,0 c 1.60714,0 3.375,0.52232 4.625,-0.90625 1.25,-1.42857 4.30357,0.0223 6.625,1.09375 2.32143,1.07143 2.66964,-0.004 4.8125,-0.71875 2.14286,-0.71429 5.37053,-0.004 8.40625,0.53125 3.03571,0.53571 6.05804,2.84375 11.59375,2.84375 5.53571,0 8.55804,-2.30804 11.59375,-2.84375 3.03572,-0.53525 6.26339,-1.24554 8.40625,-0.53125 2.14286,0.71475 2.49107,1.79018 4.8125,0.71875 2.32143,-1.07145 5.375,-2.52232 6.625,-1.09375 1.25,1.42857 3.01786,0.90625 4.625,0.90625 l 1.59375,0 c -1.00572,-0.0477 -3.10268,-0.25893 -3.90625,-1.0625 -1.07143,-1.07143 -4.65179,-2.86607 -5.1875,-5.1875 -0.18691,-0.80994 -0.24504,-1.05043 -0.4375,-1.875 -2.1275,-1.96735 -4.10545,-4.83114 -4.90625,-8.34375 l -19.8125,9.15625 -3.40625,1.59375 -3.40625,-1.59375 -19.8125,-9.15625 z" style="color:#000000;fill:#d4a06a;fill-opacity:1;fill-rule:nonzero;stroke:none;stroke-width:0.80000001;marker:none;visibility:visible;display:inline;overflow:visible;enable-background:accumulate" />
    <path id="path4142" d="m 176.78125,737.51843 c -0.56853,2.49382 -1.73914,4.66104 -3.125,6.40625 1.83015,0.7084 4.16221,1.28667 7.28125,1.6875 7.08367,0.91032 12.61134,8.85775 19.0625,8.84375 6.45116,0.014 11.97883,-7.93343 19.0625,-8.84375 3.11904,-0.40083 5.4511,-0.9791 7.28125,-1.6875 -1.38586,-1.74521 -2.55647,-3.91243 -3.125,-6.40625 l -19.8125,9.15625 -3.40625,1.59375 -3.40625,-1.59375 -19.8125,-9.15625 z" style="color:#000000;fill:#b7764c;fill-opacity:1;fill-rule:nonzero;stroke:none;stroke-width:3.54330707;marker:none;visibility:visible;display:inline;overflow:visible;enable-background:accumulate" />
    <path id="path3922" d="m 177.15625,734.17468 c 0,2.56696 -0.63276,4.86198 -1.625,6.84375 1.55368,1.44996 4.15754,2.51073 8.9375,3.125 5.76678,0.74108 10.26217,7.28464 15.53125,7.125 5.26908,0.15964 9.76447,-6.38392 15.53125,-7.125 4.77996,-0.61427 7.38382,-1.67504 8.9375,-3.125 -0.99224,-1.98177 -1.625,-4.27679 -1.625,-6.84375 L 200,738.08093 177.15625,734.17468 z" style="color:#000000;fill:#59341d;fill-opacity:1;fill-rule:nonzero;stroke:none;stroke-width:3.54330707;marker:none;visibility:visible;display:inline;overflow:visible;enable-background:accumulate" />
    <path id="path4186" d="m 177.15625,734.17468 c 0,1.3095 0.0431,1.52503 -0.25,2.6875 7.65507,3.26772 14.11154,4.75025 16.28125,5.875 3.70703,1.92168 6.3092,1.6875 6.8125,1.6875 0.5033,0 3.10547,0.23418 6.8125,-1.6875 2.16971,-1.12475 8.62618,-2.60728 16.28125,-5.875 -0.29309,-1.16247 -0.25,-1.378 -0.25,-2.6875 L 200,738.08093 177.15625,734.17468 z" style="color:#000000;fill:#000000;fill-opacity:1;fill-rule:nonzero;stroke:none;stroke-width:3.54330707;marker:none;visibility:visible;display:inline;overflow:visible;enable-background:accumulate" />
    <path id="path3021" d="m 199.375,619.51843 c 0,0 -29.72321,0.35268 -46.6875,9.28125 -16.96428,8.92857 -21.06697,30.53571 -18.03125,46.25 3.03571,15.71428 8.92857,20.01339 20,40.90625 11.07143,20.89285 38.88729,25.71875 44.71875,25.71875 5.83146,0 33.64732,-4.8259 44.71875,-25.71875 11.07143,-20.89286 16.96429,-25.19197 20,-40.90625 3.03572,-15.71429 -1.06697,-37.32143 -18.03125,-46.25 -16.96429,-8.92857 -46.6875,-9.28125 -46.6875,-9.28125 z" style="color:#000000;fill:#e1be92;fill-opacity:1;fill-rule:nonzero;stroke:none;stroke-width:3.54330707;marker:none;visibility:visible;display:inline;overflow:visible;enable-background:accumulate" />
    <path style="color:#000000;fill:#59341d;fill-opacity:1;fill-rule:nonzero;stroke:none;stroke-width:3.54330707;marker:none;visibility:visible;display:inline;overflow:visible;enable-background:accumulate" d="m 184.6875,699.08093 c 6.16071,4.89889 12.1875,5.89286 14.6875,5.89286 2.5,0 8.97321,-0.26918 14.6875,-5.89286 -6.0885,1.55343 -9.7668,2.17962 -14.6875,2.17962 -4.9207,0 -9.224,-0.36359 -14.6875,-2.17962 z" id="path4477" />
    <path id="path3002" d="m 184.6875,699.08093 c 4.28571,3.81696 12.1875,4.55357 14.6875,4.55357 2.5,0 12.36607,-1.09375 14.6875,-4.55357 -6.0885,1.05633 -9.7668,1.48214 -14.6875,1.48214 -4.9207,0 -9.224,-0.24724 -14.6875,-1.48214 z" style="color:#000000;fill:#000000;fill-opacity:1;fill-rule:nonzero;stroke:none;stroke-width:3.54330707;marker:none;visibility:visible;display:inline;overflow:visible;enable-background:accumulate" />
    <path id="path3011" d="m 199.375,713.76843 c -5.1755,0 -10.29736,1.92245 -13.75,4.96875 4.21415,-1.46196 8.99454,-2.5 13.75,-2.5 4.75546,0 9.53585,1.03804 13.75,2.5 -3.45264,-3.0463 -8.5745,-4.96875 -13.75,-4.96875 z" style="color:#000000;fill:#000000;fill-opacity:1;fill-rule:nonzero;stroke:none;stroke-width:3.54330707;marker:none;visibility:visible;display:inline;overflow:visible;enable-background:accumulate" />
    <path style="color:#000000;fill:#59341d;fill-opacity:1;fill-rule:nonzero;stroke:none;stroke-width:3.54330707;marker:none;visibility:visible;display:inline;overflow:visible;enable-background:accumulate" d="m 192.00893,722.44222 c 0,0 4.74289,4.37678 7.36607,4.37678 2.62319,0 7.36606,-4.37678 7.36606,-4.37678 -4.91071,1.28446 -9.82142,1.2317 -14.73213,0 z" id="path4457" />
    <path id="path3013" d="m 192.00893,722.44222 c 0,0 4.74289,3.12678 7.36607,3.12678 2.62319,0 7.36606,-3.12678 7.36606,-3.12678 -4.91071,0.91762 -9.82142,0.87993 -14.73213,0 z" style="color:#000000;fill:#000000;fill-opacity:1;fill-rule:nonzero;stroke:none;stroke-width:3.54330707;marker:none;visibility:visible;display:inline;overflow:visible;enable-background:accumulate" />
    <path id="path4447" d="m 199.375,619.51843 c 0,0 -29.72321,0.35268 -46.6875,9.28125 -16.96428,8.92857 -21.06697,30.53571 -18.03125,46.25 3.03571,15.71428 8.92857,20.01339 20,40.90625 11.07143,20.89285 38.88729,25.71875 44.71875,25.71875 5.83146,0 33.64732,-4.8259 44.71875,-25.71875 11.07143,-20.89286 16.96429,-25.19197 20,-40.90625 3.03572,-15.71429 -1.06697,-37.32143 -18.03125,-46.25 -16.96429,-8.92857 -46.6875,-9.28125 -46.6875,-9.28125 z m 15.63839,9.29018 c 0,0 6.06696,1.79465 19.28125,8.22321 2.90819,1.4148 10.72897,7.98141 14.27679,12.12054 3.21429,3.75001 6.79017,11.09375 7.14732,17.52232 0.35714,6.42857 -4.64286,14.625 -7.5,19.625 -2.85715,5 -8.9375,10.71875 -16.4375,13.21875 -7.5,2.5 -12.50893,7.50446 -13.9375,10.71875 -1.42857,3.21429 1.45089,5.35268 6.09375,9.28125 4.64286,3.92858 0.35267,11.41965 -3.21875,13.5625 -3.57143,2.14286 -17.49107,4.65625 -23.5625,4.65625 -6.07143,0 -17.86608,-3.94643 -21.4375,-7.875 -3.57143,-3.92857 -3.21875,-10.35715 -0.71875,-12.5 2.5,-2.14286 6.07589,-2.83036 3.21875,-8.1875 -2.85715,-5.35714 -20.36607,-12.52232 -26.4375,-18.59375 -6.07142,-6.07143 -5,-16.41964 -5,-23.5625 0,-7.14285 9.71292,-20.45375 24.94196,-28.17411 0,0 23.28572,-6.82589 24.71429,-6.82589 1.42857,0 18.57589,-3.20982 18.57589,-3.20982 z" style="color:#000000;fill:#d4a06a;fill-opacity:1;fill-rule:nonzero;stroke:none;stroke-width:3.54330707;marker:none;visibility:visible;display:inline;overflow:visible;enable-background:accumulate" />
    <path id="path4450" d="m 157.716,645.74898 c -10.29381,2.0066 -16.39728,12.12517 -23.966,19.58195 0.008,3.36944 0.31517,6.65904 0.90625,9.71875 3.03571,15.71428 8.92857,20.01339 20,40.90625 4.05537,7.65287 10.35479,13.13732 17,17.03125 -4.90759,-5.8926 -3.73969,-11.94154 -2.35073,-14.1875 1.87847,-3.03751 7.47573,-5.71875 7.47573,-5.71875 0,0 -7.46887,-6.33024 -16.4375,-10.34375 -9.71701,-4.34841 -12.13839,-10.375 -14.28125,-15.375 -2.14286,-5 -3.11382,-16.02731 -1.78125,-23.90625 1.14755,-6.78499 6.74249,-13.09813 13.43475,-17.70695 z" style="color:#000000;fill:#59341d;fill-opacity:1;fill-rule:nonzero;stroke:none;stroke-width:0.2;marker:none;visibility:visible;display:inline;overflow:visible;enable-background:accumulate" />
    <path style="color:#000000;fill:#59341d;fill-opacity:1;fill-rule:nonzero;stroke:none;stroke-width:0.2;marker:none;visibility:visible;display:inline;overflow:visible;enable-background:accumulate" d="m 243.42563,640.45326 c 14.57952,3.97088 17.762,11.88518 21.75929,24.87767 -0.008,3.36944 -0.31517,6.65904 -0.90625,9.71875 -3.03571,15.71428 -8.92857,20.01339 -20,40.90625 -4.05537,7.65287 -10.35479,13.13732 -17,17.03125 8.0941,-8.69824 4.14096,-16.0492 -5.65808,-20.98219 0,0 0.85909,-4.36144 9.82772,-8.37495 9.71701,-4.34841 14.36882,-10.16163 17.67411,-14.48215 9.30208,-12.15922 9.70279,-22.08056 8.20982,-29.7991 -1.30681,-6.75612 -4.35721,-12.501 -13.90661,-18.89553 z" id="path4455" />
    <path transform="translate(0,502.36218)" id="path4479" d="m 200.76782,155.03035 c -0.48404,-4.68774 0.69787,-9.69625 1.40762,-14.68243 -5.25501,9.01959 -12.26965,15.85518 -19.84291,20.23827 3.8074,-3.87225 6.293,-7.7445 7.07107,-11.61675 l 15.15229,-14.89975 5.91762,6.68574 c -3.92678,3.24621 -7.25571,5.17816 -9.70569,14.27492 z" style="color:#000000;fill:#59341d;fill-opacity:1;fill-rule:nonzero;stroke:none;stroke-width:0.2;marker:none;visibility:visible;display:inline;overflow:visible;enable-background:accumulate" />
    <path id="path3030" d="m 200.28125,608.39343 c 1.58017,1.34687 4.09043,2.68438 2.53125,4.03125 -5.96464,-2.68584 -13.77162,-4.52605 -20.4375,-3.78125 5.23025,1.25713 11.9195,1.793 13.625,4.8125 -8.83884,-3.21223 -18.94241,-3.60233 -26.53125,-2.28125 5.85735,1.02087 9.22198,0.0833 16.9375,4.03125 -9.6615,-2.16197 -21.77157,-3.2637 -29.03125,-1.25 5.90421,1.06498 12.78436,2.01477 14.625,3.53125 0,0 -9.09105,-2.52792 -18.6875,0.25 -8.77682,2.54066 -11.99211,0.27598 -17.875,1.71875 l -16.5,-4.21875 c 4.37665,3.2094 8.10333,7.72284 13.65625,8.53125 -4.46151,2.59626 -9.47521,-0.51529 -13.84375,-3 2.45683,3.02083 4.45679,6.04167 8.25,9.0625 -0.0288,0.0743 -0.0653,0.14415 -0.0937,0.21875 -3.3316,0.13638 -5.4375,-1.17857 -10.4375,-6 1.96442,5.37624 4.61554,9.36041 7.6875,11.84375 -3.30714,-1.41527 -5.68771,-3.02828 -8.6875,-7.125 3.03571,10 8.09375,13.1875 8.09375,13.1875 -2.10036,0.28638 -4.63506,0.22528 -9.09375,-1.375 3.43503,2.74645 5.39262,4.83368 9.4375,6.15625 2.47174,0.8082 3.93604,2.62632 4.875,4.875 -2.04136,-0.36567 -4.74981,-1.64757 -7.53125,-3 3.19405,4.60408 6.09554,6.96267 8.9375,8.75 0.37564,2.86101 0.4912,5.72661 0.90625,7.84375 1.21965,5.85971 3.96481,11.89115 4,11.96875 l 0,0.0312 c 1.88596,8.35679 4.75904,13.5005 9,20.5 2.85076,4.70594 6.32411,10.25174 10.5625,18.25 3.35143,6.32447 8.2479,11.152 13.59375,14.84375 -5.40617,-11.04524 0.79993,-17.50872 8.53125,-17.34375 -9.10714,-7.85715 -21.50618,-6.93168 -28.5,-18.15625 -3.77762,-6.06281 -6.01758,-14.64324 -6.34375,-21.21875 -0.30054,-6.05873 0.34845,-12.58913 3.75,-18 3.40156,-5.41088 9.06146,-9.42574 14.4375,-11.3125 7.49998,-2.63218 22.54948,-3.8804 25.53125,1.28125 3.2986,6.47549 -2.33904,10.70988 -11.125,16.375 18.73963,-6.60953 21.75531,-12.89653 28.28125,-21.71875 -1.56706,5.1366 -4.20197,11.62937 -3.28125,13.65625 3.50956,-7.3716 9.38062,-10.57963 13.625,-12.61571 6.35379,-3.048 12.90961,-4.38876 17.96703,-4.38876 5.05742,0 12.26707,2.17601 17.93887,6.53161 6.07813,4.66764 7.7778,8.37141 9.18912,12.80834 2.17272,6.83063 1.19675,16.26679 -1.15244,21.0281 -2.6912,5.4545 -6.16942,12.01907 -9.01111,15.2815 -11.03914,12.6736 -19.46917,10.56138 -26.46718,18.99778 12.16193,1.62213 13.63542,8.27286 11.25446,17.07589 4.40422,-3.43926 8.37105,-7.75112 11.21875,-13.125 5.5959,-10.56 9.844,-16.89546 13.09375,-22.59375 3.17109,-5.56493 5.407,-10.55167 6.90625,-18.3125 0.89139,-4.61424 1.17196,-9.74602 0.6875,-14.90625 -0.22141,-7.88584 -0.50013,-13.15207 -0.65625,-20.5625 -0.0201,-0.95358 0.0428,-2.01738 0.15625,-3.125 1.17904,-3.32116 2.82855,-6.86057 3.21875,-7.46875 -0.58715,-0.0261 -1.34829,0.57066 -2.1875,1.46875 0.15403,-0.70185 0.29367,-1.40949 0.46875,-2.125 0.61075,-2.49594 1.28737,-6.46338 4.875,-10.0625 -2.62921,1.13291 -5.35656,3.68897 -6.78125,5.125 0.94121,-2.43184 3.6619,-9.04712 4.0625,-11.625 -3.11387,2.40011 -6.91032,8.09381 -7.96875,8.75 0.77996,-2.10972 2.72836,-6.88476 1.5,-9.65625 -1.21974,5.27993 -4.48266,8.447 -5.78125,9.96875 0.35868,-2.45982 2.10755,-6.99176 0.78125,-11.125 -0.64947,3.61821 -2.60381,7.82176 -4,9.625 -0.90779,-1.32973 -0.40993,-4.17586 -0.75,-7.875 -0.73969,1.78559 -1.4656,3.61861 -2.40625,4.03125 -1.69643,1.25 -6.77695,0.91259 -8.5,-1.25 0.11965,-0.57376 0.67556,-1.22023 2.21875,-2.03125 -3.18181,0.44126 -6.40507,0.73712 -9.125,3.71875 -1.18821,-2.03478 0.0281,-3.57339 3.78125,-4.96875 -5.17857,-0.53571 -6.80342,1.8713 -9.78125,1.96875 -9.67587,0.31663 -17.48998,-3.82002 -27.625,-4.53125 z M 267.5,628.98718 c 0.0304,0.001 0.0642,-0.005 0.0937,0 0.0339,-0.12753 -0.0179,-0.11814 -0.0937,0 z" style="color:#000000;fill:#000000;fill-opacity:1;fill-rule:nonzero;stroke:none;stroke-width:3.54330707;marker:none;visibility:visible;display:inline;overflow:visible;enable-background:accumulate" />
    <path id="path4389" transform="translate(0,502.36218)" d="m 138.03125,372 c -0.78504,5.31664 0.50756,8.09961 -1.0625,10.125 -0.71144,0.91775 -1.19135,1.85114 -1.5,2.75 -0.052,-0.12756 -0.10856,-0.2454 -0.15625,-0.375 0.0121,0.172 0.037,0.40748 0.0625,0.625 -0.003,0.009 0.003,0.022 0,0.0312 -0.29739,0.98624 -0.38084,1.9264 -0.25,2.8125 0.26167,1.77221 -1.03105,8.1012 -1.23398,9.09375 -8.5078,41.61276 -7.4079,57.96337 -7.21875,77.40625 0.29261,30.07807 1.97136,47.5249 1.46875,56.9375 -0.47011,8.804 -2.6875,18.59375 -2.6875,18.59375 l 19.82773,0 c -1.95517,-5.21452 -8.87156,-15.17466 -5.72619,-24.16355 2.39918,-6.8564 -5.17996,-10.89744 -5.36854,-16.81845 -0.22342,-7.01494 5.22194,-9.13391 5.75098,-14.42425 0.49796,-4.97962 -6.44457,-8.98511 -4.70393,-13.40318 1.87302,-4.75408 9.41866,-6.40694 9.42207,-11.44041 0.003,-3.7084 -7.58764,-7.62339 -7.09314,-11.93766 1.63787,-14.28943 9.30655,-13.26791 9.48623,-19.81111 0.10876,-3.96015 -5.18688,-11.5777 -4.39248,-15.15764 0.52784,-2.37869 8.80719,-0.13114 9.49927,-3.41627 0.3976,-1.8873 -9.81808,-3.29157 -8.9213,-10.17529 0.30811,-2.36506 5.60037,-0.43441 10.73772,-0.29881 5.09909,0.13459 10.04295,-1.53071 10.5058,-2.56038 0.52982,-1.17864 -5.79382,0.0174 -10.67156,-1.32369 -4.54924,-1.25082 -7.65669,-5.05377 -7.71243,-5.78806 -0.1478,-1.94692 -0.32791,-4.18277 3.46875,-3.90625 1.91494,0.13947 6.6632,-0.91076 8.125,-1.78125 4.06827,-2.42262 8.26252,-9.66721 9.25,-11.4375 9.19191,2.3607 17.86341,4.45442 19.4375,4.5625 3.47255,0.23844 3.79295,3.84375 14.15625,3.84375 3.99619,0 10.48318,-0.92323 12.125,-4.40625 0.44406,-0.94205 5.17673,-1.81894 10.96875,-2.8125 0.48621,0.38927 8.61522,6.90244 11.5625,9.15625 3.03572,2.32143 3.20536,2.33036 7.3125,3.9375 1.67783,0.65654 3.48267,0.99853 4.78125,1.5 7.94502,3.06809 11.16226,9.40268 13.0625,15.6875 2.27525,7.52514 6.33613,23.48207 7.09375,34.59375 0.72231,10.59403 0.26015,27.55044 -0.75,41.1875 -1.01016,13.63707 0,23.71685 0,36.34375 0,9.2472 -1.35644,16.8648 -2.875,24.25 l 8.76015,0 c 0,0 -2.21739,-9.78975 -2.6875,-18.59375 -0.50261,-9.4126 2.22911,-37.96725 1.46875,-56.9375 -1.03918,-25.92666 0.27975,-35.79366 -8.2289,-77.40625 -0.25612,-1.25259 -0.50539,-2.4022 -0.53125,-3.65625 -0.0192,-0.92982 0.0508,-2.02457 0.125,-3.0625 0.0207,-0.35071 0.0417,-0.6581 0.0625,-0.96875 0.0382,-0.57141 0.0775,-1.08422 0.125,-1.40625 0.0283,-0.19157 0.0531,-0.39615 0.0625,-0.59375 0.0772,-1.6304 -0.5059,-3.44355 -1.90625,-5.25 -1.17667,-1.51792 -0.71716,-3.47367 -0.75,-6.59375 -10e-5,-0.01 1.1e-4,-0.0215 0,-0.0312 -0.005,-0.41912 -0.0331,-0.88264 -0.0625,-1.34375 -0.043,-0.67521 -0.10321,-1.3739 -0.21875,-2.15625 l -29.625,3.34375 -6.46875,1.8125 c 0,0 -7.14879,0.19295 -12.6875,0.34375 L 200.03125,378.875 191.375,378 c -2.58496,0.0649 -7.80997,0.21875 -8.15625,0.21875 -0.75562,0 -6.98621,-1.25449 -13.65625,-2.65625 l -24.6875,-2.6875 -0.75,0.84375 z m 5.90625,3.8125 c 2.71961,0.93624 10.04232,2.93575 17.90625,5 0.45018,3.32116 -2.80347,3.77627 -3.6875,3.4375 -6.91151,-2.64856 -9.37725,-0.68875 -8.46875,-0.1875 1.29464,0.71429 1.96429,0.75447 4.0625,0.84375 2.09821,0.0893 2.13285,2.29576 1.65625,3.71875 -0.55285,1.65065 -4.37045,3.2449 -9.375,3.3125 -2.78767,-0.20829 -5.66503,-1.83777 -6.1875,-2.875 -1.55677,-3.09053 -0.9386,-5.93298 -0.5625,-7.4375 0.62371,-2.49487 3.09116,-4.00476 4.65625,-5.8125 z m 109.71875,2.03125 c 1.83782,-0.0305 3.18116,0.12991 3.8125,0.9375 0.93322,1.19374 1.89229,3.65832 3.28125,6.5625 1.32827,2.77729 0.2138,2.59288 -2.09375,5.21875 -1.11671,0.34465 -2.47237,0.57776 -4.1875,0.78125 -5.26786,0.625 -8.85715,3.1116 -11.625,2.21875 -0.77527,-0.25009 -1.64737,-0.55376 -2.53125,-0.875 -1.32643,-0.61681 -2.73191,-1.41212 -4.15625,-2.375 0.44508,-0.76865 1.35459,-1.95278 2.78125,-2.25 2.14285,-0.44643 4.82579,-0.93722 4.28125,-2.5 -0.47455,-1.3619 -3.84821,-0.28125 -6.4375,0.34375 -1.71765,0.41461 -3.31567,1.0377 -4.4375,1.5 -1.66806,-1.38436 -3.36269,-2.98024 -5.0625,-4.6875 4.24969,-0.73636 8.70366,-1.54757 12.3125,-2.53125 4.75235,-1.29537 7.30223,-2.06394 10.25,-2.1875 1.43941,-0.0603 2.70981,-0.13796 3.8125,-0.15625 z m -91.125,5.5 c -0.36263,0.93687 -0.91202,2.06006 -1.75,3.21875 z" style="color:#000000;fill:#121117;fill-opacity:1;fill-rule:nonzero;stroke:none;stroke-width:0.2;marker:none;visibility:visible;display:inline;overflow:visible;enable-background:accumulate" />
    <path id="path3934" d="m 259.51786,873.48718 c -0.0794,-0.40595 -0.1677,-0.742 -0.25,-0.9375 -0.41599,-0.98778 -0.23856,-1.72792 0.28125,-2.46875 0.5198,-0.74084 -1.31448,-1.94953 -0.90625,-4.4375 0.24676,-1.50386 0.71921,-2.27144 -0.9375,-3.96875 -0.92221,-1.37148 -1.19293,-3.58745 -0.71875,-5.28125 0.41358,-1.47734 0.28125,-1.98985 0.28125,-3 0,-1.01016 -1.11353,-4.28125 -1.59375,-4.28125 -0.48022,0 -1.25316,-2.86738 0.1875,-3.625 1.01739,-0.60308 -0.503,-2.53516 -1,-4.34375 -0.3978,-1.44762 0.5274,-2.13515 -0.625,-3.65625 -1.29472,-1.70896 -0.15842,-5.84405 0.59375,-14.6875 0.81513,-9.58381 5.07589,-17.9375 5.07589,-17.9375 -0.75761,-12.12183 -5.23382,-20.01379 -13.0625,-52.84375 -2.04977,-0.5081 -4.08006,-1.00061 -6.09375,-1.46875 0.37791,2.57569 0.90416,5.89094 1.625,9.375 1.53497,7.41902 -4.28362,11.59454 -13.375,14.625 -10.16447,3.38816 -19.65863,4.0625 -28.875,4.0625 -9.21637,0 -18.71053,-0.67434 -28.875,-4.0625 -9.09138,-3.03046 -14.90997,-7.20598 -13.375,-14.625 0.72084,-3.48406 1.24709,-6.79931 1.625,-9.375 -2.01369,0.46814 -4.04398,0.96065 -6.09375,1.46875 -7.82868,32.82996 -12.30489,40.72192 -13.0625,52.84375 0,0 3.58482,8.22768 3.22768,19.65625 -0.35714,11.42858 4.01462,12.92481 2.09375,14.1875 -1.92088,1.26269 -0.71045,4.30743 0.25,4.8125 0.96043,0.50508 0.2219,0.99239 -1.21875,1.75 -1.44066,0.75762 -1.94066,3.02364 -0.5,3.78125 1.44066,0.75762 0.48022,2.03125 0,2.03125 -0.48022,0 -1.90625,2.02109 -1.90625,3.03125 0,1.01015 1.92762,0.76602 1.6875,2.28125 -0.24011,1.51523 -1.70728,0.76348 -2.1875,2.53125 -0.48022,1.76777 1.46875,1.48731 1.46875,2.75 0,1.26269 -1.1958,4.0625 -2.15625,4.0625 -0.96043,0 -1.70055,2.52363 -0.5,3.28125 1.20055,0.75761 0.0233,2.7711 -0.9375,3.78125 -0.19009,0.19993 -0.37921,0.5536 -0.5625,0.96875 20.50152,5.83018 38.97234,11.90766 61.02232,11.8125 22.01456,-0.095 50.23234,-7.14972 59.39286,-12.09375 z" style="color:#000000;fill:#ffffff;fill-opacity:1;fill-rule:nonzero;stroke:none;stroke-width:3.54330707;marker:none;visibility:visible;display:inline;overflow:visible;enable-background:accumulate" />
    <path style="color:#000000;fill:url(#linearGradient4343);fill-opacity:1;fill-rule:nonzero;stroke:none;stroke-width:3.54330707;marker:none;visibility:visible;display:inline;overflow:visible;enable-background:accumulate" d="m 259.52683,873.73972 c -0.0794,-0.40595 -0.1677,-0.742 -0.25,-0.9375 -0.41599,-0.98778 -0.23856,-1.72792 0.28125,-2.46875 0.5198,-0.74084 -1.31448,-1.94953 -0.90625,-4.4375 0.24676,-1.50386 0.71921,-2.27144 -0.9375,-3.96875 -0.92221,-1.37148 -1.19293,-3.58745 -0.71875,-5.28125 0.41358,-1.47734 0.28125,-1.98985 0.28125,-3 0,-1.01016 -1.11353,-4.28125 -1.59375,-4.28125 -0.48022,0 -1.25316,-2.86738 0.1875,-3.625 1.01739,-0.60308 -0.503,-2.53516 -1,-4.34375 -0.3978,-1.44762 0.5274,-2.13515 -0.625,-3.65625 -1.29472,-1.70896 -0.82634,-5.92647 0.59375,-14.6875 1.35085,-8.33381 5.22383,-18.19004 5.22383,-18.19004 -0.75761,-12.12183 -5.23382,-20.01379 -13.0625,-52.84375 -2.04977,-0.5081 -4.08006,-1.00061 -6.09375,-1.46875 0.37791,2.57569 0.90416,5.89094 1.625,9.375 1.53497,7.41902 -4.28362,11.59454 -13.375,14.625 -10.16447,3.38816 -19.65863,4.0625 -28.875,4.0625 -9.21637,0 -18.71053,-0.67434 -28.875,-4.0625 -9.09138,-3.03046 -14.90997,-7.20598 -13.375,-14.625 0.72084,-3.48406 1.24709,-6.79931 1.625,-9.375 -2.01369,0.46814 -4.04398,0.96065 -6.09375,1.46875 -7.82868,32.82996 -12.30489,40.72192 -13.0625,52.84375 0,0 3.271,8.22768 2.91386,19.65625 -0.35714,11.42858 4.01462,12.92481 2.09375,14.1875 -1.92088,1.26269 -0.71045,4.30743 0.25,4.8125 0.96043,0.50508 0.2219,0.99239 -1.21875,1.75 -1.44066,0.75762 -1.94066,3.02364 -0.5,3.78125 1.44066,0.75762 0.48022,2.03125 0,2.03125 -0.48022,0 -1.90625,2.02109 -1.90625,3.03125 0,1.01015 1.92762,0.76602 1.6875,2.28125 -0.24011,1.51523 -1.70728,0.76348 -2.1875,2.53125 -0.48022,1.76777 1.46875,1.48731 1.46875,2.75 0,1.26269 -1.1958,4.0625 -2.15625,4.0625 -0.96043,0 -1.70055,2.52363 -0.5,3.28125 1.20055,0.75761 0.0233,2.7711 -0.9375,3.78125 -0.19009,0.19993 -0.37921,0.5536 -0.5625,0.96875 20.50152,5.83018 39.28897,12.17171 61.33623,11.8125 21.784,-0.35492 48.08399,-9.18576 59.24483,-11.84121 z" id="path4335" />
    <path id="path3944" d="m 140.0507,801.43133 c -0.0425,0.47108 -0.14159,1.47371 -0.17414,1.9409 -0.0282,0.40425 0.1313,1.08079 0.46719,1.48995 0,0 2.32399,8.25925 1.96685,19.68782 -0.35714,11.42858 4.04558,12.89324 2.12471,14.15593 -1.92088,1.26269 -0.56491,4.30743 0.39554,4.8125 0.96043,0.50508 0.22245,0.99239 -1.2182,1.75 -1.44066,0.75762 -1.99497,3.05521 -0.55431,3.81282 1.44066,0.75762 0.46444,1.95233 -0.0158,1.95233 -0.48022,0 -1.83658,2.06844 -1.83658,3.0786 0,1.01015 1.9337,0.76602 1.69358,2.28125 -0.24011,1.51523 -1.76768,0.76348 -2.2479,2.53125 -0.48022,1.76777 1.44011,1.53466 1.44011,2.79735 0,1.26269 -1.12961,3.95202 -2.09006,3.95202 -0.96043,0 -1.72329,2.66568 -0.52274,3.4233 1.20055,0.75761 0.0571,2.6764 -0.90344,3.68655 -0.71924,0.82033 -0.72623,1.43941 -0.57469,2.01078 l 0.6096,0.0352 c 0.32067,-0.47216 1.11446,-2.53307 2.09043,-3.03018 2.72688,-1.38893 15.07591,-1.44323 24.39361,-1.28125 -11.46581,-1.72275 -20.72865,-0.65805 -23.53196,-1.9375 -0.31537,-0.14394 -0.49814,-0.87257 -0.4766,-1.18972 0.06,-0.88389 0.70706,-1.15022 1.42739,-1.52903 0.72033,-0.37881 1.36555,-2.27617 1.4856,-2.78125 0.12006,-0.50508 0.84838,-0.74873 2.16898,-0.875 1.32061,-0.12627 3.77479,0.42338 6.59608,-1.28125 0,0 -5.12224,0.6894 -7.2232,0.24746 -0.94911,-0.19965 -1.66191,-1.26602 -1.54186,-2.52871 0.12006,-1.26269 1.99248,-1.85689 3.00092,-2.125 1.19928,-0.31885 5.63323,-0.75 6.83377,-0.75 1.20055,0 3.63661,-0.76269 5.7976,0.37373 2.16099,1.13642 5.31781,1.50507 6.88571,1.31567 2.05842,-0.24864 4.05951,-1.13594 5.3222,-3.34565 -2.33598,1.8309 -4.44036,2.17106 -5.81605,2.09692 -1.43636,-0.0774 -4.34731,-0.84058 -6.74841,-1.72446 -2.40109,-0.88388 -9.52804,0.62754 -10.84864,0.62754 -1.32061,0 -4.06935,-0.36739 -4.1894,-1.125 -0.12006,-0.75762 1.43899,-2.14864 3.11976,-2.90625 1.68077,-0.75762 7.81428,-1.65625 7.81428,-1.65625 0,0 -5.30519,0.12627 -6.62579,0 -1.32061,-0.12627 -3.4739,-1.11865 -3.71401,-1.75 -0.24011,-0.63134 1.20734,-2.15244 2.28783,-2.53125 1.08049,-0.37881 4.08895,-0.23477 8.17082,-1.75 -4.32198,0.37881 -6.85746,0.25253 -7.45773,0 -0.60028,-0.25254 -1.69238,-1.64736 -1.81244,-2.53125 -0.12005,-0.88388 0.85441,-1.77871 1.57474,-2.03125 0.72033,-0.25254 -3.13432,-4.40625 -2.25032,-4.40625 0.88388,0 4.05187,0.23652 8.21875,-1.53125 -3.78807,1.13642 -7.83486,0.375 -8.71875,0.375 -0.88388,0 -0.375,-2.89864 -0.375,-3.65625 0,-0.75762 1.54854,-2.27872 2.9375,-2.53125 1.38896,-0.25254 3.00412,-1.63008 8.8125,-1.125 -5.93465,-1.38896 -9.70987,0.37881 -10.59375,0 -0.88389,-0.3788 -0.375,-0.93736 -0.375,-0.93736 l 7.35229,-1.33366 c 0,0 -5.31677,0.81595 -6.46647,0.29637 -2.17936,-0.98492 -2.08708,-6.09164 1.70693,-4.90423 4.60556,1.44139 10.26893,1.31789 12.95336,0.8318 2.68444,-0.48606 24.14991,0.95849 24.14991,0.95849 0,0 -10.16232,-3.18389 -17.8606,-3.18389 -7.69836,0 -7.63074,0.44455 -8.88347,0.44455 -1.25275,0 -1.78603,-1.48034 -0.35433,-1.63002 1.43169,-0.14969 1.77343,-0.46957 1.59447,-1.66707 -0.17896,-1.19752 -5.75688,0.94019 -11.7278,-0.82143 -5.12342,-1.51158 -1.96024,-8.44443 -6.20367,-11.73195 -0.33678,-0.26092 -0.84658,-0.81209 -0.74684,-1.55707 0.0144,-0.10759 -0.60972,0.75507 -0.71308,0.71085 z" style="color:#000000;fill:#000000;stroke:none;stroke-width:0.30000001;marker:none;visibility:visible;display:inline;overflow:visible;enable-background:accumulate" />
    <path id="path3971" d="m 147.51276,858.65793 c 7.3236,0.25254 17.42513,3.78807 22.22335,2.77792 4.79823,-1.01015 11.11168,-2.27284 15.40483,-2.27284 4.29315,0 10.85914,1.51523 10.85914,1.51523 0,0 -0.75762,2.0203 -6.56599,1.51523 -5.80838,-0.50508 -10.85914,-0.50508 -15.15229,0.75761 -4.29315,1.26269 -8.83884,1.13642 -13.13199,-0.37881 -4.29314,-1.51523 -13.63705,-3.91434 -13.63705,-3.91434 z" style="color:#000000;fill:#000000;stroke:none;stroke-width:0.40000001;marker:none;visibility:visible;display:inline;overflow:visible;enable-background:accumulate" />
    <path style="color:#000000;fill:#000000;fill-opacity:1;fill-rule:nonzero;stroke:none;stroke-width:3.54330707;marker:none;visibility:visible;display:inline;overflow:visible;enable-background:accumulate" d="m 246.84375,752.01843 c 0.26111,0.0647 0.51996,0.12186 0.78125,0.1875 7.42751,30.88916 11.77934,39.21605 12.70806,50.63766 l -0.52405,0.71319 c -0.98993,-11.42257 -5.42091,-19.90073 -12.96526,-51.53835 z" id="path4039" />
    <path id="path3949" d="m 259.58447,801.45353 c 0.0898,0.75004 -0.18363,1.02666 -0.33902,1.33377 -2.44199,4.82623 -3.9622,9.72528 -6.99403,9.80321 -4.29388,0.11038 -7.34923,1.01003 -9.4535,1.41483 -2.10427,0.4048 -8.33596,4.87681 -18.4124,3.54199 -8.95749,-1.18658 -19.33018,1.93825 -23.80519,3.46561 l 0.20662,1.07406 c 0.63838,-0.13095 1.2926,-0.31353 1.83651,-0.54423 2.35379,-0.99833 15.30508,-2.5851 19.60814,-1.95811 4.30307,0.62698 11.87211,0.27109 16.22897,-1.65812 4.35686,-1.9292 10.06777,-2.49138 12.47565,-1.31796 1.13425,0.55274 1.87081,1.27465 3.06378,2.2536 -0.13836,1.36587 -0.33645,3.59195 -0.53125,5.71875 -4.39632,-1.11618 -6.99164,-1.65625 -11.5,-1.65625 -1.33929,0 -2.67969,-0.0285 -3.96875,-0.0312 -3.86719,-0.008 -7.37054,0.0491 -9.78125,0.71875 -3.21429,0.89285 -9.30357,2.5134 -11.625,3.40625 -2.32143,0.89286 1.09821,0.72321 3.0625,0.1875 1.96428,-0.53572 8.36607,-2.86161 10.6875,-3.21875 2.32143,-0.35714 12.16518,-0.16964 14.84375,0.1875 2.11581,0.28211 6.03546,1.08457 8.15625,1.59375 -0.0946,1.07917 -0.17306,2.02261 -0.25,3.0625 -0.0801,0.002 -0.13538,-0.003 -0.21875,0 -7.33643,0.30088 -26.9375,4.78851 -31.625,6.28125 -5.35714,1.70599 -11.05993,4.84374 -13.6875,5.96875 -2.13656,0.91478 -3.16882,1.35382 -4.8125,1.84375 -1.77537,0.52919 -3.40533,1.01758 -5.4375,1.1875 -2.03218,0.1699 -6.43236,0.29873 -9.1875,-1 -2.75513,-1.29873 -5.62704,-2.64521 -9.09375,-5.03125 -3.46671,-2.38604 -7.51668,-3.29358 -9.875,-3.34375 -2.35831,-0.0502 -4.49676,1.28511 -6.53125,2.78125 2.38341,-0.4675 7.7037,-0.70023 11.65625,0.625 3.95253,1.32523 10.29687,6.13235 13.125,7.25 2.82812,1.11766 8.24296,1.46168 10.1875,1.25 1.98477,-0.21606 3.43921,-0.66155 5.09375,-1.21875 5.60912,-1.88898 13.75,-6.08482 16.25,-7.15625 2.5,-1.07142 21.43303,-5.90178 24.46875,-6.4375 2.25513,-0.39796 6.6749,-0.60924 9.53125,-0.6875 -0.057,1.01556 -0.0937,1.94571 -0.0937,2.65625 0,4.28571 0.0223,5.01339 1.09375,7.15625 1.07143,2.14285 0.34375,3.5625 0.34375,3.5625 0,0 -0.21097,0.42465 -0.375,1.0625 -1.96744,-0.69752 -10.85331,-0.50573 -20.34963,0.15117 -7.47499,0.51708 -13.41236,6.04925 -25.16275,7.19559 11.4596,1.27574 13.71835,-4.06099 25.46786,-5.12063 9.77899,-0.88194 18.66863,-0.73525 20.29452,0.89887 0.25114,0.51542 0.62767,1.0414 1.1875,1.53125 2.85715,2.5 1.43303,3.21429 0.71875,5 -0.28409,0.71023 -0.40505,1.51687 -0.4375,2.25 -2.91617,-1.11242 -5.67551,-1.6243 -8.34375,-1.71875 -2.12821,-0.0753 -4.20982,0.12946 -6.21875,0.53125 -5.35714,1.07143 -12.5,4.65625 -12.5,4.65625 0,0 8.93304,-2.87947 13.21875,-3.59375 4.28572,-0.71429 11.4375,0.0134 13.9375,2.15625 l 1.78125,5 c 0,0 -0.46001,2.49841 -0.28125,4.78125 -1.24847,1.75382 -2.69946,2.90074 -5.78125,3.78125 -5,1.42857 -9.65625,2.13839 -12.15625,4.28125 -2.5,2.14285 -3.9375,3.59375 -3.9375,3.59375 0,0 4.66964,-2.50892 9.3125,-3.9375 4.64285,-1.42857 8.92857,-3.21428 12.5,-5 0.20157,-0.10078 0.36807,-0.15598 0.5625,-0.25 0.21695,0.91905 0.36799,1.66089 1.03125,2.375 0.0862,-0.0477 0.16611,0.99523 0.25,0.94829 0.31554,-0.17929 0.94484,-0.22682 1.22224,-0.40498 -0.0794,-0.40595 -0.51494,-1.94156 -0.59724,-2.13706 -0.0794,-0.18854 -0.12048,-0.36049 -0.15625,-0.53125 -0.0263,-0.1201 -0.0549,-0.23016 -0.0625,-0.34375 -0.01,-0.1546 -0.0222,-0.29211 0,-0.4375 0.0118,-0.0829 0.041,-0.16951 0.0625,-0.25 0.006,-0.0217 0.0248,-0.0409 0.0312,-0.0625 0.086,-0.28567 0.21443,-0.57037 0.40625,-0.84375 0.45713,-0.65153 -0.911,-1.66662 -0.96875,-3.59375 -0.008,-0.26418 0.0133,-0.5438 0.0625,-0.84375 0.24676,-1.50386 0.71921,-2.27144 -0.9375,-3.96875 -0.11635,-0.17302 -0.22039,-0.36608 -0.3125,-0.5625 -0.0845,-0.17403 -0.15088,-0.34237 -0.21875,-0.53125 -0.26965,-0.75043 -0.40894,-1.60128 -0.40625,-2.4375 9.8e-4,-0.30558 0.0237,-0.61086 0.0625,-0.90625 0.0381,-0.28986 0.0809,-0.57476 0.15625,-0.84375 0.41358,-1.47734 0.28125,-1.98985 0.28125,-3 0,-1.01016 -1.11353,-4.28125 -1.59375,-4.28125 -0.0618,0 -0.12417,-0.0369 -0.1875,-0.125 -0.0591,-0.0822 -0.13129,-0.20883 -0.1875,-0.34375 -0.004,-0.008 0.003,-0.0226 0,-0.0312 -0.3451,-0.85141 -0.50719,-2.56247 0.5625,-3.125 0.10546,-0.0625 0.19511,-0.12929 0.25,-0.21875 0.0114,-0.0186 0.0218,-0.0428 0.0312,-0.0625 0.0171,-0.0356 0.0203,-0.086 0.0312,-0.125 0.0215,-0.0766 0.0311,-0.16127 0.0312,-0.25 -9e-5,-0.0299 0.002,-0.0626 0,-0.0937 -0.009,-0.13157 -0.0518,-0.25417 -0.0937,-0.40625 -0.0481,-0.17445 -0.10874,-0.36638 -0.1875,-0.5625 -0.03,-0.0747 -0.0607,-0.17269 -0.0937,-0.25 -0.14072,-0.32579 -0.31098,-0.67523 -0.46875,-1.03125 -0.0192,-0.0435 -0.0435,-0.0813 -0.0625,-0.125 -0.0781,-0.17937 -0.14888,-0.34945 -0.21875,-0.53125 -0.008,-0.0217 -0.0231,-0.0408 -0.0312,-0.0625 -0.0767,-0.20397 -0.13182,-0.42236 -0.1875,-0.625 -0.3978,-1.44762 0.77994,-2.13515 -0.37246,-3.65625 -0.0791,-0.10441 -0.15262,-0.21952 -0.21875,-0.34375 -0.0148,-0.0279 -0.0171,-0.0649 -0.0312,-0.0937 -0.0782,-0.15966 -0.15976,-0.33999 -0.21875,-0.53125 -0.0562,-0.18209 -0.11691,-0.38145 -0.15625,-0.59375 -0.004,-0.0201 0.004,-0.0421 0,-0.0625 -0.0158,-0.0903 -0.0183,-0.18543 -0.0312,-0.28125 -0.0466,-0.34101 -0.0819,-0.71158 -0.0937,-1.125 -8.7e-4,-0.0321 6.6e-4,-0.0612 0,-0.0937 -2.4e-4,-0.0109 2.2e-4,-0.0203 0,-0.0312 -0.008,-0.40409 0.009,-0.86876 0.0312,-1.34375 0.0176,-0.36182 -0.19284,-0.78188 -0.15884,-1.1875 0.0189,-0.22788 0.25954,-0.41437 0.28374,-0.65625 0.0702,-0.71089 0.17018,-1.47178 0.28125,-2.3125 0.10413,-0.78817 0.26918,-1.80894 0.40625,-2.71875 0.0584,-0.38729 0.12356,-0.77723 0.1875,-1.1875 0.11424,-0.73298 -0.0396,-1.2846 0.0915,-2.09343 0.12964,-0.79978 0.30336,-1.59653 0.46875,-2.40625 0.11901,-0.59814 0.24291,-1.18462 0.375,-1.78125 0.0159,-0.0717 0.0152,-0.14711 0.0312,-0.21875 0.0116,-0.052 0.0179,-0.105 0.0312,-0.15625 0.007,-0.032 0.024,-0.0617 0.0312,-0.0937 0.17975,-0.79288 0.36912,-1.57291 0.5625,-2.34375 0.28039,-1.11768 0.55776,-2.19398 0.84375,-3.21875 0.19447,-0.69681 0.35186,-1.27787 0.53125,-1.875 0.094,-0.32021 0.15944,-0.48016 0.25,-0.78125 0.18746,-0.62712 0.30274,-1.18809 0.46843,-1.71907 0.30982,-0.98511 0.53723,-1.70824 0.71875,-2.25 0.23847,-0.72361 0.11895,-0.34516 0.375,-1.125 0.36297,-1.1055 0.56844,-1.41448 0.42699,-2.01894 -0.13245,-0.49433 -0.35598,-0.0667 -0.36158,-0.11931 z" style="color:#000000;fill:#000000;fill-opacity:1;fill-rule:nonzero;stroke:none;stroke-width:0.30000001;marker:none;visibility:visible;display:inline;overflow:visible;enable-background:accumulate" />
    <path d="m 240.75,750.54968 c 0.37791,2.57569 0.90416,5.89094 1.625,9.375 1.53497,7.41902 -4.28362,11.59454 -13.375,14.625 -10.16447,3.38816 -19.65863,4.0625 -28.875,4.0625 -9.21637,0 -18.71053,-0.67434 -28.875,-4.0625 -9.09138,-3.03046 -14.90997,-7.20598 -13.375,-14.625 0.72084,-3.48406 1.24709,-6.79931 1.625,-9.375" style="color:#000000;fill:none;stroke:#000000;stroke-width:0.80000001;stroke-linecap:round;stroke-miterlimit:4;stroke-dasharray:none;marker:none;visibility:visible;display:inline;overflow:visible;enable-background:accumulate" id="path4043" />
    <path id="path4151" d="m 106.5625,899.83093 c -1.38896,0.25254 -3.15498,2.01856 -3.28125,3.28125 -0.12627,1.2627 0.88135,2.64356 0.25,3.90625 -0.097,0.69217 -1.76018,0.4743 -2.96875,0.8125 l 1.78125,0.90625 -1.96875,0.4375 2.25,0.6875 c -3.65421,0.78641 -3.20582,1.4044 -1.84375,1.3125 1.94203,-0.13109 4.17639,-0.23082 5.28125,0.96875 1.18841,1.29028 1.5211,1.68497 2.53125,1.9375 1.01016,0.25254 1.2538,0.39863 0.875,1.15625 -0.37881,0.75761 -0.48696,0.95919 -0.48696,0.95919 0.35155,-0.0422 0.68935,-0.0661 1.10088,-0.18826 0.96577,-0.23265 1.19983,-0.0299 2.07358,-0.33343 l 3.3516,-1.8936 c 0.79339,-0.88797 1.96076,-1.37755 1.54048,-2.36525 -0.19874,-0.46707 -0.5362,-1.01059 -1.11686,-1.8901 0.39524,1.48624 -0.57762,2.20226 -1.55425,2.65054 -1.14829,0.52707 -2.49715,0.62468 -3.00222,0.49841 -0.50508,-0.12627 -2.96083,-0.75808 -3.75,-3.0625 -0.37881,-1.01015 -2.24747,-4.48604 -2.5,-5.875 -0.25254,-1.38896 0.0501,-2.27966 1.28125,-2.4375 0.51639,-0.0662 1.1664,-1.46875 0.15625,-1.46875 z" style="color:#000000;fill:#59341d;fill-opacity:1;fill-rule:nonzero;stroke:none;stroke-width:0.80000001;marker:none;visibility:visible;display:inline;overflow:visible;enable-background:accumulate" />
    <path id="path4385" d="m 192.80484,891.39663 c -2.67857,15.53572 -3.51912,25.08666 -3.16198,30.80095 0.14684,2.34948 0.57011,5.12075 1.00736,7.57162 0.21882,1.22655 1.51772,1.25818 1.17467,-0.19388 -0.493,-2.08681 -0.93287,-4.71436 -1.1106,-7.91346 -0.53571,-9.64286 3.34055,-29.90809 3.34055,-29.90809 z" style="color:#000000;fill:#726963;fill-opacity:1;fill-rule:nonzero;stroke:none;stroke-width:0.2;marker:none;visibility:visible;display:inline;overflow:visible;enable-background:accumulate" />
    <path style="color:#000000;fill:none;stroke:#726963;stroke-width:0.5;stroke-linecap:round;stroke-miterlimit:4;stroke-opacity:1;stroke-dasharray:none;marker:none;visibility:visible;display:inline;overflow:visible;enable-background:accumulate" d="m 226.72369,884.56247 c 7.25347,7.42033 14.52631,12.27796 19.70488,11.92082 5.17857,-0.35714 16.17318,-1.61624 16.17318,-1.61624" id="path4391" />
    <path id="path4220" d="m 190.35714,876.12615 c 0,0 -13.57143,-0.53571 -21.96428,-2.5 C 160,871.66186 141.07143,865.94758 141.07143,865.94758 L 140,867.91186 l 0.89286,2.5 -2.90737,4.35826 c 0,0 13.62165,4.0346 21.30022,6.17746 7.67858,2.14285 23.92858,5.71428 28.21429,5.89285 4.28571,0.17857 2.85714,-10.71428 2.85714,-10.71428 z" style="color:#000000;fill:#000000;fill-opacity:1;fill-rule:nonzero;stroke:none;stroke-width:0.2;marker:none;visibility:visible;display:inline;overflow:visible;enable-background:accumulate" />
    <path style="color:#000000;fill:#000000;fill-opacity:1;fill-rule:nonzero;stroke:none;stroke-width:0.2;marker:none;visibility:visible;display:inline;overflow:visible;enable-background:accumulate" d="m 207.80714,876.12615 c 0,0 13.57143,-0.53571 21.96428,-2.5 8.39286,-1.96429 28.33158,-7.93111 28.33158,-7.93111 l 0.0613,2.21682 -0.89286,2.5 2.40437,4.46429 c 0,0 -13.38651,3.88393 -21.06508,6.02679 -7.67858,2.14285 -23.66072,5.75892 -27.94643,5.93749 -4.28571,0.17857 -2.85714,-10.71428 -2.85714,-10.71428 z" id="path4237" />
    <path style="color:#000000;fill:#252525;fill-opacity:1;fill-rule:nonzero;stroke:none;stroke-width:0.2;marker:none;visibility:visible;display:inline;overflow:visible;enable-background:accumulate" d="m 219.30408,874.95832 c 0.63397,1.83801 0.29307,3.24678 0.68627,4.94321 0.39319,1.69643 0.27105,4.70245 0.44962,5.32745 l 2.66034,-0.5632 c -0.0472,-0.75968 -0.17729,-1.3994 -0.0997,-2.66024 0.07,-1.13915 -0.31259,-3.07775 -0.5084,-4.47325 -0.22972,-1.63723 -0.50771,-2.99873 -0.50771,-2.99873 z" id="path4241" />
    <path style="color:#000000;fill:none;stroke:#726963;stroke-width:0.5;stroke-linecap:round;stroke-linejoin:miter;stroke-miterlimit:4;stroke-opacity:1;stroke-dasharray:none;stroke-dashoffset:0;marker:none;visibility:visible;display:inline;overflow:visible;enable-background:accumulate" d="m 163.21429,883.269 c 0,0 -0.35715,3.21429 -3.03572,6.42858 -2.67857,3.21428 -4.05633,5.47293 -8.39286,5.53571 -9.63797,0.13953 -14.63878,-3.37372 -16.48097,-8.37988" id="path4393" />
    <g transform="translate(-103.19646,279.29968)" id="g4465">
      <path id="path3080" d="m 254.46128,395.88754 c 0.90494,0.68773 1.86803,1.35794 2.83493,2.87132 3.46114,3.45966 7.21691,4.07112 10.91808,5.21046 l 9.28571,0.35715 6.76652,-4.27304 c 4.05756,-4.03558 -0.72371,-2.36225 -3.93045,-2.76525 -9.29604,-1.16827 -14.43135,-2.47752 -16.03688,-1.79017 -2.92131,1.25064 -6.19452,1.18488 -9.83791,0.38953 z" style="color:#000000;fill:#ffffff;fill-opacity:1;fill-rule:nonzero;stroke:none;stroke-width:0.2;marker:none;visibility:visible;display:inline;overflow:visible;enable-background:accumulate" />
      <path style="color:#000000;fill:#59341d;fill-opacity:1;fill-rule:nonzero;stroke:none;stroke-width:0.2;marker:none;visibility:visible;display:inline;overflow:visible;enable-background:accumulate" d="m 254.46128,395.88754 c 7.10359,-1.48286 14.19462,-3.02586 21.7245,-2.4674 5.84607,1.18491 11.43046,1.45469 17.38565,-0.70082 -1.25001,10.625 -7.71357,13.58149 -12.85715,14.64286 -5.625,1.16071 -13.30356,0.0893 -16.87499,-2.05357 -3.57143,-2.14286 -7.17509,-7.42643 -7.17509,-7.42643 3.04489,3.28708 7.17065,4.8853 11.55009,6.08714 l 9.28571,0.35715 6.76652,-4.27304 c 4.05756,-4.03558 -0.72371,-2.36225 -3.93045,-2.76525 -9.29604,-1.16827 -13.40659,-2.28511 -17.04703,-1.15882 -3.04458,0.94194 -5.18437,0.55353 -8.82776,-0.24182 z" id="path4459" />
      <path style="color:#000000;fill:#000000;fill-opacity:1;fill-rule:nonzero;stroke:none;stroke-width:3.54330707;marker:none;visibility:visible;display:inline;overflow:visible;enable-background:accumulate" d="m 262.33051,395.28807 c 5.95262,-1.93208 9.19378,-0.47198 13.36378,0.0134 3.04308,0.35422 8.2279,1.31126 10.45118,0.79034 2.22328,-0.52091 1.29324,1.62375 -1.78966,4.05091 -3.12582,2.46097 -7.57102,3.51932 -12.77713,3.41511 -2.93653,-0.0588 -6.48622,-0.67427 -10.95726,-3.12706 -1.05924,-0.58109 -2.84737,-2.12662 -4.30609,-3.83462 -0.18656,-0.21844 -0.73781,-0.64543 -0.87317,-0.85686 2.42994,-0.35426 4.40833,0.35374 6.88835,-0.45122 z m 4.26392,9.94092 c 3.87521,0.96881 12.70449,1.58897 16.63111,-0.24221 5.42435,-2.52963 9.26312,-5.76772 10.0917,-11.02013 0.29019,-1.83953 0.98848,-2.64688 4.68255,-3.91977 l 0,-5e-5 c -2.30982,-0.63769 -6.85314,-0.0552 -10.38599,1.93981 -2.98678,1.68665 -11.66118,1.37185 -16.51286,0.50018 -9.91662,-1.78167 -14.70502,-1.67521 -18.65789,0.0825 3.23696,0.14194 5.39635,0.11543 6.62985,1.33717 -3.1829,0.0107 -5.12507,0.83314 -7.03611,3.03639 0.90661,-0.49502 1.68322,-0.80436 2.5077,-0.98574 3.59518,4.86239 8.21046,8.31197 12.04994,9.27185 z" id="path2996" />
    </g>
    <use height="1052.3622" width="744.09448" transform="matrix(-1,0,0,1,398.74999,0)" id="use4469" xlink:href="#g4465" y="0" x="0" />
    <rect style="color:#000000;fill:url(#linearGradient4495);fill-opacity:1;stroke:#999999;stroke-width:0.33914831;stroke-linecap:round;stroke-linejoin:miter;stroke-miterlimit:4;stroke-opacity:1;stroke-dasharray:none;stroke-dashoffset:0;marker:none;visibility:visible;display:inline;overflow:visible;enable-background:accumulate" id="rect4493" width="7.9789371" height="14.519742" x="192.76932" y="804.97009" rx="1.7700859" ry="1.7700859" />
    <rect ry="1.3258252" rx="1.3258252" y="805.60083" x="193.44423" height="13.258252" width="6.6291261" id="rect4483" style="color:#000000;fill:url(#linearGradient4491);fill-opacity:1;stroke:#999999;stroke-width:0.30000001;stroke-linecap:round;stroke-linejoin:miter;stroke-miterlimit:4;stroke-opacity:1;stroke-dasharray:none;stroke-dashoffset:0;marker:none;visibility:visible;display:inline;overflow:visible;enable-background:accumulate" />
    <text transform="matrix(0,-1,1,0,0,0)" id="text4497" y="195.14766" x="-817.94159" style="font-size:1.58320904px;font-style:normal;font-variant:normal;font-weight:bold;font-stretch:normal;line-height:100%;letter-spacing:0px;word-spacing:0px;fill:#999999;fill-opacity:1;stroke:none;font-family:Courier New;-inkscape-font-specification:Courier New Bold" xml:space="preserve"><tspan y="195.14766" x="-817.94159" id="tspan4499">LOGAN</tspan></text>
    <text xml:space="preserve" style="font-size:1.58320904px;font-style:normal;font-variant:normal;font-weight:bold;font-stretch:normal;line-height:100%;letter-spacing:0px;word-spacing:0px;fill:#999999;fill-opacity:1;stroke:none;font-family:Courier New;-inkscape-font-specification:Courier New Bold" x="-817.75684" y="197.26012" id="text4501" transform="matrix(0,-1,1,0,0,0)"><tspan id="tspan4503" x="-817.75684" y="197.26012">8293487 12</tspan></text>
    <rect transform="scale(-1,1)" ry="1.7700859" rx="1.7700859" y="820.31177" x="-200.74826" height="14.519742" width="7.9789371" id="rect4505" style="color:#000000;fill:url(#linearGradient4517);fill-opacity:1;stroke:#999999;stroke-width:0.33914831;stroke-linecap:round;stroke-linejoin:miter;stroke-miterlimit:4;stroke-opacity:1;stroke-dasharray:none;stroke-dashoffset:0;marker:none;visibility:visible;display:inline;overflow:visible;enable-background:accumulate" />
    <rect transform="scale(-1,1)" style="color:#000000;fill:url(#linearGradient4519);fill-opacity:1;stroke:#999999;stroke-width:0.30000001;stroke-linecap:round;stroke-linejoin:miter;stroke-miterlimit:4;stroke-opacity:1;stroke-dasharray:none;stroke-dashoffset:0;marker:none;visibility:visible;display:inline;overflow:visible;enable-background:accumulate" id="rect4507" width="6.6291261" height="13.258252" x="-200.07335" y="820.9425" rx="1.3258252" ry="1.3258252" />
    <text xml:space="preserve" style="font-size:1.58320904px;font-style:normal;font-variant:normal;font-weight:bold;font-stretch:normal;line-height:100%;letter-spacing:0px;word-spacing:0px;fill:#999999;fill-opacity:1;stroke:none;font-family:Courier New;-inkscape-font-specification:Courier New Bold" x="-833.28326" y="-198.36992" id="text4509" transform="matrix(0,-1,-1,0,0,0)"><tspan id="tspan4511" x="-833.28326" y="-198.36992">LOGAN</tspan></text>
    <text transform="matrix(0,-1,-1,0,0,0)" id="text4513" y="-196.25746" x="-833.09851" style="font-size:1.58320904px;font-style:normal;font-variant:normal;font-weight:bold;font-stretch:normal;line-height:100%;letter-spacing:0px;word-spacing:0px;fill:#999999;fill-opacity:1;stroke:none;font-family:Courier New;-inkscape-font-specification:Courier New Bold" xml:space="preserve"><tspan y="-196.25746" x="-833.09851" id="tspan4515">8293487 12</tspan></text>
    <path transform="translate(0,502.36218)" id="path4481" d="m 174.25131,240.38824 c -3.78807,14.39468 19.69798,62.62946 19.69798,62.62946 1.38896,1.95717 3.29005,1.91534 4.1597,1.36319 0.65973,-0.41887 0.62832,-0.75583 0.19297,-1.4048 -0.70329,-1.04838 -0.884,-1.90467 -2.14669,0.4313 m 0.5088,15.52021 0.31568,-15.65736 c 0,0 10.35406,-29.04189 13.38452,-37.62819 2.43633,-6.90293 9.66001,-15.41958 13.01769,-19.78094 0.81881,-1.06357 2.89221,-2.56868 2.1346,-5.59914" style="color:#000000;fill:none;stroke:#666666;stroke-width:1;stroke-linecap:round;stroke-miterlimit:4;stroke-dasharray:1, 1;stroke-dashoffset:0;marker:none;visibility:visible;display:inline;overflow:visible;enable-background:accumulate" />
    <path id="path4239" d="m 165.99297,872.68548 c -1.51786,1.96428 -1.52868,2.99424 -1.88583,4.69067 -0.35714,1.69643 0.70346,5.51142 0.52489,6.13642 -0.17857,0.625 -2.14472,-0.26337 -2.76972,-0.26337 -0.625,0 0.32651,-1.62432 -0.0306,-2.69575 -0.35715,-1.07143 -0.6187,-4.01579 -0.22637,-5.35714 0.55273,-1.88976 1.83353,-3.125 1.83353,-3.125 z" style="color:#000000;fill:#252525;fill-opacity:1;fill-rule:nonzero;stroke:none;stroke-width:0.2;marker:none;visibility:visible;display:inline;overflow:visible;enable-background:accumulate" />
    <path style="color:#000000;fill:#59341d;fill-opacity:1;fill-rule:nonzero;stroke:none;stroke-width:0.80000001;marker:none;visibility:visible;display:inline;overflow:visible;enable-background:accumulate" d="m 106.5625,899.83093 c -1.38896,0.25254 -3.15498,2.01856 -3.28125,3.28125 -0.12627,1.2627 0.88135,2.64356 0.25,3.90625 -0.097,0.69217 -1.76018,0.4743 -2.96875,0.8125 l 1.78125,0.90625 -1.96875,0.4375 2.25,0.6875 c -3.65421,0.78641 -3.20582,1.4044 -1.84375,1.3125 1.94203,-0.13109 4.17639,-0.23082 5.28125,0.96875 1.18841,1.29028 1.5211,1.68497 2.53125,1.9375 1.01016,0.25254 1.2538,0.39863 0.875,1.15625 -0.37881,0.75761 -0.48696,0.95919 -0.48696,0.95919 0.35155,-0.0422 0.68935,-0.0661 1.10088,-0.18826 0.96577,-0.23265 1.19983,-0.0299 2.07358,-0.33343 l 3.3516,-1.8936 c 0.79339,-0.88797 1.96076,-1.37755 1.54048,-2.36525 -0.19874,-0.46707 -0.5362,-1.01059 -1.11686,-1.8901 0.39524,1.48624 -0.57762,2.20226 -1.55425,2.65054 -1.14829,0.52707 -2.49715,0.62468 -3.00222,0.49841 -0.50508,-0.12627 -2.96083,-0.75808 -3.75,-3.0625 -0.37881,-1.01015 -2.24747,-4.48604 -2.5,-5.875 -0.25254,-1.38896 0.0501,-2.27966 1.28125,-2.4375 0.51639,-0.0662 1.1664,-1.46875 0.15625,-1.46875 z" id="path4534" />
    <path id="path3079" transform="translate(0,502.36218)" d="m 195.46875,389.125 c -0.75659,-0.026 -1.40204,0.14852 -1.46875,0.59375 -0.31375,2.09409 -0.90501,4.95983 -0.9375,5.28125 -0.13922,1.37729 -0.94218,6.90214 -1.25,8.3125 -1.14809,5.26034 -1.19765,11.66257 -1.125,15.3125 1.29028,11.6476 0.98744,10.43941 -0.75,11.90625 -0.64277,0.54266 -4.19397,3.82162 -7.64022,3.37055 -5.62783,-0.73661 -11.85973,-5.23278 -11.25249,-1.89061 0.36667,2.01813 4.70091,5.79253 9.36328,7.18171 3.02664,0.90181 6.90753,-0.5312 7.49512,0.42156 3.0469,4.94043 2.97266,9.87246 -0.96569,9.44804 -7.41052,-0.7986 3.03724,12.62065 2.28125,16.59375 -1.36308,7.1637 -6.53216,10.99686 -6.65625,16.21875 -0.16041,6.75012 2.34575,9.64248 1.53125,16.6875 -0.82959,7.17543 -5.73077,4.20417 -4.8125,16.0625 0.57299,7.39958 -4.29019,26.05805 -11.5625,35.375 l 17.625,0 c -1.2174,-56.99434 9.19283,-78.18168 13.6875,-103.8125 4.66054,24.63148 14.12365,46.81816 12.90625,103.8125 l 15.375,0 c -0.96592,-2.9367 -5.5375,-14.57363 -2.28125,-26.6875 1.87771,-6.98546 -6.35226,-7.67505 -6.6875,-14.4375 -0.3196,-6.4469 5.66223,-9.0239 4.90625,-13.875 -1.29764,-8.32695 -7.18827,-3.04106 -7.3125,-8.96875 -0.093,-4.4397 6.95286,-9.61256 7.46875,-13.4375 0.856,-6.34663 -13.94082,-11.37933 -10.65625,-14.5625 16.21937,-15.71865 13.74241,-16.22405 2.78125,-14.625 -5.55397,0.81023 -12.29767,-4.0792 -14.40625,-7.6875 -1.53551,-2.62763 -2.55319,-6.87846 0.0715,-8.18647 3.4577,-1.72313 7.14523,-2.59065 6.92483,-4.75807 -0.37869,-3.72413 -5.55321,1.50125 -7.92311,0.30057 -2.33869,-1.18486 -3.99346,-6.8496 -4.51071,-10.69978 -0.0802,-8.15966 0.30654,-13.78784 2.4375,-22 0.18218,-0.62905 -1.39527,-1.20667 -2.65625,-1.25 z" style="color:#000000;fill:#121117;fill-opacity:1;fill-rule:nonzero;stroke:none;stroke-width:0.30000001;marker:none;visibility:visible;display:inline;overflow:visible;enable-background:accumulate" />
    <g transform="translate(-97.823685,282.54968)" id="g4230">
      <path style="color:#000000;fill:#000000;fill-opacity:1;fill-rule:nonzero;stroke:none;stroke-width:0.80000001;marker:none;visibility:visible;display:inline;overflow:visible;enable-background:accumulate" d="m 298.125,587.84375 c -0.26011,-0.016 -0.89577,1.55447 -1.15625,1.5625 -0.26048,0.008 -0.99138,-1.53202 -1.25,-1.5 -0.25862,0.032 -0.62043,1.69425 -0.875,1.75 -0.25457,0.0557 -1.25166,-1.29775 -1.5,-1.21875 -0.24834,0.079 -0.29126,1.77342 -0.53125,1.875 -0.23999,0.10158 -1.45791,-1.06079 -1.6875,-0.9375 -0.22959,0.12329 0.0297,1.79355 -0.1875,1.9375 -0.21724,0.14395 -1.64072,-0.75713 -1.84375,-0.59375 -0.20303,0.16338 0.37459,1.75609 0.1875,1.9375 -0.18709,0.18141 -1.7367,-0.4479 -1.90625,-0.25 -0.16955,0.1979 0.68182,1.6623 0.53125,1.875 -0.15057,0.2127 -1.8072,-0.13194 -1.9375,0.0937 -0.1303,0.22569 0.98392,1.51325 0.875,1.75 -0.10892,0.23675 -1.78839,0.19171 -1.875,0.4375 -0.0866,0.24579 1.21981,1.30977 1.15625,1.5625 -0.0636,0.25273 -1.71003,0.55498 -1.75,0.8125 -0.04,0.25752 1.45354,1.02114 1.4375,1.28125 -0.016,0.26011 -1.60178,0.86452 -1.59375,1.125 0.008,0.26048 1.62423,0.74138 1.65625,1 0.032,0.25862 -1.43075,1.15168 -1.375,1.40625 0.0557,0.25457 1.76475,0.43916 1.84375,0.6875 0.079,0.24834 -1.19533,1.35376 -1.09375,1.59375 0.10158,0.23999 1.78296,0.11416 1.90625,0.34375 0.0308,0.0574 -0.0161,0.21373 -0.0937,0.375 l 20.875,0 c 0.13412,0 0.27752,0.0124 0.40625,0.0312 -0.27709,-0.42362 -0.59355,-0.89584 -0.53125,-1.03125 0.10892,-0.23675 1.78839,-0.22296 1.875,-0.46875 0.0866,-0.24579 -1.25106,-1.27852 -1.1875,-1.53125 0.0636,-0.25273 1.74128,-0.55498 1.78125,-0.8125 0.04,-0.25752 -1.45354,-1.02114 -1.4375,-1.28125 0.016,-0.26011 1.60178,-0.86452 1.59375,-1.125 -0.008,-0.26048 -1.62423,-0.74138 -1.65625,-1 -0.032,-0.25862 1.3995,-1.15168 1.34375,-1.40625 -0.0557,-0.25457 -1.7335,-0.43916 -1.8125,-0.6875 -0.079,-0.24834 1.19533,-1.38501 1.09375,-1.625 -0.10158,-0.23999 -1.81421,-0.11416 -1.9375,-0.34375 -0.12329,-0.22959 0.9252,-1.56401 0.78125,-1.78125 -0.14395,-0.21724 -1.77412,0.20303 -1.9375,0 -0.16338,-0.20303 0.61891,-1.68791 0.4375,-1.875 -0.18141,-0.18709 -1.7396,0.54455 -1.9375,0.375 -0.1979,-0.16955 0.30645,-1.81818 0.0937,-1.96875 -0.2127,-0.15057 -1.58681,0.84905 -1.8125,0.71875 -0.22569,-0.1303 -0.0445,-1.79733 -0.28125,-1.90625 -0.23675,-0.10892 -1.41046,1.11786 -1.65625,1.03125 -0.24579,-0.0866 -0.37227,-1.78019 -0.625,-1.84375 -0.25273,-0.0636 -1.17998,1.35247 -1.4375,1.3125 -0.25752,-0.04 -0.70864,-1.67146 -0.96875,-1.6875 z" id="path4191" />
      <path style="color:#000000;fill:#9e803a;fill-opacity:1;fill-rule:nonzero;stroke:none;stroke-width:0.80000001;marker:none;visibility:visible;display:inline;overflow:visible;enable-background:accumulate" d="m 298,590.21875 -1,1.21875 -1.0625,-1.15625 -0.75,1.40625 -1.25,-0.9375 -0.5,1.46875 -1.40625,-0.6875 -0.21875,1.5625 -1.5,-0.40625 0.0625,1.5625 -1.5625,-0.125 0.375,1.53125 -1.5625,0.15625 0.625,1.4375 -1.5,0.4375 0.90625,1.28125 -1.40625,0.71875 1.125,1.125 -1.25,0.9375 1.3125,0.875 -1.0625,1.1875 1.4375,0.625 -0.8125,1.34375 1.53125,0.34375 -0.25,0.625 18.625,0 -0.53125,-1.1875 1.5,-0.4375 -0.875,-1.28125 1.40625,-0.71875 -1.125,-1.09375 1.25,-0.96875 -1.3125,-0.875 L 308.25,599 l -1.4375,-0.625 0.8125,-1.34375 -1.53125,-0.34375 0.5625,-1.46875 -1.5625,-0.0625 0.28125,-1.53125 -1.5625,0.21875 -0.0312,-1.5625 -1.46875,0.5 L 302,591.21875 300.625,592 300.0625,590.53125 298.84375,591.5625 298,590.21875 z" id="path4195" />
      <path style="color:#000000;fill:#f0c86d;fill-opacity:1;fill-rule:nonzero;stroke:none;stroke-width:0.80000001;marker:none;visibility:visible;display:inline;overflow:visible;enable-background:accumulate" d="m 298,590.21875 -0.875,4.65625 -1.1875,-4.59375 -0.0312,4.71875 -1.96875,-4.25 0.84375,4.625 -2.75,-3.84375 1.65625,4.40625 -3.375,-3.25 2.4375,4.03125 -3.9375,-2.59375 3.15625,3.5 -4.34375,-1.8125 3.75,2.875 -4.625,-1 4.21875,2.125 -4.71875,-0.125 4.53125,1.3125 -4.65625,0.75 4.6875,0.46875 -4.4375,1.59375 4.6875,-0.40625 -4.0625,2.375 4.5625,-1.28125 -2.625,2.25 0.78125,0 2.5,-1.21875 -0.96875,1.21875 1.3125,0 0.5,-0.375 -0.1875,0.375 9.375,0 -0.375,-0.625 0.96875,0.625 1.25,0 -1.4375,-1.5625 3.78125,1.5625 0.25,0 -3.40625,-2.59375 4.59375,0.96875 -4.1875,-2.125 4.71875,0.125 -4.53125,-1.3125 4.65625,-0.75 -4.71875,-0.46875 L 308.25,599 l -4.6875,0.4375 4.0625,-2.40625 -4.53125,1.28125 3.5625,-3.09375 -4.21875,2.09375 2.9375,-3.6875 -3.78125,2.8125 2.1875,-4.15625 -3.1875,3.46875 1.40625,-4.53125 -2.5,4 0.5625,-4.6875 -1.75,4.40625 L 298,590.21875 z" id="path4193" />
      <path style="color:#000000;fill:#4d4d4d;stroke:none;stroke-width:0.2;marker:none;visibility:visible;display:inline;overflow:visible;enable-background:accumulate" d="m 294.19643,601.82646 c -1.99397,-2.07322 0.11007,-4.52828 2.86019,-4.52828 2.75012,0 5.0467,2.211 3.21124,4.52831 z" id="path4209" />
      <path style="color:#000000;fill:#000000;fill-opacity:1;fill-rule:nonzero;stroke:none;stroke-width:0.80000001;marker:none;visibility:visible;display:inline;overflow:visible;enable-background:accumulate" d="m 297.3125,600.03125 c -2.9631,0 -3.54147,0.91018 -4.21875,2.28125 -0.67728,1.37107 -1.71474,2.04031 -3.125,2.90625 -1.41027,0.86592 -3.91311,0.19169 -4.4375,0.71875 -1.40796,1.41511 2.50893,4.61725 5.1875,5.21875 2.67857,0.60151 4.38281,0.71819 6.59375,0.71875 2.22129,5.6e-4 3.94643,-0.11724 6.625,-0.71875 2.67857,-0.6015 6.56421,-3.80364 5.15625,-5.21875 -0.52439,-0.52706 -2.99598,0.14717 -4.40625,-0.71875 -1.41026,-0.86594 -2.44772,-1.53518 -3.125,-2.90625 -0.67728,-1.37107 -1.2869,-2.28125 -4.25,-2.28125 z" id="path4197" />
    </g>
    <path id="path4243" d="m 104.1572,902.20593 c 0,0 -0.25,1.89483 -0.25,3.03125 0,1.13642 0.50761,2.65625 -0.25,2.65625 l -2.53125,0 1.78125,0.90625 -2.15625,0.375 2.53125,0.625 -6.3125,1.625 c 0,0 2.16085,-0.1212 4.8125,-0.5 2.65165,-0.37881 4.64864,0.64483 5.40625,1.78125 0.75762,1.13643 3.67989,1.49746 4.4375,1.75 0.75762,0.25254 -0.77363,0.77491 -1.53125,1.40625 -0.21271,0.17726 -0.32155,0.34805 -0.375,0.53125 2.80883,-0.70753 5.40875,-1.73729 6.4375,-2.9375 0.81966,-0.95628 1.35609,-1.36086 0.71463,-2.43591 -0.69413,0.1999 -1.1838,1.16498 -2.02903,1.53315 -1.25218,0.54543 -2.85406,0.91038 -4.7481,0.15276 -1.89403,-0.75761 -3.03332,-1.78743 -5.9375,-10.5 z" style="color:#000000;fill:#000000;fill-opacity:1;fill-rule:nonzero;stroke:none;stroke-width:0.2;marker:none;visibility:visible;display:inline;overflow:visible;enable-background:accumulate" />
  </g>
</svg>
